<svg width="154" height="141" viewBox="0 0 154 141" fill="none" xmlns="http://www.w3.org/2000/svg">
<path d="M10.1439 126.963L9.46901 127.768C8.83194 127.452 8.19228 127.373 7.55003 127.528C6.90778 127.684 6.34368 128.051 5.85773 128.63C5.11381 129.517 4.88406 130.487 5.16848 131.542C5.41509 132.468 6.02459 133.339 6.99695 134.155C8.08371 135.067 9.15893 135.506 10.2226 135.473C11.1405 135.439 11.9174 135.043 12.5533 134.285C13.1413 133.584 13.3954 132.817 13.3158 131.982C13.2454 131.253 12.9203 130.566 12.3405 129.921L12.9704 129.171C13.5502 129.815 13.925 130.465 14.0949 131.119C14.4632 132.452 14.1614 133.697 13.1895 134.855C12.2536 135.971 11.1202 136.494 9.78918 136.425C8.6314 136.367 7.47696 135.855 6.32585 134.889C5.00314 133.78 4.2777 132.568 4.14951 131.254C4.03028 130.118 4.39061 129.05 5.23052 128.049C5.93845 127.205 6.76232 126.703 7.70216 126.541C8.5248 126.403 9.33873 126.543 10.1439 126.963ZM20.7377 125.511L20.1618 126.198L19.3789 125.541C19.6469 126.485 19.472 127.325 18.8541 128.061C18.3141 128.705 17.7131 129.029 17.0511 129.034C16.5551 129.044 16.0033 128.794 15.3955 128.284L11.599 125.099L12.175 124.412L15.8213 127.472C16.3361 127.904 16.7686 128.114 17.1188 128.104C17.5561 128.105 17.9548 127.891 18.3148 127.462C18.7167 126.983 18.8918 126.448 18.84 125.856C18.7917 125.304 18.4673 124.776 17.8667 124.272L14.5957 121.527L15.1716 120.841L20.7377 125.511ZM23.6441 116.624L20.1525 120.786C20.914 121.388 21.6408 121.669 22.3329 121.628C22.9401 121.602 23.4596 121.331 23.8916 120.816C24.5695 120.008 24.5995 119.101 23.9815 118.095L24.5664 117.398C25.5019 118.853 25.4748 120.171 24.4849 121.351C23.7949 122.173 22.9679 122.563 22.0036 122.522C21.1517 122.477 20.3111 122.107 19.4817 121.411C18.5308 120.613 17.9961 119.725 17.8775 118.749C17.7836 117.902 18.0276 117.132 18.6095 116.439C19.2634 115.659 20.0528 115.292 20.9776 115.337C21.7889 115.372 22.5949 115.726 23.3957 116.398C23.4457 116.44 23.5285 116.515 23.6441 116.624ZM22.4925 116.864C21.8822 116.401 21.2896 116.178 20.7148 116.195C20.1327 116.206 19.6378 116.455 19.2298 116.941C18.8218 117.427 18.6533 117.962 18.7242 118.545C18.788 119.123 19.0872 119.703 19.6218 120.285L22.4925 116.864ZM22.2671 112.385L22.843 111.698L23.8134 112.568C23.3324 111.689 23.4189 110.86 24.0728 110.08C24.1208 110.023 24.2024 109.933 24.3175 109.811L25.0163 110.415C24.9049 110.504 24.8312 110.571 24.7952 110.613C24.3524 111.156 24.2118 111.744 24.3733 112.379C24.5042 112.891 24.8735 113.402 25.4813 113.912L28.4091 116.369L27.8332 117.055L22.2671 112.385ZM25.6414 108.363L26.2173 107.677L27.0217 108.352C26.7813 107.346 26.9731 106.472 27.597 105.728C28.2509 104.949 29.057 104.583 30.0152 104.632C30.848 104.685 31.6683 105.05 32.4763 105.728C33.4343 106.532 33.9822 107.418 34.1199 108.387C34.2342 109.238 34.0093 110 33.4454 110.672C32.8634 111.365 32.0377 111.696 30.9683 111.664L33.5529 113.832L32.977 114.519L25.6414 108.363ZM28.1633 106.295C27.6714 106.881 27.5293 107.529 27.7373 108.24C27.9108 108.861 28.3336 109.453 29.0057 110.017C29.7707 110.659 30.5141 110.978 31.2359 110.974C31.8574 110.96 32.3811 110.699 32.8071 110.191C33.299 109.605 33.4476 108.956 33.2528 108.244C33.0733 107.63 32.6475 107.042 31.9754 106.478C31.2032 105.83 30.4598 105.511 29.7451 105.52C29.1225 105.522 28.5953 105.78 28.1633 106.295ZM33.0136 99.2726C33.7036 98.4504 34.5504 98.0583 35.5541 98.0964C36.4311 98.1257 37.2807 98.4853 38.1029 99.1752C39.0396 99.9611 39.5576 100.847 39.657 101.832C39.7389 102.692 39.4799 103.48 38.88 104.195C38.1901 105.017 37.3433 105.409 36.3396 105.371C35.4625 105.342 34.6165 104.985 33.8014 104.302C32.8576 103.51 32.336 102.621 32.2366 101.636C32.1547 100.775 32.4137 99.9876 33.0136 99.2726ZM33.6249 99.7856C33.127 100.379 32.9766 101.045 33.1736 101.783C33.3423 102.424 33.7556 103.02 34.4133 103.572C35.1641 104.202 35.9129 104.508 36.6599 104.489C37.2945 104.473 37.8307 104.204 38.2687 103.682C38.7666 103.089 38.9171 102.423 38.72 101.685C38.5513 101.044 38.1416 100.45 37.491 99.9045C36.7403 99.2745 35.9915 98.9691 35.2445 98.988C34.5967 99.005 34.0569 99.2708 33.6249 99.7856Z" fill="#666666"/>
<path d="M51.3538 127.889L48.5191 131.267L50.178 134.213L49.521 134.996L44.3349 125.582L45.0099 124.777L55.2264 128.196L54.5605 128.99L51.3538 127.889ZM50.5355 127.623L45.4435 125.872L48.0968 130.529L50.5355 127.623ZM56.3102 119.107L55.7253 119.804C55.2649 119.54 54.8099 119.451 54.3603 119.536C53.9107 119.622 53.5119 119.872 53.1639 120.287C52.66 120.888 52.5024 121.547 52.6912 122.266C52.8587 122.894 53.2678 123.481 53.9185 124.027C54.6906 124.675 55.4502 124.989 56.1971 124.97C56.8449 124.953 57.3878 124.684 57.8257 124.162C58.5696 123.275 58.5167 122.329 57.6668 121.324L58.2248 120.659C58.8438 121.373 59.1532 122.108 59.153 122.863C59.1376 123.521 58.89 124.135 58.41 124.707C57.7261 125.522 56.8954 125.91 55.918 125.869C55.0661 125.825 54.2255 125.454 53.3961 124.758C52.4452 123.96 51.92 123.069 51.8206 122.084C51.7327 121.23 51.9857 120.45 52.5796 119.742C53.1196 119.098 53.75 118.732 54.4709 118.642C55.1009 118.574 55.714 118.729 56.3102 119.107ZM56.5924 115.265L62.1585 119.935L61.5735 120.632L56.0075 115.962L56.5924 115.265ZM54.3311 113.952C54.4211 113.845 54.5384 113.785 54.683 113.772C54.8277 113.759 54.9572 113.801 55.0716 113.897C55.1788 113.987 55.2424 114.107 55.2622 114.258C55.2748 114.403 55.2362 114.529 55.1462 114.636C55.0502 114.75 54.9299 114.814 54.7852 114.826C54.6334 114.833 54.5039 114.791 54.3967 114.701C54.2823 114.605 54.2188 114.485 54.2061 114.34C54.1934 114.196 54.2351 114.066 54.3311 113.952ZM60.1282 106.76L67.807 113.203L67.2221 113.9L66.4177 113.226C66.6701 114.217 66.4873 115.081 65.8694 115.817C65.2094 116.604 64.3866 116.967 63.4009 116.908C62.5419 116.857 61.7013 116.487 60.879 115.797C59.9496 115.017 59.4225 114.142 59.298 113.173C59.198 112.333 59.4331 111.574 60.003 110.895C60.6209 110.159 61.4472 109.835 62.4818 109.923L59.5432 107.457L60.1282 106.76ZM60.6323 111.387C60.1403 111.973 59.9953 112.625 60.1972 113.342C60.3708 113.963 60.7936 114.556 61.4657 115.12C62.2379 115.768 62.9813 116.087 63.6959 116.077C64.3174 116.063 64.8441 115.798 65.2761 115.283C65.744 114.725 65.9032 114.122 65.7536 113.472C65.6029 112.81 65.1629 112.173 64.4336 111.561C63.6686 110.919 62.9288 110.603 62.2141 110.612C61.5915 110.614 61.0642 110.872 60.6323 111.387ZM70.724 104.304L67.2323 108.465C67.9939 109.067 68.7207 109.348 69.4128 109.308C70.0199 109.281 70.5395 109.01 70.9715 108.496C71.6494 107.688 71.6793 106.781 71.0613 105.775L71.6463 105.078C72.5818 106.533 72.5547 107.85 71.5648 109.03C70.8748 109.852 70.0477 110.243 69.0835 110.201C68.2316 110.156 67.391 109.786 66.5616 109.09C65.6107 108.292 65.0759 107.405 64.9574 106.428C64.8634 105.582 65.1075 104.812 65.6894 104.118C66.3433 103.339 67.1327 102.972 68.0575 103.017C68.8688 103.052 69.6748 103.405 70.4756 104.077C70.5256 104.119 70.6084 104.195 70.724 104.304ZM69.5724 104.544C68.9621 104.08 68.3695 103.857 67.7946 103.874C67.2126 103.886 66.7176 104.134 66.3097 104.62C65.9017 105.107 65.7332 105.641 65.8041 106.225C65.8679 106.802 66.1671 107.382 66.7017 107.965L69.5724 104.544ZM77.6061 100.306L78.2067 100.809L74.4811 105.249L73.977 104.827L72.4043 97.6403L69.7226 100.836L69.122 100.332L72.5236 96.2784L73.0599 96.7284L74.6184 103.866L77.6061 100.306Z" fill="#666666"/>
<path d="M82.2025 137.834L74.5237 131.391L76.8724 128.592C77.9163 127.348 79.051 126.801 80.2766 126.952C81.3481 127.084 82.4129 127.594 83.4711 128.482C84.6007 129.429 85.3011 130.468 85.5721 131.597C85.7182 132.207 85.7001 132.795 85.5177 133.361C85.3414 133.919 84.9742 134.531 84.4163 135.196L82.2025 137.834ZM82.1872 136.524L83.6181 134.819C84.122 134.218 84.4476 133.699 84.5949 133.262C84.7482 132.818 84.7659 132.34 84.6482 131.827C84.4242 130.932 83.826 130.077 82.8536 129.261C81.7454 128.331 80.7342 127.866 79.82 127.867C79.005 127.865 78.2285 128.304 77.4906 129.184L75.8168 131.178L82.1872 136.524ZM92.4786 125.588L91.9027 126.274L91.1198 125.617C91.3879 126.561 91.2129 127.401 90.595 128.137C90.055 128.781 89.454 129.105 88.792 129.11C88.296 129.12 87.7442 128.87 87.1364 128.36L83.3399 125.175L83.9159 124.488L87.5622 127.548C88.077 127.98 88.5095 128.191 88.8597 128.18C89.297 128.181 89.6957 127.968 90.0557 127.539C90.4576 127.06 90.6327 126.524 90.581 125.933C90.5326 125.38 90.2082 124.852 89.6076 124.348L86.3366 121.603L86.9125 120.917L92.4786 125.588ZM87.1819 116.305L94.8608 122.749L94.2488 123.478L86.57 117.035L87.1819 116.305ZM99.3231 116.211L99.9237 116.715L96.1981 121.155L95.694 120.732L94.1213 113.546L91.4396 116.742L90.839 116.238L94.2406 112.184L94.7769 112.634L96.3354 119.772L99.3231 116.211ZM104.728 110.989L104.152 111.676L103.369 111.019C103.637 111.962 103.462 112.802 102.845 113.539C102.305 114.182 101.704 114.507 101.042 114.511C100.546 114.522 99.9937 114.272 99.386 113.762L95.5895 110.576L96.1654 109.89L99.8118 112.95C100.327 113.382 100.759 113.592 101.109 113.581C101.547 113.583 101.945 113.369 102.305 112.94C102.707 112.461 102.882 111.926 102.831 111.334C102.782 110.782 102.458 110.254 101.857 109.75L98.5862 107.005L99.1621 106.319L104.728 110.989ZM100.932 104.209L101.508 103.523L102.479 104.392C101.998 103.513 102.084 102.684 102.738 101.905C102.786 101.847 102.868 101.757 102.983 101.635L103.682 102.239C103.57 102.329 103.496 102.395 103.46 102.438C103.018 102.98 102.877 103.568 103.039 104.204C103.169 104.716 103.539 105.226 104.147 105.736L107.074 108.193L106.498 108.879L100.932 104.209ZM106.541 100.966L105.929 101.695C104.723 100.635 104.729 99.3789 105.947 97.9275C107.093 96.5619 108.224 96.347 109.339 97.2829L112.46 99.9017C112.732 100.13 112.943 100.154 113.092 99.9755C113.152 99.904 113.205 99.747 113.25 99.5046L113.851 100.009C113.743 100.296 113.627 100.515 113.501 100.665C113.081 101.166 112.617 101.203 112.109 100.777L111.981 100.669C112.271 101.644 112.033 102.589 111.265 103.504C110.755 104.112 110.201 104.445 109.603 104.504C109.084 104.556 108.593 104.387 108.128 103.997C107.62 103.571 107.361 103.067 107.35 102.485C107.344 102.042 107.538 101.498 107.932 100.854L109.337 98.5054C109.293 98.4563 109.246 98.4107 109.196 98.3687C108.595 97.8648 108.114 97.6253 107.751 97.6504C107.388 97.6623 106.982 97.9364 106.532 98.4726C106.124 98.9588 105.921 99.4039 105.923 99.8078C105.924 100.199 106.13 100.585 106.541 100.966ZM109.911 98.9322L108.611 101.222C108.103 102.088 108.139 102.764 108.718 103.25C109.04 103.52 109.39 103.625 109.77 103.565C110.141 103.5 110.483 103.281 110.795 102.909C111.395 102.194 111.58 101.429 111.35 100.615C111.234 100.201 110.969 99.8201 110.554 99.4722L109.911 98.9322Z" fill="#666666"/>
<path d="M125.147 116.847L125.801 117.396L122.355 121.503L125.089 123.798L128.104 120.205L128.758 120.754L125.744 124.347L129.379 127.397L128.74 128.159L121.061 121.716L125.147 116.847ZM128.568 117.06L129.144 116.374L130.115 117.243C129.634 116.364 129.72 115.535 130.374 114.756C130.422 114.698 130.504 114.608 130.619 114.486L131.317 115.09C131.206 115.18 131.132 115.246 131.096 115.289C130.654 115.831 130.513 116.419 130.674 117.055C130.805 117.566 131.175 118.077 131.782 118.587L134.71 121.044L134.134 121.73L128.568 117.06ZM141.081 113.451L140.505 114.138L139.722 113.481C139.99 114.425 139.816 115.265 139.198 116.001C138.658 116.645 138.057 116.969 137.395 116.974C136.899 116.984 136.347 116.734 135.739 116.224L131.943 113.039L132.518 112.352L136.165 115.412C136.68 115.844 137.112 116.054 137.462 116.044C137.9 116.045 138.298 115.831 138.658 115.402C139.06 114.923 139.235 114.388 139.184 113.796C139.135 113.244 138.811 112.716 138.21 112.212L134.939 109.467L135.515 108.781L141.081 113.451ZM138.905 104.741L139.463 105.209L138.599 106.238L142.524 109.532C142.71 109.688 142.863 109.767 142.982 109.77C143.101 109.76 143.226 109.676 143.358 109.519C143.508 109.34 143.637 109.113 143.745 108.839L144.488 109.261C144.257 109.725 144.039 110.079 143.835 110.322C143.553 110.658 143.273 110.825 142.995 110.822C142.716 110.82 142.377 110.651 141.977 110.315L137.987 106.968L137.321 107.761L136.763 107.293L137.429 106.5L136.282 105.537L136.422 104.412L138.041 105.77L138.905 104.741ZM142.481 103.921L141.869 104.65C140.663 103.589 140.669 102.333 141.887 100.882C143.033 99.5165 144.164 99.3016 145.279 100.238L148.4 102.856C148.672 103.084 148.883 103.109 149.032 102.93C149.092 102.859 149.145 102.702 149.19 102.459L149.791 102.963C149.683 103.251 149.567 103.47 149.441 103.62C149.021 104.12 148.557 104.158 148.049 103.732L147.921 103.624C148.211 104.599 147.973 105.544 147.205 106.459C146.695 107.066 146.141 107.4 145.543 107.459C145.024 107.511 144.533 107.342 144.068 106.952C143.56 106.526 143.301 106.022 143.29 105.44C143.284 104.996 143.478 104.453 143.872 103.809L145.277 101.46C145.233 101.411 145.186 101.365 145.136 101.323C144.535 100.819 144.054 100.58 143.691 100.605C143.328 100.617 142.922 100.891 142.472 101.427C142.064 101.913 141.861 102.358 141.863 102.762C141.864 103.153 142.07 103.539 142.481 103.921ZM145.851 101.887L144.551 104.177C144.043 105.043 144.079 105.719 144.658 106.205C144.98 106.474 145.33 106.58 145.71 106.52C146.081 106.454 146.423 106.236 146.735 105.864C147.335 105.149 147.52 104.384 147.29 103.569C147.174 103.156 146.909 102.775 146.494 102.427L145.851 101.887ZM144.062 94.3043L151.741 100.748L151.129 101.477L143.45 95.0335L144.062 94.3043Z" fill="#666666"/>
<path d="M20.2856 15.085C22.4948 15.085 24.2856 16.8758 24.2856 19.085V75.085C22.0765 75.085 20.2856 73.2941 20.2856 71.085V15.085Z" fill="black"/>
<path d="M20.2856 0C22.4948 0 24.2856 1.79086 24.2856 4V15C22.0765 15 20.2856 13.2091 20.2856 11V0Z" fill="#E1E1E1"/>
<path d="M134.286 30.085C136.495 30.085 138.286 31.8758 138.286 34.085V75.085C136.077 75.085 134.286 73.2941 134.286 71.085V30.085Z" fill="black"/>
<path d="M134.286 15.085C136.495 15.085 138.286 16.8758 138.286 19.085V30.085C136.077 30.085 134.286 28.2941 134.286 26.085V15.085Z" fill="#E1E1E1"/>
<path d="M134.286 0C136.495 0 138.286 1.79086 138.286 4V15C136.077 15 134.286 13.2091 134.286 11V0Z" fill="#E1E1E1"/>
<path d="M58.2856 30.085C60.4948 30.085 62.2856 31.8758 62.2856 34.085V75.085C60.0765 75.085 58.2856 73.2941 58.2856 71.085V30.085Z" fill="black"/>
<path d="M58.2856 15.085C60.4948 15.085 62.2856 16.8758 62.2856 19.085V30.085C60.0765 30.085 58.2856 28.2941 58.2856 26.085V15.085Z" fill="#E1E1E1"/>
<path d="M58.2856 0C60.4948 0 62.2856 1.79086 62.2856 4V15C60.0765 15 58.2856 13.2091 58.2856 11V0Z" fill="#E1E1E1"/>
<path d="M96.2856 60.085C98.4948 60.085 100.286 61.8758 100.286 64.085V75.085C98.0765 75.085 96.2856 73.2941 96.2856 71.085V60.085Z" fill="black"/>
<path d="M96.2856 45.085C98.4948 45.085 100.286 46.8758 100.286 49.085V60.085C98.0765 60.085 96.2856 58.2941 96.2856 56.085V45.085Z" fill="#E1E1E1"/>
<path d="M96.2856 30.085C98.4948 30.085 100.286 31.8758 100.286 34.085V45.085C98.0765 45.085 96.2856 43.2941 96.2856 41.085V30.085Z" fill="#E1E1E1"/>
<path d="M96.2856 15.085C98.4948 15.085 100.286 16.8758 100.286 19.085V30.085C98.0765 30.085 96.2856 28.2941 96.2856 26.085V15.085Z" fill="#E1E1E1"/>
<path d="M96.2856 0C98.4948 0 100.286 1.79086 100.286 4V15C98.0765 15 96.2856 13.2091 96.2856 11V0Z" fill="#E1E1E1"/>
</svg>
