<svg width="50" height="50" viewBox="0 0 50 50" fill="none" xmlns="http://www.w3.org/2000/svg">
<path fill-rule="evenodd" clip-rule="evenodd" d="M10 19.5C10 18.6716 10.6716 18 11.5 18H38.5C39.3284 18 40 18.6716 40 19.5C40 20.3284 39.3284 21 38.5 21H11.5C10.6716 21 10 20.3284 10 19.5Z" fill="#D7CFB9"/>
<path fill-rule="evenodd" clip-rule="evenodd" d="M10 30.5C10 29.6716 10.6716 29 11.5 29L26.2273 29C27.0557 29 27.7273 29.6716 27.7273 30.5C27.7273 31.3284 27.0557 32 26.2273 32L11.5 32C10.6716 32 10 31.3284 10 30.5Z" fill="#D7CFB9"/>
</svg>
