<svg width="155" height="140" viewBox="0 0 155 140" fill="none" xmlns="http://www.w3.org/2000/svg">
<path d="M10.1439 125.943L9.46901 126.747C8.83194 126.432 8.19228 126.352 7.55003 126.508C6.90778 126.663 6.34368 127.031 5.85773 127.61C5.11381 128.496 4.88406 129.467 5.16848 130.522C5.41509 131.448 6.02459 132.319 6.99695 133.135C8.08371 134.047 9.15893 134.486 10.2226 134.452C11.1405 134.418 11.9174 134.023 12.5533 133.265C13.1413 132.564 13.3954 131.796 13.3158 130.962C13.2454 130.233 12.9203 129.546 12.3405 128.901L12.9704 128.15C13.5502 128.795 13.925 129.445 14.0949 130.099C14.4632 131.431 14.1614 132.677 13.1895 133.835C12.2536 134.95 11.1202 135.474 9.78918 135.405C8.6314 135.347 7.47696 134.835 6.32585 133.869C5.00314 132.759 4.2777 131.547 4.14951 130.234C4.03028 129.098 4.39061 128.03 5.23052 127.029C5.93845 126.185 6.76232 125.682 7.70216 125.521C8.5248 125.382 9.33873 125.523 10.1439 125.943ZM20.7377 124.491L20.1618 125.177L19.3789 124.521C19.6469 125.464 19.472 126.304 18.8541 127.041C18.3141 127.684 17.7131 128.008 17.0511 128.013C16.5551 128.024 16.0033 127.774 15.3955 127.264L11.599 124.078L12.175 123.392L15.8213 126.452C16.3361 126.883 16.7686 127.094 17.1188 127.083C17.5561 127.085 17.9548 126.871 18.3148 126.442C18.7167 125.963 18.8918 125.428 18.84 124.836C18.7917 124.284 18.4673 123.756 17.8667 123.252L14.5957 120.507L15.1716 119.821L20.7377 124.491ZM23.6441 115.604L20.1525 119.765C20.914 120.368 21.6408 120.649 22.3329 120.608C22.9401 120.581 23.4596 120.311 23.8916 119.796C24.5695 118.988 24.5995 118.081 23.9815 117.075L24.5664 116.378C25.5019 117.833 25.4748 119.151 24.4849 120.33C23.7949 121.153 22.9679 121.543 22.0036 121.501C21.1517 121.457 20.3111 121.086 19.4817 120.39C18.5308 119.592 17.9961 118.705 17.8775 117.728C17.7836 116.882 18.0276 116.112 18.6095 115.419C19.2634 114.639 20.0528 114.272 20.9776 114.317C21.7889 114.352 22.5949 114.706 23.3957 115.377C23.4457 115.419 23.5285 115.495 23.6441 115.604ZM22.4925 115.844C21.8822 115.381 21.2896 115.158 20.7148 115.175C20.1327 115.186 19.6378 115.435 19.2298 115.921C18.8218 116.407 18.6533 116.942 18.7242 117.525C18.788 118.103 19.0872 118.683 19.6218 119.265L22.4925 115.844ZM22.2671 111.365L22.843 110.678L23.8134 111.547C23.3324 110.668 23.4189 109.839 24.0728 109.06C24.1208 109.003 24.2024 108.913 24.3175 108.79L25.0163 109.395C24.9049 109.484 24.8312 109.55 24.7952 109.593C24.3524 110.135 24.2118 110.724 24.3733 111.359C24.5042 111.871 24.8735 112.382 25.4813 112.892L28.4091 115.349L27.8332 116.035L22.2671 111.365ZM25.6414 107.343L26.2173 106.657L27.0217 107.332C26.7813 106.326 26.9731 105.451 27.597 104.708C28.2509 103.928 29.057 103.563 30.0152 103.612C30.848 103.665 31.6683 104.03 32.4763 104.708C33.4343 105.512 33.9822 106.398 34.1199 107.367C34.2342 108.218 34.0093 108.98 33.4454 109.652C32.8634 110.345 32.0377 110.676 30.9683 110.643L33.5529 112.812L32.977 113.499L25.6414 107.343ZM28.1633 105.274C27.6714 105.861 27.5293 106.509 27.7373 107.219C27.9108 107.84 28.3336 108.433 29.0057 108.997C29.7707 109.639 30.5141 109.958 31.2359 109.954C31.8574 109.94 32.3811 109.678 32.8071 109.171C33.299 108.585 33.4476 107.936 33.2528 107.224C33.0733 106.61 32.6475 106.021 31.9754 105.457C31.2032 104.81 30.4598 104.49 29.7451 104.5C29.1225 104.501 28.5953 104.759 28.1633 105.274ZM33.0136 98.2524C33.7036 97.4302 34.5504 97.0381 35.5541 97.0761C36.4311 97.1054 37.2807 97.465 38.1029 98.1549C39.0396 98.9408 39.5576 99.8263 39.657 100.811C39.7389 101.672 39.4799 102.46 38.88 103.175C38.1901 103.997 37.3433 104.389 36.3396 104.351C35.4625 104.322 34.6165 103.965 33.8014 103.281C32.8576 102.489 32.336 101.601 32.2366 100.616C32.1547 99.7552 32.4137 98.9674 33.0136 98.2524ZM33.6249 98.7653C33.127 99.3588 32.9766 100.024 33.1736 100.762C33.3423 101.404 33.7556 102 34.4133 102.552C35.1641 103.182 35.9129 103.487 36.6599 103.468C37.2945 103.453 37.8307 103.184 38.2687 102.662C38.7666 102.068 38.9171 101.403 38.72 100.665C38.5513 100.024 38.1416 99.4301 37.491 98.8842C36.7403 98.2543 35.9915 97.9488 35.2445 97.9678C34.5967 97.9847 34.0569 98.2505 33.6249 98.7653Z" fill="#666666"/>
<path d="M51.3895 126.869L48.5548 130.247L50.2136 133.193L49.5567 133.975L44.3706 124.561L45.0455 123.757L55.2621 127.176L54.5961 127.97L51.3895 126.869ZM50.5712 126.603L45.4792 124.852L48.1324 129.509L50.5712 126.603ZM56.3459 118.087L55.761 118.784C55.3006 118.52 54.8456 118.43 54.396 118.516C53.9463 118.602 53.5476 118.852 53.1996 119.267C52.6956 119.867 52.5381 120.527 52.7268 121.246C52.8944 121.874 53.3035 122.461 53.9541 123.007C54.7263 123.655 55.4858 123.969 56.2328 123.95C56.8805 123.933 57.4234 123.664 57.8613 123.142C58.6053 122.255 58.5523 121.309 57.7025 120.304L58.2604 119.639C58.8794 120.353 59.1888 121.088 59.1886 121.843C59.1733 122.5 58.9256 123.115 58.4457 123.687C57.7617 124.502 56.9311 124.889 55.9537 124.849C55.1018 124.804 54.2612 124.434 53.4318 123.738C52.4809 122.94 51.9557 122.049 51.8563 121.064C51.7683 120.21 52.0213 119.429 52.6153 118.722C53.1552 118.078 53.7856 117.712 54.5065 117.622C55.1365 117.554 55.7497 117.709 56.3459 118.087ZM56.628 114.244L62.1941 118.915L61.6092 119.612L56.0431 114.941L56.628 114.244ZM54.3667 112.932C54.4567 112.824 54.5741 112.764 54.7187 112.752C54.8633 112.739 54.9929 112.781 55.1072 112.877C55.2145 112.967 55.278 113.087 55.2978 113.238C55.3105 113.382 55.2718 113.508 55.1818 113.616C55.0858 113.73 54.9655 113.793 54.8209 113.806C54.6691 113.813 54.5396 113.771 54.4323 113.681C54.3179 113.585 54.2544 113.465 54.2417 113.32C54.2291 113.176 54.2708 113.046 54.3667 112.932ZM60.1638 105.74L67.8426 112.183L67.2577 112.88L66.4533 112.205C66.7057 113.197 66.5229 114.061 65.905 114.797C65.2451 115.584 64.4223 115.947 63.4366 115.888C62.5775 115.837 61.7369 115.467 60.9147 114.777C59.9852 113.997 59.4582 113.122 59.3336 112.152C59.2337 111.313 59.4687 110.554 60.0386 109.875C60.6566 109.138 61.4828 108.814 62.5174 108.903L59.5789 106.437L60.1638 105.74ZM60.6679 110.366C60.176 110.953 60.031 111.605 60.2329 112.322C60.4064 112.943 60.8293 113.535 61.5013 114.099C62.2735 114.747 63.0169 115.066 63.7316 115.057C64.353 115.042 64.8797 114.778 65.3117 114.263C65.7796 113.705 65.9388 113.102 65.7893 112.452C65.6386 111.79 65.1986 111.152 64.4693 110.54C63.7043 109.899 62.9644 109.582 62.2498 109.592C61.6272 109.593 61.0999 109.851 60.6679 110.366ZM70.7596 103.284L67.268 107.445C68.0296 108.047 68.7564 108.328 69.4484 108.287C70.0556 108.261 70.5751 107.99 71.0071 107.475C71.685 106.667 71.715 105.76 71.097 104.755L71.6819 104.057C72.6175 105.513 72.5903 106.83 71.6004 108.01C70.9105 108.832 70.0834 109.222 69.1192 109.181C68.2673 109.136 67.4266 108.766 66.5973 108.07C65.6463 107.272 65.1116 106.385 64.993 105.408C64.8991 104.561 65.1431 103.791 65.725 103.098C66.379 102.319 67.1683 101.951 68.0931 101.996C68.9044 102.031 69.7104 102.385 70.5112 103.057C70.5613 103.099 70.6441 103.174 70.7596 103.284ZM69.608 103.523C68.9977 103.06 68.4051 102.837 67.8303 102.854C67.2483 102.865 66.7533 103.114 66.3453 103.6C65.9374 104.086 65.7689 104.621 65.8398 105.205C65.9035 105.782 66.2027 106.362 66.7373 106.945L69.608 103.523ZM77.6418 99.2853L78.2423 99.7892L74.5167 104.229L74.0127 103.806L72.4399 96.6201L69.7582 99.816L69.1576 99.3121L72.5593 95.2582L73.0955 95.7081L74.6541 102.846L77.6418 99.2853Z" fill="#666666"/>
<path d="M82.3446 136.814L74.6658 130.371L77.0145 127.572C78.0584 126.327 79.1931 125.781 80.4187 125.932C81.4902 126.064 82.555 126.573 83.6132 127.461C84.7428 128.409 85.4432 129.448 85.7142 130.577C85.8603 131.187 85.8422 131.774 85.6598 132.34C85.4834 132.899 85.1163 133.511 84.5584 134.176L82.3446 136.814ZM82.3293 135.504L83.7602 133.798C84.2641 133.198 84.5897 132.679 84.737 132.242C84.8903 131.798 84.908 131.32 84.7903 130.807C84.5663 129.912 83.9681 129.057 82.9957 128.241C81.8875 127.311 80.8763 126.846 79.9621 126.847C79.1471 126.845 78.3706 127.284 77.6327 128.163L75.9589 130.158L82.3293 135.504ZM92.6207 124.567L92.0448 125.254L91.2619 124.597C91.5299 125.541 91.355 126.381 90.7371 127.117C90.1971 127.761 89.5961 128.085 88.9341 128.09C88.4381 128.1 87.8863 127.85 87.2785 127.34L83.482 124.155L84.058 123.468L87.7043 126.528C88.2191 126.96 88.6516 127.17 89.0018 127.16C89.4391 127.161 89.8378 126.947 90.1978 126.518C90.5997 126.039 90.7748 125.504 90.723 124.912C90.6747 124.36 90.3503 123.832 89.7497 123.328L86.4787 120.583L87.0546 119.897L92.6207 124.567ZM87.324 115.285L95.0029 121.728L94.3909 122.458L86.7121 116.014L87.324 115.285ZM99.4652 115.191L100.066 115.695L96.3402 120.135L95.8361 119.712L94.2634 112.525L91.5817 115.721L90.9811 115.217L94.3827 111.164L94.919 111.614L96.4775 118.751L99.4652 115.191ZM104.87 109.969L104.294 110.655L103.511 109.998C103.78 110.942 103.605 111.782 102.987 112.519C102.447 113.162 101.846 113.486 101.184 113.491C100.688 113.502 100.136 113.252 99.5281 112.742L95.7316 109.556L96.3075 108.87L99.9539 111.929C100.469 112.361 100.901 112.572 101.251 112.561C101.689 112.563 102.087 112.349 102.447 111.92C102.849 111.441 103.024 110.905 102.973 110.314C102.924 109.762 102.6 109.233 101.999 108.729L98.7283 105.985L99.3042 105.298L104.87 109.969ZM101.074 103.189L101.65 102.502L102.621 103.371C102.14 102.493 102.226 101.664 102.88 100.884C102.928 100.827 103.01 100.737 103.125 100.614L103.824 101.219C103.712 101.308 103.639 101.374 103.603 101.417C103.16 101.96 103.019 102.548 103.181 103.183C103.312 103.695 103.681 104.206 104.289 104.716L107.216 107.173L106.64 107.859L101.074 103.189ZM106.683 99.9458L106.071 100.675C104.865 99.6146 104.871 98.3586 106.089 96.9072C107.235 95.5416 108.366 95.3268 109.481 96.2627L112.602 98.8814C112.874 99.1094 113.085 99.134 113.235 98.9552C113.295 98.8837 113.347 98.7268 113.392 98.4843L113.993 98.9883C113.885 99.2759 113.769 99.4948 113.643 99.645C113.223 100.145 112.759 100.183 112.251 99.7568L112.123 99.6488C112.413 100.624 112.175 101.569 111.407 102.484C110.897 103.092 110.343 103.425 109.745 103.484C109.226 103.536 108.735 103.367 108.27 102.977C107.762 102.551 107.503 102.047 107.492 101.465C107.486 101.022 107.68 100.478 108.075 99.834L109.479 97.4852C109.435 97.436 109.388 97.3905 109.338 97.3485C108.737 96.8445 108.256 96.6051 107.894 96.6301C107.53 96.6421 107.124 96.9161 106.674 97.4524C106.266 97.9385 106.063 98.3836 106.065 98.7875C106.066 99.1783 106.272 99.5644 106.683 99.9458ZM110.053 97.912L108.753 100.202C108.245 101.068 108.281 101.744 108.86 102.23C109.182 102.5 109.533 102.605 109.912 102.545C110.283 102.479 110.625 102.261 110.937 101.889C111.537 101.174 111.722 100.409 111.492 99.5946C111.376 99.1808 111.111 98.7999 110.696 98.4519L110.053 97.912Z" fill="#666666"/>
<path d="M125.254 115.826L125.909 116.375L122.462 120.483L125.197 122.778L128.211 119.185L128.866 119.734L125.851 123.327L129.487 126.377L128.848 127.139L121.169 120.695L125.254 115.826ZM128.676 116.04L129.252 115.353L130.222 116.223C129.741 115.344 129.827 114.515 130.481 113.735C130.529 113.678 130.611 113.588 130.726 113.466L131.425 114.07C131.313 114.159 131.24 114.226 131.204 114.268C130.761 114.811 130.62 115.399 130.782 116.034C130.913 116.546 131.282 117.057 131.89 117.567L134.818 120.024L134.242 120.71L128.676 116.04ZM141.189 112.431L140.613 113.118L139.83 112.461C140.098 113.405 139.923 114.245 139.305 114.981C138.765 115.625 138.164 115.949 137.502 115.954C137.006 115.964 136.454 115.714 135.846 115.204L132.05 112.019L132.626 111.332L136.272 114.392C136.787 114.824 137.22 115.034 137.57 115.024C138.007 115.025 138.406 114.811 138.766 114.382C139.168 113.903 139.343 113.368 139.291 112.776C139.243 112.224 138.918 111.696 138.318 111.192L135.047 108.447L135.623 107.761L141.189 112.431ZM139.013 103.721L139.57 104.189L138.706 105.218L142.632 108.512C142.817 108.668 142.97 108.747 143.09 108.75C143.208 108.74 143.333 108.656 143.465 108.499C143.615 108.32 143.744 108.093 143.853 107.819L144.595 108.241C144.364 108.705 144.147 109.058 143.943 109.301C143.661 109.638 143.381 109.804 143.102 109.802C142.824 109.8 142.484 109.631 142.084 109.295L138.094 105.948L137.429 106.741L136.871 106.273L137.537 105.48L136.389 104.517L136.529 103.391L138.149 104.75L139.013 103.721ZM142.588 102.9L141.977 103.63C140.771 102.569 140.777 101.313 141.995 99.8619C143.141 98.4963 144.271 98.2815 145.387 99.2174L148.507 101.836C148.779 102.064 148.99 102.089 149.14 101.91C149.2 101.838 149.252 101.681 149.297 101.439L149.898 101.943C149.791 102.231 149.674 102.45 149.548 102.6C149.128 103.1 148.664 103.137 148.157 102.711L148.028 102.603C148.319 103.578 148.08 104.523 147.312 105.439C146.802 106.046 146.248 106.38 145.651 106.439C145.132 106.491 144.64 106.322 144.175 105.932C143.668 105.506 143.408 105.002 143.397 104.42C143.391 103.976 143.586 103.433 143.98 102.789L145.384 100.44C145.34 100.391 145.293 100.345 145.243 100.303C144.642 99.7992 144.161 99.5598 143.799 99.5848C143.436 99.5967 143.029 99.8708 142.579 100.407C142.171 100.893 141.968 101.338 141.97 101.742C141.971 102.133 142.177 102.519 142.588 102.9ZM145.958 100.867L144.658 103.157C144.151 104.023 144.187 104.698 144.766 105.184C145.088 105.454 145.438 105.559 145.817 105.5C146.189 105.434 146.531 105.215 146.843 104.844C147.443 104.129 147.627 103.364 147.397 102.549C147.281 102.135 147.016 101.755 146.602 101.407L145.958 100.867ZM144.17 93.2841L151.848 99.7274L151.237 100.457L143.558 94.0134L144.17 93.2841Z" fill="#666666"/>
<path d="M20 15.0632C22.2091 15.0632 24 16.8541 24 19.0632V74.0632C21.7909 74.0632 20 72.2724 20 70.0632V15.0632Z" fill="black"/>
<path d="M20 0C22.2091 0 24 1.79086 24 4V15C21.7909 15 20 13.2091 20 11V0Z" fill="#E1E1E1"/>
<path d="M134 15.2346C136.209 15.2346 138 17.0255 138 19.2346V74.2346C135.791 74.2346 134 72.4438 134 70.2346V15.2346Z" fill="black"/>
<path d="M134 0.234619C136.209 0.234619 138 2.02548 138 4.23462V15.2346C135.791 15.2346 134 13.4438 134 11.2346V0.234619Z" fill="#E1E1E1"/>
<path d="M58 29.782C60.2091 29.782 62 31.5728 62 33.782V74.782C59.7909 74.782 58 72.9911 58 70.782V29.782Z" fill="black"/>
<path d="M58 14.7578C60.2091 14.7578 62 16.5487 62 18.7578V29.7578C59.7909 29.7578 58 27.967 58 25.7578V14.7578Z" fill="#E1E1E1"/>
<path d="M58 0C60.2091 0 62 1.79086 62 4V15C59.7909 15 58 13.2091 58 11V0Z" fill="#E1E1E1"/>
<path d="M96.2856 59.0648C98.4948 59.0648 100.286 60.8557 100.286 63.0648V74.0648C98.0765 74.0648 96.2856 72.274 96.2856 70.0648V59.0648Z" fill="black"/>
<path d="M96.2856 29.4766C98.4948 29.4766 100.286 31.2674 100.286 33.4766V44.4766C98.0765 44.4766 96.2856 42.6857 96.2856 40.4766V29.4766Z" fill="#E1E1E1"/>
<path d="M96.2856 14.4766C98.4948 14.4766 100.286 16.2674 100.286 18.4766V29.4766C98.0765 29.4766 96.2856 27.6857 96.2856 25.4766V14.4766Z" fill="#E1E1E1"/>
<path d="M96.2856 0.234619C98.4948 0.234619 100.286 2.02548 100.286 4.23462V15.2346C98.0765 15.2346 96.2856 13.4438 96.2856 11.2346V0.234619Z" fill="#E1E1E1"/>
<path d="M96.2856 44.4766C98.4948 44.4766 100.286 46.2674 100.286 48.4766V59.4766C98.0765 59.4766 96.2856 57.6857 96.2856 55.4766V44.4766Z" fill="#E1E1E1"/>
</svg>
