<svg width="50" height="50" viewBox="0 0 50 50" fill="none" xmlns="http://www.w3.org/2000/svg">
<path fill-rule="evenodd" clip-rule="evenodd" d="M13.9899 35.9899C13.4432 35.4432 13.4432 34.5568 13.9899 34.0101L31.809 16.191C32.3558 15.6442 33.2422 15.6442 33.7889 16.191C34.3357 16.7377 34.3357 17.6241 33.7889 18.1709L15.9698 35.9899C15.4231 36.5367 14.5367 36.5367 13.9899 35.9899Z" fill="#D7CFB9"/>
<path fill-rule="evenodd" clip-rule="evenodd" d="M13.9393 16.0607C14.5251 15.4749 15.7501 15.7501 16.6753 16.6753L33.1237 33.1237C34.0489 34.0489 34.3241 35.2739 33.7383 35.8596C33.1525 36.4454 31.9276 36.1703 31.0024 35.245L14.554 18.7966C13.6287 17.8714 13.3536 16.6464 13.9393 16.0607Z" fill="#D7CFB9"/>
</svg>
