<svg width="25" height="24" viewBox="0 0 25 24" fill="none" xmlns="http://www.w3.org/2000/svg">
<g opacity="0.4">
<path fill-rule="evenodd" clip-rule="evenodd" d="M19.0428 6.88074L22.8004 3.20706L21.3539 1.79285L17.1249 5.92738C15.5933 5.30909 14.005 4.99995 12.36 4.99995C7.84074 4.99995 3.74931 7.33329 0.0857239 12C1.85031 14.2477 3.71415 15.9541 5.67724 17.1192L1.91961 20.7928L3.36615 22.2071L7.59517 18.0725C9.12676 18.6908 10.715 19 12.36 19C16.8793 19 20.9707 16.6666 24.6343 12C22.8697 9.75224 21.0059 8.04583 19.0428 6.88074ZM15.531 7.48565C14.4853 7.15686 13.4284 6.99995 12.36 6.99995C9.0385 6.99995 5.82682 8.51661 2.72514 12C4.18368 13.638 5.66655 14.8411 7.17373 15.6561L8.09273 14.7577C6.77712 12.8163 6.9941 10.1749 8.74366 8.46442C9.74228 7.48811 11.0511 6.99995 12.36 6.99995C13.3442 6.99995 14.3284 7.27598 15.1807 7.82804L15.531 7.48565ZM13.6831 9.29224C12.5425 8.75953 11.1349 8.95499 10.1902 9.87863C9.24544 10.8023 9.04551 12.1783 9.5904 13.2935L13.6831 9.29224ZM9.18906 16.5143L17.5463 8.34378C19.0535 9.15881 20.5363 10.3619 21.9949 12C18.8932 15.4833 15.6815 17 12.36 17C11.2917 17 10.2347 16.843 9.18906 16.5143Z" fill="black"/>
</g>
</svg>
