<svg width="26" height="24" viewBox="0 0 26 24" fill="none" xmlns="http://www.w3.org/2000/svg">
<path d="M13.2768 0C6.5023 0 0.981253 5.37182 0.968408 11.976C0.961986 15.1815 2.23574 18.1972 4.55634 20.4688C6.87694 22.7394 9.96607 23.9937 13.2543 24H13.2778C20.0512 24 25.5734 18.6271 25.5873 12.0219C25.6001 5.40625 20.0887 0.0125217 13.2768 0Z" fill="#D32F2F"/>
<path d="M13.2778 10.6512L16.7367 7.27934C17.1187 6.90689 17.7382 6.90689 18.1202 7.27934C18.5023 7.65179 18.5023 8.25565 18.1202 8.6281L14.6614 12L18.1202 15.3719C18.5023 15.7443 18.5023 16.3482 18.1202 16.7206C17.7382 17.0931 17.1187 17.0931 16.7367 16.7206L13.2778 13.3487L9.81898 16.7206C9.43692 17.0931 8.81749 17.0931 8.43544 16.7206C8.05338 16.3482 8.05338 15.7443 8.43544 15.3719L11.8943 12L8.43544 8.6281C8.05338 8.25565 8.05338 7.65179 8.43544 7.27934C8.81749 6.90689 9.43692 6.90689 9.81898 7.27934L13.2778 10.6512Z" fill="#E0CBC0"/>
</svg>
