<svg width="47" height="47" viewBox="0 0 47 47" fill="none" xmlns="http://www.w3.org/2000/svg">
<path d="M44.415 32.3256C41.2033 32.3256 38.0961 31.8033 35.1978 30.8633C34.2839 30.55 33.2656 30.785 32.5606 31.49L28.4611 36.6339C21.0717 33.1089 14.1522 26.4506 10.4706 18.8L15.5622 14.4656C16.2672 13.7344 16.4761 12.7161 16.1889 11.8022C15.2228 8.90389 14.7267 5.79667 14.7267 2.585C14.7267 1.175 13.5517 0 12.1417 0H3.10722C1.69722 0 0 0.626667 0 2.585C0 26.8422 20.1839 47 44.415 47C46.2689 47 47 45.355 47 43.9189V34.9106C47 33.5006 45.825 32.3256 44.415 32.3256Z" fill="black"/>
</svg>
