<svg width="44" height="44" viewBox="0 0 44 44" fill="none" xmlns="http://www.w3.org/2000/svg">
<path d="M41.58 30.2622C38.5733 30.2622 35.6644 29.7733 32.9511 28.8933C32.0956 28.6 31.1422 28.82 30.4822 29.48L26.6444 34.2956C19.7267 30.9956 13.2489 24.7622 9.80222 17.6L14.5689 13.5422C15.2289 12.8578 15.4244 11.9044 15.1556 11.0489C14.2511 8.33556 13.7867 5.42667 13.7867 2.42C13.7867 1.1 12.6867 0 11.3667 0H2.90889C1.58889 0 0 0.586667 0 2.42C0 25.1289 18.8956 44 41.58 44C43.3156 44 44 42.46 44 41.1156V32.6822C44 31.3622 42.9 30.2622 41.58 30.2622Z" fill="#D7CFB9"/>
</svg>
