<svg width="54" height="54" viewBox="0 0 54 54" fill="none" xmlns="http://www.w3.org/2000/svg">
<path d="M39.9571 31.0292C39.8519 30.9787 35.9151 29.0402 35.2156 28.7884C34.93 28.6858 34.624 28.5857 34.2986 28.5857C33.7671 28.5857 33.3205 28.8506 32.9727 29.371C32.5794 29.9555 31.3889 31.3471 31.0211 31.7628C30.9731 31.8177 30.9075 31.8832 30.8682 31.8832C30.833 31.8832 30.2237 31.6323 30.0393 31.5522C25.8163 29.7178 22.6108 25.3065 22.1713 24.5626C22.1085 24.4556 22.1059 24.407 22.1053 24.407C22.1208 24.3504 22.2628 24.2081 22.3361 24.1346C22.5505 23.9224 22.7828 23.6428 23.0076 23.3723C23.114 23.2441 23.2206 23.1158 23.3252 22.9948C23.6513 22.6154 23.7965 22.3209 23.9648 21.9797L24.053 21.8024C24.464 20.9859 24.113 20.2969 23.9995 20.0744C23.9064 19.8882 22.2442 15.8764 22.0675 15.455C21.6425 14.4379 21.0809 13.9644 20.3005 13.9644C20.2281 13.9644 20.3005 13.9644 19.9969 13.9772C19.6271 13.9928 17.6135 14.2578 16.7232 14.8191C15.7791 15.4143 14.1819 17.3117 14.1819 20.6484C14.1819 23.6516 16.0877 26.4871 16.9059 27.5655C16.9262 27.5927 16.9636 27.6479 17.0178 27.7272C20.1513 32.3035 24.0577 35.695 28.0178 37.2769C31.8302 38.7998 33.6356 38.9758 34.6619 38.9758H34.6621C35.0934 38.9758 35.4386 38.942 35.7431 38.912L35.9363 38.8936C37.2534 38.7768 40.1476 37.2771 40.806 35.4476C41.3246 34.0066 41.4614 32.4322 41.1163 31.8608C40.88 31.4723 40.4727 31.2768 39.9571 31.0292Z" fill="white"/>
<path d="M27.4793 0C12.8544 0 0.95618 11.8088 0.95618 26.3238C0.95618 31.0184 2.21256 35.6139 4.59259 39.6358L0.0371281 53.0736C-0.047729 53.3241 0.0153878 53.6011 0.200706 53.7898C0.334479 53.9264 0.51594 54 0.701258 54C0.772264 54 0.843797 53.9893 0.913576 53.967L14.9255 49.5145C18.7599 51.5632 23.0936 52.6446 27.4795 52.6446C42.103 52.6447 54 40.8372 54 26.3238C54 11.8088 42.103 0 27.4793 0ZM27.4793 47.1613C23.3523 47.1613 19.3551 45.9696 15.9191 43.7149C15.8036 43.639 15.6694 43.6001 15.5344 43.6001C15.4631 43.6001 15.3915 43.611 15.3219 43.6331L8.30281 45.8642L10.5687 39.1793C10.642 38.9629 10.6053 38.7243 10.4703 38.5399C7.8538 34.9647 6.47067 30.7406 6.47067 26.3238C6.47067 14.8325 15.8951 5.48345 27.4791 5.48345C39.0618 5.48345 48.4851 14.8325 48.4851 26.3238C48.4853 37.8137 39.0621 47.1613 27.4793 47.1613Z" fill="white"/>
</svg>
