<svg width="17" height="18" viewBox="0 0 17 18" fill="none" xmlns="http://www.w3.org/2000/svg">
<path fill-rule="evenodd" clip-rule="evenodd" d="M11.4316 15.5869C11.4287 15.9568 11.6494 16.2919 11.9903 16.4354C12.3312 16.5789 12.7251 16.5025 12.9876 16.242C13.2502 15.9814 13.3296 15.5882 13.1887 15.2462C13.0478 14.9041 12.7145 14.6809 12.3446 14.6809C11.8424 14.6793 11.4338 15.0847 11.4316 15.5869V15.5869Z" stroke="black" stroke-width="1.5" stroke-linecap="round" stroke-linejoin="round"/>
<path fill-rule="evenodd" clip-rule="evenodd" d="M5.95378 15.5869C5.95095 15.9568 6.17159 16.2919 6.51252 16.4354C6.85345 16.5789 7.24729 16.5025 7.50986 16.242C7.77243 15.9814 7.85183 15.5882 7.71094 15.2462C7.57004 14.9041 7.23669 14.6809 6.86678 14.6809C6.36459 14.6793 5.95599 15.0847 5.95378 15.5869V15.5869Z" stroke="black" stroke-width="1.5" stroke-linecap="round" stroke-linejoin="round"/>
<path d="M13.6926 4.36193V3.61193C14.1068 3.61193 14.4426 3.94771 14.4426 4.36193H13.6926ZM1.01063 5.24193L0.266745 5.14633C0.268271 5.13445 0.270082 5.12261 0.272176 5.11082L1.01063 5.24193ZM1.08963 5.88193L1.78793 5.6083C1.79222 5.61924 1.79625 5.63028 1.80002 5.64141L1.08963 5.88193ZM1.73663 7.79293L1.04098 8.07324C1.03569 8.06012 1.03078 8.04684 1.02624 8.03344L1.73663 7.79293ZM2.90963 10.7039L2.23984 11.0414C2.23043 11.0227 2.2218 11.0036 2.21398 10.9842L2.90963 10.7039ZM11.2576 12.8179V12.0679L11.2607 12.0679L11.2576 12.8179ZM12.9756 12.1144L13.5039 12.6468L13.5039 12.6468L12.9756 12.1144ZM13.6926 10.4019H14.4426L14.4426 10.4047L13.6926 10.4019ZM14.4426 4.36193C14.4426 4.77614 14.1068 5.11193 13.6926 5.11193C13.2784 5.11193 12.9426 4.77614 12.9426 4.36193H14.4426ZM13.6926 2.09293H12.9426L12.9427 2.08551L13.6926 2.09293ZM14.3016 1.49293V2.24294L14.2979 2.24292L14.3016 1.49293ZM15.6926 0.742928C16.1068 0.742928 16.4426 1.07871 16.4426 1.49293C16.4426 1.90714 16.1068 2.24293 15.6926 2.24293V0.742928ZM13.6926 5.11193H3.41963V3.61193H13.6926V5.11193ZM3.41963 5.11193C2.73748 5.11193 2.30849 5.0927 1.98848 5.16566C1.85214 5.19675 1.80826 5.23181 1.79852 5.24083C1.79413 5.24491 1.7885 5.25095 1.78124 5.26509C1.77328 5.2806 1.75968 5.31334 1.74908 5.37304L0.272176 5.11082C0.339369 4.73237 0.501442 4.39805 0.778386 4.14115C1.04556 3.8933 1.36374 3.76961 1.65503 3.70319C2.19027 3.58116 2.87877 3.61193 3.41963 3.61193V5.11193ZM1.75451 5.33753C1.74273 5.42916 1.75423 5.52229 1.78793 5.6083L0.391322 6.15555C0.265695 5.83494 0.222852 5.48786 0.266745 5.14633L1.75451 5.33753ZM1.80002 5.64141L2.44702 7.55241L1.02624 8.03344L0.379238 6.12244L1.80002 5.64141ZM2.43227 7.51261L3.60527 10.4236L2.21398 10.9842L1.04098 8.07324L2.43227 7.51261ZM3.57941 10.3665C3.81047 10.825 3.98155 11.1608 4.13312 11.4193C4.28514 11.6786 4.39093 11.8126 4.4744 11.8898C4.58169 11.9891 4.71083 12.0679 5.34463 12.0679V13.5679C4.63342 13.5679 4.00156 13.4958 3.45586 12.991C3.21282 12.7662 3.01911 12.485 2.83913 12.178C2.65871 11.8703 2.46529 11.4888 2.23984 11.0414L3.57941 10.3665ZM5.34463 12.0679H11.2576V13.5679H5.34463V12.0679ZM11.2607 12.0679C11.7051 12.0698 12.132 11.895 12.4474 11.582L13.5039 12.6468C12.906 13.24 12.0968 13.5714 11.2545 13.5679L11.2607 12.0679ZM12.4474 11.582C12.7628 11.269 12.941 10.8435 12.9426 10.3992L14.4426 10.4047C14.4395 11.247 14.1018 12.0535 13.5039 12.6468L12.4474 11.582ZM12.9426 10.4019V4.36193H14.4426V10.4019H12.9426ZM12.9426 4.36193V2.09293H14.4426V4.36193H12.9426ZM12.9427 2.08551C12.95 1.33924 13.5591 0.739206 14.3054 0.742937L14.2979 2.24292C14.3771 2.24331 14.4418 2.17959 14.4426 2.10034L12.9427 2.08551ZM14.3016 0.742928H15.6926V2.24293H14.3016V0.742928Z" fill="black"/>
</svg>
