<svg width="26" height="26" viewBox="0 0 26 26" fill="none" xmlns="http://www.w3.org/2000/svg">
<path d="M-1.52588e-05 25.9999L1.82756 19.3234C0.699816 17.369 0.107235 15.1536 0.108318 12.8819C0.111568 5.77957 5.89114 0 12.9924 0C16.4384 0.00108333 19.6733 1.34333 22.1064 3.77866C24.5385 6.21399 25.8775 9.45098 25.8764 12.8938C25.8732 19.9972 20.0936 25.7768 12.9924 25.7768C10.8365 25.7757 8.71213 25.2351 6.83039 24.2081L-1.52588e-05 25.9999ZM7.14672 21.8757C8.96238 22.9536 10.6957 23.5993 12.988 23.6004C18.89 23.6004 23.6978 18.7969 23.7011 12.8916C23.7033 6.97448 18.9182 2.1775 12.9967 2.17533C7.09038 2.17533 2.28581 6.97882 2.28365 12.883C2.28256 15.2934 2.98889 17.0982 4.17514 18.9865L3.09289 22.9384L7.14672 21.8757ZM19.4826 15.9564C19.4024 15.822 19.1879 15.7419 18.8651 15.5805C18.5434 15.419 16.9606 14.6401 16.6649 14.5329C16.3702 14.4256 16.1557 14.3715 15.9401 14.6943C15.7256 15.016 15.1081 15.7419 14.9207 15.9564C14.7333 16.1709 14.5448 16.198 14.223 16.0365C13.9013 15.8751 12.8635 15.536 11.6339 14.4386C10.6773 13.585 10.0305 12.5309 9.84313 12.2081C9.65571 11.8863 9.82363 11.7119 9.98396 11.5516C10.1291 11.4075 10.3057 11.1756 10.4671 10.9871C10.6307 10.8008 10.6838 10.6665 10.7921 10.4509C10.8994 10.2364 10.8463 10.0479 10.765 9.88648C10.6838 9.72614 10.0403 8.14123 9.77271 7.49665C9.51055 6.8694 9.24513 6.9539 9.04796 6.94415L8.43047 6.93332C8.21597 6.93332 7.86713 7.01348 7.57247 7.33632C7.2778 7.65915 6.4458 8.43698 6.4458 10.0219C6.4458 11.6068 7.59955 13.1376 7.75988 13.3521C7.9213 13.5666 10.0295 16.8187 13.2589 18.213C14.027 18.5445 14.6271 18.7427 15.094 18.8911C15.8654 19.136 16.5674 19.1013 17.122 19.019C17.7406 18.9269 19.0265 18.24 19.2952 17.4882C19.5639 16.7353 19.5639 16.0907 19.4826 15.9564Z" fill="black"/>
</svg>
