<svg width="28" height="33" viewBox="0 0 28 33" fill="none" xmlns="http://www.w3.org/2000/svg">
<path fill-rule="evenodd" clip-rule="evenodd" d="M16.4 9.2724C16.384 10.594 15.3025 11.6538 13.9808 11.6432C12.6592 11.6325 11.595 10.5553 11.6002 9.23366C11.6055 7.91201 12.6784 6.84336 14 6.84326C14.6405 6.84689 15.2533 7.10491 15.7034 7.56051C16.1535 8.01612 16.4041 8.63195 16.4 9.2724V9.2724Z" stroke="black" stroke-width="2.14286" stroke-linecap="round" stroke-linejoin="round"/>
<path d="M9.65773 16.4155C10.2495 16.4155 10.7292 15.9358 10.7292 15.344C10.7292 14.7523 10.2495 14.2726 9.65773 14.2726V16.4155ZM3.7143 15.344V14.2726C3.1673 14.2726 2.70813 14.6847 2.64913 15.2285L3.7143 15.344ZM1.79198 23.1279C1.72815 23.7162 2.1533 24.2448 2.74158 24.3086C3.32986 24.3725 3.8585 23.9473 3.92234 23.3591L1.79198 23.1279ZM8.97 16.1793C9.42374 16.5591 10.0995 16.4992 10.4793 16.0454C10.8591 15.5917 10.7992 14.9159 10.3455 14.5361L8.97 16.1793ZM9.35258 15.1023L8.65247 15.9133C8.65657 15.9168 8.6607 15.9204 8.66486 15.9238L9.35258 15.1023ZM9.35258 3.94226L8.67211 3.11466C8.6655 3.1201 8.65895 3.12562 8.65247 3.13121L9.35258 3.94226ZM18.6457 3.94226L19.3458 3.13121C19.336 3.12276 19.3261 3.11448 19.316 3.10639L18.6457 3.94226ZM18.6457 15.1023L19.3335 15.9238C19.3376 15.9204 19.3417 15.9168 19.3458 15.9133L18.6457 15.1023ZM17.6529 14.5361C17.1991 14.9159 17.1392 15.5917 17.519 16.0454C17.8988 16.4992 18.5746 16.5591 19.0283 16.1793L17.6529 14.5361ZM10.3412 14.5334C9.88631 14.155 9.21075 14.217 8.83232 14.6719C8.45389 15.1268 8.51589 15.8024 8.9708 16.1808L10.3412 14.5334ZM11.1428 17.9877C11.5977 18.3661 12.2733 18.3041 12.6517 17.8492C13.0301 17.3943 12.9681 16.7187 12.5132 16.3403L11.1428 17.9877ZM18.3423 14.2708C17.7506 14.2708 17.2709 14.7505 17.2709 15.3422C17.2709 15.934 17.7506 16.4137 18.3423 16.4137V14.2708ZM24.2857 15.3422L25.3509 15.2265C25.2918 14.6827 24.8327 14.2708 24.2857 14.2708V15.3422ZM24.0777 23.3437C24.1417 23.932 24.6704 24.3571 25.2586 24.2931C25.8469 24.2292 26.272 23.7004 26.208 23.1122L24.0777 23.3437ZM19.0311 16.1629C19.4843 15.7825 19.5433 15.1067 19.1629 14.6534C18.7825 14.2002 18.1067 14.1412 17.6534 14.5216L19.0311 16.1629ZM14 18.9868L13.3113 19.8076C13.7097 20.1418 14.2905 20.1418 14.6888 19.8075L14 18.9868ZM12.5166 16.3437C12.0633 15.9634 11.3875 16.0226 11.0072 16.4759C10.6268 16.9292 10.686 17.605 11.1393 17.9853L12.5166 16.3437ZM3.9223 23.3596C3.98624 22.7713 3.56119 22.2426 2.97292 22.1787C2.38465 22.1147 1.85593 22.5398 1.79199 23.1281L3.9223 23.3596ZM2 31.1295L0.934845 31.0138C0.901961 31.3163 0.999277 31.6185 1.2025 31.8451C1.40573 32.0716 1.69568 32.201 2 32.201L2 31.1295ZM12.2857 32.201C12.8774 32.201 13.3571 31.7213 13.3571 31.1295C13.3571 30.5378 12.8774 30.0581 12.2857 30.0581V32.201ZM2.25667 22.356C1.76661 22.6876 1.63818 23.3538 1.96982 23.8438C2.30146 24.3339 2.96758 24.4623 3.45765 24.1307L2.25667 22.356ZM7.94393 21.0947C8.434 20.763 8.56243 20.0969 8.23078 19.6068C7.89914 19.1168 7.23302 18.9883 6.74296 19.32L7.94393 21.0947ZM12.4286 18.0517C12.9186 17.72 13.0469 17.0539 12.7152 16.5639C12.3835 16.0739 11.7173 15.9455 11.2273 16.2773L12.4286 18.0517ZM6.74276 19.3133C6.25276 19.645 6.12445 20.3111 6.45618 20.8012C6.78791 21.2912 7.45405 21.4195 7.94406 21.0877L6.74276 19.3133ZM8.31965 19.7595C8.07582 19.2204 7.44108 18.9809 6.90192 19.2248C6.36276 19.4686 6.12334 20.1033 6.36717 20.6425L8.31965 19.7595ZM11.3095 31.5711C11.5533 32.1102 12.188 32.3497 12.7272 32.1058C13.2663 31.862 13.5058 31.2273 13.2619 30.6881L11.3095 31.5711ZM12.2857 30.0576C11.694 30.0576 11.2143 30.5373 11.2143 31.1291C11.2143 31.7208 11.694 32.2005 12.2857 32.2005V30.0576ZM17.4286 32.2005C18.0203 32.2005 18.5 31.7208 18.5 31.1291C18.5 30.5373 18.0203 30.0576 17.4286 30.0576V32.2005ZM17.4286 30.0581C16.8368 30.0581 16.3571 30.5378 16.3571 31.1295C16.3571 31.7213 16.8368 32.201 17.4286 32.201V30.0581ZM26 31.1295V32.201C26.3043 32.201 26.5943 32.0716 26.7975 31.8451C27.0007 31.6185 27.098 31.3163 27.0652 31.0138L26 31.1295ZM26.208 23.1281C26.1441 22.5398 25.6154 22.1147 25.0271 22.1787C24.4388 22.2426 24.0138 22.7713 24.0777 23.3596L26.208 23.1281ZM16.6627 30.3803C16.2489 30.8033 16.2563 31.4816 16.6793 31.8954C17.1023 32.3092 17.7807 32.3018 18.1945 31.8788L16.6627 30.3803ZM25.9088 23.9931C26.3225 23.5701 26.3151 22.8917 25.8921 22.4779C25.4691 22.0641 24.7908 22.0716 24.377 22.4946L25.9088 23.9931ZM9.65773 14.2726H3.7143V16.4155H9.65773V14.2726ZM2.64913 15.2285L1.79198 23.1279L3.92234 23.3591L4.77948 15.4596L2.64913 15.2285ZM10.3455 14.5361L10.0403 14.2807L8.66486 15.9238L8.97 16.1793L10.3455 14.5361ZM10.0527 14.2912C8.66635 13.0945 7.86938 11.3537 7.86938 9.52226H5.72652C5.72652 11.9766 6.79456 14.3095 8.65247 15.9133L10.0527 14.2912ZM7.86938 9.52226C7.86938 7.69082 8.66635 5.95004 10.0527 4.75331L8.65247 3.13121C6.79456 4.735 5.72652 7.06789 5.72652 9.52226H7.86938ZM10.0331 4.76986C11.6257 3.46035 12.9777 3.02262 14.1727 3.0757C15.3889 3.12973 16.6307 3.69975 17.9754 4.77813L19.316 3.10639C17.7791 1.87391 16.11 1.01679 14.2678 0.934958C12.4046 0.852186 10.5509 1.56988 8.67211 3.11466L10.0331 4.76986ZM17.9456 4.75331C19.332 5.95004 20.1289 7.69082 20.1289 9.52226H22.2718C22.2718 7.06789 21.2037 4.735 19.3458 3.13121L17.9456 4.75331ZM20.1289 9.52226C20.1289 11.3537 19.332 13.0945 17.9456 14.2912L19.3458 15.9133C21.2037 14.3095 22.2718 11.9766 22.2718 9.52226H20.1289ZM17.958 14.2807L17.6529 14.5361L19.0283 16.1793L19.3335 15.9238L17.958 14.2807ZM8.9708 16.1808L11.1428 17.9877L12.5132 16.3403L10.3412 14.5334L8.9708 16.1808ZM18.3423 16.4137H24.2857V14.2708H18.3423V16.4137ZM23.2206 15.458L24.0777 23.3437L26.208 23.1122L25.3509 15.2265L23.2206 15.458ZM17.6534 14.5216L13.3112 18.1661L14.6888 19.8075L19.0311 16.1629L17.6534 14.5216ZM14.6886 18.166L12.5166 16.3437L11.1393 17.9853L13.3113 19.8076L14.6886 18.166ZM1.79199 23.1281L0.934845 31.0138L3.06515 31.2453L3.9223 23.3596L1.79199 23.1281ZM2 32.201H12.2857V30.0581H2V32.201ZM3.45765 24.1307L7.94393 21.0947L6.74296 19.32L2.25667 22.356L3.45765 24.1307ZM11.2273 16.2773L6.74276 19.3133L7.94406 21.0877L12.4286 18.0517L11.2273 16.2773ZM6.36717 20.6425L11.3095 31.5711L13.2619 30.6881L8.31965 19.7595L6.36717 20.6425ZM12.2857 32.2005H17.4286V30.0576H12.2857V32.2005ZM17.4286 32.201H26V30.0581H17.4286V32.201ZM27.0652 31.0138L26.208 23.1281L24.0777 23.3596L24.9348 31.2453L27.0652 31.0138ZM18.1945 31.8788L25.9088 23.9931L24.377 22.4946L16.6627 30.3803L18.1945 31.8788Z" fill="black"/>
</svg>
