<svg width="17" height="18" viewBox="0 0 17 18" fill="none" xmlns="http://www.w3.org/2000/svg">
<path fill-rule="evenodd" clip-rule="evenodd" d="M11.4313 15.5869C11.4285 15.9568 11.6491 16.2919 11.9901 16.4354C12.331 16.5789 12.7248 16.5025 12.9874 16.242C13.25 15.9814 13.3294 15.5882 13.1885 15.2462C13.0476 14.9041 12.7142 14.6809 12.3443 14.6809C11.8421 14.6793 11.4335 15.0847 11.4313 15.5869V15.5869Z" stroke="white" stroke-width="1.5" stroke-linecap="round" stroke-linejoin="round"/>
<path fill-rule="evenodd" clip-rule="evenodd" d="M5.9533 15.5869C5.95046 15.9568 6.1711 16.2919 6.51203 16.4354C6.85296 16.5789 7.2468 16.5025 7.50937 16.242C7.77194 15.9814 7.85134 15.5882 7.71045 15.2462C7.56955 14.9041 7.2362 14.6809 6.8663 14.6809C6.36411 14.6793 5.9555 15.0847 5.9533 15.5869V15.5869Z" stroke="white" stroke-width="1.5" stroke-linecap="round" stroke-linejoin="round"/>
<path d="M13.6924 4.36193V3.61193C14.1066 3.61193 14.4424 3.94771 14.4424 4.36193H13.6924ZM1.01038 5.24193L0.2665 5.14633C0.268027 5.13445 0.269838 5.12261 0.271932 5.11082L1.01038 5.24193ZM1.08938 5.88193L1.78769 5.6083C1.79198 5.61924 1.796 5.63028 1.79977 5.64141L1.08938 5.88193ZM1.73638 7.79293L1.04074 8.07324C1.03545 8.06012 1.03053 8.04684 1.02599 8.03344L1.73638 7.79293ZM2.90938 10.7039L2.2396 11.0414C2.23019 11.0227 2.22156 11.0036 2.21374 10.9842L2.90938 10.7039ZM11.2574 12.8179V12.0679L11.2605 12.0679L11.2574 12.8179ZM12.9754 12.1144L13.5037 12.6468L13.5037 12.6468L12.9754 12.1144ZM13.6924 10.4019H14.4424L14.4424 10.4047L13.6924 10.4019ZM14.4424 4.36193C14.4424 4.77614 14.1066 5.11193 13.6924 5.11193C13.2782 5.11193 12.9424 4.77614 12.9424 4.36193H14.4424ZM13.6924 2.09293H12.9423L12.9424 2.08551L13.6924 2.09293ZM14.3014 1.49293V2.24294L14.2976 2.24292L14.3014 1.49293ZM15.6924 0.742928C16.1066 0.742928 16.4424 1.07871 16.4424 1.49293C16.4424 1.90714 16.1066 2.24293 15.6924 2.24293V0.742928ZM13.6924 5.11193H3.41938V3.61193H13.6924V5.11193ZM3.41938 5.11193C2.73724 5.11193 2.30824 5.0927 1.98823 5.16566C1.85189 5.19675 1.80801 5.23181 1.79828 5.24083C1.79389 5.24491 1.78825 5.25095 1.781 5.26509C1.77304 5.2806 1.75943 5.31334 1.74883 5.37304L0.271932 5.11082C0.339125 4.73237 0.501198 4.39805 0.778142 4.14115C1.04531 3.8933 1.3635 3.76961 1.65478 3.70319C2.19002 3.58116 2.87853 3.61193 3.41938 3.61193V5.11193ZM1.75426 5.33753C1.74249 5.42916 1.75398 5.52229 1.78769 5.6083L0.391078 6.15555C0.26545 5.83494 0.222608 5.48786 0.2665 5.14633L1.75426 5.33753ZM1.79977 5.64141L2.44677 7.55241L1.02599 8.03344L0.378994 6.12244L1.79977 5.64141ZM2.43203 7.51261L3.60503 10.4236L2.21374 10.9842L1.04074 8.07324L2.43203 7.51261ZM3.57917 10.3665C3.81022 10.825 3.9813 11.1608 4.13288 11.4193C4.2849 11.6786 4.39069 11.8126 4.47415 11.8898C4.58145 11.9891 4.71059 12.0679 5.34438 12.0679V13.5679C4.63318 13.5679 4.00132 13.4958 3.45561 12.991C3.21257 12.7662 3.01887 12.485 2.83889 12.178C2.65846 11.8703 2.46504 11.4888 2.2396 11.0414L3.57917 10.3665ZM5.34438 12.0679H11.2574V13.5679H5.34438V12.0679ZM11.2605 12.0679C11.7048 12.0698 12.1317 11.895 12.4472 11.582L13.5037 12.6468C12.9057 13.24 12.0966 13.5714 11.2543 13.5679L11.2605 12.0679ZM12.4472 11.582C12.7626 11.269 12.9407 10.8435 12.9424 10.3992L14.4424 10.4047C14.4393 11.247 14.1016 12.0535 13.5037 12.6468L12.4472 11.582ZM12.9424 10.4019V4.36193H14.4424V10.4019H12.9424ZM12.9424 4.36193V2.09293H14.4424V4.36193H12.9424ZM12.9424 2.08551C12.9498 1.33924 13.5588 0.739206 14.3051 0.742937L14.2976 2.24292C14.3769 2.24331 14.4416 2.17959 14.4423 2.10034L12.9424 2.08551ZM14.3014 0.742928H15.6924V2.24293H14.3014V0.742928Z" fill="white"/>
</svg>
