<svg width="218" height="60" viewBox="0 0 218 60" fill="none" xmlns="http://www.w3.org/2000/svg">
<path d="M36.74 23.5V37H33.374V24.652L35.012 26.146L29.234 27.154V24.526L34.238 23.5H36.74Z" fill="black"/>
<path d="M173.9 27.82C173.96 26.968 174.26 26.194 174.8 25.498C175.34 24.802 176.108 24.25 177.104 23.842C178.112 23.422 179.33 23.212 180.758 23.212C181.982 23.212 183.044 23.374 183.944 23.698C184.856 24.01 185.564 24.448 186.068 25.012C186.572 25.564 186.824 26.218 186.824 26.974C186.824 27.586 186.638 28.144 186.266 28.648C185.906 29.14 185.336 29.536 184.556 29.836C183.776 30.124 182.78 30.262 181.568 30.25V29.89C182.72 29.83 183.71 29.914 184.538 30.142C185.366 30.37 186.002 30.73 186.446 31.222C186.89 31.714 187.112 32.332 187.112 33.076C187.112 33.892 186.854 34.618 186.338 35.254C185.822 35.878 185.066 36.376 184.07 36.748C183.086 37.108 181.886 37.288 180.47 37.288C179.09 37.288 177.884 37.096 176.852 36.712C175.832 36.316 175.034 35.77 174.458 35.074C173.894 34.366 173.588 33.538 173.54 32.59H176.924C177.02 33.25 177.356 33.76 177.932 34.12C178.52 34.468 179.366 34.642 180.47 34.642C181.514 34.642 182.306 34.486 182.846 34.174C183.398 33.85 183.674 33.4 183.674 32.824C183.674 32.488 183.584 32.212 183.404 31.996C183.224 31.768 182.918 31.594 182.486 31.474C182.054 31.354 181.454 31.294 180.686 31.294H178.346V28.972H180.686C181.682 28.972 182.384 28.834 182.792 28.558C183.2 28.27 183.404 27.898 183.404 27.442C183.404 26.938 183.164 26.548 182.684 26.272C182.216 25.996 181.508 25.858 180.56 25.858C179.576 25.858 178.808 26.032 178.256 26.38C177.716 26.716 177.392 27.196 177.284 27.82H173.9Z" fill="black"/>
<line x1="55" y1="29.5" x2="157" y2="29.5" stroke="black"/>
<rect x="1" y="1" width="216" height="58" rx="29" stroke="black" stroke-opacity="0.2" stroke-width="2"/>
</svg>
