<svg width="218" height="60" viewBox="0 0 218 60" fill="none" xmlns="http://www.w3.org/2000/svg">
<path d="M173.8 27.84C173.853 27.0827 174.12 26.3947 174.6 25.776C175.08 25.1573 175.763 24.6667 176.648 24.304C177.544 23.9307 178.627 23.744 179.896 23.744C180.984 23.744 181.928 23.888 182.728 24.176C183.539 24.4533 184.168 24.8427 184.616 25.344C185.064 25.8347 185.288 26.416 185.288 27.088C185.288 27.632 185.123 28.128 184.792 28.576C184.472 29.0133 183.965 29.3653 183.272 29.632C182.579 29.888 181.693 30.0107 180.616 30V29.68C181.64 29.6267 182.52 29.7013 183.256 29.904C183.992 30.1067 184.557 30.4267 184.952 30.864C185.347 31.3013 185.544 31.8507 185.544 32.512C185.544 33.2373 185.315 33.8827 184.856 34.448C184.397 35.0027 183.725 35.4453 182.84 35.776C181.965 36.096 180.899 36.256 179.64 36.256C178.413 36.256 177.341 36.0853 176.424 35.744C175.517 35.392 174.808 34.9067 174.296 34.288C173.795 33.6587 173.523 32.9227 173.48 32.08H176.488C176.573 32.6667 176.872 33.12 177.384 33.44C177.907 33.7493 178.659 33.904 179.64 33.904C180.568 33.904 181.272 33.7653 181.752 33.488C182.243 33.2 182.488 32.8 182.488 32.288C182.488 31.9893 182.408 31.744 182.248 31.552C182.088 31.3493 181.816 31.1947 181.432 31.088C181.048 30.9813 180.515 30.928 179.832 30.928H177.752V28.864H179.832C180.717 28.864 181.341 28.7413 181.704 28.496C182.067 28.24 182.248 27.9093 182.248 27.504C182.248 27.056 182.035 26.7093 181.608 26.464C181.192 26.2187 180.563 26.096 179.72 26.096C178.845 26.096 178.163 26.2507 177.672 26.56C177.192 26.8587 176.904 27.2853 176.808 27.84H173.8Z" fill="black"/>
<path d="M39.88 24V36H36.888V25.024L38.344 26.352L33.208 27.248V24.912L37.656 24H39.88Z" fill="black"/>
<line x1="58" y1="29.5" x2="160" y2="29.5" stroke="black"/>
<rect x="1" y="1" width="216" height="58" rx="29" stroke="black" stroke-opacity="0.2" stroke-width="2"/>
</svg>
