<svg width="218" height="60" viewBox="0 0 218 60" fill="none" xmlns="http://www.w3.org/2000/svg">
<path d="M173.8 27.84C173.853 27.0827 174.12 26.3947 174.6 25.776C175.08 25.1573 175.763 24.6667 176.648 24.304C177.544 23.9307 178.627 23.744 179.896 23.744C180.984 23.744 181.928 23.888 182.728 24.176C183.539 24.4533 184.168 24.8427 184.616 25.344C185.064 25.8347 185.288 26.416 185.288 27.088C185.288 27.632 185.123 28.128 184.792 28.576C184.472 29.0133 183.965 29.3653 183.272 29.632C182.579 29.888 181.693 30.0107 180.616 30V29.68C181.64 29.6267 182.52 29.7013 183.256 29.904C183.992 30.1067 184.557 30.4267 184.952 30.864C185.347 31.3013 185.544 31.8507 185.544 32.512C185.544 33.2373 185.315 33.8827 184.856 34.448C184.397 35.0027 183.725 35.4453 182.84 35.776C181.965 36.096 180.899 36.256 179.64 36.256C178.413 36.256 177.341 36.0853 176.424 35.744C175.517 35.392 174.808 34.9067 174.296 34.288C173.795 33.6587 173.523 32.9227 173.48 32.08H176.488C176.573 32.6667 176.872 33.12 177.384 33.44C177.907 33.7493 178.659 33.904 179.64 33.904C180.568 33.904 181.272 33.7653 181.752 33.488C182.243 33.2 182.488 32.8 182.488 32.288C182.488 31.9893 182.408 31.744 182.248 31.552C182.088 31.3493 181.816 31.1947 181.432 31.088C181.048 30.9813 180.515 30.928 179.832 30.928H177.752V28.864H179.832C180.717 28.864 181.341 28.7413 181.704 28.496C182.067 28.24 182.248 27.9093 182.248 27.504C182.248 27.056 182.035 26.7093 181.608 26.464C181.192 26.2187 180.563 26.096 179.72 26.096C178.845 26.096 178.163 26.2507 177.672 26.56C177.192 26.8587 176.904 27.2853 176.808 27.84H173.8Z" fill="black"/>
<path d="M30.576 28.272C30.64 27.344 30.944 26.544 31.488 25.872C32.032 25.1893 32.752 24.6667 33.648 24.304C34.5547 23.9307 35.5787 23.744 36.72 23.744C37.808 23.744 38.7573 23.9093 39.568 24.24C40.3893 24.5707 41.024 25.0347 41.472 25.632C41.9307 26.2293 42.16 26.9173 42.16 27.696C42.16 28.304 42 28.8693 41.68 29.392C41.36 29.904 40.8533 30.416 40.16 30.928C39.4667 31.44 38.5547 31.984 37.424 32.56L33.968 34.384L33.792 33.584H42.496V36H30.784V33.888L35.936 30.928C36.7573 30.4587 37.3973 30.0587 37.856 29.728C38.3253 29.3867 38.656 29.072 38.848 28.784C39.04 28.496 39.136 28.1867 39.136 27.856C39.136 27.5147 39.04 27.2107 38.848 26.944C38.6667 26.6773 38.3893 26.4693 38.016 26.32C37.6427 26.1707 37.1733 26.096 36.608 26.096C35.936 26.096 35.3813 26.1973 34.944 26.4C34.5067 26.592 34.1813 26.8533 33.968 27.184C33.7547 27.5147 33.6267 27.8773 33.584 28.272H30.576Z" fill="black"/>
<line x1="58" y1="29.5" x2="160" y2="29.5" stroke="black"/>
<rect x="1" y="1" width="216" height="58" rx="29" stroke="black" stroke-opacity="0.2" stroke-width="2"/>
</svg>
