<svg width="64" height="58" viewBox="0 0 64 58" fill="none" xmlns="http://www.w3.org/2000/svg">
<path d="M32.0659 56.4291L31.8215 56.3398C30.4673 55.8432 29.7262 54.8809 29.3381 54.1436C27.9025 54.9313 26.2417 54.6287 26.1603 54.6131L25.5006 54.4851L25.586 53.8216C25.5976 53.7362 26.6802 45.0639 26.6802 26.4622C26.6802 7.94973 25.6093 2.661 25.5976 2.60667L25.4153 1.74915L26.2922 1.74527H26.2961C26.4202 1.74527 28.178 1.76855 29.5632 3.08006C30.0172 2.29626 30.7893 1.34949 31.9379 1.13607L32.0698 1.11279L32.2017 1.13607C33.3503 1.34949 34.1186 2.29626 34.5764 3.08006C35.9655 1.76855 37.7233 1.74527 37.8436 1.74527H37.8474L38.7244 1.74915L38.542 2.60667C38.5304 2.65712 37.4594 7.94973 37.4594 26.4622C37.4594 45.0833 38.542 53.7362 38.5536 53.8216L38.639 54.4851L37.9794 54.6131C37.8979 54.6287 36.2372 54.9313 34.7976 54.1436C34.4135 54.877 33.6723 55.8432 32.3143 56.3398L32.0659 56.4291ZM30.0676 51.5982L30.3509 52.8709C30.3625 52.9252 30.6962 54.2678 32.0621 54.9003C33.4279 54.2678 33.7616 52.9252 33.7732 52.867L34.0681 51.6215L34.9722 52.5256C35.5736 53.1309 36.4467 53.2551 37.0404 53.2628C36.7843 50.7872 36.0199 42.1111 36.0199 26.47C36.0199 11.9657 36.6601 5.57116 36.9705 3.32451C36.3613 3.503 35.5542 3.90266 35.0033 4.79511L34.1923 6.10662L33.715 4.6399C33.5521 4.14324 32.9429 2.85501 32.0582 2.57951C31.1696 2.85501 30.5643 4.14324 30.4013 4.6399L29.9202 6.09498L29.1131 4.79123C28.5621 3.89878 27.7589 3.503 27.1458 3.32451C27.4562 5.57116 28.0965 11.9657 28.0965 26.47C28.0965 42.1111 27.3321 50.7872 27.076 53.2628C27.6697 53.2589 28.5388 53.1309 29.1441 52.5256L30.0676 51.5982Z" fill="white"/>
<path d="M32.0661 4.01562C32.2135 8.15193 32.2833 12.2844 32.3377 16.4207C32.3959 20.557 32.392 24.6894 32.4191 28.8257C32.392 32.962 32.3959 37.0944 32.3377 41.2307L32.2368 47.4313C32.1786 49.4995 32.1437 51.5676 32.0622 53.6319C31.9807 51.5637 31.9458 49.4956 31.8876 47.4313L31.7867 41.2307C31.7285 37.0944 31.7324 32.962 31.7052 28.8257C31.7362 24.6894 31.7285 20.557 31.7867 16.4207C31.8488 12.2882 31.9186 8.15193 32.0661 4.01562Z" fill="white"/>
<path d="M34.4639 6.83594C34.6114 10.5454 34.6812 14.251 34.7355 17.9605C34.7937 21.67 34.7899 25.3756 34.817 29.0851C34.7899 32.7945 34.7937 36.5001 34.7355 40.2096L34.6346 45.77C34.5764 47.6247 34.5415 49.4795 34.46 51.3303C34.3786 49.4756 34.3436 47.6208 34.2854 45.77L34.1845 40.2096C34.1263 36.5001 34.1302 32.7945 34.1031 29.0851C34.1341 25.3756 34.1263 21.67 34.1845 17.9605C34.2505 14.251 34.3203 10.5415 34.4639 6.83594Z" fill="white"/>
<path d="M29.6525 6.83594C29.7999 10.5454 29.8698 14.251 29.9241 17.9605C29.9823 21.67 29.9784 25.3756 30.0056 29.0851C29.9784 32.7945 29.9823 36.5001 29.9241 40.2096L29.8232 45.77C29.765 47.6247 29.7301 49.4795 29.6486 51.3303C29.5671 49.4756 29.5322 47.6208 29.474 45.77L29.3731 40.2096C29.3149 36.5001 29.3188 32.7945 29.2916 29.0851C29.3227 25.3756 29.3149 21.67 29.3731 17.9605C29.4352 14.251 29.505 10.5415 29.6525 6.83594Z" fill="white"/>
<path d="M19.3776 34.8821C20.274 32.7248 20.8715 30.7148 21.3721 28.4332C21.8959 26.0974 22.2141 23.7149 22.2296 21.3363C22.2218 18.9228 22.1753 16.5055 21.8998 14.1114C21.632 11.7212 21.2324 9.33484 20.5223 7.03388C20.1964 5.8737 19.7385 4.75619 19.2263 3.66586C18.9625 3.12263 18.6714 2.59492 18.3416 2.08661C18.0157 1.5783 17.6548 1.08551 17.2202 0.658691C18.1786 1.42309 18.9198 2.43583 19.5561 3.48349C20.1808 4.54278 20.7241 5.66028 21.1548 6.81659C22.0317 9.12531 22.5904 11.5427 22.9552 13.9795L23.2074 15.8109L23.3587 17.6501C23.382 17.9567 23.4131 18.2632 23.4286 18.5697L23.4596 19.4894L23.5217 21.3325C23.5489 23.8274 23.2229 26.3069 22.7069 28.7281C22.152 31.1416 21.407 33.5163 20.4059 35.7862C20.1498 36.3644 19.9597 36.7718 19.6725 37.3344" fill="white"/>
<path d="M16.6926 42.041C16.6577 42.0837 16.6228 42.1264 16.5878 42.1691C15.0202 44.0937 13.0491 45.8165 10.6472 46.6585C9.45212 47.0659 8.17942 47.2289 6.92999 47.1008C5.68056 46.9379 4.48545 46.3209 3.75209 45.3314C4.5941 46.2239 5.79309 46.6701 6.96103 46.7206C8.14061 46.7322 9.32796 46.4994 10.4028 46.0299C12.5796 45.1064 14.3257 43.3952 15.7458 41.5094C16.0912 41.0438 16.4171 40.5665 16.7314 40.0776" fill="white"/>
<path d="M15.8118 33.4505C14.9193 34.9754 13.7863 36.3878 12.3622 37.4743C11.528 38.1145 10.6123 38.6578 9.6267 39.0186C9.38612 39.1273 9.13003 39.1855 8.8817 39.267C8.63336 39.3523 8.38115 39.4144 8.12506 39.4648C7.62451 39.5812 7.08904 39.6821 6.55745 39.6705C5.49427 39.6783 4.4699 39.4338 3.51925 39.0535C2.56859 38.6733 1.68003 38.1611 0.884583 37.5403C1.75763 38.0408 2.68888 38.4249 3.63953 38.6927C4.59018 38.9527 5.57188 39.1001 6.52253 38.9953C6.99979 38.9643 7.4499 38.844 7.9194 38.7004C8.15222 38.6345 8.38503 38.5608 8.6062 38.4637C8.82737 38.3706 9.06019 38.3008 9.2736 38.1844C10.1505 37.7886 10.9615 37.2609 11.6871 36.6362C13.1344 35.379 14.2791 33.7881 15.1094 32.0304C15.1909 31.8674 15.2685 31.7005 15.3461 31.5337" fill="white"/>
<path d="M17.2163 25.5117C17.5423 23.913 17.744 22.2795 17.8682 20.6459C17.9458 19.6603 17.9924 18.6709 17.9924 17.6853C17.9962 17.1925 17.9613 16.6997 17.9497 16.2031L17.9264 15.4619L17.8682 14.7208C17.713 12.7497 17.4142 10.7863 16.8671 8.88111C16.5994 7.92658 16.2657 6.99145 15.8466 6.08736C15.4275 5.18715 14.9503 4.30246 14.2945 3.53418C15.055 4.20158 15.6565 5.0397 16.1803 5.90887C16.7119 6.77804 17.1271 7.71317 17.4996 8.66382C18.2174 10.5768 18.6753 12.5828 18.9275 14.6083L19.0245 15.3688L19.0866 16.1293C19.1254 16.6376 19.1681 17.146 19.1836 17.6581C19.2146 18.6825 19.203 19.703 19.1525 20.7235C19.04 22.7606 18.7723 24.7939 18.3261 26.796C18.2407 27.153 18.1515 27.51 18.0583 27.867" fill="white"/>
<path d="M13.8172 19.0699C14.0035 18.1659 14.1238 17.2462 14.2208 16.3072C14.3372 15.0345 14.3876 13.7541 14.31 12.4736C14.2829 11.8333 14.2091 11.1931 14.1005 10.5606C13.988 9.92816 13.856 9.29181 13.6116 8.68262C13.9841 9.22585 14.2479 9.8428 14.4652 10.4675C14.6864 11.0922 14.8416 11.7402 14.9697 12.3921C15.2102 13.6997 15.3072 15.0345 15.2801 16.3654C15.2723 17.6886 15.1171 19.0389 14.8377 20.3582" fill="white"/>
<path d="M13.2585 24.5764C12.6726 25.6279 12.0013 26.6329 11.1787 27.5292C10.9537 27.7853 10.6859 28.0065 10.4415 28.2432L10.069 28.5924L9.65769 28.9028C9.37831 29.1046 9.11834 29.3258 8.82732 29.5042L7.93099 30.0048C5.49034 31.2736 2.63062 31.456 0.100727 30.8274C2.71599 30.8895 5.29245 30.385 7.41104 29.0735C8.47034 28.4255 9.39383 27.5874 10.2126 26.66C11.0235 25.721 11.6909 24.6617 12.2574 23.5481C12.3583 23.3463 12.3932 23.2804 12.4825 23.0786" fill="white"/>
<path d="M16.4675 47.2133C16.1377 47.8264 15.8273 48.4472 15.5362 49.0758C15.1987 49.8208 14.8766 50.5736 14.6283 51.338C14.3799 52.0907 14.182 52.8862 14.2092 53.5768C14.2208 53.9183 14.3101 54.2054 14.442 54.3412C14.4614 54.3568 14.4769 54.3762 14.4925 54.3956C14.5041 54.415 14.5002 54.3994 14.4886 54.3878C14.4808 54.38 14.4692 54.3723 14.4575 54.3684C14.4304 54.3645 14.4692 54.3606 14.4692 54.3645C14.4731 54.3723 14.4886 54.3684 14.5157 54.3645C14.5351 54.3606 14.5584 54.3606 14.5778 54.3645L14.6554 54.3412L14.7369 54.3218L14.8223 54.2753C14.9387 54.2365 15.0551 54.1162 15.1754 54.0386C15.284 53.9144 15.4043 53.8058 15.5091 53.6661C15.6061 53.5148 15.7147 53.3789 15.804 53.2199L16.0601 52.7193C16.6809 51.3147 16.968 49.6927 17.1737 48.0902C17.2397 47.2754 17.3522 46.4683 17.3755 45.6457L17.4414 44.4157L17.4608 43.1779C17.5035 41.5288 17.4375 39.8797 17.3328 38.2384C17.1388 34.9557 16.6227 31.6924 15.7303 28.5456C14.8417 25.4065 13.5224 22.3644 11.6017 19.7608C10.6317 18.4764 9.49863 17.2969 8.16384 16.4549C7.50032 16.0319 6.7786 15.7099 6.03748 15.5779C5.308 15.4305 4.55136 15.5702 3.86457 15.9039C3.52311 16.0707 3.20881 16.2841 2.92944 16.5441C2.65394 16.808 2.43277 17.1184 2.25428 17.4598C1.91282 18.1466 1.79253 18.9654 1.88954 19.753C1.98654 20.5446 2.30084 21.3129 2.78975 21.9686C3.25925 22.6399 3.88009 23.2181 4.57852 23.6721C3.8374 23.2879 3.15837 22.7641 2.6035 22.1161C2.04475 21.472 1.64509 20.6765 1.47824 19.8151C1.31139 18.9576 1.37347 18.0496 1.71493 17.2076C1.89342 16.7924 2.13399 16.4005 2.44053 16.063C2.75095 15.7293 3.1118 15.4421 3.50371 15.2132C3.89949 14.9843 4.33019 14.8213 4.78418 14.7243C5.23428 14.6195 5.71931 14.6156 6.17329 14.6738C7.08514 14.7902 7.93491 15.1239 8.69931 15.5585C10.2436 16.4277 11.4931 17.6694 12.5873 19.0003C13.666 20.3467 14.5778 21.8134 15.3189 23.3539C16.0678 24.8904 16.6809 26.4891 17.1814 28.1188C18.1631 31.382 18.6986 34.7578 18.9314 38.1336C19.0323 39.8254 19.0789 41.5171 19.0245 43.205L18.9974 44.4739L18.9198 45.7427C18.8849 46.5886 18.7723 47.4383 18.6792 48.2842C18.4192 49.976 18.0972 51.6794 17.3328 53.3246L17.003 53.9338C16.8827 54.1356 16.7313 54.3257 16.5955 54.5197C16.4481 54.7099 16.258 54.8883 16.0795 55.0668C15.8583 55.2259 15.6643 55.3967 15.3849 55.5053L15.1715 55.5751L14.9464 55.6295C14.8688 55.645 14.7951 55.6644 14.7175 55.6721C14.6322 55.676 14.5507 55.676 14.4653 55.6721C14.3838 55.6721 14.2985 55.6683 14.2014 55.6411C14.1006 55.6139 14.0307 55.6062 13.9143 55.548C13.8561 55.5169 13.8018 55.4859 13.7475 55.451C13.6931 55.4161 13.6388 55.3773 13.6194 55.3501L13.4603 55.1716C13.049 54.6633 12.9753 54.0813 12.9675 53.6001C12.9753 52.6145 13.2508 51.7725 13.5457 50.9577C13.8483 50.1429 14.2092 49.3668 14.6011 48.614C15.2375 47.4112 15.932 46.2549 16.677 45.1335" fill="white"/>
<path d="M23.7351 37.187C23.7313 37.187 23.7313 37.187 23.7351 37.187C23.0716 37.7652 22.4314 38.3744 21.8144 39.003C21.504 39.3172 21.2014 39.6393 20.9026 39.9652L20.4603 40.458C20.3167 40.6249 20.1692 40.7801 20.0063 40.9857L19.9907 42.1653L20.1343 41.9558C21.2402 40.3028 22.443 38.7081 23.7351 37.187Z" fill="white"/>
<path d="M11.4192 6.31982C10.9885 7.0105 10.7208 7.7555 10.5578 8.51214C10.4065 9.26878 10.3755 10.0409 10.4569 10.8053C10.5229 11.5736 10.7285 12.3147 11.0351 13.0209C11.361 13.7155 11.7956 14.3751 12.4009 14.9223C11.6365 14.6118 11.0157 13.9832 10.5695 13.2693C10.131 12.5437 9.87102 11.7133 9.78566 10.8752C9.70805 10.0371 9.77402 9.17178 10.0495 8.37634C10.325 7.58089 10.7712 6.83201 11.4192 6.31982Z" fill="white"/>
<path d="M21.403 44.2295C22.0859 45.3354 22.3614 46.6701 22.4391 47.97C22.5167 49.2815 22.3614 50.6047 21.9967 51.8774C21.6164 53.1423 21.0073 54.3646 20.1032 55.3502C19.2146 56.3396 18.0273 57.0575 16.7662 57.3407C17.907 56.7315 18.8731 55.9206 19.6065 54.9389C20.336 53.9533 20.8598 52.828 21.2051 51.6446C21.5621 50.465 21.7406 49.2233 21.7988 47.9778C21.8376 46.7245 21.7678 45.4673 21.403 44.2295Z" fill="white"/>
<path d="M44.6184 34.8821C43.7221 32.7248 43.1246 30.7148 42.624 28.4332C42.1002 26.0974 41.782 23.7149 41.7665 21.3363C41.7742 18.9228 41.8208 16.5055 42.0963 14.1114C42.364 11.7212 42.7637 9.33484 43.4738 7.03388C43.7997 5.8737 44.2576 4.75619 44.7698 3.66586C45.0336 3.12263 45.3246 2.59492 45.6545 2.08661C45.9804 1.5783 46.3413 1.08551 46.7758 0.658691C45.8174 1.42309 45.0763 2.43583 44.44 3.48349C43.8152 4.54278 43.272 5.66028 42.8413 6.81659C41.9644 9.12531 41.4056 11.5427 41.0409 13.9795L40.7887 15.8109L40.6373 17.6501C40.6141 17.9567 40.583 18.2632 40.5675 18.5697L40.5365 19.4894L40.4744 21.3325C40.4472 23.8274 40.7732 26.3069 41.2892 28.7281C41.8441 31.1416 42.5891 33.5163 43.5902 35.7862C43.8463 36.3644 44.0364 36.7718 44.3235 37.3344" fill="white"/>
<path d="M47.3074 42.041C47.3424 42.0837 47.3773 42.1264 47.4122 42.1691C48.9798 44.0937 50.951 45.8165 53.3528 46.6585C54.5479 47.0659 55.8206 47.2289 57.07 47.1008C58.3195 46.9379 59.5146 46.3209 60.2479 45.3314C59.4059 46.2239 58.2069 46.6701 57.039 46.7206C55.8594 46.7322 54.6721 46.4994 53.5973 46.0299C51.4205 45.1064 49.6744 43.3952 48.2542 41.5094C47.9089 41.0438 47.5829 40.5665 47.2686 40.0776" fill="white"/>
<path d="M48.1882 33.4505C49.0806 34.9754 50.2136 36.3878 51.6377 37.4743C52.4719 38.1145 53.3877 38.6578 54.3732 39.0186C54.6138 39.1273 54.8699 39.1855 55.1182 39.267C55.3666 39.3523 55.6188 39.4144 55.8749 39.4648C56.3754 39.5812 56.9109 39.6821 57.4425 39.6705C58.5057 39.6783 59.53 39.4338 60.4807 39.0535C61.4313 38.6733 62.3199 38.1611 63.1153 37.5403C62.2423 38.0408 61.311 38.4249 60.3604 38.6927C59.4097 38.9527 58.428 39.1001 57.4774 38.9953C57.0001 38.9643 56.55 38.844 56.0805 38.7004C55.8477 38.6345 55.6149 38.5608 55.3937 38.4637C55.1726 38.3706 54.9397 38.3008 54.7263 38.1844C53.8494 37.7886 53.0384 37.2609 52.3128 36.6362C50.8655 35.379 49.7209 33.7881 48.8905 32.0304C48.809 31.8674 48.7314 31.7005 48.6538 31.5337" fill="white"/>
<path d="M46.7797 25.5117C46.4538 23.913 46.252 22.2795 46.1278 20.6459C46.0502 19.6603 46.0037 18.6709 46.0037 17.6853C45.9998 17.1925 46.0347 16.6997 46.0464 16.2031L46.0696 15.4619L46.1278 14.7208C46.283 12.7497 46.5818 10.7863 47.1289 8.88111C47.3967 7.92658 47.7304 6.99145 48.1494 6.08736C48.5685 5.18715 49.0458 4.30246 49.7015 3.53418C48.941 4.20158 48.3396 5.0397 47.8157 5.90887C47.2841 6.77804 46.869 7.71317 46.4965 8.66382C45.7786 10.5768 45.3208 12.5828 45.0685 14.6083L44.9715 15.3688L44.9094 16.1293C44.8706 16.6376 44.828 17.146 44.8124 17.6581C44.7814 18.6825 44.793 19.703 44.8435 20.7235C44.956 22.7606 45.2237 24.7939 45.67 26.796C45.7553 27.153 45.8446 27.51 45.9377 27.867" fill="white"/>
<path d="M50.1789 19.0699C49.9926 18.1659 49.8724 17.2462 49.7754 16.3072C49.659 15.0345 49.6085 13.7541 49.6861 12.4736C49.7133 11.8333 49.787 11.1931 49.8956 10.5606C50.0082 9.92816 50.1401 9.29181 50.3845 8.68262C50.012 9.22585 49.7482 9.8428 49.5309 10.4675C49.3097 11.0922 49.1545 11.7402 49.0265 12.3921C48.7859 13.6997 48.6889 15.0345 48.7161 16.3654C48.7238 17.6886 48.879 19.0389 49.1584 20.3582" fill="white"/>
<path d="M50.7415 24.5764C51.3274 25.6279 51.9987 26.6329 52.8213 27.5292C53.0463 27.7853 53.3141 28.0065 53.5585 28.2432L53.931 28.5924L54.3423 28.9028C54.6217 29.1046 54.8817 29.3258 55.1727 29.5042L56.069 30.0048C58.5097 31.2736 61.3694 31.456 63.8993 30.8274C61.284 30.8895 58.7076 30.385 56.589 29.0735C55.5297 28.4255 54.6062 27.5874 53.7875 26.66C52.9765 25.721 52.3091 24.6617 51.7426 23.5481C51.6417 23.3463 51.6068 23.2804 51.5175 23.0786" fill="white"/>
<path d="M47.5286 47.2133C47.8584 47.8264 48.1688 48.4472 48.4599 49.0758C48.7974 49.8208 49.1195 50.5736 49.3678 51.338C49.6162 52.0907 49.8141 52.8862 49.7869 53.5768C49.7753 53.9183 49.686 54.2054 49.5541 54.3412C49.5347 54.3568 49.5192 54.3762 49.5036 54.3956C49.492 54.415 49.4959 54.3994 49.5075 54.3878C49.5153 54.38 49.5269 54.3723 49.5386 54.3684C49.5657 54.3645 49.5269 54.3606 49.5269 54.3645C49.523 54.3723 49.5075 54.3684 49.4804 54.3645C49.461 54.3606 49.4377 54.3606 49.4183 54.3645L49.3407 54.3412L49.2592 54.3218L49.1738 54.2753C49.0574 54.2365 48.941 54.1162 48.8207 54.0386C48.7121 53.9144 48.5918 53.8058 48.487 53.6661C48.39 53.5148 48.2814 53.3789 48.1921 53.2199L47.936 52.7193C47.3152 51.3147 47.0281 49.6928 46.8224 48.0902C46.7565 47.2754 46.6439 46.4683 46.6206 45.6457L46.5547 44.4157L46.5353 43.1779C46.4926 41.5288 46.5586 39.8797 46.6633 38.2384C46.8573 34.9557 47.3734 31.6924 48.2658 28.5456C49.1544 25.4065 50.4737 22.3644 52.3944 19.7608C53.3644 18.4764 54.4975 17.2969 55.8323 16.4549C56.4958 16.0319 57.2175 15.7099 57.9586 15.5779C58.6881 15.4305 59.4447 15.5702 60.1315 15.9039C60.473 16.0707 60.7873 16.2841 61.0667 16.5441C61.3422 16.808 61.5633 17.1184 61.7418 17.4598C62.0833 18.1466 62.2036 18.9654 62.1066 19.753C62.0096 20.5446 61.6953 21.3129 61.2064 21.9686C60.7368 22.6399 60.116 23.2181 59.4176 23.6721C60.1587 23.2879 60.8377 22.7641 61.3926 22.1161C61.9514 21.472 62.351 20.6765 62.5179 19.8151C62.6847 18.9576 62.6226 18.0496 62.2812 17.2076C62.1027 16.7924 61.8621 16.4005 61.5556 16.063C61.2452 15.7293 60.8843 15.4421 60.4924 15.2132C60.0966 14.9843 59.6659 14.8213 59.2119 14.7243C58.7618 14.6195 58.2768 14.6156 57.8228 14.6738C56.911 14.7902 56.0612 15.1239 55.2968 15.5585C53.7525 16.4277 52.503 17.6694 51.4088 19.0003C50.3301 20.3467 49.4183 21.8134 48.6772 23.3539C47.9283 24.8904 47.3152 26.4891 46.8147 28.1188C45.833 31.382 45.2975 34.7578 45.0647 38.1336C44.9638 39.8254 44.9172 41.5171 44.9716 43.205L44.9987 44.4739L45.0763 45.7427C45.1112 46.5886 45.2238 47.4383 45.3169 48.2842C45.5769 49.976 45.8989 51.6794 46.6633 53.3246L46.9931 53.9338C47.1134 54.1356 47.2648 54.3257 47.4006 54.5197C47.548 54.7099 47.7381 54.8884 47.9166 55.0668C48.1378 55.2259 48.3318 55.3967 48.6112 55.5053L48.8091 55.5907L49.0341 55.645C49.1117 55.6605 49.1855 55.6799 49.2631 55.6877C49.3484 55.6916 49.4299 55.6916 49.5153 55.6877C49.5968 55.6877 49.6821 55.6838 49.7791 55.6566C49.88 55.6295 49.9499 55.6217 50.0663 55.5635C50.1245 55.5325 50.1788 55.5014 50.2331 55.4665C50.2874 55.4316 50.3418 55.3928 50.3612 55.3656L50.5203 55.1871C50.9316 54.6788 51.0053 54.0968 51.013 53.6156C51.0053 52.6301 50.7298 51.7881 50.4349 50.9732C50.1322 50.1584 49.7714 49.3823 49.3795 48.6296C48.7431 47.4267 48.0486 46.2704 47.3036 45.149" fill="white"/>
<path d="M40.2649 37.187C40.9284 37.7652 41.5686 38.3744 42.1856 39.003C42.496 39.3172 42.7987 39.6393 43.0974 39.9652L43.5398 40.458C43.6833 40.6249 43.8308 40.7801 43.9938 40.9857L44.0093 42.1653L43.8657 41.9558C42.756 40.3028 41.557 38.7081 40.2649 37.187Z" fill="white"/>
<path d="M52.5806 6.31982C53.0113 7.0105 53.279 7.7555 53.442 8.51214C53.5933 9.26878 53.6244 10.0409 53.5429 10.8053C53.4769 11.5736 53.2713 12.3147 52.9647 13.0209C52.6388 13.7155 52.2042 14.3751 51.5989 14.9223C52.3633 14.6118 52.9841 13.9832 53.4304 13.2693C53.8688 12.5437 54.1288 11.7133 54.2142 10.8752C54.2918 10.0371 54.2258 9.17178 53.9503 8.37634C53.6748 7.58089 53.2247 6.83201 52.5806 6.31982Z" fill="white"/>
<path d="M42.5929 44.2295C41.91 45.3354 41.6345 46.6701 41.5569 47.97C41.4793 49.2815 41.6345 50.6047 41.9993 51.8774C42.3795 53.1423 42.9887 54.3646 43.8928 55.3502C44.7814 56.3396 45.9687 57.0575 47.2298 57.3407C46.089 56.7315 45.1228 55.9206 44.3895 54.9389C43.66 53.9533 43.1362 52.828 42.7908 51.6446C42.4339 50.465 42.2554 49.2233 42.1972 47.9778C42.1622 46.7245 42.2282 45.4673 42.5929 44.2295Z" fill="white"/>
</svg>
