<svg width="30" height="15" viewBox="0 0 30 15" fill="none" xmlns="http://www.w3.org/2000/svg">
<path fill-rule="evenodd" clip-rule="evenodd" d="M0 1.75C0 0.783502 0.671573 0 1.5 0H28.5C29.3284 0 30 0.783502 30 1.75C30 2.7165 29.3284 3.5 28.5 3.5H1.5C0.671573 3.5 0 2.7165 0 1.75Z" fill="white"/>
<path fill-rule="evenodd" clip-rule="evenodd" d="M-1.39082e-07 12.75C-6.2269e-08 11.7835 0.671573 11 1.5 11L16.2273 11C17.0557 11 17.7273 11.7835 17.7273 12.75C17.7273 13.7165 17.0557 14.5 16.2273 14.5L1.5 14.5C0.671573 14.5 -2.15894e-07 13.7165 -1.39082e-07 12.75Z" fill="white"/>
</svg>
