<svg width="60" height="60" viewBox="0 0 60 60" fill="none" xmlns="http://www.w3.org/2000/svg">
<rect opacity="0.16" width="60" height="60" rx="30" fill="black"/>
<path fill-rule="evenodd" clip-rule="evenodd" d="M19.9899 39.9899C19.4432 39.4432 19.4432 38.5568 19.9899 38.0101L37.809 20.191C38.3558 19.6442 39.2422 19.6442 39.7889 20.191C40.3357 20.7377 40.3357 21.6241 39.7889 22.1709L21.9698 39.9899C21.4231 40.5367 20.5367 40.5367 19.9899 39.9899Z" fill="white"/>
<path fill-rule="evenodd" clip-rule="evenodd" d="M19.9393 20.0607C20.5251 19.4749 21.7501 19.7501 22.6753 20.6753L39.1237 37.1237C40.0489 38.0489 40.3241 39.2739 39.7383 39.8596C39.1525 40.4454 37.9276 40.1703 37.0024 39.245L20.554 22.7966C19.6287 21.8714 19.3536 20.6464 19.9393 20.0607Z" fill="white"/>
</svg>
