<svg width="70" height="70" viewBox="0 0 70 70" fill="none" xmlns="http://www.w3.org/2000/svg">
<rect width="70" height="70" rx="35" fill="white"/>
<path d="M30.75 25.65V30.75H25.65V25.65H30.75ZM33.3 23.1H23.1V33.3H33.3V23.1ZM30.75 39.25V44.35H25.65V39.25H30.75ZM33.3 36.7H23.1V46.9H33.3V36.7ZM44.35 25.65V30.75H39.25V25.65H44.35ZM46.9 23.1H36.7V33.3H46.9V23.1ZM36.7 36.7H39.25V39.25H36.7V36.7ZM39.25 39.25H41.8V41.8H39.25V39.25ZM41.8 36.7H44.35V39.25H41.8V36.7ZM36.7 41.8H39.25V44.35H36.7V41.8ZM39.25 44.35H41.8V46.9H39.25V44.35ZM41.8 41.8H44.35V44.35H41.8V41.8ZM44.35 39.25H46.9V41.8H44.35V39.25ZM44.35 44.35H46.9V46.9H44.35V44.35ZM52 26.5H48.6V21.4H43.5V18H52V26.5ZM52 52V43.5H48.6V48.6H43.5V52H52ZM18 52H26.5V48.6H21.4V43.5H18V52ZM18 18V26.5H21.4V21.4H26.5V18H18Z" fill="black"/>
</svg>
