<svg width="255" height="258" viewBox="0 0 255 258" fill="none" xmlns="http://www.w3.org/2000/svg">
<path d="M232.294 60.6987L230.044 62.0482L225.461 54.4052L227.711 53.0556L232.294 60.6987ZM227.894 55.9122L223.528 57.6536L224.165 55.5738L228.864 63.4089L226.312 64.9395L220.461 55.1833L226.067 52.8659L230.752 49.0117L236.562 58.6993L234.01 60.2299L229.352 52.4633L231.487 52.8809L227.894 55.9122Z" fill="black"/>
<path d="M234.919 70.9339L236.971 69.958L232.88 78.5301L230.908 74.3832L233.728 68.9137L234.525 70.5898L228.489 69.2972L226.551 65.2226L235.796 67.4873L233.744 68.4631L237.525 60.3573L239.525 64.562L237.001 69.5006L236.204 67.8245L241.6 68.9255L243.572 73.0724L234.919 70.9339Z" fill="black"/>
<path d="M243.789 78.459L245.061 81.963L235.301 85.5081L234.029 82.004L243.789 78.459ZM243.789 73.7266L248.099 85.5921L244.986 86.7228L240.676 74.8572L243.789 73.7266Z" fill="black"/>
<path d="M244.157 90.8779L245.209 94.9356C245.327 95.3899 245.521 95.7142 245.792 95.9085C246.065 96.113 246.398 96.1645 246.791 96.0627C247.183 95.961 247.449 95.7542 247.589 95.4426C247.731 95.1412 247.743 94.7634 247.625 94.3091L246.44 89.7402L248.535 90.9326L237.848 93.704L236.912 90.0954L248.528 87.083L250.368 94.1764C250.601 95.0746 250.646 95.906 250.502 96.6705C250.359 97.4349 250.053 98.0818 249.584 98.6111C249.115 99.1404 248.499 99.5042 247.735 99.7023C246.991 99.8951 246.281 99.8755 245.604 99.6434C244.937 99.4086 244.355 98.992 243.858 98.3936C243.371 97.7924 243.012 97.0427 242.779 96.1444L241.586 91.5446L244.157 90.8779ZM243.397 92.7279L244.437 96.7392L240.037 102.145L238.965 98.0096L243.397 92.7279Z" fill="black"/>
<path d="M242.782 105.477L245.726 105.046L246.916 113.184L243.972 113.614L242.782 105.477ZM253.479 110.623L242.383 117.679L241.807 113.737L251.452 107.928L251.598 108.925L240.691 106.106L240.116 102.18L252.766 105.747L253.479 110.623Z" fill="black"/>
<path d="M244.335 125.844L244.282 124.293L254.732 128.384L254.866 132.286L242.684 127.197L242.539 122.96L254.343 117.047L254.48 121.029L244.335 125.844Z" fill="black"/>
<path d="M254.648 133.492L254.503 137.217L242.512 136.75L242.657 133.025L254.648 133.492Z" fill="black"/>
<path d="M244.409 141.367L247.365 141.71L246.417 149.879L243.461 149.536L244.409 141.367ZM253.418 149.096L240.879 153.053L241.338 149.096L252.154 145.97L252.038 146.971L242.227 141.435L242.684 137.494L253.986 144.201L253.418 149.096Z" fill="black"/>
<path d="M250.987 162.499C250.667 163.903 250.142 165.075 249.413 166.013C248.693 166.965 247.829 167.632 246.823 168.015C245.814 168.408 244.717 168.469 243.531 168.198C242.356 167.93 241.394 167.398 240.646 166.604C239.905 165.822 239.412 164.845 239.165 163.672C238.927 162.513 238.968 161.231 239.289 159.827L240.664 153.806L252.363 156.479L250.987 162.499ZM241.416 157.769L243.451 156.478L242.453 160.846C242.309 161.48 242.288 162.05 242.391 162.555C242.503 163.073 242.728 163.501 243.066 163.841C243.404 164.181 243.838 164.411 244.368 164.533C244.909 164.656 245.4 164.637 245.842 164.475C246.294 164.316 246.678 164.026 246.993 163.606C247.316 163.198 247.55 162.677 247.694 162.043L248.692 157.675L249.964 159.722L241.416 157.769Z" fill="black"/>
<path d="M234.934 174.069C235.406 172.709 236.067 171.6 236.917 170.743C237.764 169.897 238.73 169.34 239.816 169.073C240.899 168.816 242.034 168.894 243.224 169.306C244.413 169.718 245.353 170.36 246.044 171.232C246.732 172.114 247.146 173.15 247.287 174.339C247.425 175.538 247.258 176.818 246.786 178.178C246.314 179.539 245.655 180.642 244.808 181.489C243.958 182.346 242.992 182.903 241.909 183.16C240.823 183.427 239.686 183.354 238.496 182.942C237.307 182.529 236.369 181.882 235.681 181C234.99 180.129 234.575 179.093 234.438 177.894C234.297 176.705 234.462 175.43 234.934 174.069ZM238.063 175.154C237.829 175.829 237.739 176.447 237.793 177.008C237.854 177.582 238.045 178.072 238.368 178.477C238.7 178.886 239.154 179.19 239.728 179.389C240.302 179.588 240.842 179.628 241.346 179.51C241.86 179.394 242.313 179.128 242.706 178.711C243.106 178.308 243.423 177.769 243.657 177.093C243.891 176.418 243.978 175.793 243.917 175.219C243.863 174.659 243.67 174.174 243.337 173.765C243.015 173.36 242.567 173.058 241.992 172.858C241.418 172.659 240.873 172.617 240.359 172.733C239.855 172.851 239.403 173.113 239.004 173.516C238.611 173.933 238.297 174.479 238.063 175.154Z" fill="black"/>
<path d="M94.6721 250.002L95.3741 247.474L103.961 249.858L103.259 252.387L94.6721 250.002ZM101.159 250.442L103.125 246.172L104.096 248.119L95.2926 245.674L96.0888 242.807L107.05 245.851L104.581 251.392L103.839 257.413L92.9553 254.391L93.7515 251.523L102.477 253.946L100.642 255.114L101.159 250.442Z" fill="black"/>
<path d="M85.7199 244.389L84.9045 246.51L81.9663 237.478L86.2524 239.126L87.9749 245.033L86.2426 244.367L91.5092 241.147L95.7206 242.766L87.4582 247.492L88.2736 245.371L91.1153 253.852L86.7694 252.181L85.1975 246.862L86.9298 247.529L82.2593 250.447L77.9733 248.799L85.7199 244.389Z" fill="black"/>
<path d="M74.1066 245.043L70.7705 243.379L75.405 234.087L78.7411 235.751L74.1066 245.043ZM77.3657 248.475L66.0688 242.84L67.547 239.877L78.8439 245.511L77.3657 248.475Z" fill="black"/>
<path d="M65.286 236.293L61.7283 234.076C61.33 233.827 60.9658 233.726 60.6357 233.772C60.2965 233.812 60.0198 234.004 59.8054 234.348C59.591 234.692 59.5406 235.025 59.6541 235.347C59.7585 235.663 60.0099 235.946 60.4082 236.194L64.414 238.69L62.0743 239.268L67.9132 229.899L71.0772 231.87L64.7305 242.055L58.5113 238.179C57.7237 237.688 57.1186 237.116 56.696 236.463C56.2734 235.81 56.0498 235.131 56.0251 234.424C56.0004 233.717 56.1969 233.029 56.6143 232.359C57.0205 231.707 57.549 231.232 58.1999 230.934C58.8451 230.645 59.5539 230.546 60.3263 230.638C61.093 230.739 61.8702 231.034 62.6578 231.525L66.6907 234.039L65.286 236.293ZM64.5628 234.428L61.0458 232.236L60.5127 225.287L64.1383 227.546L64.5628 234.428Z" fill="black"/>
<path d="M56.2276 224.76L54.3893 227.101L47.9218 222.021L49.7601 219.68L56.2276 224.76ZM44.9277 228.397L48.1122 215.639L51.2453 218.1L48.2536 228.955L47.4609 228.332L57.3102 222.864L60.4307 225.315L48.8031 231.441L44.9277 228.397Z" fill="black"/>
<path d="M41.0741 211.064L42.181 212.152L31.7862 216.384L29.0017 213.647L41.3385 208.946L44.3626 211.918L39.8771 224.335L37.0356 221.542L41.0741 211.064Z" fill="black"/>
<path d="M28.3292 212.623L25.8688 209.822L34.884 201.902L37.3445 204.703L28.3292 212.623Z" fill="black"/>
<path d="M30.3295 199.862L27.95 201.649L23.0107 195.074L25.3902 193.286L30.3295 199.862ZM18.4739 200.463L24.8398 188.957L27.2325 192.143L21.5438 201.859L20.9384 201.053L31.8643 198.309L34.2475 201.481L21.4336 204.403L18.4739 200.463Z" fill="black"/>
<path d="M11.0045 189.071C10.27 187.833 9.84373 186.622 9.72551 185.44C9.59267 184.254 9.75929 183.175 10.2254 182.205C10.686 181.225 11.4393 180.425 12.4852 179.804C13.522 179.19 14.5854 178.913 15.6754 178.973C16.7507 179.03 17.7815 179.398 18.7676 180.079C19.7391 180.755 20.5921 181.713 21.3265 182.951L24.4763 188.264L14.1543 194.384L11.0045 189.071ZM21.2013 185.909L20.6156 188.246L18.3307 184.393C17.9989 183.833 17.6215 183.406 17.1986 183.111C16.7612 182.812 16.3028 182.656 15.8236 182.643C15.3444 182.629 14.8708 182.761 14.4029 183.039C13.9258 183.321 13.5828 183.674 13.3738 184.095C13.1557 184.522 13.0774 184.996 13.1387 185.518C13.1853 186.036 13.3746 186.575 13.7065 187.135L15.9913 190.988L13.6593 190.38L21.2013 185.909Z" fill="black"/>
<path d="M14.6748 169.627C15.2699 170.938 15.5543 172.197 15.528 173.404C15.4973 174.601 15.1802 175.67 14.5767 176.612C13.9688 177.544 13.0918 178.27 11.9456 178.79C10.7994 179.31 9.67556 179.492 8.57394 179.336C7.46792 179.17 6.45432 178.705 5.53314 177.94C4.60756 177.165 3.84722 176.122 3.25212 174.811C2.65701 173.5 2.37482 172.245 2.40554 171.048C2.43185 169.842 2.74896 168.772 3.35686 167.841C3.96035 166.899 4.83517 166.168 5.98133 165.648C7.12748 165.128 8.25357 164.951 9.3596 165.116C10.4612 165.272 11.4748 165.738 12.4004 166.512C13.3216 167.277 14.0797 168.316 14.6748 169.627ZM11.6589 170.996C11.3635 170.345 11.0032 169.835 10.5779 169.466C10.1385 169.091 9.66239 168.868 9.14954 168.796C8.62697 168.729 8.08886 168.821 7.53521 169.072C6.98156 169.323 6.56292 169.665 6.2793 170.099C5.98595 170.536 5.84044 171.042 5.84275 171.615C5.83094 172.182 5.97271 172.791 6.26806 173.442C6.56341 174.093 6.93078 174.606 7.37019 174.98C7.79547 175.349 8.26939 175.568 8.79196 175.635C9.30481 175.707 9.83806 175.617 10.3917 175.366C10.9454 175.115 11.3689 174.77 11.6622 174.333C11.9458 173.899 12.0935 173.399 12.1054 172.831C12.103 172.258 11.9542 171.646 11.6589 170.996Z" fill="black"/>
<path d="M32.8453 46.4506L34.7502 48.2553L28.6208 54.7249L26.716 52.9202L32.8453 46.4506ZM29.4181 51.9757L32.2692 55.7129L30.0947 55.6584L36.3781 49.0263L38.5385 51.073L30.7145 59.3313L26.9751 54.5543L22.0033 51.0781L29.7723 42.878L31.9327 44.9247L25.7043 51.4988L25.5325 49.3304L29.4181 51.9757Z" fill="black"/>
<path d="M41.998 41.171L40.5064 39.4572L49.8626 41.0926L46.3988 44.1073L40.3724 42.8615L41.7725 41.643L42.1504 47.8047L38.7469 50.7668L38.4426 41.2534L39.9341 42.9672L31.1103 41.5048L34.6224 38.4481L40.0576 39.5508L38.6576 40.7693L38.2673 35.2759L41.7312 32.2613L41.998 41.171Z" fill="black"/>
<path d="M46.8611 30.605L49.8939 28.4371L55.9324 36.8848L52.8996 39.0527L46.8611 30.605ZM42.3027 31.877L52.5727 24.5358L54.4987 27.2302L44.2287 34.5714L42.3027 31.877Z" fill="black"/>
<path d="M58.7242 26.9108L62.3496 24.8063C62.7555 24.5707 63.0156 24.2963 63.1299 23.9833C63.2535 23.6649 63.2135 23.3305 63.01 22.9799C62.8065 22.6294 62.5359 22.4288 62.1982 22.3782C61.8697 22.3222 61.5025 22.412 61.0966 22.6476L57.0145 25.0172L57.5999 22.6794L63.1424 32.2273L59.9182 34.0989L53.8938 23.7207L60.2314 20.0418C61.034 19.5759 61.8227 19.3092 62.5976 19.2418C63.3724 19.1743 64.0778 19.2952 64.7136 19.6044C65.3495 19.9137 65.8655 20.4096 66.2618 21.0923C66.6474 21.7565 66.8194 22.446 66.778 23.1607C66.7312 23.8662 66.4864 24.5387 66.0435 25.1781C65.5953 25.8083 64.9699 26.3563 64.1674 26.8222L60.0576 29.2079L58.7242 26.9108ZM60.7104 27.1454L64.2943 25.0649L70.6838 27.8495L66.9892 29.9942L60.7104 27.1454Z" fill="black"/>
<path d="M73.1558 24.31L71.9493 21.5896L79.4671 18.2554L80.6737 20.9759L73.1558 24.31ZM75.2364 12.623L85.0158 21.4131L81.3738 23.0283L73.1857 15.3003L74.1071 14.8916L74.3241 26.1548L70.6968 27.7635L70.7315 14.6209L75.2364 12.623Z" fill="black"/>
<path d="M92.3549 17.3388L90.8752 17.8071L92.0064 6.6412L95.7284 5.4631L94.1022 18.5646L90.0599 19.8441L81.1913 10.0645L84.9896 8.86221L92.3549 17.3388Z" fill="black"/>
<path d="M96.9491 5.34863L100.576 4.48691L103.35 16.1619L99.7229 17.0237L96.9491 5.34863Z" fill="black"/>
<path d="M107.286 13.0945L106.821 10.155L114.944 8.87161L115.409 11.8111L107.286 13.0945ZM112.309 2.33888L119.491 13.3529L115.556 13.9746L109.637 4.397L110.633 4.2397L107.939 15.1781L104.019 15.7973L107.441 3.1079L112.309 2.33888Z" fill="black"/>
<path d="M125.872 1.07597C127.311 1.00739 128.58 1.19782 129.68 1.64728C130.79 2.08557 131.665 2.73798 132.304 3.60451C132.954 4.47054 133.308 5.51086 133.366 6.72548C133.423 7.92945 133.17 8.99873 132.606 9.93332C132.052 10.8568 131.244 11.5948 130.181 12.1473C129.128 12.6888 127.882 12.9938 126.444 13.0624L120.275 13.3565L119.703 1.37012L125.872 1.07597ZM123.89 11.5663L122.099 9.95377L126.574 9.74039C127.224 9.7094 127.778 9.57619 128.237 9.34074C128.706 9.09414 129.058 8.7623 129.295 8.34523C129.531 7.92817 129.636 7.44794 129.61 6.90456C129.584 6.35052 129.433 5.88249 129.159 5.50047C128.884 5.10778 128.502 4.81633 128.012 4.6261C127.533 4.42471 126.968 4.33951 126.318 4.37049L121.843 4.58387L123.472 2.80825L123.89 11.5663Z" fill="black"/>
<path d="M141.332 13.4277C139.895 13.3392 138.649 13.0007 137.595 12.4121C136.552 11.8242 135.756 11.0431 135.207 10.0689C134.668 9.09524 134.438 7.98029 134.515 6.724C134.593 5.46772 134.958 4.38949 135.612 3.48932C136.277 2.58981 137.163 1.91232 138.27 1.45687C139.388 1.00208 140.666 0.818946 142.103 0.90747C143.541 0.995993 144.781 1.33421 145.824 1.92212C146.878 2.51068 147.674 3.29177 148.212 4.26538C148.762 5.23965 148.997 6.35492 148.92 7.61121C148.843 8.8675 148.472 9.9454 147.807 10.8449C147.153 11.7451 146.267 12.4226 145.149 12.8774C144.042 13.3328 142.769 13.5163 141.332 13.4277ZM141.536 10.122C142.249 10.1659 142.868 10.0865 143.394 9.88379C143.931 9.67105 144.351 9.35495 144.655 8.93549C144.959 8.50539 145.13 7.98691 145.167 7.38006C145.205 6.77321 145.098 6.24301 144.848 5.78946C144.599 5.32525 144.221 4.95998 143.714 4.69362C143.218 4.41728 142.613 4.25714 141.9 4.21321C141.186 4.16927 140.561 4.25367 140.025 4.46641C139.499 4.66916 139.084 4.98559 138.78 5.41569C138.476 5.83515 138.306 6.3483 138.268 6.95515C138.231 7.562 138.337 8.09753 138.586 8.56173C138.836 9.01528 139.209 9.38023 139.705 9.65658C140.212 9.92293 140.822 10.0781 141.536 10.122Z" fill="black"/>
</svg>
