<svg width="255" height="257" viewBox="0 0 255 257" fill="none" xmlns="http://www.w3.org/2000/svg">
<path d="M232.325 59.9965L230.074 61.346L225.491 53.703L227.741 52.3535L232.325 59.9965ZM227.924 55.21L223.558 56.9514L224.195 54.8716L228.894 62.7068L226.342 64.2373L220.491 54.4811L226.098 52.1638L230.782 48.3096L236.592 57.9972L234.04 59.5277L229.382 51.7612L231.517 52.1787L227.924 55.21Z" fill="black"/>
<path d="M234.949 70.2317L237.001 69.2559L232.91 77.8279L230.938 73.6811L233.758 68.2115L234.555 69.8876L228.519 68.595L226.581 64.5205L235.826 66.7851L233.774 67.761L237.555 59.6552L239.555 63.8598L237.031 68.7984L236.234 67.1224L241.63 68.2234L243.603 72.3702L234.949 70.2317Z" fill="black"/>
<path d="M243.819 77.7569L245.092 81.2609L235.331 84.8059L234.059 81.3019L243.819 77.7569ZM243.819 73.0244L248.129 84.89L245.016 86.0207L240.706 74.1551L243.819 73.0244Z" fill="black"/>
<path d="M244.187 90.1767L245.239 94.2345C245.357 94.6888 245.551 95.013 245.822 95.2073C246.096 95.4119 246.428 95.4633 246.821 95.3615C247.213 95.2598 247.479 95.0531 247.619 94.7414C247.761 94.44 247.773 94.0622 247.655 93.6079L246.47 89.039L248.565 90.2315L237.878 93.0028L236.942 89.3942L248.558 86.3818L250.398 93.4752C250.631 94.3735 250.676 95.2048 250.532 95.9693C250.389 96.7338 250.083 97.3807 249.614 97.91C249.145 98.4393 248.529 98.803 247.765 99.0011C247.021 99.1939 246.311 99.1743 245.634 98.9422C244.967 98.7074 244.385 98.2908 243.888 97.6924C243.402 97.0913 243.042 96.3416 242.809 95.4433L241.616 90.8434L244.187 90.1767ZM243.427 92.0267L244.467 96.038L240.067 101.444L238.995 97.3084L243.427 92.0267Z" fill="black"/>
<path d="M242.812 104.776L245.756 104.345L246.947 112.483L244.002 112.913L242.812 104.776ZM253.509 109.922L242.413 116.978L241.837 113.036L251.482 107.227L251.628 108.224L240.721 105.405L240.146 101.479L252.796 105.046L253.509 109.922Z" fill="black"/>
<path d="M244.365 125.143L244.312 123.591L254.762 127.683L254.896 131.585L242.715 126.496L242.569 122.258L254.373 116.346L254.51 120.327L244.365 125.143Z" fill="black"/>
<path d="M254.678 132.791L254.533 136.516L242.542 136.049L242.687 132.324L254.678 132.791Z" fill="black"/>
<path d="M244.439 140.664L247.395 141.007L246.448 149.177L243.491 148.834L244.439 140.664ZM253.448 148.394L240.909 152.351L241.368 148.394L252.184 145.268L252.068 146.269L242.257 140.733L242.714 136.792L254.016 143.499L253.448 148.394Z" fill="black"/>
<path d="M251.017 161.798C250.697 163.202 250.172 164.373 249.443 165.312C248.723 166.263 247.859 166.931 246.853 167.313C245.844 167.707 244.747 167.768 243.561 167.497C242.386 167.229 241.424 166.697 240.676 165.902C239.935 165.121 239.442 164.144 239.195 162.971C238.957 161.812 238.998 160.53 239.319 159.126L240.694 153.105L252.393 155.777L251.017 161.798ZM241.446 157.068L243.481 155.777L242.483 160.144C242.339 160.779 242.318 161.348 242.421 161.854C242.533 162.371 242.758 162.8 243.096 163.14C243.434 163.48 243.868 163.71 244.399 163.831C244.939 163.955 245.431 163.936 245.872 163.774C246.324 163.615 246.708 163.325 247.023 162.905C247.346 162.497 247.58 161.976 247.724 161.342L248.722 156.974L249.994 159.021L241.446 157.068Z" fill="black"/>
<path d="M238.614 170.264L241.426 171.238L238.732 179.009L235.92 178.034L238.614 170.264ZM245.736 179.76L232.637 180.909L233.942 177.145L245.179 176.434L244.849 177.387L236.468 169.858L237.768 166.109L247.35 175.104L245.736 179.76Z" fill="black"/>
<path d="M94.7021 249.302L95.4042 246.774L103.991 249.158L103.289 251.686L94.7021 249.302ZM101.189 249.742L103.155 245.472L104.126 247.419L95.3226 244.974L96.1189 242.107L107.08 245.15L104.611 250.692L103.87 256.713L92.9853 253.691L93.7816 250.823L102.507 253.246L100.672 254.414L101.189 249.742Z" fill="black"/>
<path d="M85.7499 243.689L84.9345 245.81L81.9963 236.777L86.2824 238.425L88.0049 244.333L86.2726 243.667L91.5392 240.447L95.7506 242.066L87.4883 246.792L88.3037 244.671L91.1453 253.152L86.7995 251.481L85.2275 246.162L86.9598 246.828L82.2894 249.747L78.0033 248.099L85.7499 243.689Z" fill="black"/>
<path d="M74.1367 244.342L70.8006 242.678L75.4351 233.386L78.7712 235.05L74.1367 244.342ZM77.3959 247.773L66.099 242.139L67.5771 239.175L78.8741 244.81L77.3959 247.773Z" fill="black"/>
<path d="M65.316 235.591L61.7583 233.374C61.36 233.126 60.9958 233.025 60.6657 233.071C60.3266 233.111 60.0498 233.303 59.8354 233.647C59.621 233.991 59.5706 234.324 59.6841 234.646C59.7885 234.962 60.0399 235.244 60.4382 235.493L64.444 237.989L62.1043 238.567L67.9433 229.198L71.1072 231.169L64.7605 241.354L58.5413 237.478C57.7537 236.987 57.1486 236.415 56.726 235.762C56.3034 235.109 56.0798 234.429 56.0551 233.723C56.0305 233.016 56.2269 232.328 56.6444 231.658C57.0505 231.006 57.5791 230.531 58.2299 230.233C58.8752 229.944 59.584 229.845 60.3563 229.937C61.1231 230.037 61.9002 230.333 62.6878 230.824L66.7208 233.337L65.316 235.591ZM64.5928 233.727L61.0758 231.535L60.5427 224.586L64.1683 226.845L64.5928 233.727Z" fill="black"/>
<path d="M56.2577 224.06L54.4195 226.4L47.952 221.321L49.7902 218.98L56.2577 224.06ZM44.9578 227.697L48.1424 214.939L51.2755 217.4L48.2838 228.254L47.4911 227.632L57.3403 222.164L60.4608 224.615L48.8333 230.741L44.9578 227.697Z" fill="black"/>
<path d="M41.1042 210.364L42.2111 211.452L31.8163 215.683L29.0319 212.947L41.3686 208.246L44.3927 211.218L39.9072 223.635L37.0657 220.842L41.1042 210.364Z" fill="black"/>
<path d="M28.3593 211.922L25.8988 209.121L34.9141 201.201L37.3745 204.002L28.3593 211.922Z" fill="black"/>
<path d="M30.3596 199.162L27.9802 200.949L23.0409 194.373L25.4203 192.586L30.3596 199.162ZM18.5041 199.762L24.8699 188.257L27.2627 191.442L21.5739 201.159L20.9685 200.353L31.8945 197.609L34.2776 200.781L21.4638 203.703L18.5041 199.762Z" fill="black"/>
<path d="M11.0346 188.37C10.3002 187.132 9.87388 185.921 9.75566 184.739C9.62282 183.553 9.78944 182.474 10.2555 181.503C10.7161 180.523 11.4694 179.723 12.5154 179.103C13.5522 178.488 14.6156 178.211 15.7055 178.272C16.7809 178.329 17.8116 178.697 18.7977 179.377C19.7693 180.054 20.6222 181.011 21.3566 182.25L24.5065 187.562L14.1844 193.683L11.0346 188.37ZM21.2314 185.207L20.6457 187.545L18.3609 183.692C18.029 183.132 17.6517 182.705 17.2288 182.41C16.7913 182.111 16.333 181.955 15.8537 181.941C15.3745 181.928 14.901 182.06 14.433 182.337C13.9559 182.62 13.6129 182.972 13.404 183.394C13.1859 183.821 13.1075 184.295 13.1688 184.817C13.2155 185.335 13.4048 185.874 13.7366 186.433L16.0215 190.287L13.6895 189.679L21.2314 185.207Z" fill="black"/>
<path d="M14.1962 173.69L11.4862 174.92L8.08753 167.431L10.7975 166.201L14.1962 173.69ZM2.49172 171.71L11.1973 161.855L12.8438 165.483L5.18653 173.737L4.76996 172.819L16.0309 172.506L17.6707 176.119L4.5283 176.197L2.49172 171.71Z" fill="black"/>
<path d="M32.8754 45.7495L34.7802 47.5542L28.6509 54.0237L26.746 52.219L32.8754 45.7495ZM29.4481 51.2746L32.2992 55.0117L30.1248 54.9572L36.4082 48.3251L38.5685 50.3719L30.7445 58.6301L27.0052 53.8531L22.0333 50.377L29.8023 42.1768L31.9627 44.2236L25.7343 50.7976L25.5626 48.6293L29.4481 51.2746Z" fill="black"/>
<path d="M42.0281 40.4698L40.5366 38.756L49.8928 40.3915L46.4289 43.4061L40.4026 42.1603L41.8026 40.9419L42.1806 47.1035L38.777 50.0656L38.4727 40.5522L39.9643 42.266L31.1404 40.8036L34.6526 37.7469L40.0878 38.8496L38.6878 40.0681L38.2975 34.5747L41.7614 31.5601L42.0281 40.4698Z" fill="black"/>
<path d="M46.8912 29.9038L49.924 27.7359L55.9626 36.1836L52.9298 38.3515L46.8912 29.9038ZM42.3329 31.1758L52.6029 23.8346L54.5289 26.529L44.2589 33.8702L42.3329 31.1758Z" fill="black"/>
<path d="M58.7542 26.2106L62.3797 24.1061C62.7856 23.8705 63.0457 23.5962 63.16 23.2831C63.2835 22.9648 63.2435 22.6303 63.04 22.2797C62.8365 21.9292 62.5659 21.7286 62.2282 21.678C61.8997 21.622 61.5325 21.7118 61.1266 21.9474L57.0445 24.317L57.6299 21.9792L63.1724 31.5271L59.9483 33.3987L53.9238 23.0205L60.2614 19.3416C61.064 18.8757 61.8527 18.609 62.6276 18.5416C63.4024 18.4741 64.1078 18.595 64.7437 18.9042C65.3795 19.2135 65.8956 19.7094 66.2918 20.3921C66.6774 21.0563 66.8495 21.7458 66.808 22.4605C66.7612 23.166 66.5164 23.8385 66.0736 24.4779C65.6254 25.1081 65 25.6561 64.1974 26.122L60.0876 28.5077L58.7542 26.2106ZM60.7404 26.4452L64.3244 24.3648L70.7139 27.1493L67.0192 29.294L60.7404 26.4452Z" fill="black"/>
<path d="M73.186 23.6099L71.9795 20.8894L79.4973 17.5552L80.7038 20.2757L73.186 23.6099ZM75.2665 11.9228L85.0459 20.7129L81.404 22.3281L73.2159 14.6001L74.1373 14.1914L74.3542 25.4546L70.7269 27.0633L70.7617 13.9207L75.2665 11.9228Z" fill="black"/>
<path d="M92.385 16.6386L90.9054 17.1069L92.0366 5.941L95.7586 4.7629L94.1324 17.8644L90.0901 19.1439L81.2214 9.36426L85.0197 8.16201L92.385 16.6386Z" fill="black"/>
<path d="M96.9791 4.64844L100.606 3.78672L103.38 15.4617L99.7529 16.3235L96.9791 4.64844Z" fill="black"/>
<path d="M107.316 12.3933L106.851 9.4538L114.974 8.17044L115.439 11.11L107.316 12.3933ZM112.339 1.63771L119.521 12.6518L115.586 13.2735L109.667 3.69583L110.663 3.53853L107.969 14.4769L104.049 15.0962L107.471 2.40673L112.339 1.63771Z" fill="black"/>
<path d="M125.903 0.375774C127.341 0.307191 128.61 0.497626 129.71 0.94708C130.82 1.38537 131.695 2.03778 132.334 2.90432C132.984 3.77034 133.338 4.81067 133.396 6.02529C133.454 7.22925 133.2 8.29853 132.636 9.23313C132.082 10.1566 131.274 10.8946 130.211 11.4472C129.158 11.9886 127.913 12.2936 126.474 12.3622L120.305 12.6563L119.734 0.669922L125.903 0.375774ZM123.92 10.8661L122.129 9.25357L126.604 9.0402C127.254 9.00921 127.808 8.87599 128.267 8.64055C128.736 8.39394 129.088 8.0621 129.325 7.64504C129.561 7.22797 129.666 6.74775 129.64 6.20437C129.614 5.65033 129.464 5.1823 129.189 4.80027C128.914 4.40759 128.532 4.11613 128.042 3.9259C127.563 3.72451 126.998 3.63931 126.348 3.6703L121.873 3.88367L123.502 2.10806L123.92 10.8661Z" fill="black"/>
<path d="M137.392 10.0457L137.574 7.07528L145.783 7.58085L145.6 10.5512L137.392 10.0457ZM144.624 0.632453L149.252 12.9402L145.276 12.6953L141.57 2.06343L142.576 2.1254L137.578 12.2212L133.618 11.9773L139.705 0.329505L144.624 0.632453Z" fill="black"/>
</svg>
