<svg width="144" height="21" viewBox="0 0 144 21" fill="none" xmlns="http://www.w3.org/2000/svg">
<path fill-rule="evenodd" clip-rule="evenodd" d="M8 15.5211C11.0492 15.5211 13.5211 13.0492 13.5211 10C13.5211 6.95077 11.0492 4.47887 8 4.47887C4.95077 4.47887 2.47887 6.95077 2.47887 10C2.47887 13.0492 4.95077 15.5211 8 15.5211ZM8 18C12.4183 18 16 14.4183 16 10C16 5.58172 12.4183 2 8 2C3.58172 2 0 5.58172 0 10C0 14.4183 3.58172 18 8 18Z" fill="#D7CFB9"/>
<path d="M13.1765 7.0196C13.1765 8.23246 12.123 9.21567 10.8235 9.21567C9.52403 9.21567 8.47058 8.23246 8.47058 7.0196C8.47058 5.80673 9.52403 4.82352 10.8235 4.82352C12.123 4.82352 13.1765 5.80673 13.1765 7.0196Z" fill="#D7CFB9"/>
<path d="M27.762 14.002H31.902V16H25.242V3.436H27.762V14.002ZM32.8557 10.978C32.8557 9.97 33.0537 9.076 33.4497 8.296C33.8577 7.516 34.4037 6.916 35.0877 6.496C35.7837 6.076 36.5577 5.866 37.4097 5.866C38.1537 5.866 38.8017 6.016 39.3537 6.316C39.9177 6.616 40.3677 6.994 40.7037 7.45V6.028H43.2417V16H40.7037V14.542C40.3797 15.01 39.9297 15.4 39.3537 15.712C38.7897 16.012 38.1357 16.162 37.3917 16.162C36.5517 16.162 35.7837 15.946 35.0877 15.514C34.4037 15.082 33.8577 14.476 33.4497 13.696C33.0537 12.904 32.8557 11.998 32.8557 10.978ZM40.7037 11.014C40.7037 10.402 40.5837 9.88 40.3437 9.448C40.1037 9.004 39.7797 8.668 39.3717 8.44C38.9637 8.2 38.5257 8.08 38.0577 8.08C37.5897 8.08 37.1577 8.194 36.7617 8.422C36.3657 8.65 36.0417 8.986 35.7897 9.43C35.5497 9.862 35.4297 10.378 35.4297 10.978C35.4297 11.578 35.5497 12.106 35.7897 12.562C36.0417 13.006 36.3657 13.348 36.7617 13.588C37.1697 13.828 37.6017 13.948 38.0577 13.948C38.5257 13.948 38.9637 13.834 39.3717 13.606C39.7797 13.366 40.1037 13.03 40.3437 12.598C40.5837 12.154 40.7037 11.626 40.7037 11.014ZM48.2229 7.468C48.5469 7.012 48.9909 6.634 49.5549 6.334C50.1309 6.022 50.7849 5.866 51.5169 5.866C52.3689 5.866 53.1369 6.076 53.8209 6.496C54.5169 6.916 55.0629 7.516 55.4589 8.296C55.8669 9.064 56.0709 9.958 56.0709 10.978C56.0709 11.998 55.8669 12.904 55.4589 13.696C55.0629 14.476 54.5169 15.082 53.8209 15.514C53.1369 15.946 52.3689 16.162 51.5169 16.162C50.7849 16.162 50.1369 16.012 49.5729 15.712C49.0209 15.412 48.5709 15.034 48.2229 14.578V20.752H45.7029V6.028H48.2229V7.468ZM53.4969 10.978C53.4969 10.378 53.3709 9.862 53.1189 9.43C52.8789 8.986 52.5549 8.65 52.1469 8.422C51.7509 8.194 51.3189 8.08 50.8509 8.08C50.3949 8.08 49.9629 8.2 49.5549 8.44C49.1589 8.668 48.8349 9.004 48.5829 9.448C48.3429 9.892 48.2229 10.414 48.2229 11.014C48.2229 11.614 48.3429 12.136 48.5829 12.58C48.8349 13.024 49.1589 13.366 49.5549 13.606C49.9629 13.834 50.3949 13.948 50.8509 13.948C51.3189 13.948 51.7509 13.828 52.1469 13.588C52.5549 13.348 52.8789 13.006 53.1189 12.562C53.3709 12.118 53.4969 11.59 53.4969 10.978ZM67.1722 10.798C67.1722 11.158 67.1482 11.482 67.1002 11.77H59.8102C59.8702 12.49 60.1222 13.054 60.5662 13.462C61.0102 13.87 61.5562 14.074 62.2042 14.074C63.1402 14.074 63.8062 13.672 64.2022 12.868H66.9202C66.6322 13.828 66.0802 14.62 65.2642 15.244C64.4482 15.856 63.4462 16.162 62.2582 16.162C61.2982 16.162 60.4342 15.952 59.6662 15.532C58.9102 15.1 58.3162 14.494 57.8842 13.714C57.4642 12.934 57.2542 12.034 57.2542 11.014C57.2542 9.982 57.4642 9.076 57.8842 8.296C58.3042 7.516 58.8922 6.916 59.6482 6.496C60.4042 6.076 61.2742 5.866 62.2582 5.866C63.2062 5.866 64.0522 6.07 64.7962 6.478C65.5522 6.886 66.1342 7.468 66.5422 8.224C66.9622 8.968 67.1722 9.826 67.1722 10.798ZM64.5622 10.078C64.5502 9.43 64.3162 8.914 63.8602 8.53C63.4042 8.134 62.8462 7.936 62.1862 7.936C61.5622 7.936 61.0342 8.128 60.6022 8.512C60.1822 8.884 59.9242 9.406 59.8282 10.078H64.5622ZM71.5315 7.576C71.8555 7.048 72.2755 6.634 72.7915 6.334C73.3195 6.034 73.9195 5.884 74.5915 5.884V8.53H73.9255C73.1335 8.53 72.5335 8.716 72.1255 9.088C71.7295 9.46 71.5315 10.108 71.5315 11.032V16H69.0115V6.028H71.5315V7.576ZM83.0979 14.002H87.2379V16H80.5779V3.436H83.0979V14.002ZM88.1917 10.978C88.1917 9.97 88.3897 9.076 88.7857 8.296C89.1937 7.516 89.7397 6.916 90.4237 6.496C91.1197 6.076 91.8937 5.866 92.7457 5.866C93.4897 5.866 94.1377 6.016 94.6897 6.316C95.2537 6.616 95.7037 6.994 96.0397 7.45V6.028H98.5777V16H96.0397V14.542C95.7157 15.01 95.2657 15.4 94.6897 15.712C94.1257 16.012 93.4717 16.162 92.7277 16.162C91.8877 16.162 91.1197 15.946 90.4237 15.514C89.7397 15.082 89.1937 14.476 88.7857 13.696C88.3897 12.904 88.1917 11.998 88.1917 10.978ZM96.0397 11.014C96.0397 10.402 95.9197 9.88 95.6797 9.448C95.4397 9.004 95.1157 8.668 94.7077 8.44C94.2997 8.2 93.8617 8.08 93.3937 8.08C92.9257 8.08 92.4937 8.194 92.0977 8.422C91.7017 8.65 91.3777 8.986 91.1257 9.43C90.8857 9.862 90.7657 10.378 90.7657 10.978C90.7657 11.578 90.8857 12.106 91.1257 12.562C91.3777 13.006 91.7017 13.348 92.0977 13.588C92.5057 13.828 92.9377 13.948 93.3937 13.948C93.8617 13.948 94.2997 13.834 94.7077 13.606C95.1157 13.366 95.4397 13.03 95.6797 12.598C95.9197 12.154 96.0397 11.626 96.0397 11.014ZM107.519 16L104.747 11.104H103.559V16H101.039V3.436H105.755C106.727 3.436 107.555 3.61 108.239 3.958C108.923 4.294 109.433 4.756 109.769 5.344C110.117 5.92 110.291 6.568 110.291 7.288C110.291 8.116 110.051 8.866 109.571 9.538C109.091 10.198 108.377 10.654 107.429 10.906L110.435 16H107.519ZM103.559 9.214H105.665C106.349 9.214 106.859 9.052 107.195 8.728C107.531 8.392 107.699 7.93 107.699 7.342C107.699 6.766 107.531 6.322 107.195 6.01C106.859 5.686 106.349 5.524 105.665 5.524H103.559V9.214ZM116.998 16.162C116.038 16.162 115.174 15.952 114.406 15.532C113.638 15.1 113.032 14.494 112.588 13.714C112.156 12.934 111.94 12.034 111.94 11.014C111.94 9.994 112.162 9.094 112.606 8.314C113.062 7.534 113.68 6.934 114.46 6.514C115.24 6.082 116.11 5.866 117.07 5.866C118.03 5.866 118.9 6.082 119.68 6.514C120.46 6.934 121.072 7.534 121.516 8.314C121.972 9.094 122.2 9.994 122.2 11.014C122.2 12.034 121.966 12.934 121.498 13.714C121.042 14.494 120.418 15.1 119.626 15.532C118.846 15.952 117.97 16.162 116.998 16.162ZM116.998 13.966C117.454 13.966 117.88 13.858 118.276 13.642C118.684 13.414 119.008 13.078 119.248 12.634C119.488 12.19 119.608 11.65 119.608 11.014C119.608 10.066 119.356 9.34 118.852 8.836C118.36 8.32 117.754 8.062 117.034 8.062C116.314 8.062 115.708 8.32 115.216 8.836C114.736 9.34 114.496 10.066 114.496 11.014C114.496 11.962 114.73 12.694 115.198 13.21C115.678 13.714 116.278 13.966 116.998 13.966ZM127.865 16.162C127.049 16.162 126.317 16.018 125.669 15.73C125.021 15.43 124.505 15.028 124.121 14.524C123.749 14.02 123.545 13.462 123.509 12.85H126.047C126.095 13.234 126.281 13.552 126.605 13.804C126.941 14.056 127.355 14.182 127.847 14.182C128.327 14.182 128.699 14.086 128.963 13.894C129.239 13.702 129.377 13.456 129.377 13.156C129.377 12.832 129.209 12.592 128.873 12.436C128.549 12.268 128.027 12.088 127.307 11.896C126.563 11.716 125.951 11.53 125.471 11.338C125.003 11.146 124.595 10.852 124.247 10.456C123.911 10.06 123.743 9.526 123.743 8.854C123.743 8.302 123.899 7.798 124.211 7.342C124.535 6.886 124.991 6.526 125.579 6.262C126.179 5.998 126.881 5.866 127.685 5.866C128.873 5.866 129.821 6.166 130.529 6.766C131.237 7.354 131.627 8.152 131.699 9.16H129.287C129.251 8.764 129.083 8.452 128.783 8.224C128.495 7.984 128.105 7.864 127.613 7.864C127.157 7.864 126.803 7.948 126.551 8.116C126.311 8.284 126.191 8.518 126.191 8.818C126.191 9.154 126.359 9.412 126.695 9.592C127.031 9.76 127.553 9.934 128.261 10.114C128.981 10.294 129.575 10.48 130.043 10.672C130.511 10.864 130.913 11.164 131.249 11.572C131.597 11.968 131.777 12.496 131.789 13.156C131.789 13.732 131.627 14.248 131.303 14.704C130.991 15.16 130.535 15.52 129.935 15.784C129.347 16.036 128.657 16.162 127.865 16.162ZM143.127 10.798C143.127 11.158 143.103 11.482 143.055 11.77H135.765C135.825 12.49 136.077 13.054 136.521 13.462C136.965 13.87 137.511 14.074 138.159 14.074C139.095 14.074 139.761 13.672 140.157 12.868H142.875C142.587 13.828 142.035 14.62 141.219 15.244C140.403 15.856 139.401 16.162 138.213 16.162C137.253 16.162 136.389 15.952 135.621 15.532C134.865 15.1 134.271 14.494 133.839 13.714C133.419 12.934 133.209 12.034 133.209 11.014C133.209 9.982 133.419 9.076 133.839 8.296C134.259 7.516 134.847 6.916 135.603 6.496C136.359 6.076 137.229 5.866 138.213 5.866C139.161 5.866 140.007 6.07 140.751 6.478C141.507 6.886 142.089 7.468 142.497 8.224C142.917 8.968 143.127 9.826 143.127 10.798ZM140.517 10.078C140.505 9.43 140.271 8.914 139.815 8.53C139.359 8.134 138.801 7.936 138.141 7.936C137.517 7.936 136.989 8.128 136.557 8.512C136.137 8.884 135.879 9.406 135.783 10.078H140.517ZM140.139 3.4L135.999 5.29V3.49L140.139 1.348V3.4Z" fill="#D7CFB9"/>
</svg>
