<svg width="641" height="106" viewBox="0 0 641 106" fill="none" xmlns="http://www.w3.org/2000/svg">
<path d="M78.4932 2.42188V3.18359H76.1494V19.2383H77.7314C77.8291 19.2383 77.9268 19.248 78.0244 19.2676C78.3369 19.3262 78.4932 19.5703 78.4932 20H71.4619V19.2383H73.8057V5.05859L67.0381 20.1465H66.4229L60.0068 6.64062V19.2383H61.5889C61.6865 19.2383 61.7842 19.248 61.8818 19.2676C62.1943 19.3262 62.3506 19.5703 62.3506 20H56.4912V19.2383H58.835V3.18359H56.4912V2.42188H60.6807L67.4775 16.748L73.8057 2.42188H78.4932ZM94.46 19.2676C94.5771 19.2676 94.6748 19.2773 94.7529 19.2969C95.0459 19.3359 95.1924 19.5703 95.1924 20H91.0615L90.8564 17.0117C90.6416 17.5586 90.3584 18.0566 90.0068 18.5059C89.0693 19.6973 87.8682 20.293 86.4033 20.293C83.6299 20.2734 82.2334 18.5938 82.2139 15.2539V8.28125H79.958V7.54883H84.4111V15.6934C84.4111 16.0059 84.4307 16.2988 84.4697 16.5723C84.7236 18.2129 85.6514 19.0332 87.2529 19.0332C87.8389 19.0332 88.4053 18.8477 88.9521 18.4766C90.1826 17.6562 90.7979 16.3672 90.7979 14.6094V8.28125H88.3955V7.54883H92.9951V19.2676H94.46ZM97.1553 13.9062C97.1553 12.6172 97.3994 11.4648 97.8877 10.4492C98.9229 8.32031 100.749 7.25586 103.366 7.25586C104.421 7.25586 105.397 7.48047 106.296 7.92969C107.565 8.57422 108.2 9.39453 108.2 10.3906C108.2 10.5078 108.181 10.6348 108.142 10.7715C107.966 11.3574 107.546 11.6309 106.882 11.5918C106.647 11.5723 106.433 11.5137 106.237 11.416C105.925 11.2207 105.71 10.7324 105.593 9.95117C105.534 9.61914 105.485 9.375 105.446 9.21875C105.231 8.39844 104.597 7.98828 103.542 7.98828C102.858 7.98828 102.233 8.16406 101.667 8.51562C100.319 9.375 99.6455 11.084 99.6455 13.6426C99.6455 15.0879 99.9385 16.3379 100.524 17.3926C101.306 18.7793 102.39 19.4727 103.776 19.4727C103.933 19.4727 104.089 19.4629 104.245 19.4434C105.905 19.2871 107.097 18.4375 107.819 16.8945L108.581 17.1582C108.444 17.4902 108.259 17.8223 108.024 18.1543C106.989 19.5801 105.456 20.293 103.425 20.293C102.058 20.293 100.837 19.9316 99.7627 19.209C98.0244 18.0371 97.1553 16.2695 97.1553 13.9062ZM115.524 19.2676C115.642 19.2676 115.739 19.2773 115.817 19.2969C116.11 19.3359 116.257 19.5703 116.257 20H109.665V19.2676C110.329 19.2676 110.808 19.2188 111.101 19.1211C111.608 18.9453 111.862 18.4082 111.862 17.5098V1.68945H109.665V0.957031H114.06V10.3613C114.274 9.79492 114.587 9.28711 114.997 8.83789C115.974 7.7832 117.185 7.25586 118.63 7.25586C119.255 7.25586 119.841 7.39258 120.388 7.66602C121.794 8.42773 122.497 9.87305 122.497 12.002V19.2676H123.962C124.079 19.2676 124.177 19.2773 124.255 19.2969C124.548 19.3359 124.694 19.5703 124.694 20H118.249V19.2676C118.913 19.2676 119.382 19.2188 119.655 19.1211C120.085 18.9453 120.3 18.4082 120.3 17.5098V12.002C120.3 11.3574 120.192 10.7715 119.978 10.2441C119.509 9.13086 118.679 8.57422 117.487 8.57422C116.94 8.57422 116.413 8.74023 115.905 9.07227C114.675 9.87305 114.06 11.1621 114.06 12.9395V19.2676H115.524ZM136.911 20.293C135.544 20.2734 134.743 19.3945 134.509 17.6562C134.333 18.0664 134.069 18.457 133.718 18.8281C132.741 19.8047 131.54 20.293 130.114 20.293C129.528 20.293 128.972 20.1855 128.444 19.9707C127.136 19.4238 126.481 18.4082 126.481 16.9238C126.481 16.4941 126.54 16.0938 126.657 15.7227C127.321 13.8086 129.948 12.8516 134.538 12.8516V11.0059C134.479 9.11133 133.532 8.10547 131.696 7.98828C130.915 7.98828 130.339 8.23242 129.968 8.7207C129.87 8.85742 129.685 9.28711 129.411 10.0098C129.196 10.5762 128.864 10.8594 128.415 10.8594C128.317 10.8594 128.22 10.8496 128.122 10.8301C127.556 10.7324 127.272 10.3809 127.272 9.77539C127.272 9.44336 127.39 9.11133 127.624 8.7793C128.366 7.76367 129.831 7.25586 132.019 7.25586C132.194 7.25586 132.37 7.25586 132.546 7.25586C135.339 7.41211 136.735 8.88672 136.735 11.6797V17.8613C136.755 18.8379 137.019 19.3457 137.526 19.3848C138.151 19.3652 138.532 18.6426 138.669 17.2168L139.431 17.2461C139.431 17.3438 139.421 17.4512 139.401 17.5684C139.245 19.3848 138.415 20.293 136.911 20.293ZM131.081 19.1211C131.511 19.1211 131.95 19.0234 132.399 18.8281C133.532 18.2812 134.245 17.334 134.538 15.9863V13.6426C133.015 13.6621 131.853 13.7598 131.052 13.9355C129.548 14.2871 128.796 15.1172 128.796 16.4258C128.796 16.7578 128.825 17.0605 128.884 17.334C129.157 18.5254 129.89 19.1211 131.081 19.1211ZM145.144 19.502C146.491 19.502 147.399 19.0918 147.868 18.2715C148.044 17.9785 148.132 17.6562 148.132 17.3047C148.132 16.4844 147.536 15.7812 146.345 15.1953C146.091 15.0586 145.671 14.8633 145.085 14.6094C143.483 13.9453 142.419 13.3203 141.892 12.7344C141.325 12.0898 141.042 11.3379 141.042 10.4785C141.042 9.13086 141.784 8.18359 143.269 7.63672C143.952 7.38281 144.694 7.25586 145.495 7.25586C146.784 7.25586 147.897 7.5293 148.835 8.07617C148.835 7.50977 148.972 7.1875 149.245 7.10938C149.362 7.08984 149.489 7.08008 149.626 7.08008V10.7422H148.864C148.825 8.94531 147.829 8.03711 145.876 8.01758C144.411 8.01758 143.503 8.44727 143.151 9.30664C143.054 9.54102 143.005 9.78516 143.005 10.0391C143.005 10.8789 143.61 11.5918 144.821 12.1777C145.095 12.3145 145.524 12.5 146.11 12.7344C147.692 13.3789 148.747 13.9941 149.274 14.5801C149.841 15.2051 150.124 15.9473 150.124 16.8066C150.124 18.3887 149.284 19.4434 147.604 19.9707C146.96 20.1855 146.257 20.293 145.495 20.293C144.089 20.2734 142.868 19.9219 141.833 19.2383C141.833 19.7461 141.706 20.0391 141.452 20.1172C141.335 20.1367 141.198 20.1465 141.042 20.1465V15.6934H141.862C141.901 18.2129 142.995 19.4824 145.144 19.502ZM162.78 8.28125H160.729L164.479 18.2715L168.2 8.28125H166.003V7.54883H170.515C170.515 7.64648 170.505 7.74414 170.485 7.8418C170.446 8.13477 170.212 8.28125 169.782 8.28125C169.704 8.28125 169.616 8.29102 169.519 8.31055C169.187 8.36914 168.903 8.70117 168.669 9.30664L164.538 20.1465H164.157C163.806 20.1465 163.513 20.0977 163.278 20C162.81 19.8242 162.38 19.1895 161.989 18.0957L158.415 8.28125H157.097V7.54883H162.78V8.28125ZM177.897 7.98828C177.39 7.98828 176.911 8.10547 176.462 8.33984C175.095 9.02344 174.362 10.4883 174.265 12.7344L177.37 12.8223C178.269 12.8418 178.962 12.8027 179.45 12.7051C180.388 12.4902 180.856 11.8945 180.856 10.918C180.856 10.4883 180.778 10.0879 180.622 9.7168C180.173 8.56445 179.265 7.98828 177.897 7.98828ZM182.995 17.1875C182.878 17.4609 182.741 17.7344 182.585 18.0078C181.589 19.5312 180.036 20.293 177.927 20.293C176.599 20.293 175.417 19.9512 174.382 19.2676C172.644 18.0957 171.774 16.2988 171.774 13.877C171.774 12.5488 172.048 11.3574 172.595 10.3027C173.649 8.27148 175.397 7.25586 177.839 7.25586C179.089 7.25586 180.192 7.53906 181.149 8.10547C182.497 8.88672 183.171 9.94141 183.171 11.2695C183.171 11.9922 182.907 12.5488 182.38 12.9395C181.696 13.4277 180.163 13.6523 177.78 13.6133L174.265 13.5547C174.284 14.375 174.372 15.127 174.528 15.8105C175.056 18.252 176.345 19.4727 178.396 19.4727C178.571 19.4727 178.757 19.4629 178.952 19.4434C180.476 19.248 181.579 18.4082 182.263 16.9238L182.995 17.1875ZM185.368 13.9062C185.368 12.6172 185.612 11.4648 186.101 10.4492C187.136 8.32031 188.962 7.25586 191.579 7.25586C192.634 7.25586 193.61 7.48047 194.509 7.92969C195.778 8.57422 196.413 9.39453 196.413 10.3906C196.413 10.5078 196.394 10.6348 196.354 10.7715C196.179 11.3574 195.759 11.6309 195.095 11.5918C194.86 11.5723 194.646 11.5137 194.45 11.416C194.138 11.2207 193.923 10.7324 193.806 9.95117C193.747 9.61914 193.698 9.375 193.659 9.21875C193.444 8.39844 192.81 7.98828 191.755 7.98828C191.071 7.98828 190.446 8.16406 189.88 8.51562C188.532 9.375 187.858 11.084 187.858 13.6426C187.858 15.0879 188.151 16.3379 188.737 17.3926C189.519 18.7793 190.603 19.4727 191.989 19.4727C192.146 19.4727 192.302 19.4629 192.458 19.4434C194.118 19.2871 195.31 18.4375 196.032 16.8945L196.794 17.1582C196.657 17.4902 196.472 17.8223 196.237 18.1543C195.202 19.5801 193.669 20.293 191.638 20.293C190.271 20.293 189.05 19.9316 187.976 19.209C186.237 18.0371 185.368 16.2695 185.368 13.9062ZM204.235 7.98828C203.728 7.98828 203.249 8.10547 202.8 8.33984C201.433 9.02344 200.7 10.4883 200.603 12.7344L203.708 12.8223C204.606 12.8418 205.3 12.8027 205.788 12.7051C206.726 12.4902 207.194 11.8945 207.194 10.918C207.194 10.4883 207.116 10.0879 206.96 9.7168C206.511 8.56445 205.603 7.98828 204.235 7.98828ZM209.333 17.1875C209.216 17.4609 209.079 17.7344 208.923 18.0078C207.927 19.5312 206.374 20.293 204.265 20.293C202.937 20.293 201.755 19.9512 200.72 19.2676C198.981 18.0957 198.112 16.2988 198.112 13.877C198.112 12.5488 198.386 11.3574 198.933 10.3027C199.987 8.27148 201.735 7.25586 204.177 7.25586C205.427 7.25586 206.53 7.53906 207.487 8.10547C208.835 8.88672 209.509 9.94141 209.509 11.2695C209.509 11.9922 209.245 12.5488 208.718 12.9395C208.034 13.4277 206.501 13.6523 204.118 13.6133L200.603 13.5547C200.622 14.375 200.71 15.127 200.866 15.8105C201.394 18.252 202.683 19.4727 204.733 19.4727C204.909 19.4727 205.095 19.4629 205.29 19.4434C206.813 19.248 207.917 18.4082 208.601 16.9238L209.333 17.1875ZM216.101 19.502C217.448 19.502 218.356 19.0918 218.825 18.2715C219.001 17.9785 219.089 17.6562 219.089 17.3047C219.089 16.4844 218.493 15.7812 217.302 15.1953C217.048 15.0586 216.628 14.8633 216.042 14.6094C214.44 13.9453 213.376 13.3203 212.849 12.7344C212.282 12.0898 211.999 11.3379 211.999 10.4785C211.999 9.13086 212.741 8.18359 214.226 7.63672C214.909 7.38281 215.651 7.25586 216.452 7.25586C217.741 7.25586 218.854 7.5293 219.792 8.07617C219.792 7.50977 219.929 7.1875 220.202 7.10938C220.319 7.08984 220.446 7.08008 220.583 7.08008V10.7422H219.821C219.782 8.94531 218.786 8.03711 216.833 8.01758C215.368 8.01758 214.46 8.44727 214.108 9.30664C214.011 9.54102 213.962 9.78516 213.962 10.0391C213.962 10.8789 214.567 11.5918 215.778 12.1777C216.052 12.3145 216.481 12.5 217.067 12.7344C218.649 13.3789 219.704 13.9941 220.231 14.5801C220.798 15.2051 221.081 15.9473 221.081 16.8066C221.081 18.3887 220.241 19.4434 218.562 19.9707C217.917 20.1855 217.214 20.293 216.452 20.293C215.046 20.2734 213.825 19.9219 212.79 19.2383C212.79 19.7461 212.663 20.0391 212.409 20.1172C212.292 20.1367 212.155 20.1465 211.999 20.1465V15.6934H212.819C212.858 18.2129 213.952 19.4824 216.101 19.502ZM233.532 19.502C234.88 19.502 235.788 19.0918 236.257 18.2715C236.433 17.9785 236.521 17.6562 236.521 17.3047C236.521 16.4844 235.925 15.7812 234.733 15.1953C234.479 15.0586 234.06 14.8633 233.474 14.6094C231.872 13.9453 230.808 13.3203 230.28 12.7344C229.714 12.0898 229.431 11.3379 229.431 10.4785C229.431 9.13086 230.173 8.18359 231.657 7.63672C232.341 7.38281 233.083 7.25586 233.884 7.25586C235.173 7.25586 236.286 7.5293 237.224 8.07617C237.224 7.50977 237.36 7.1875 237.634 7.10938C237.751 7.08984 237.878 7.08008 238.015 7.08008V10.7422H237.253C237.214 8.94531 236.218 8.03711 234.265 8.01758C232.8 8.01758 231.892 8.44727 231.54 9.30664C231.442 9.54102 231.394 9.78516 231.394 10.0391C231.394 10.8789 231.999 11.5918 233.21 12.1777C233.483 12.3145 233.913 12.5 234.499 12.7344C236.081 13.3789 237.136 13.9941 237.663 14.5801C238.229 15.2051 238.513 15.9473 238.513 16.8066C238.513 18.3887 237.673 19.4434 235.993 19.9707C235.349 20.1855 234.646 20.293 233.884 20.293C232.478 20.2734 231.257 19.9219 230.222 19.2383C230.222 19.7461 230.095 20.0391 229.841 20.1172C229.724 20.1367 229.587 20.1465 229.431 20.1465V15.6934H230.251C230.29 18.2129 231.384 19.4824 233.532 19.502ZM246.979 7.98828C246.472 7.98828 245.993 8.10547 245.544 8.33984C244.177 9.02344 243.444 10.4883 243.347 12.7344L246.452 12.8223C247.351 12.8418 248.044 12.8027 248.532 12.7051C249.47 12.4902 249.938 11.8945 249.938 10.918C249.938 10.4883 249.86 10.0879 249.704 9.7168C249.255 8.56445 248.347 7.98828 246.979 7.98828ZM252.077 17.1875C251.96 17.4609 251.823 17.7344 251.667 18.0078C250.671 19.5312 249.118 20.293 247.009 20.293C245.681 20.293 244.499 19.9512 243.464 19.2676C241.726 18.0957 240.856 16.2988 240.856 13.877C240.856 12.5488 241.13 11.3574 241.677 10.3027C242.731 8.27148 244.479 7.25586 246.921 7.25586C248.171 7.25586 249.274 7.53906 250.231 8.10547C251.579 8.88672 252.253 9.94141 252.253 11.2695C252.253 11.9922 251.989 12.5488 251.462 12.9395C250.778 13.4277 249.245 13.6523 246.862 13.6133L243.347 13.5547C243.366 14.375 243.454 15.127 243.61 15.8105C244.138 18.252 245.427 19.4727 247.478 19.4727C247.653 19.4727 247.839 19.4629 248.034 19.4434C249.558 19.248 250.661 18.4082 251.345 16.9238L252.077 17.1875ZM265.876 19.2676C265.974 19.2676 266.071 19.2773 266.169 19.2969C266.462 19.3359 266.608 19.5703 266.608 20H259.87V19.2676C260.534 19.2676 261.013 19.2285 261.306 19.1504C261.911 18.9551 262.214 18.4082 262.214 17.5098V8.28125H259.87V7.54883H264.411V19.2676H265.876ZM264.763 3.27148C264.763 3.50586 264.714 3.73047 264.616 3.94531C264.343 4.57031 263.864 4.88281 263.181 4.88281C262.966 4.88281 262.751 4.84375 262.536 4.76562C261.892 4.49219 261.569 3.99414 261.569 3.27148C261.569 3.03711 261.618 2.8125 261.716 2.59766C262.009 1.97266 262.497 1.66016 263.181 1.66016C263.396 1.66016 263.62 1.70898 263.854 1.80664C264.46 2.09961 264.763 2.58789 264.763 3.27148ZM274.079 19.2676C274.196 19.2676 274.294 19.2773 274.372 19.2969C274.665 19.3359 274.812 19.5703 274.812 20H268.366V19.2676C269.03 19.2676 269.509 19.2188 269.802 19.1211C270.31 18.9453 270.563 18.4082 270.563 17.5098V8.28125H268.366V7.54883H272.614L272.731 10.4785C272.946 9.93164 273.229 9.43359 273.581 8.98438C274.519 7.83203 275.71 7.25586 277.155 7.25586C277.878 7.25586 278.552 7.44141 279.177 7.8125C280.524 8.65234 281.198 10.0488 281.198 12.002V19.2676H282.663C282.78 19.2676 282.878 19.2773 282.956 19.2969C283.249 19.3359 283.396 19.5703 283.396 20H276.804V19.2676C277.468 19.2676 277.946 19.2188 278.239 19.1211C278.747 18.9453 279.001 18.4082 279.001 17.5098V11.709C279.001 11.1426 278.913 10.6348 278.737 10.1855C278.308 9.07227 277.497 8.51562 276.306 8.51562C275.759 8.51562 275.222 8.68164 274.694 9.01367C273.464 9.81445 272.819 11.123 272.761 12.9395V19.2676H274.079ZM284.714 8.28125V7.54883H286.765V4.76562L288.962 4.15039V7.54883H293.503V8.28125H288.962V17.1875C288.981 18.6523 289.519 19.4043 290.573 19.4434C291.511 19.3066 292.224 18.4277 292.712 16.8066L293.503 16.9531C293.503 16.9727 293.503 16.9922 293.503 17.0117C293.054 19.2188 291.931 20.3223 290.134 20.3223C288.024 20.2441 286.901 18.9844 286.765 16.543V8.28125H284.714ZM300.944 7.98828C300.437 7.98828 299.958 8.10547 299.509 8.33984C298.142 9.02344 297.409 10.4883 297.312 12.7344L300.417 12.8223C301.315 12.8418 302.009 12.8027 302.497 12.7051C303.435 12.4902 303.903 11.8945 303.903 10.918C303.903 10.4883 303.825 10.0879 303.669 9.7168C303.22 8.56445 302.312 7.98828 300.944 7.98828ZM306.042 17.1875C305.925 17.4609 305.788 17.7344 305.632 18.0078C304.636 19.5312 303.083 20.293 300.974 20.293C299.646 20.293 298.464 19.9512 297.429 19.2676C295.69 18.0957 294.821 16.2988 294.821 13.877C294.821 12.5488 295.095 11.3574 295.642 10.3027C296.696 8.27148 298.444 7.25586 300.886 7.25586C302.136 7.25586 303.239 7.53906 304.196 8.10547C305.544 8.88672 306.218 9.94141 306.218 11.2695C306.218 11.9922 305.954 12.5488 305.427 12.9395C304.743 13.4277 303.21 13.6523 300.827 13.6133L297.312 13.5547C297.331 14.375 297.419 15.127 297.575 15.8105C298.103 18.252 299.392 19.4727 301.442 19.4727C301.618 19.4727 301.804 19.4629 301.999 19.4434C303.522 19.248 304.626 18.4082 305.31 16.9238L306.042 17.1875ZM313.835 19.2676C313.952 19.2676 314.05 19.2773 314.128 19.2969C314.421 19.3359 314.567 19.5703 314.567 20H308.122V19.2676C308.786 19.2676 309.265 19.2188 309.558 19.1211C310.065 18.9453 310.319 18.4082 310.319 17.5098V8.28125H308.122V7.54883H312.37L312.487 10.4785C312.702 9.93164 312.985 9.43359 313.337 8.98438C314.274 7.83203 315.466 7.25586 316.911 7.25586C317.634 7.25586 318.308 7.44141 318.933 7.8125C320.28 8.65234 320.954 10.0488 320.954 12.002V19.2676H322.419C322.536 19.2676 322.634 19.2773 322.712 19.2969C323.005 19.3359 323.151 19.5703 323.151 20H316.56V19.2676C317.224 19.2676 317.702 19.2188 317.995 19.1211C318.503 18.9453 318.757 18.4082 318.757 17.5098V11.709C318.757 11.1426 318.669 10.6348 318.493 10.1855C318.063 9.07227 317.253 8.51562 316.062 8.51562C315.515 8.51562 314.978 8.68164 314.45 9.01367C313.22 9.81445 312.575 11.123 312.517 12.9395V19.2676H313.835ZM324.47 8.28125V7.54883H326.521V4.76562L328.718 4.15039V7.54883H333.259V8.28125H328.718V17.1875C328.737 18.6523 329.274 19.4043 330.329 19.4434C331.267 19.3066 331.979 18.4277 332.468 16.8066L333.259 16.9531C333.259 16.9727 333.259 16.9922 333.259 17.0117C332.81 19.2188 331.687 20.3223 329.89 20.3223C327.78 20.2441 326.657 18.9844 326.521 16.543V8.28125H324.47ZM344.86 20.293C343.493 20.2734 342.692 19.3945 342.458 17.6562C342.282 18.0664 342.019 18.457 341.667 18.8281C340.69 19.8047 339.489 20.293 338.063 20.293C337.478 20.293 336.921 20.1855 336.394 19.9707C335.085 19.4238 334.431 18.4082 334.431 16.9238C334.431 16.4941 334.489 16.0938 334.606 15.7227C335.271 13.8086 337.897 12.8516 342.487 12.8516V11.0059C342.429 9.11133 341.481 8.10547 339.646 7.98828C338.864 7.98828 338.288 8.23242 337.917 8.7207C337.819 8.85742 337.634 9.28711 337.36 10.0098C337.146 10.5762 336.813 10.8594 336.364 10.8594C336.267 10.8594 336.169 10.8496 336.071 10.8301C335.505 10.7324 335.222 10.3809 335.222 9.77539C335.222 9.44336 335.339 9.11133 335.573 8.7793C336.315 7.76367 337.78 7.25586 339.968 7.25586C340.144 7.25586 340.319 7.25586 340.495 7.25586C343.288 7.41211 344.685 8.88672 344.685 11.6797V17.8613C344.704 18.8379 344.968 19.3457 345.476 19.3848C346.101 19.3652 346.481 18.6426 346.618 17.2168L347.38 17.2461C347.38 17.3438 347.37 17.4512 347.351 17.5684C347.194 19.3848 346.364 20.293 344.86 20.293ZM339.03 19.1211C339.46 19.1211 339.899 19.0234 340.349 18.8281C341.481 18.2812 342.194 17.334 342.487 15.9863V13.6426C340.964 13.6621 339.802 13.7598 339.001 13.9355C337.497 14.2871 336.745 15.1172 336.745 16.4258C336.745 16.7578 336.774 17.0605 336.833 17.334C337.106 18.5254 337.839 19.1211 339.03 19.1211ZM359.831 19.2676C359.929 19.2676 360.026 19.2773 360.124 19.2969C360.417 19.3555 360.563 19.5898 360.563 20H354.118V19.2676C354.782 19.2676 355.261 19.2188 355.554 19.1211C356.062 18.9453 356.315 18.4082 356.315 17.5098V8.28125H354.118V7.54883H358.366L358.483 10.4785C358.679 9.95117 358.942 9.47266 359.274 9.04297C360.192 7.85156 361.354 7.25586 362.761 7.25586C363.132 7.25586 363.493 7.32422 363.845 7.46094C365.036 7.91016 365.808 8.90625 366.159 10.4492C366.315 10.0586 366.511 9.6875 366.745 9.33594C367.644 7.94922 368.835 7.25586 370.319 7.25586C371.003 7.25586 371.638 7.43164 372.224 7.7832C373.532 8.58398 374.187 9.99023 374.187 12.002V19.2676H375.681C375.798 19.2676 375.896 19.2773 375.974 19.2969C376.267 19.3359 376.413 19.5703 376.413 20H369.938V19.2676C370.603 19.2676 371.071 19.2188 371.345 19.1211C371.774 18.9453 371.989 18.4082 371.989 17.5098V11.709C371.989 11.084 371.892 10.5273 371.696 10.0391C371.286 9.00391 370.583 8.48633 369.587 8.48633C369.216 8.48633 368.825 8.58398 368.415 8.7793C367.341 9.3457 366.647 10.3418 366.335 11.7676V12.002V19.2676H367.653C367.771 19.2676 367.868 19.2773 367.946 19.2969C368.239 19.3359 368.386 19.5703 368.386 20H362.087V19.2676C362.751 19.2676 363.22 19.2188 363.493 19.1211C363.923 18.9453 364.138 18.4082 364.138 17.5098V11.709C364.138 11.123 364.06 10.5957 363.903 10.127C363.532 9.05273 362.858 8.51562 361.882 8.51562C361.354 8.51562 360.827 8.71094 360.3 9.10156C359.167 9.94141 358.571 11.2207 358.513 12.9395V19.2676H359.831ZM380.808 13.7598C380.808 14.5996 380.876 15.3613 381.013 16.0449C381.521 18.3887 382.761 19.5605 384.733 19.5605C385.104 19.5605 385.466 19.5117 385.817 19.4141C387.614 18.8477 388.513 16.9238 388.513 13.6426C388.513 13.0762 388.483 12.5586 388.425 12.0898C388.073 9.35547 386.813 7.98828 384.646 7.98828C384.177 7.98828 383.728 8.06641 383.298 8.22266C381.638 8.88672 380.808 10.7324 380.808 13.7598ZM384.733 7.25586C386.022 7.25586 387.204 7.59766 388.278 8.28125C390.095 9.47266 391.003 11.2988 391.003 13.7598C391.003 15.5762 390.437 17.0898 389.304 18.3008C388.073 19.6289 386.521 20.293 384.646 20.293C383.317 20.293 382.106 19.9219 381.013 19.1797C379.216 17.9492 378.317 16.1035 378.317 13.6426C378.317 11.8652 378.894 10.3809 380.046 9.18945C381.296 7.90039 382.858 7.25586 384.733 7.25586ZM399.118 19.2676C399.235 19.2676 399.333 19.2773 399.411 19.2969C399.704 19.3359 399.851 19.5703 399.851 20H393.142V19.2676C393.806 19.2676 394.284 19.2188 394.577 19.1211C395.085 18.9453 395.339 18.4082 395.339 17.5098V1.68945H393.142V0.957031H397.536V19.2676H399.118ZM411.804 20L411.569 16.8945C410.612 19.1211 409.069 20.2539 406.94 20.293C405.905 20.293 404.958 19.9902 404.099 19.3848C402.575 18.2715 401.813 16.5039 401.813 14.082C401.813 12.6172 402.146 11.2988 402.81 10.127C403.903 8.21289 405.524 7.25586 407.673 7.25586C409.294 7.25586 410.583 7.7832 411.54 8.83789V1.68945H408.757V0.957031H413.737L413.796 19.2676H415.261C415.378 19.2676 415.476 19.2773 415.554 19.2969C415.847 19.3359 415.993 19.5703 415.993 20H411.804ZM404.304 13.7305C404.304 14.6484 404.401 15.4688 404.597 16.1914C405.085 18.1445 406.13 19.1211 407.731 19.1211C408.532 19.1211 409.245 18.8379 409.87 18.2715C411.042 17.2168 411.628 15.5176 411.628 13.1738C411.628 12.0605 411.462 11.0938 411.13 10.2734C410.524 8.75 409.509 7.98828 408.083 7.98828C407.517 7.98828 406.999 8.11523 406.53 8.36914C405.046 9.18945 404.304 10.9766 404.304 13.7305ZM423.991 7.98828C423.483 7.98828 423.005 8.10547 422.556 8.33984C421.188 9.02344 420.456 10.4883 420.358 12.7344L423.464 12.8223C424.362 12.8418 425.056 12.8027 425.544 12.7051C426.481 12.4902 426.95 11.8945 426.95 10.918C426.95 10.4883 426.872 10.0879 426.716 9.7168C426.267 8.56445 425.358 7.98828 423.991 7.98828ZM429.089 17.1875C428.972 17.4609 428.835 17.7344 428.679 18.0078C427.683 19.5312 426.13 20.293 424.021 20.293C422.692 20.293 421.511 19.9512 420.476 19.2676C418.737 18.0957 417.868 16.2988 417.868 13.877C417.868 12.5488 418.142 11.3574 418.688 10.3027C419.743 8.27148 421.491 7.25586 423.933 7.25586C425.183 7.25586 426.286 7.53906 427.243 8.10547C428.591 8.88672 429.265 9.94141 429.265 11.2695C429.265 11.9922 429.001 12.5488 428.474 12.9395C427.79 13.4277 426.257 13.6523 423.874 13.6133L420.358 13.5547C420.378 14.375 420.466 15.127 420.622 15.8105C421.149 18.252 422.438 19.4727 424.489 19.4727C424.665 19.4727 424.851 19.4629 425.046 19.4434C426.569 19.248 427.673 18.4082 428.356 16.9238L429.089 17.1875ZM441.745 20.293C440.378 20.2734 439.577 19.3945 439.343 17.6562C439.167 18.0664 438.903 18.457 438.552 18.8281C437.575 19.8047 436.374 20.293 434.948 20.293C434.362 20.293 433.806 20.1855 433.278 19.9707C431.97 19.4238 431.315 18.4082 431.315 16.9238C431.315 16.4941 431.374 16.0938 431.491 15.7227C432.155 13.8086 434.782 12.8516 439.372 12.8516V11.0059C439.313 9.11133 438.366 8.10547 436.53 7.98828C435.749 7.98828 435.173 8.23242 434.802 8.7207C434.704 8.85742 434.519 9.28711 434.245 10.0098C434.03 10.5762 433.698 10.8594 433.249 10.8594C433.151 10.8594 433.054 10.8496 432.956 10.8301C432.39 10.7324 432.106 10.3809 432.106 9.77539C432.106 9.44336 432.224 9.11133 432.458 8.7793C433.2 7.76367 434.665 7.25586 436.853 7.25586C437.028 7.25586 437.204 7.25586 437.38 7.25586C440.173 7.41211 441.569 8.88672 441.569 11.6797V17.8613C441.589 18.8379 441.853 19.3457 442.36 19.3848C442.985 19.3652 443.366 18.6426 443.503 17.2168L444.265 17.2461C444.265 17.3438 444.255 17.4512 444.235 17.5684C444.079 19.3848 443.249 20.293 441.745 20.293ZM435.915 19.1211C436.345 19.1211 436.784 19.0234 437.233 18.8281C438.366 18.2812 439.079 17.334 439.372 15.9863V13.6426C437.849 13.6621 436.687 13.7598 435.886 13.9355C434.382 14.2871 433.63 15.1172 433.63 16.4258C433.63 16.7578 433.659 17.0605 433.718 17.334C433.991 18.5254 434.724 19.1211 435.915 19.1211ZM451.853 19.2676C451.97 19.2676 452.067 19.2773 452.146 19.2969C452.438 19.3359 452.585 19.5703 452.585 20H445.349V19.2676C446.013 19.2676 446.491 19.2188 446.784 19.1211C447.292 18.9453 447.546 18.4082 447.546 17.5098V8.28125H445.349V7.54883H449.597L449.714 10.4492C449.968 9.86328 450.31 9.33594 450.739 8.86719C451.657 7.87109 452.702 7.37305 453.874 7.37305C454.05 7.37305 454.235 7.39258 454.431 7.43164C455.329 7.62695 455.778 8.16406 455.778 9.04297C455.778 9.16016 455.759 9.27734 455.72 9.39453C455.563 9.96094 455.192 10.2441 454.606 10.2441C454.489 10.2441 454.372 10.2246 454.255 10.1855C453.981 10.1074 453.688 9.79492 453.376 9.24805C453.103 8.75977 452.8 8.51562 452.468 8.51562C452.175 8.53516 451.813 8.75 451.384 9.16016C450.29 10.2344 449.743 11.6602 449.743 13.4375V19.2676H451.853ZM468.933 7.98828C468.425 7.98828 467.946 8.10547 467.497 8.33984C466.13 9.02344 465.397 10.4883 465.3 12.7344L468.405 12.8223C469.304 12.8418 469.997 12.8027 470.485 12.7051C471.423 12.4902 471.892 11.8945 471.892 10.918C471.892 10.4883 471.813 10.0879 471.657 9.7168C471.208 8.56445 470.3 7.98828 468.933 7.98828ZM474.03 17.1875C473.913 17.4609 473.776 17.7344 473.62 18.0078C472.624 19.5312 471.071 20.293 468.962 20.293C467.634 20.293 466.452 19.9512 465.417 19.2676C463.679 18.0957 462.81 16.2988 462.81 13.877C462.81 12.5488 463.083 11.3574 463.63 10.3027C464.685 8.27148 466.433 7.25586 468.874 7.25586C470.124 7.25586 471.228 7.53906 472.185 8.10547C473.532 8.88672 474.206 9.94141 474.206 11.2695C474.206 11.9922 473.942 12.5488 473.415 12.9395C472.731 13.4277 471.198 13.6523 468.815 13.6133L465.3 13.5547C465.319 14.375 465.407 15.127 465.563 15.8105C466.091 18.252 467.38 19.4727 469.431 19.4727C469.606 19.4727 469.792 19.4629 469.987 19.4434C471.511 19.248 472.614 18.4082 473.298 16.9238L474.03 17.1875ZM482.175 19.2676C482.292 19.2676 482.39 19.2773 482.468 19.2969C482.761 19.3359 482.907 19.5703 482.907 20H476.198V19.2676C476.862 19.2676 477.341 19.2188 477.634 19.1211C478.142 18.9453 478.396 18.4082 478.396 17.5098V1.68945H476.198V0.957031H480.593V19.2676H482.175ZM496.706 7.98828C496.198 7.98828 495.72 8.10547 495.271 8.33984C493.903 9.02344 493.171 10.4883 493.073 12.7344L496.179 12.8223C497.077 12.8418 497.771 12.8027 498.259 12.7051C499.196 12.4902 499.665 11.8945 499.665 10.918C499.665 10.4883 499.587 10.0879 499.431 9.7168C498.981 8.56445 498.073 7.98828 496.706 7.98828ZM501.804 17.1875C501.687 17.4609 501.55 17.7344 501.394 18.0078C500.397 19.5312 498.845 20.293 496.735 20.293C495.407 20.293 494.226 19.9512 493.19 19.2676C491.452 18.0957 490.583 16.2988 490.583 13.877C490.583 12.5488 490.856 11.3574 491.403 10.3027C492.458 8.27148 494.206 7.25586 496.647 7.25586C497.897 7.25586 499.001 7.53906 499.958 8.10547C501.306 8.88672 501.979 9.94141 501.979 11.2695C501.979 11.9922 501.716 12.5488 501.188 12.9395C500.505 13.4277 498.972 13.6523 496.589 13.6133L493.073 13.5547C493.093 14.375 493.181 15.127 493.337 15.8105C493.864 18.252 495.153 19.4727 497.204 19.4727C497.38 19.4727 497.565 19.4629 497.761 19.4434C499.284 19.248 500.388 18.4082 501.071 16.9238L501.804 17.1875ZM508.571 19.502C509.919 19.502 510.827 19.0918 511.296 18.2715C511.472 17.9785 511.56 17.6562 511.56 17.3047C511.56 16.4844 510.964 15.7812 509.772 15.1953C509.519 15.0586 509.099 14.8633 508.513 14.6094C506.911 13.9453 505.847 13.3203 505.319 12.7344C504.753 12.0898 504.47 11.3379 504.47 10.4785C504.47 9.13086 505.212 8.18359 506.696 7.63672C507.38 7.38281 508.122 7.25586 508.923 7.25586C510.212 7.25586 511.325 7.5293 512.263 8.07617C512.263 7.50977 512.399 7.1875 512.673 7.10938C512.79 7.08984 512.917 7.08008 513.054 7.08008V10.7422H512.292C512.253 8.94531 511.257 8.03711 509.304 8.01758C507.839 8.01758 506.931 8.44727 506.579 9.30664C506.481 9.54102 506.433 9.78516 506.433 10.0391C506.433 10.8789 507.038 11.5918 508.249 12.1777C508.522 12.3145 508.952 12.5 509.538 12.7344C511.12 13.3789 512.175 13.9941 512.702 14.5801C513.269 15.2051 513.552 15.9473 513.552 16.8066C513.552 18.3887 512.712 19.4434 511.032 19.9707C510.388 20.1855 509.685 20.293 508.923 20.293C507.517 20.2734 506.296 19.9219 505.261 19.2383C505.261 19.7461 505.134 20.0391 504.88 20.1172C504.763 20.1367 504.626 20.1465 504.47 20.1465V15.6934H505.29C505.329 18.2129 506.423 19.4824 508.571 19.502ZM519.88 24.834H521.931C522.048 24.834 522.146 24.8438 522.224 24.8633C522.517 24.9023 522.663 25.1367 522.663 25.5664H515.485V24.834C516.149 24.834 516.628 24.7852 516.921 24.6875C517.429 24.5117 517.683 23.9746 517.683 23.0762V8.28125H515.485V7.54883H519.704L519.851 10.7422C520.007 10.3125 520.202 9.90234 520.437 9.51172C521.374 8.00781 522.79 7.25586 524.685 7.25586C525.915 7.25586 526.96 7.64648 527.819 8.42773C529.05 9.58008 529.665 11.2695 529.665 13.4961C529.665 15.4492 529.099 17.0605 527.966 18.3301C526.794 19.6387 525.339 20.293 523.601 20.293C522.194 20.2148 520.954 19.707 519.88 18.7695V24.834ZM523.747 8.42773C523.044 8.42773 522.399 8.64258 521.813 9.07227C520.505 10.0488 519.851 11.8066 519.851 14.3457C519.851 15.4395 519.997 16.3867 520.29 17.1875C520.856 18.7695 521.892 19.5605 523.396 19.5605C523.923 19.5605 524.411 19.4531 524.86 19.2383C526.403 18.4766 527.175 16.6602 527.175 13.7891C527.175 12.9883 527.106 12.2656 526.97 11.6211C526.521 9.49219 525.446 8.42773 523.747 8.42773ZM537.81 19.2383C537.927 19.2383 538.034 19.248 538.132 19.2676C538.386 19.3066 538.513 19.5508 538.513 20H531.716V19.2383C533.161 19.2383 533.903 18.7305 533.942 17.7148V8.31055H531.716V7.54883H536.286V19.2383H537.81ZM537.692 2.91992C537.478 3.11523 537.097 3.38867 536.55 3.74023C534.89 4.77539 533.825 5.47852 533.356 5.84961L532.888 5.35156C533.376 4.82422 533.903 4.12109 534.47 3.24219C535.251 2.01172 535.72 1.31836 535.876 1.16211C536.13 0.927734 536.413 0.800781 536.726 0.78125C536.901 0.78125 537.087 0.830078 537.282 0.927734C537.81 1.20117 538.073 1.5918 538.073 2.09961C538.054 2.37305 537.927 2.64648 537.692 2.91992ZM546.687 19.2676C546.804 19.2676 546.901 19.2773 546.979 19.2969C547.272 19.3359 547.419 19.5703 547.419 20H540.183V19.2676C540.847 19.2676 541.325 19.2188 541.618 19.1211C542.126 18.9453 542.38 18.4082 542.38 17.5098V8.28125H540.183V7.54883H544.431L544.548 10.4492C544.802 9.86328 545.144 9.33594 545.573 8.86719C546.491 7.87109 547.536 7.37305 548.708 7.37305C548.884 7.37305 549.069 7.39258 549.265 7.43164C550.163 7.62695 550.612 8.16406 550.612 9.04297C550.612 9.16016 550.593 9.27734 550.554 9.39453C550.397 9.96094 550.026 10.2441 549.44 10.2441C549.323 10.2441 549.206 10.2246 549.089 10.1855C548.815 10.1074 548.522 9.79492 548.21 9.24805C547.937 8.75977 547.634 8.51562 547.302 8.51562C547.009 8.53516 546.647 8.75 546.218 9.16016C545.124 10.2344 544.577 11.6602 544.577 13.4375V19.2676H546.687ZM557.644 19.2676C557.741 19.2676 557.839 19.2773 557.937 19.2969C558.229 19.3359 558.376 19.5703 558.376 20H551.638V19.2676C552.302 19.2676 552.78 19.2285 553.073 19.1504C553.679 18.9551 553.981 18.4082 553.981 17.5098V8.28125H551.638V7.54883H556.179V19.2676H557.644ZM556.53 3.27148C556.53 3.50586 556.481 3.73047 556.384 3.94531C556.11 4.57031 555.632 4.88281 554.948 4.88281C554.733 4.88281 554.519 4.84375 554.304 4.76562C553.659 4.49219 553.337 3.99414 553.337 3.27148C553.337 3.03711 553.386 2.8125 553.483 2.59766C553.776 1.97266 554.265 1.66016 554.948 1.66016C555.163 1.66016 555.388 1.70898 555.622 1.80664C556.228 2.09961 556.53 2.58789 556.53 3.27148ZM559.841 8.28125V7.54883H561.892V4.76562L564.089 4.15039V7.54883H568.63V8.28125H564.089V17.1875C564.108 18.6523 564.646 19.4043 565.7 19.4434C566.638 19.3066 567.351 18.4277 567.839 16.8066L568.63 16.9531C568.63 16.9727 568.63 16.9922 568.63 17.0117C568.181 19.2188 567.058 20.3223 565.261 20.3223C563.151 20.2441 562.028 18.9844 561.892 16.543V8.28125H559.841ZM583.864 19.2676C583.981 19.2676 584.079 19.2773 584.157 19.2969C584.45 19.3359 584.597 19.5703 584.597 20H580.466L580.261 17.0117C580.046 17.5586 579.763 18.0566 579.411 18.5059C578.474 19.6973 577.272 20.293 575.808 20.293C573.034 20.2734 571.638 18.5938 571.618 15.2539V8.28125H569.362V7.54883H573.815V15.6934C573.815 16.0059 573.835 16.2988 573.874 16.5723C574.128 18.2129 575.056 19.0332 576.657 19.0332C577.243 19.0332 577.81 18.8477 578.356 18.4766C579.587 17.6562 580.202 16.3672 580.202 14.6094V8.28125H577.8V7.54883H582.399V19.2676H583.864ZM6.84766 59.2676C6.96484 59.2676 7.0625 59.2773 7.14062 59.2969C7.43359 59.3359 7.58008 59.5703 7.58008 60H0.871094V59.2676C1.53516 59.2676 2.01367 59.2188 2.30664 59.1211C2.81445 58.9453 3.06836 58.4082 3.06836 57.5098V41.6895H0.871094V40.957H5.26562V59.2676H6.84766ZM15.2559 59.2676C15.3535 59.2676 15.4512 59.2773 15.5488 59.2969C15.8418 59.3359 15.9883 59.5703 15.9883 60H9.25V59.2676C9.91406 59.2676 10.3926 59.2285 10.6855 59.1504C11.291 58.9551 11.5938 58.4082 11.5938 57.5098V48.2812H9.25V47.5488H13.791V59.2676H15.2559ZM14.1426 43.2715C14.1426 43.5059 14.0938 43.7305 13.9961 43.9453C13.7227 44.5703 13.2441 44.8828 12.5605 44.8828C12.3457 44.8828 12.1309 44.8438 11.916 44.7656C11.2715 44.4922 10.9492 43.9941 10.9492 43.2715C10.9492 43.0371 10.998 42.8125 11.0957 42.5977C11.3887 41.9727 11.877 41.6602 12.5605 41.6602C12.7754 41.6602 13 41.709 13.2344 41.8066C13.8398 42.0996 14.1426 42.5879 14.1426 43.2715ZM25.832 60.293C25.6953 60.293 25.5488 60.2832 25.3926 60.2637C23.6934 60.1465 22.4238 59.4141 21.584 58.0664L21.3203 60H17.6289V59.2676C18.293 59.2676 18.7715 59.2188 19.0645 59.1211C19.5723 58.9453 19.8262 58.4082 19.8262 57.5098V41.6895H17.6289V40.957H22.0234V50.6543C22.082 50.4785 22.1602 50.3027 22.2578 50.127C23.1562 48.2129 24.6699 47.2559 26.7988 47.2559C28.0879 47.2559 29.1719 47.6953 30.0508 48.5742C31.2227 49.7852 31.8086 51.4648 31.8086 53.6133C31.8086 55.5273 31.2617 57.1094 30.168 58.3594C28.9961 59.6484 27.5508 60.293 25.832 60.293ZM25.8906 48.4277C25.0898 48.4277 24.377 48.7012 23.752 49.248C22.5801 50.3027 21.9941 52.0117 21.9941 54.375C21.9941 55.4492 22.1406 56.3965 22.4336 57.2168C23.0391 58.7793 24.0742 59.5605 25.5391 59.5605C26.1055 59.5605 26.623 59.4336 27.0918 59.1797C28.5762 58.3594 29.3184 56.5723 29.3184 53.8184C29.3184 52.9004 29.2207 52.0801 29.0254 51.3574C28.5371 49.4043 27.4922 48.4277 25.8906 48.4277ZM40.4219 59.2676C40.5391 59.2676 40.6367 59.2773 40.7148 59.2969C41.0078 59.3359 41.1543 59.5703 41.1543 60H33.918V59.2676C34.582 59.2676 35.0605 59.2188 35.3535 59.1211C35.8613 58.9453 36.1152 58.4082 36.1152 57.5098V48.2812H33.918V47.5488H38.166L38.2832 50.4492C38.5371 49.8633 38.8789 49.3359 39.3086 48.8672C40.2266 47.8711 41.2715 47.373 42.4434 47.373C42.6191 47.373 42.8047 47.3926 43 47.4316C43.8984 47.627 44.3477 48.1641 44.3477 49.043C44.3477 49.1602 44.3281 49.2773 44.2891 49.3945C44.1328 49.9609 43.7617 50.2441 43.1758 50.2441C43.0586 50.2441 42.9414 50.2246 42.8242 50.1855C42.5508 50.1074 42.2578 49.7949 41.9453 49.248C41.6719 48.7598 41.3691 48.5156 41.0371 48.5156C40.7441 48.5352 40.3828 48.75 39.9531 49.1602C38.8594 50.2344 38.3125 51.6602 38.3125 53.4375V59.2676H40.4219ZM51.7891 47.9883C51.2812 47.9883 50.8027 48.1055 50.3535 48.3398C48.9863 49.0234 48.2539 50.4883 48.1562 52.7344L51.2617 52.8223C52.1602 52.8418 52.8535 52.8027 53.3418 52.7051C54.2793 52.4902 54.748 51.8945 54.748 50.918C54.748 50.4883 54.6699 50.0879 54.5137 49.7168C54.0645 48.5645 53.1562 47.9883 51.7891 47.9883ZM56.8867 57.1875C56.7695 57.4609 56.6328 57.7344 56.4766 58.0078C55.4805 59.5312 53.9277 60.293 51.8184 60.293C50.4902 60.293 49.3086 59.9512 48.2734 59.2676C46.5352 58.0957 45.666 56.2988 45.666 53.877C45.666 52.5488 45.9395 51.3574 46.4863 50.3027C47.541 48.2715 49.2891 47.2559 51.7305 47.2559C52.9805 47.2559 54.084 47.5391 55.041 48.1055C56.3887 48.8867 57.0625 49.9414 57.0625 51.2695C57.0625 51.9922 56.7988 52.5488 56.2715 52.9395C55.5879 53.4277 54.0547 53.6523 51.6719 53.6133L48.1562 53.5547C48.1758 54.375 48.2637 55.127 48.4199 55.8105C48.9473 58.252 50.2363 59.4727 52.2871 59.4727C52.4629 59.4727 52.6484 59.4629 52.8438 59.4434C54.3672 59.248 55.4707 58.4082 56.1543 56.9238L56.8867 57.1875ZM74.9629 60L74.7285 56.8945C73.7715 59.1211 72.2285 60.2539 70.0996 60.293C69.0645 60.293 68.1172 59.9902 67.2578 59.3848C65.7344 58.2715 64.9727 56.5039 64.9727 54.082C64.9727 52.6172 65.3047 51.2988 65.9688 50.127C67.0625 48.2129 68.6836 47.2559 70.832 47.2559C72.4531 47.2559 73.7422 47.7832 74.6992 48.8379V41.6895H71.916V40.957H76.8965L76.9551 59.2676H78.4199C78.5371 59.2676 78.6348 59.2773 78.7129 59.2969C79.0059 59.3359 79.1523 59.5703 79.1523 60H74.9629ZM67.4629 53.7305C67.4629 54.6484 67.5605 55.4688 67.7559 56.1914C68.2441 58.1445 69.2891 59.1211 70.8906 59.1211C71.6914 59.1211 72.4043 58.8379 73.0293 58.2715C74.2012 57.2168 74.7871 55.5176 74.7871 53.1738C74.7871 52.0605 74.6211 51.0938 74.2891 50.2734C73.6836 48.75 72.668 47.9883 71.2422 47.9883C70.6758 47.9883 70.1582 48.1152 69.6895 48.3691C68.2051 49.1895 67.4629 50.9766 67.4629 53.7305ZM87.1504 47.9883C86.6426 47.9883 86.1641 48.1055 85.7148 48.3398C84.3477 49.0234 83.6152 50.4883 83.5176 52.7344L86.623 52.8223C87.5215 52.8418 88.2148 52.8027 88.7031 52.7051C89.6406 52.4902 90.1094 51.8945 90.1094 50.918C90.1094 50.4883 90.0312 50.0879 89.875 49.7168C89.4258 48.5645 88.5176 47.9883 87.1504 47.9883ZM92.248 57.1875C92.1309 57.4609 91.9941 57.7344 91.8379 58.0078C90.8418 59.5312 89.2891 60.293 87.1797 60.293C85.8516 60.293 84.6699 59.9512 83.6348 59.2676C81.8965 58.0957 81.0273 56.2988 81.0273 53.877C81.0273 52.5488 81.3008 51.3574 81.8477 50.3027C82.9023 48.2715 84.6504 47.2559 87.0918 47.2559C88.3418 47.2559 89.4453 47.5391 90.4023 48.1055C91.75 48.8867 92.4238 49.9414 92.4238 51.2695C92.4238 51.9922 92.1602 52.5488 91.6328 52.9395C90.9492 53.4277 89.416 53.6523 87.0332 53.6133L83.5176 53.5547C83.5371 54.375 83.625 55.127 83.7812 55.8105C84.3086 58.252 85.5977 59.4727 87.6484 59.4727C87.8242 59.4727 88.0098 59.4629 88.2051 59.4434C89.7285 59.248 90.832 58.4082 91.5156 56.9238L92.248 57.1875ZM100.393 59.2676C100.51 59.2676 100.607 59.2773 100.686 59.2969C100.979 59.3359 101.125 59.5703 101.125 60H94.416V59.2676C95.0801 59.2676 95.5586 59.2188 95.8516 59.1211C96.3594 58.9453 96.6133 58.4082 96.6133 57.5098V41.6895H94.416V40.957H98.8105V59.2676H100.393ZM113.4 48.2812H111.35L115.1 58.2715L118.82 48.2812H116.623V47.5488H121.135C121.135 47.6465 121.125 47.7441 121.105 47.8418C121.066 48.1348 120.832 48.2812 120.402 48.2812C120.324 48.2812 120.236 48.291 120.139 48.3105C119.807 48.3691 119.523 48.7012 119.289 49.3066L115.158 60.1465H114.777C114.426 60.1465 114.133 60.0977 113.898 60C113.43 59.8242 113 59.1895 112.609 58.0957L109.035 48.2812H107.717V47.5488H113.4V48.2812ZM128.107 59.2676C128.205 59.2676 128.303 59.2773 128.4 59.2969C128.693 59.3359 128.84 59.5703 128.84 60H122.102V59.2676C122.766 59.2676 123.244 59.2285 123.537 59.1504C124.143 58.9551 124.445 58.4082 124.445 57.5098V48.2812H122.102V47.5488H126.643V59.2676H128.107ZM126.994 43.2715C126.994 43.5059 126.945 43.7305 126.848 43.9453C126.574 44.5703 126.096 44.8828 125.412 44.8828C125.197 44.8828 124.982 44.8438 124.768 44.7656C124.123 44.4922 123.801 43.9941 123.801 43.2715C123.801 43.0371 123.85 42.8125 123.947 42.5977C124.24 41.9727 124.729 41.6602 125.412 41.6602C125.627 41.6602 125.852 41.709 126.086 41.8066C126.691 42.0996 126.994 42.5879 126.994 43.2715ZM136.311 59.2676C136.428 59.2676 136.525 59.2773 136.604 59.2969C136.896 59.3359 137.043 59.5703 137.043 60H130.598V59.2676C131.262 59.2676 131.74 59.2188 132.033 59.1211C132.541 58.9453 132.795 58.4082 132.795 57.5098V48.2812H130.598V47.5488H134.846L134.963 50.4785C135.178 49.9316 135.461 49.4336 135.812 48.9844C136.75 47.832 137.941 47.2559 139.387 47.2559C140.109 47.2559 140.783 47.4414 141.408 47.8125C142.756 48.6523 143.43 50.0488 143.43 52.002V59.2676H144.895C145.012 59.2676 145.109 59.2773 145.188 59.2969C145.48 59.3359 145.627 59.5703 145.627 60H139.035V59.2676C139.699 59.2676 140.178 59.2188 140.471 59.1211C140.979 58.9453 141.232 58.4082 141.232 57.5098V51.709C141.232 51.1426 141.145 50.6348 140.969 50.1855C140.539 49.0723 139.729 48.5156 138.537 48.5156C137.99 48.5156 137.453 48.6816 136.926 49.0137C135.695 49.8145 135.051 51.123 134.992 52.9395V59.2676H136.311ZM136.604 41.4551C135.314 41.4746 134.445 42.5195 133.996 44.5898L134.582 44.7363C134.602 44.6387 134.631 44.541 134.67 44.4434C134.963 43.5254 135.451 43.0664 136.135 43.0664C136.545 43.0664 137.092 43.3301 137.775 43.8574C138.557 44.4824 139.24 44.7949 139.826 44.7949C141.135 44.7754 142.014 43.7305 142.463 41.6602L141.848 41.5137C141.828 41.5723 141.809 41.6309 141.789 41.6895C141.496 42.6855 140.988 43.1836 140.266 43.1836C139.895 43.1836 139.367 42.9199 138.684 42.3926C137.883 41.7676 137.189 41.4551 136.604 41.4551ZM153.654 47.9883C153.146 47.9883 152.668 48.1055 152.219 48.3398C150.852 49.0234 150.119 50.4883 150.021 52.7344L153.127 52.8223C154.025 52.8418 154.719 52.8027 155.207 52.7051C156.145 52.4902 156.613 51.8945 156.613 50.918C156.613 50.4883 156.535 50.0879 156.379 49.7168C155.93 48.5645 155.021 47.9883 153.654 47.9883ZM158.752 57.1875C158.635 57.4609 158.498 57.7344 158.342 58.0078C157.346 59.5312 155.793 60.293 153.684 60.293C152.355 60.293 151.174 59.9512 150.139 59.2676C148.4 58.0957 147.531 56.2988 147.531 53.877C147.531 52.5488 147.805 51.3574 148.352 50.3027C149.406 48.2715 151.154 47.2559 153.596 47.2559C154.846 47.2559 155.949 47.5391 156.906 48.1055C158.254 48.8867 158.928 49.9414 158.928 51.2695C158.928 51.9922 158.664 52.5488 158.137 52.9395C157.453 53.4277 155.92 53.6523 153.537 53.6133L150.021 53.5547C150.041 54.375 150.129 55.127 150.285 55.8105C150.812 58.252 152.102 59.4727 154.152 59.4727C154.328 59.4727 154.514 59.4629 154.709 59.4434C156.232 59.248 157.336 58.4082 158.02 56.9238L158.752 57.1875ZM171.115 60L170.881 56.8945C169.924 59.1211 168.381 60.2539 166.252 60.293C165.217 60.293 164.27 59.9902 163.41 59.3848C161.887 58.2715 161.125 56.5039 161.125 54.082C161.125 52.6172 161.457 51.2988 162.121 50.127C163.215 48.2129 164.836 47.2559 166.984 47.2559C168.605 47.2559 169.895 47.7832 170.852 48.8379V41.6895H168.068V40.957H173.049L173.107 59.2676H174.572C174.689 59.2676 174.787 59.2773 174.865 59.2969C175.158 59.3359 175.305 59.5703 175.305 60H171.115ZM163.615 53.7305C163.615 54.6484 163.713 55.4688 163.908 56.1914C164.396 58.1445 165.441 59.1211 167.043 59.1211C167.844 59.1211 168.557 58.8379 169.182 58.2715C170.354 57.2168 170.939 55.5176 170.939 53.1738C170.939 52.0605 170.773 51.0938 170.441 50.2734C169.836 48.75 168.82 47.9883 167.395 47.9883C166.828 47.9883 166.311 48.1152 165.842 48.3691C164.357 49.1895 163.615 50.9766 163.615 53.7305ZM179.67 53.7598C179.67 54.5996 179.738 55.3613 179.875 56.0449C180.383 58.3887 181.623 59.5605 183.596 59.5605C183.967 59.5605 184.328 59.5117 184.68 59.4141C186.477 58.8477 187.375 56.9238 187.375 53.6426C187.375 53.0762 187.346 52.5586 187.287 52.0898C186.936 49.3555 185.676 47.9883 183.508 47.9883C183.039 47.9883 182.59 48.0664 182.16 48.2227C180.5 48.8867 179.67 50.7324 179.67 53.7598ZM183.596 47.2559C184.885 47.2559 186.066 47.5977 187.141 48.2812C188.957 49.4727 189.865 51.2988 189.865 53.7598C189.865 55.5762 189.299 57.0898 188.166 58.3008C186.936 59.6289 185.383 60.293 183.508 60.293C182.18 60.293 180.969 59.9219 179.875 59.1797C178.078 57.9492 177.18 56.1035 177.18 53.6426C177.18 51.8652 177.756 50.3809 178.908 49.1895C180.158 47.9004 181.721 47.2559 183.596 47.2559ZM199.768 64.6582C200.041 64.6582 200.314 64.5996 200.588 64.4824C201.545 64.0723 202.57 62.5781 203.664 60L198.391 48.3105H196.955V47.5488H202.668V48.3105H200.705L204.719 57.6855L208.469 48.3105H206.33V47.5488H210.783C210.783 47.7246 210.764 47.8711 210.725 47.9883C210.666 48.2031 210.441 48.3105 210.051 48.3105C209.875 48.3105 209.719 48.3301 209.582 48.3691C209.348 48.4473 209.133 48.7598 208.938 49.3066L204.602 60C204.172 61.0547 203.723 61.9629 203.254 62.7246C202.121 64.6191 200.783 65.5664 199.24 65.5664C198.811 65.5664 198.4 65.4883 198.01 65.332C197.15 65 196.721 64.4629 196.721 63.7207C196.721 63.6621 196.73 63.5938 196.75 63.5156C196.848 62.9688 197.209 62.6953 197.834 62.6953C198.068 62.6953 198.273 62.7539 198.449 62.8711C198.645 63.0078 198.85 63.3691 199.064 63.9551C199.221 64.4238 199.455 64.6582 199.768 64.6582ZM215.412 58.916C215.373 60.2441 214.758 61.5527 213.566 62.8418L212.951 62.4023C213.791 61.5234 214.221 60.8203 214.24 60.293C214.221 60.0781 213.996 59.9121 213.566 59.7949C213.508 59.7754 213.43 59.7559 213.332 59.7363C212.707 59.502 212.395 59.0723 212.395 58.4473C212.395 58.252 212.434 58.0566 212.512 57.8613C212.746 57.2754 213.176 56.9824 213.801 56.9824C213.938 56.9824 214.084 57.002 214.24 57.041C215.021 57.2363 215.412 57.8613 215.412 58.916ZM229.592 47.9883C229.084 47.9883 228.605 48.1055 228.156 48.3398C226.789 49.0234 226.057 50.4883 225.959 52.7344L229.064 52.8223C229.963 52.8418 230.656 52.8027 231.145 52.7051C232.082 52.4902 232.551 51.8945 232.551 50.918C232.551 50.4883 232.473 50.0879 232.316 49.7168C231.867 48.5645 230.959 47.9883 229.592 47.9883ZM234.689 57.1875C234.572 57.4609 234.436 57.7344 234.279 58.0078C233.283 59.5312 231.73 60.293 229.621 60.293C228.293 60.293 227.111 59.9512 226.076 59.2676C224.338 58.0957 223.469 56.2988 223.469 53.877C223.469 52.5488 223.742 51.3574 224.289 50.3027C225.344 48.2715 227.092 47.2559 229.533 47.2559C230.783 47.2559 231.887 47.5391 232.844 48.1055C234.191 48.8867 234.865 49.9414 234.865 51.2695C234.865 51.9922 234.602 52.5488 234.074 52.9395C233.391 53.4277 231.857 53.6523 229.475 53.6133L225.959 53.5547C225.979 54.375 226.066 55.127 226.223 55.8105C226.75 58.252 228.039 59.4727 230.09 59.4727C230.266 59.4727 230.451 59.4629 230.646 59.4434C232.17 59.248 233.273 58.4082 233.957 56.9238L234.689 57.1875ZM242.482 59.2676C242.6 59.2676 242.697 59.2773 242.775 59.2969C243.068 59.3359 243.215 59.5703 243.215 60H236.77V59.2676C237.434 59.2676 237.912 59.2188 238.205 59.1211C238.713 58.9453 238.967 58.4082 238.967 57.5098V48.2812H236.77V47.5488H241.018L241.135 50.4785C241.35 49.9316 241.633 49.4336 241.984 48.9844C242.922 47.832 244.113 47.2559 245.559 47.2559C246.281 47.2559 246.955 47.4414 247.58 47.8125C248.928 48.6523 249.602 50.0488 249.602 52.002V59.2676H251.066C251.184 59.2676 251.281 59.2773 251.359 59.2969C251.652 59.3359 251.799 59.5703 251.799 60H245.207V59.2676C245.871 59.2676 246.35 59.2188 246.643 59.1211C247.15 58.9453 247.404 58.4082 247.404 57.5098V51.709C247.404 51.1426 247.316 50.6348 247.141 50.1855C246.711 49.0723 245.9 48.5156 244.709 48.5156C244.162 48.5156 243.625 48.6816 243.098 49.0137C241.867 49.8145 241.223 51.123 241.164 52.9395V59.2676H242.482ZM261.906 53.7598C261.906 54.5996 261.975 55.3613 262.111 56.0449C262.619 58.3887 263.859 59.5605 265.832 59.5605C266.203 59.5605 266.564 59.5117 266.916 59.4141C268.713 58.8477 269.611 56.9238 269.611 53.6426C269.611 53.0762 269.582 52.5586 269.523 52.0898C269.172 49.3555 267.912 47.9883 265.744 47.9883C265.275 47.9883 264.826 48.0664 264.396 48.2227C262.736 48.8867 261.906 50.7324 261.906 53.7598ZM265.832 47.2559C267.121 47.2559 268.303 47.5977 269.377 48.2812C271.193 49.4727 272.102 51.2988 272.102 53.7598C272.102 55.5762 271.535 57.0898 270.402 58.3008C269.172 59.6289 267.619 60.293 265.744 60.293C264.416 60.293 263.205 59.9219 262.111 59.1797C260.314 57.9492 259.416 56.1035 259.416 53.6426C259.416 51.8652 259.992 50.3809 261.145 49.1895C262.395 47.9004 263.957 47.2559 265.832 47.2559ZM274.445 53.9062C274.445 52.6172 274.689 51.4648 275.178 50.4492C276.213 48.3203 278.039 47.2559 280.656 47.2559C281.711 47.2559 282.688 47.4805 283.586 47.9297C284.855 48.5742 285.49 49.3945 285.49 50.3906C285.49 50.5078 285.471 50.6348 285.432 50.7715C285.256 51.3574 284.836 51.6309 284.172 51.5918C283.938 51.5723 283.723 51.5137 283.527 51.416C283.215 51.2207 283 50.7324 282.883 49.9512C282.824 49.6191 282.775 49.375 282.736 49.2188C282.521 48.3984 281.887 47.9883 280.832 47.9883C280.148 47.9883 279.523 48.1641 278.957 48.5156C277.609 49.375 276.936 51.084 276.936 53.6426C276.936 55.0879 277.229 56.3379 277.814 57.3926C278.596 58.7793 279.68 59.4727 281.066 59.4727C281.223 59.4727 281.379 59.4629 281.535 59.4434C283.195 59.2871 284.387 58.4375 285.109 56.8945L285.871 57.1582C285.734 57.4902 285.549 57.8223 285.314 58.1543C284.279 59.5801 282.746 60.293 280.715 60.293C279.348 60.293 278.127 59.9316 277.053 59.209C275.314 58.0371 274.445 56.2695 274.445 53.9062ZM297.473 60.293C296.105 60.2734 295.305 59.3945 295.07 57.6562C294.895 58.0664 294.631 58.457 294.279 58.8281C293.303 59.8047 292.102 60.293 290.676 60.293C290.09 60.293 289.533 60.1855 289.006 59.9707C287.697 59.4238 287.043 58.4082 287.043 56.9238C287.043 56.4941 287.102 56.0938 287.219 55.7227C287.883 53.8086 290.51 52.8516 295.1 52.8516V51.0059C295.041 49.1113 294.094 48.1055 292.258 47.9883C291.477 47.9883 290.9 48.2324 290.529 48.7207C290.432 48.8574 290.246 49.2871 289.973 50.0098C289.758 50.5762 289.426 50.8594 288.977 50.8594C288.879 50.8594 288.781 50.8496 288.684 50.8301C288.117 50.7324 287.834 50.3809 287.834 49.7754C287.834 49.4434 287.951 49.1113 288.186 48.7793C288.928 47.7637 290.393 47.2559 292.58 47.2559C292.756 47.2559 292.932 47.2559 293.107 47.2559C295.9 47.4121 297.297 48.8867 297.297 51.6797V57.8613C297.316 58.8379 297.58 59.3457 298.088 59.3848C298.713 59.3652 299.094 58.6426 299.23 57.2168L299.992 57.2461C299.992 57.3438 299.982 57.4512 299.963 57.5684C299.807 59.3848 298.977 60.293 297.473 60.293ZM291.643 59.1211C292.072 59.1211 292.512 59.0234 292.961 58.8281C294.094 58.2812 294.807 57.334 295.1 55.9863V53.6426C293.576 53.6621 292.414 53.7598 291.613 53.9355C290.109 54.2871 289.357 55.1172 289.357 56.4258C289.357 56.7578 289.387 57.0605 289.445 57.334C289.719 58.5254 290.451 59.1211 291.643 59.1211ZM305.705 59.502C307.053 59.502 307.961 59.0918 308.43 58.2715C308.605 57.9785 308.693 57.6562 308.693 57.3047C308.693 56.4844 308.098 55.7812 306.906 55.1953C306.652 55.0586 306.232 54.8633 305.646 54.6094C304.045 53.9453 302.98 53.3203 302.453 52.7344C301.887 52.0898 301.604 51.3379 301.604 50.4785C301.604 49.1309 302.346 48.1836 303.83 47.6367C304.514 47.3828 305.256 47.2559 306.057 47.2559C307.346 47.2559 308.459 47.5293 309.396 48.0762C309.396 47.5098 309.533 47.1875 309.807 47.1094C309.924 47.0898 310.051 47.0801 310.188 47.0801V50.7422H309.426C309.387 48.9453 308.391 48.0371 306.438 48.0176C304.973 48.0176 304.064 48.4473 303.713 49.3066C303.615 49.541 303.566 49.7852 303.566 50.0391C303.566 50.8789 304.172 51.5918 305.383 52.1777C305.656 52.3145 306.086 52.5 306.672 52.7344C308.254 53.3789 309.309 53.9941 309.836 54.5801C310.402 55.2051 310.686 55.9473 310.686 56.8066C310.686 58.3887 309.846 59.4434 308.166 59.9707C307.521 60.1855 306.818 60.293 306.057 60.293C304.65 60.2734 303.43 59.9219 302.395 59.2383C302.395 59.7461 302.268 60.0391 302.014 60.1172C301.896 60.1367 301.76 60.1465 301.604 60.1465V55.6934H302.424C302.463 58.2129 303.557 59.4824 305.705 59.502ZM318.742 59.2676C318.84 59.2676 318.938 59.2773 319.035 59.2969C319.328 59.3359 319.475 59.5703 319.475 60H312.736V59.2676C313.4 59.2676 313.879 59.2285 314.172 59.1504C314.777 58.9551 315.08 58.4082 315.08 57.5098V48.2812H312.736V47.5488H317.277V59.2676H318.742ZM317.629 43.2715C317.629 43.5059 317.58 43.7305 317.482 43.9453C317.209 44.5703 316.73 44.8828 316.047 44.8828C315.832 44.8828 315.617 44.8438 315.402 44.7656C314.758 44.4922 314.436 43.9941 314.436 43.2715C314.436 43.0371 314.484 42.8125 314.582 42.5977C314.875 41.9727 315.363 41.6602 316.047 41.6602C316.262 41.6602 316.486 41.709 316.721 41.8066C317.326 42.0996 317.629 42.5879 317.629 43.2715ZM324.016 53.7598C324.016 54.5996 324.084 55.3613 324.221 56.0449C324.729 58.3887 325.969 59.5605 327.941 59.5605C328.312 59.5605 328.674 59.5117 329.025 59.4141C330.822 58.8477 331.721 56.9238 331.721 53.6426C331.721 53.0762 331.691 52.5586 331.633 52.0898C331.281 49.3555 330.021 47.9883 327.854 47.9883C327.385 47.9883 326.936 48.0664 326.506 48.2227C324.846 48.8867 324.016 50.7324 324.016 53.7598ZM327.941 47.2559C329.23 47.2559 330.412 47.5977 331.486 48.2812C333.303 49.4727 334.211 51.2988 334.211 53.7598C334.211 55.5762 333.645 57.0898 332.512 58.3008C331.281 59.6289 329.729 60.293 327.854 60.293C326.525 60.293 325.314 59.9219 324.221 59.1797C322.424 57.9492 321.525 56.1035 321.525 53.6426C321.525 51.8652 322.102 50.3809 323.254 49.1895C324.504 47.9004 326.066 47.2559 327.941 47.2559ZM341.975 59.2676C342.092 59.2676 342.189 59.2773 342.268 59.2969C342.561 59.3359 342.707 59.5703 342.707 60H336.262V59.2676C336.926 59.2676 337.404 59.2188 337.697 59.1211C338.205 58.9453 338.459 58.4082 338.459 57.5098V48.2812H336.262V47.5488H340.51L340.627 50.4785C340.842 49.9316 341.125 49.4336 341.477 48.9844C342.414 47.832 343.605 47.2559 345.051 47.2559C345.773 47.2559 346.447 47.4414 347.072 47.8125C348.42 48.6523 349.094 50.0488 349.094 52.002V59.2676H350.559C350.676 59.2676 350.773 59.2773 350.852 59.2969C351.145 59.3359 351.291 59.5703 351.291 60H344.699V59.2676C345.363 59.2676 345.842 59.2188 346.135 59.1211C346.643 58.9453 346.896 58.4082 346.896 57.5098V51.709C346.896 51.1426 346.809 50.6348 346.633 50.1855C346.203 49.0723 345.393 48.5156 344.201 48.5156C343.654 48.5156 343.117 48.6816 342.59 49.0137C341.359 49.8145 340.715 51.123 340.656 52.9395V59.2676H341.975ZM359.318 47.9883C358.811 47.9883 358.332 48.1055 357.883 48.3398C356.516 49.0234 355.783 50.4883 355.686 52.7344L358.791 52.8223C359.689 52.8418 360.383 52.8027 360.871 52.7051C361.809 52.4902 362.277 51.8945 362.277 50.918C362.277 50.4883 362.199 50.0879 362.043 49.7168C361.594 48.5645 360.686 47.9883 359.318 47.9883ZM364.416 57.1875C364.299 57.4609 364.162 57.7344 364.006 58.0078C363.01 59.5312 361.457 60.293 359.348 60.293C358.02 60.293 356.838 59.9512 355.803 59.2676C354.064 58.0957 353.195 56.2988 353.195 53.877C353.195 52.5488 353.469 51.3574 354.016 50.3027C355.07 48.2715 356.818 47.2559 359.26 47.2559C360.51 47.2559 361.613 47.5391 362.57 48.1055C363.918 48.8867 364.592 49.9414 364.592 51.2695C364.592 51.9922 364.328 52.5488 363.801 52.9395C363.117 53.4277 361.584 53.6523 359.201 53.6133L355.686 53.5547C355.705 54.375 355.793 55.127 355.949 55.8105C356.477 58.252 357.766 59.4727 359.816 59.4727C359.992 59.4727 360.178 59.4629 360.373 59.4434C361.896 59.248 363 58.4082 363.684 56.9238L364.416 57.1875ZM371.184 59.502C372.531 59.502 373.439 59.0918 373.908 58.2715C374.084 57.9785 374.172 57.6562 374.172 57.3047C374.172 56.4844 373.576 55.7812 372.385 55.1953C372.131 55.0586 371.711 54.8633 371.125 54.6094C369.523 53.9453 368.459 53.3203 367.932 52.7344C367.365 52.0898 367.082 51.3379 367.082 50.4785C367.082 49.1309 367.824 48.1836 369.309 47.6367C369.992 47.3828 370.734 47.2559 371.535 47.2559C372.824 47.2559 373.938 47.5293 374.875 48.0762C374.875 47.5098 375.012 47.1875 375.285 47.1094C375.402 47.0898 375.529 47.0801 375.666 47.0801V50.7422H374.904C374.865 48.9453 373.869 48.0371 371.916 48.0176C370.451 48.0176 369.543 48.4473 369.191 49.3066C369.094 49.541 369.045 49.7852 369.045 50.0391C369.045 50.8789 369.65 51.5918 370.861 52.1777C371.135 52.3145 371.564 52.5 372.15 52.7344C373.732 53.3789 374.787 53.9941 375.314 54.5801C375.881 55.2051 376.164 55.9473 376.164 56.8066C376.164 58.3887 375.324 59.4434 373.645 59.9707C373 60.1855 372.297 60.293 371.535 60.293C370.129 60.2734 368.908 59.9219 367.873 59.2383C367.873 59.7461 367.746 60.0391 367.492 60.1172C367.375 60.1367 367.238 60.1465 367.082 60.1465V55.6934H367.902C367.941 58.2129 369.035 59.4824 371.184 59.502ZM381.818 58.916C381.779 60.2441 381.164 61.5527 379.973 62.8418L379.357 62.4023C380.197 61.5234 380.627 60.8203 380.646 60.293C380.627 60.0781 380.402 59.9121 379.973 59.7949C379.914 59.7754 379.836 59.7559 379.738 59.7363C379.113 59.502 378.801 59.0723 378.801 58.4473C378.801 58.252 378.84 58.0566 378.918 57.8613C379.152 57.2754 379.582 56.9824 380.207 56.9824C380.344 56.9824 380.49 57.002 380.646 57.041C381.428 57.2363 381.818 57.8613 381.818 58.916ZM395.646 59.2676C395.764 59.2676 395.861 59.2773 395.939 59.2969C396.232 59.3359 396.379 59.5703 396.379 60H389.67V59.2676C390.334 59.2676 390.812 59.2188 391.105 59.1211C391.613 58.9453 391.867 58.4082 391.867 57.5098V41.6895H389.67V40.957H394.064V59.2676H395.646ZM408.625 60.293C407.258 60.2734 406.457 59.3945 406.223 57.6562C406.047 58.0664 405.783 58.457 405.432 58.8281C404.455 59.8047 403.254 60.293 401.828 60.293C401.242 60.293 400.686 60.1855 400.158 59.9707C398.85 59.4238 398.195 58.4082 398.195 56.9238C398.195 56.4941 398.254 56.0938 398.371 55.7227C399.035 53.8086 401.662 52.8516 406.252 52.8516V51.0059C406.193 49.1113 405.246 48.1055 403.41 47.9883C402.629 47.9883 402.053 48.2324 401.682 48.7207C401.584 48.8574 401.398 49.2871 401.125 50.0098C400.91 50.5762 400.578 50.8594 400.129 50.8594C400.031 50.8594 399.934 50.8496 399.836 50.8301C399.27 50.7324 398.986 50.3809 398.986 49.7754C398.986 49.4434 399.104 49.1113 399.338 48.7793C400.08 47.7637 401.545 47.2559 403.732 47.2559C403.908 47.2559 404.084 47.2559 404.26 47.2559C407.053 47.4121 408.449 48.8867 408.449 51.6797V57.8613C408.469 58.8379 408.732 59.3457 409.24 59.3848C409.865 59.3652 410.246 58.6426 410.383 57.2168L411.145 57.2461C411.145 57.3438 411.135 57.4512 411.115 57.5684C410.959 59.3848 410.129 60.293 408.625 60.293ZM402.795 59.1211C403.225 59.1211 403.664 59.0234 404.113 58.8281C405.246 58.2812 405.959 57.334 406.252 55.9863V53.6426C404.729 53.6621 403.566 53.7598 402.766 53.9355C401.262 54.2871 400.51 55.1172 400.51 56.4258C400.51 56.7578 400.539 57.0605 400.598 57.334C400.871 58.5254 401.604 59.1211 402.795 59.1211ZM424.445 59.2676C424.562 59.2676 424.66 59.2773 424.738 59.2969C425.031 59.3359 425.178 59.5703 425.178 60H417.941V59.2676C418.605 59.2676 419.084 59.2188 419.377 59.1211C419.885 58.9453 420.139 58.4082 420.139 57.5098V48.2812H417.941V47.5488H422.189L422.307 50.4492C422.561 49.8633 422.902 49.3359 423.332 48.8672C424.25 47.8711 425.295 47.373 426.467 47.373C426.643 47.373 426.828 47.3926 427.023 47.4316C427.922 47.627 428.371 48.1641 428.371 49.043C428.371 49.1602 428.352 49.2773 428.312 49.3945C428.156 49.9609 427.785 50.2441 427.199 50.2441C427.082 50.2441 426.965 50.2246 426.848 50.1855C426.574 50.1074 426.281 49.7949 425.969 49.248C425.695 48.7598 425.393 48.5156 425.061 48.5156C424.768 48.5352 424.406 48.75 423.977 49.1602C422.883 50.2344 422.336 51.6602 422.336 53.4375V59.2676H424.445ZM435.812 47.9883C435.305 47.9883 434.826 48.1055 434.377 48.3398C433.01 49.0234 432.277 50.4883 432.18 52.7344L435.285 52.8223C436.184 52.8418 436.877 52.8027 437.365 52.7051C438.303 52.4902 438.771 51.8945 438.771 50.918C438.771 50.4883 438.693 50.0879 438.537 49.7168C438.088 48.5645 437.18 47.9883 435.812 47.9883ZM440.91 57.1875C440.793 57.4609 440.656 57.7344 440.5 58.0078C439.504 59.5312 437.951 60.293 435.842 60.293C434.514 60.293 433.332 59.9512 432.297 59.2676C430.559 58.0957 429.689 56.2988 429.689 53.877C429.689 52.5488 429.963 51.3574 430.51 50.3027C431.564 48.2715 433.312 47.2559 435.754 47.2559C437.004 47.2559 438.107 47.5391 439.064 48.1055C440.412 48.8867 441.086 49.9414 441.086 51.2695C441.086 51.9922 440.822 52.5488 440.295 52.9395C439.611 53.4277 438.078 53.6523 435.695 53.6133L432.18 53.5547C432.199 54.375 432.287 55.127 432.443 55.8105C432.971 58.252 434.26 59.4727 436.311 59.4727C436.486 59.4727 436.672 59.4629 436.867 59.4434C438.391 59.248 439.494 58.4082 440.178 56.9238L440.91 57.1875ZM451.076 60.293C450.939 60.293 450.793 60.2832 450.637 60.2637C448.938 60.1465 447.668 59.4141 446.828 58.0664L446.564 60H442.873V59.2676C443.537 59.2676 444.016 59.2188 444.309 59.1211C444.816 58.9453 445.07 58.4082 445.07 57.5098V41.6895H442.873V40.957H447.268V50.6543C447.326 50.4785 447.404 50.3027 447.502 50.127C448.4 48.2129 449.914 47.2559 452.043 47.2559C453.332 47.2559 454.416 47.6953 455.295 48.5742C456.467 49.7852 457.053 51.4648 457.053 53.6133C457.053 55.5273 456.506 57.1094 455.412 58.3594C454.24 59.6484 452.795 60.293 451.076 60.293ZM451.135 48.4277C450.334 48.4277 449.621 48.7012 448.996 49.248C447.824 50.3027 447.238 52.0117 447.238 54.375C447.238 55.4492 447.385 56.3965 447.678 57.2168C448.283 58.7793 449.318 59.5605 450.783 59.5605C451.35 59.5605 451.867 59.4336 452.336 59.1797C453.82 58.3594 454.562 56.5723 454.562 53.8184C454.562 52.9004 454.465 52.0801 454.27 51.3574C453.781 49.4043 452.736 48.4277 451.135 48.4277ZM465.52 47.9883C465.012 47.9883 464.533 48.1055 464.084 48.3398C462.717 49.0234 461.984 50.4883 461.887 52.7344L464.992 52.8223C465.891 52.8418 466.584 52.8027 467.072 52.7051C468.01 52.4902 468.479 51.8945 468.479 50.918C468.479 50.4883 468.4 50.0879 468.244 49.7168C467.795 48.5645 466.887 47.9883 465.52 47.9883ZM470.617 57.1875C470.5 57.4609 470.363 57.7344 470.207 58.0078C469.211 59.5312 467.658 60.293 465.549 60.293C464.221 60.293 463.039 59.9512 462.004 59.2676C460.266 58.0957 459.396 56.2988 459.396 53.877C459.396 52.5488 459.67 51.3574 460.217 50.3027C461.271 48.2715 463.02 47.2559 465.461 47.2559C466.711 47.2559 467.814 47.5391 468.771 48.1055C470.119 48.8867 470.793 49.9414 470.793 51.2695C470.793 51.9922 470.529 52.5488 470.002 52.9395C469.318 53.4277 467.785 53.6523 465.402 53.6133L461.887 53.5547C461.906 54.375 461.994 55.127 462.15 55.8105C462.678 58.252 463.967 59.4727 466.018 59.4727C466.193 59.4727 466.379 59.4629 466.574 59.4434C468.098 59.248 469.201 58.4082 469.885 56.9238L470.617 57.1875ZM478.762 59.2676C478.879 59.2676 478.977 59.2773 479.055 59.2969C479.348 59.3359 479.494 59.5703 479.494 60H472.785V59.2676C473.449 59.2676 473.928 59.2188 474.221 59.1211C474.729 58.9453 474.982 58.4082 474.982 57.5098V41.6895H472.785V40.957H477.18V59.2676H478.762ZM491.447 60L491.213 56.8945C490.256 59.1211 488.713 60.2539 486.584 60.293C485.549 60.293 484.602 59.9902 483.742 59.3848C482.219 58.2715 481.457 56.5039 481.457 54.082C481.457 52.6172 481.789 51.2988 482.453 50.127C483.547 48.2129 485.168 47.2559 487.316 47.2559C488.938 47.2559 490.227 47.7832 491.184 48.8379V41.6895H488.4V40.957H493.381L493.439 59.2676H494.904C495.021 59.2676 495.119 59.2773 495.197 59.2969C495.49 59.3359 495.637 59.5703 495.637 60H491.447ZM483.947 53.7305C483.947 54.6484 484.045 55.4688 484.24 56.1914C484.729 58.1445 485.773 59.1211 487.375 59.1211C488.176 59.1211 488.889 58.8379 489.514 58.2715C490.686 57.2168 491.271 55.5176 491.271 53.1738C491.271 52.0605 491.105 51.0938 490.773 50.2734C490.168 48.75 489.152 47.9883 487.727 47.9883C487.16 47.9883 486.643 48.1152 486.174 48.3691C484.689 49.1895 483.947 50.9766 483.947 53.7305ZM503.312 59.2383C503.43 59.2383 503.537 59.248 503.635 59.2676C503.889 59.3066 504.016 59.5508 504.016 60H497.219V59.2383C498.664 59.2383 499.406 58.7305 499.445 57.7148V48.3105H497.219V47.5488H501.789V59.2383H503.312ZM503.195 42.9199C502.98 43.1152 502.6 43.3887 502.053 43.7402C500.393 44.7754 499.328 45.4785 498.859 45.8496L498.391 45.3516C498.879 44.8242 499.406 44.1211 499.973 43.2422C500.754 42.0117 501.223 41.3184 501.379 41.1621C501.633 40.9277 501.916 40.8008 502.229 40.7812C502.404 40.7812 502.59 40.8301 502.785 40.9277C503.312 41.2012 503.576 41.5918 503.576 42.0996C503.557 42.373 503.43 42.6465 503.195 42.9199ZM516.203 60.293C514.836 60.2734 514.035 59.3945 513.801 57.6562C513.625 58.0664 513.361 58.457 513.01 58.8281C512.033 59.8047 510.832 60.293 509.406 60.293C508.82 60.293 508.264 60.1855 507.736 59.9707C506.428 59.4238 505.773 58.4082 505.773 56.9238C505.773 56.4941 505.832 56.0938 505.949 55.7227C506.613 53.8086 509.24 52.8516 513.83 52.8516V51.0059C513.771 49.1113 512.824 48.1055 510.988 47.9883C510.207 47.9883 509.631 48.2324 509.26 48.7207C509.162 48.8574 508.977 49.2871 508.703 50.0098C508.488 50.5762 508.156 50.8594 507.707 50.8594C507.609 50.8594 507.512 50.8496 507.414 50.8301C506.848 50.7324 506.564 50.3809 506.564 49.7754C506.564 49.4434 506.682 49.1113 506.916 48.7793C507.658 47.7637 509.123 47.2559 511.311 47.2559C511.486 47.2559 511.662 47.2559 511.838 47.2559C514.631 47.4121 516.027 48.8867 516.027 51.6797V57.8613C516.047 58.8379 516.311 59.3457 516.818 59.3848C517.443 59.3652 517.824 58.6426 517.961 57.2168L518.723 57.2461C518.723 57.3438 518.713 57.4512 518.693 57.5684C518.537 59.3848 517.707 60.293 516.203 60.293ZM510.373 59.1211C510.803 59.1211 511.242 59.0234 511.691 58.8281C512.824 58.2812 513.537 57.334 513.83 55.9863V53.6426C512.307 53.6621 511.145 53.7598 510.344 53.9355C508.84 54.2871 508.088 55.1172 508.088 56.4258C508.088 56.7578 508.117 57.0605 508.176 57.334C508.449 58.5254 509.182 59.1211 510.373 59.1211ZM535.744 60L535.51 56.8945C534.553 59.1211 533.01 60.2539 530.881 60.293C529.846 60.293 528.898 59.9902 528.039 59.3848C526.516 58.2715 525.754 56.5039 525.754 54.082C525.754 52.6172 526.086 51.2988 526.75 50.127C527.844 48.2129 529.465 47.2559 531.613 47.2559C533.234 47.2559 534.523 47.7832 535.48 48.8379V41.6895H532.697V40.957H537.678L537.736 59.2676H539.201C539.318 59.2676 539.416 59.2773 539.494 59.2969C539.787 59.3359 539.934 59.5703 539.934 60H535.744ZM528.244 53.7305C528.244 54.6484 528.342 55.4688 528.537 56.1914C529.025 58.1445 530.07 59.1211 531.672 59.1211C532.473 59.1211 533.186 58.8379 533.811 58.2715C534.982 57.2168 535.568 55.5176 535.568 53.1738C535.568 52.0605 535.402 51.0938 535.07 50.2734C534.465 48.75 533.449 47.9883 532.023 47.9883C531.457 47.9883 530.939 48.1152 530.471 48.3691C528.986 49.1895 528.244 50.9766 528.244 53.7305ZM547.932 47.9883C547.424 47.9883 546.945 48.1055 546.496 48.3398C545.129 49.0234 544.396 50.4883 544.299 52.7344L547.404 52.8223C548.303 52.8418 548.996 52.8027 549.484 52.7051C550.422 52.4902 550.891 51.8945 550.891 50.918C550.891 50.4883 550.812 50.0879 550.656 49.7168C550.207 48.5645 549.299 47.9883 547.932 47.9883ZM553.029 57.1875C552.912 57.4609 552.775 57.7344 552.619 58.0078C551.623 59.5312 550.07 60.293 547.961 60.293C546.633 60.293 545.451 59.9512 544.416 59.2676C542.678 58.0957 541.809 56.2988 541.809 53.877C541.809 52.5488 542.082 51.3574 542.629 50.3027C543.684 48.2715 545.432 47.2559 547.873 47.2559C549.123 47.2559 550.227 47.5391 551.184 48.1055C552.531 48.8867 553.205 49.9414 553.205 51.2695C553.205 51.9922 552.941 52.5488 552.414 52.9395C551.73 53.4277 550.197 53.6523 547.814 53.6133L544.299 53.5547C544.318 54.375 544.406 55.127 544.562 55.8105C545.09 58.252 546.379 59.4727 548.43 59.4727C548.605 59.4727 548.791 59.4629 548.986 59.4434C550.51 59.248 551.613 58.4082 552.297 56.9238L553.029 57.1875ZM566.887 59.2676C567.004 59.2676 567.102 59.2773 567.18 59.2969C567.473 59.3359 567.619 59.5703 567.619 60H560.91V59.2676C561.574 59.2676 562.053 59.2188 562.346 59.1211C562.854 58.9453 563.107 58.4082 563.107 57.5098V41.6895H560.91V40.957H565.305V59.2676H566.887ZM579.865 60.293C578.498 60.2734 577.697 59.3945 577.463 57.6562C577.287 58.0664 577.023 58.457 576.672 58.8281C575.695 59.8047 574.494 60.293 573.068 60.293C572.482 60.293 571.926 60.1855 571.398 59.9707C570.09 59.4238 569.436 58.4082 569.436 56.9238C569.436 56.4941 569.494 56.0938 569.611 55.7227C570.275 53.8086 572.902 52.8516 577.492 52.8516V51.0059C577.434 49.1113 576.486 48.1055 574.65 47.9883C573.869 47.9883 573.293 48.2324 572.922 48.7207C572.824 48.8574 572.639 49.2871 572.365 50.0098C572.15 50.5762 571.818 50.8594 571.369 50.8594C571.271 50.8594 571.174 50.8496 571.076 50.8301C570.51 50.7324 570.227 50.3809 570.227 49.7754C570.227 49.4434 570.344 49.1113 570.578 48.7793C571.32 47.7637 572.785 47.2559 574.973 47.2559C575.148 47.2559 575.324 47.2559 575.5 47.2559C578.293 47.4121 579.689 48.8867 579.689 51.6797V57.8613C579.709 58.8379 579.973 59.3457 580.48 59.3848C581.105 59.3652 581.486 58.6426 581.623 57.2168L582.385 57.2461C582.385 57.3438 582.375 57.4512 582.355 57.5684C582.199 59.3848 581.369 60.293 579.865 60.293ZM574.035 59.1211C574.465 59.1211 574.904 59.0234 575.354 58.8281C576.486 58.2812 577.199 57.334 577.492 55.9863V53.6426C575.969 53.6621 574.807 53.7598 574.006 53.9355C572.502 54.2871 571.75 55.1172 571.75 56.4258C571.75 56.7578 571.779 57.0605 571.838 57.334C572.111 58.5254 572.844 59.1211 574.035 59.1211ZM594.016 48.2812H591.965L595.715 58.2715L599.436 48.2812H597.238V47.5488H601.75C601.75 47.6465 601.74 47.7441 601.721 47.8418C601.682 48.1348 601.447 48.2812 601.018 48.2812C600.939 48.2812 600.852 48.291 600.754 48.3105C600.422 48.3691 600.139 48.7012 599.904 49.3066L595.773 60.1465H595.393C595.041 60.1465 594.748 60.0977 594.514 60C594.045 59.8242 593.615 59.1895 593.225 58.0957L589.65 48.2812H588.332V47.5488H594.016V48.2812ZM608.723 59.2676C608.82 59.2676 608.918 59.2773 609.016 59.2969C609.309 59.3359 609.455 59.5703 609.455 60H602.717V59.2676C603.381 59.2676 603.859 59.2285 604.152 59.1504C604.758 58.9551 605.061 58.4082 605.061 57.5098V48.2812H602.717V47.5488H607.258V59.2676H608.723ZM607.609 43.2715C607.609 43.5059 607.561 43.7305 607.463 43.9453C607.189 44.5703 606.711 44.8828 606.027 44.8828C605.812 44.8828 605.598 44.8438 605.383 44.7656C604.738 44.4922 604.416 43.9941 604.416 43.2715C604.416 43.0371 604.465 42.8125 604.562 42.5977C604.855 41.9727 605.344 41.6602 606.027 41.6602C606.242 41.6602 606.467 41.709 606.701 41.8066C607.307 42.0996 607.609 42.5879 607.609 43.2715ZM616.926 59.2676C617.043 59.2676 617.141 59.2773 617.219 59.2969C617.512 59.3359 617.658 59.5703 617.658 60H611.213V59.2676C611.877 59.2676 612.355 59.2188 612.648 59.1211C613.156 58.9453 613.41 58.4082 613.41 57.5098V48.2812H611.213V47.5488H615.461L615.578 50.4785C615.793 49.9316 616.076 49.4336 616.428 48.9844C617.365 47.832 618.557 47.2559 620.002 47.2559C620.725 47.2559 621.398 47.4414 622.023 47.8125C623.371 48.6523 624.045 50.0488 624.045 52.002V59.2676H625.51C625.627 59.2676 625.725 59.2773 625.803 59.2969C626.096 59.3359 626.242 59.5703 626.242 60H619.65V59.2676C620.314 59.2676 620.793 59.2188 621.086 59.1211C621.594 58.9453 621.848 58.4082 621.848 57.5098V51.709C621.848 51.1426 621.76 50.6348 621.584 50.1855C621.154 49.0723 620.344 48.5156 619.152 48.5156C618.605 48.5156 618.068 48.6816 617.541 49.0137C616.311 49.8145 615.666 51.123 615.607 52.9395V59.2676H616.926ZM617.219 41.4551C615.93 41.4746 615.061 42.5195 614.611 44.5898L615.197 44.7363C615.217 44.6387 615.246 44.541 615.285 44.4434C615.578 43.5254 616.066 43.0664 616.75 43.0664C617.16 43.0664 617.707 43.3301 618.391 43.8574C619.172 44.4824 619.855 44.7949 620.441 44.7949C621.75 44.7754 622.629 43.7305 623.078 41.6602L622.463 41.5137C622.443 41.5723 622.424 41.6309 622.404 41.6895C622.111 42.6855 621.604 43.1836 620.881 43.1836C620.51 43.1836 619.982 42.9199 619.299 42.3926C618.498 41.7676 617.805 41.4551 617.219 41.4551ZM638.43 60.293C637.062 60.2734 636.262 59.3945 636.027 57.6562C635.852 58.0664 635.588 58.457 635.236 58.8281C634.26 59.8047 633.059 60.293 631.633 60.293C631.047 60.293 630.49 60.1855 629.963 59.9707C628.654 59.4238 628 58.4082 628 56.9238C628 56.4941 628.059 56.0938 628.176 55.7227C628.84 53.8086 631.467 52.8516 636.057 52.8516V51.0059C635.998 49.1113 635.051 48.1055 633.215 47.9883C632.434 47.9883 631.857 48.2324 631.486 48.7207C631.389 48.8574 631.203 49.2871 630.93 50.0098C630.715 50.5762 630.383 50.8594 629.934 50.8594C629.836 50.8594 629.738 50.8496 629.641 50.8301C629.074 50.7324 628.791 50.3809 628.791 49.7754C628.791 49.4434 628.908 49.1113 629.143 48.7793C629.885 47.7637 631.35 47.2559 633.537 47.2559C633.713 47.2559 633.889 47.2559 634.064 47.2559C636.857 47.4121 638.254 48.8867 638.254 51.6797V57.8613C638.273 58.8379 638.537 59.3457 639.045 59.3848C639.67 59.3652 640.051 58.6426 640.188 57.2168L640.949 57.2461C640.949 57.3438 640.939 57.4512 640.92 57.5684C640.764 59.3848 639.934 60.293 638.43 60.293ZM632.6 59.1211C633.029 59.1211 633.469 59.0234 633.918 58.8281C635.051 58.2812 635.764 57.334 636.057 55.9863V53.6426C634.533 53.6621 633.371 53.7598 632.57 53.9355C631.066 54.2871 630.314 55.1172 630.314 56.4258C630.314 56.7578 630.344 57.0605 630.402 57.334C630.676 58.5254 631.408 59.1211 632.6 59.1211ZM176.887 88.2812V87.5488H178.938V84.7656L181.135 84.1504V87.5488H185.676V88.2812H181.135V97.1875C181.154 98.6523 181.691 99.4043 182.746 99.4434C183.684 99.3066 184.396 98.4277 184.885 96.8066L185.676 96.9531C185.676 96.9727 185.676 96.9922 185.676 97.0117C185.227 99.2188 184.104 100.322 182.307 100.322C180.197 100.244 179.074 98.9844 178.938 96.543V88.2812H176.887ZM193.117 87.9883C192.609 87.9883 192.131 88.1055 191.682 88.3398C190.314 89.0234 189.582 90.4883 189.484 92.7344L192.59 92.8223C193.488 92.8418 194.182 92.8027 194.67 92.7051C195.607 92.4902 196.076 91.8945 196.076 90.918C196.076 90.4883 195.998 90.0879 195.842 89.7168C195.393 88.5645 194.484 87.9883 193.117 87.9883ZM198.215 97.1875C198.098 97.4609 197.961 97.7344 197.805 98.0078C196.809 99.5312 195.256 100.293 193.146 100.293C191.818 100.293 190.637 99.9512 189.602 99.2676C187.863 98.0957 186.994 96.2988 186.994 93.877C186.994 92.5488 187.268 91.3574 187.814 90.3027C188.869 88.2715 190.617 87.2559 193.059 87.2559C194.309 87.2559 195.412 87.5391 196.369 88.1055C197.717 88.8867 198.391 89.9414 198.391 91.2695C198.391 91.9922 198.127 92.5488 197.6 92.9395C196.916 93.4277 195.383 93.6523 193 93.6133L189.484 93.5547C189.504 94.375 189.592 95.127 189.748 95.8105C190.275 98.252 191.564 99.4727 193.615 99.4727C193.791 99.4727 193.977 99.4629 194.172 99.4434C195.695 99.248 196.799 98.4082 197.482 96.9238L198.215 97.1875ZM206.857 99.2676C206.975 99.2676 207.072 99.2773 207.15 99.2969C207.443 99.3359 207.59 99.5703 207.59 100H200.354V99.2676C201.018 99.2676 201.496 99.2188 201.789 99.1211C202.297 98.9453 202.551 98.4082 202.551 97.5098V88.2812H200.354V87.5488H204.602L204.719 90.4492C204.973 89.8633 205.314 89.3359 205.744 88.8672C206.662 87.8711 207.707 87.373 208.879 87.373C209.055 87.373 209.24 87.3926 209.436 87.4316C210.334 87.627 210.783 88.1641 210.783 89.043C210.783 89.1602 210.764 89.2773 210.725 89.3945C210.568 89.9609 210.197 90.2441 209.611 90.2441C209.494 90.2441 209.377 90.2246 209.26 90.1855C208.986 90.1074 208.693 89.7949 208.381 89.248C208.107 88.7598 207.805 88.5156 207.473 88.5156C207.18 88.5352 206.818 88.75 206.389 89.1602C205.295 90.2344 204.748 91.6602 204.748 93.4375V99.2676H206.857ZM217.521 99.2676C217.619 99.2676 217.717 99.2773 217.814 99.2969C218.107 99.3555 218.254 99.5898 218.254 100H211.809V99.2676C212.473 99.2676 212.951 99.2188 213.244 99.1211C213.752 98.9453 214.006 98.4082 214.006 97.5098V88.2812H211.809V87.5488H216.057L216.174 90.4785C216.369 89.9512 216.633 89.4727 216.965 89.043C217.883 87.8516 219.045 87.2559 220.451 87.2559C220.822 87.2559 221.184 87.3242 221.535 87.4609C222.727 87.9102 223.498 88.9062 223.85 90.4492C224.006 90.0586 224.201 89.6875 224.436 89.3359C225.334 87.9492 226.525 87.2559 228.01 87.2559C228.693 87.2559 229.328 87.4316 229.914 87.7832C231.223 88.584 231.877 89.9902 231.877 92.002V99.2676H233.371C233.488 99.2676 233.586 99.2773 233.664 99.2969C233.957 99.3359 234.104 99.5703 234.104 100H227.629V99.2676C228.293 99.2676 228.762 99.2188 229.035 99.1211C229.465 98.9453 229.68 98.4082 229.68 97.5098V91.709C229.68 91.084 229.582 90.5273 229.387 90.0391C228.977 89.0039 228.273 88.4863 227.277 88.4863C226.906 88.4863 226.516 88.584 226.105 88.7793C225.031 89.3457 224.338 90.3418 224.025 91.7676V92.002V99.2676H225.344C225.461 99.2676 225.559 99.2773 225.637 99.2969C225.93 99.3359 226.076 99.5703 226.076 100H219.777V99.2676C220.441 99.2676 220.91 99.2188 221.184 99.1211C221.613 98.9453 221.828 98.4082 221.828 97.5098V91.709C221.828 91.123 221.75 90.5957 221.594 90.127C221.223 89.0527 220.549 88.5156 219.572 88.5156C219.045 88.5156 218.518 88.7109 217.99 89.1016C216.857 89.9414 216.262 91.2207 216.203 92.9395V99.2676H217.521ZM241.721 99.2676C241.818 99.2676 241.916 99.2773 242.014 99.2969C242.307 99.3359 242.453 99.5703 242.453 100H235.715V99.2676C236.379 99.2676 236.857 99.2285 237.15 99.1504C237.756 98.9551 238.059 98.4082 238.059 97.5098V88.2812H235.715V87.5488H240.256V99.2676H241.721ZM240.607 83.2715C240.607 83.5059 240.559 83.7305 240.461 83.9453C240.188 84.5703 239.709 84.8828 239.025 84.8828C238.811 84.8828 238.596 84.8438 238.381 84.7656C237.736 84.4922 237.414 83.9941 237.414 83.2715C237.414 83.0371 237.463 82.8125 237.561 82.5977C237.854 81.9727 238.342 81.6602 239.025 81.6602C239.24 81.6602 239.465 81.709 239.699 81.8066C240.305 82.0996 240.607 82.5879 240.607 83.2715ZM249.924 99.2676C250.041 99.2676 250.139 99.2773 250.217 99.2969C250.51 99.3359 250.656 99.5703 250.656 100H244.211V99.2676C244.875 99.2676 245.354 99.2188 245.646 99.1211C246.154 98.9453 246.408 98.4082 246.408 97.5098V88.2812H244.211V87.5488H248.459L248.576 90.4785C248.791 89.9316 249.074 89.4336 249.426 88.9844C250.363 87.832 251.555 87.2559 253 87.2559C253.723 87.2559 254.396 87.4414 255.021 87.8125C256.369 88.6523 257.043 90.0488 257.043 92.002V99.2676H258.508C258.625 99.2676 258.723 99.2773 258.801 99.2969C259.094 99.3359 259.24 99.5703 259.24 100H252.648V99.2676C253.312 99.2676 253.791 99.2188 254.084 99.1211C254.592 98.9453 254.846 98.4082 254.846 97.5098V91.709C254.846 91.1426 254.758 90.6348 254.582 90.1855C254.152 89.0723 253.342 88.5156 252.15 88.5156C251.604 88.5156 251.066 88.6816 250.539 89.0137C249.309 89.8145 248.664 91.123 248.605 92.9395V99.2676H249.924ZM271.428 100.293C270.061 100.273 269.26 99.3945 269.025 97.6562C268.85 98.0664 268.586 98.457 268.234 98.8281C267.258 99.8047 266.057 100.293 264.631 100.293C264.045 100.293 263.488 100.186 262.961 99.9707C261.652 99.4238 260.998 98.4082 260.998 96.9238C260.998 96.4941 261.057 96.0938 261.174 95.7227C261.838 93.8086 264.465 92.8516 269.055 92.8516V91.0059C268.996 89.1113 268.049 88.1055 266.213 87.9883C265.432 87.9883 264.855 88.2324 264.484 88.7207C264.387 88.8574 264.201 89.2871 263.928 90.0098C263.713 90.5762 263.381 90.8594 262.932 90.8594C262.834 90.8594 262.736 90.8496 262.639 90.8301C262.072 90.7324 261.789 90.3809 261.789 89.7754C261.789 89.4434 261.906 89.1113 262.141 88.7793C262.883 87.7637 264.348 87.2559 266.535 87.2559C266.711 87.2559 266.887 87.2559 267.062 87.2559C269.855 87.4121 271.252 88.8867 271.252 91.6797V97.8613C271.271 98.8379 271.535 99.3457 272.043 99.3848C272.668 99.3652 273.049 98.6426 273.186 97.2168L273.947 97.2461C273.947 97.3438 273.938 97.4512 273.918 97.5684C273.762 99.3848 272.932 100.293 271.428 100.293ZM265.598 99.1211C266.027 99.1211 266.467 99.0234 266.916 98.8281C268.049 98.2812 268.762 97.334 269.055 95.9863V93.6426C267.531 93.6621 266.369 93.7598 265.568 93.9355C264.064 94.2871 263.312 95.1172 263.312 96.4258C263.312 96.7578 263.342 97.0605 263.4 97.334C263.674 98.5254 264.406 99.1211 265.598 99.1211ZM284.963 104.834H287.014C287.131 104.834 287.229 104.844 287.307 104.863C287.6 104.902 287.746 105.137 287.746 105.566H280.568V104.834C281.232 104.834 281.711 104.785 282.004 104.688C282.512 104.512 282.766 103.975 282.766 103.076V88.2812H280.568V87.5488H284.787L284.934 90.7422C285.09 90.3125 285.285 89.9023 285.52 89.5117C286.457 88.0078 287.873 87.2559 289.768 87.2559C290.998 87.2559 292.043 87.6465 292.902 88.4277C294.133 89.5801 294.748 91.2695 294.748 93.4961C294.748 95.4492 294.182 97.0605 293.049 98.3301C291.877 99.6387 290.422 100.293 288.684 100.293C287.277 100.215 286.037 99.707 284.963 98.7695V104.834ZM288.83 88.4277C288.127 88.4277 287.482 88.6426 286.896 89.0723C285.588 90.0488 284.934 91.8066 284.934 94.3457C284.934 95.4395 285.08 96.3867 285.373 97.1875C285.939 98.7695 286.975 99.5605 288.479 99.5605C289.006 99.5605 289.494 99.4531 289.943 99.2383C291.486 98.4766 292.258 96.6602 292.258 93.7891C292.258 92.9883 292.189 92.2656 292.053 91.6211C291.604 89.4922 290.529 88.4277 288.83 88.4277ZM299.582 93.7598C299.582 94.5996 299.65 95.3613 299.787 96.0449C300.295 98.3887 301.535 99.5605 303.508 99.5605C303.879 99.5605 304.24 99.5117 304.592 99.4141C306.389 98.8477 307.287 96.9238 307.287 93.6426C307.287 93.0762 307.258 92.5586 307.199 92.0898C306.848 89.3555 305.588 87.9883 303.42 87.9883C302.951 87.9883 302.502 88.0664 302.072 88.2227C300.412 88.8867 299.582 90.7324 299.582 93.7598ZM303.508 87.2559C304.797 87.2559 305.979 87.5977 307.053 88.2812C308.869 89.4727 309.777 91.2988 309.777 93.7598C309.777 95.5762 309.211 97.0898 308.078 98.3008C306.848 99.6289 305.295 100.293 303.42 100.293C302.092 100.293 300.881 99.9219 299.787 99.1797C297.99 97.9492 297.092 96.1035 297.092 93.6426C297.092 91.8652 297.668 90.3809 298.82 89.1895C300.07 87.9004 301.633 87.2559 303.508 87.2559ZM318.391 99.2676C318.508 99.2676 318.605 99.2773 318.684 99.2969C318.977 99.3359 319.123 99.5703 319.123 100H311.887V99.2676C312.551 99.2676 313.029 99.2188 313.322 99.1211C313.83 98.9453 314.084 98.4082 314.084 97.5098V88.2812H311.887V87.5488H316.135L316.252 90.4492C316.506 89.8633 316.848 89.3359 317.277 88.8672C318.195 87.8711 319.24 87.373 320.412 87.373C320.588 87.373 320.773 87.3926 320.969 87.4316C321.867 87.627 322.316 88.1641 322.316 89.043C322.316 89.1602 322.297 89.2773 322.258 89.3945C322.102 89.9609 321.73 90.2441 321.145 90.2441C321.027 90.2441 320.91 90.2246 320.793 90.1855C320.52 90.1074 320.227 89.7949 319.914 89.248C319.641 88.7598 319.338 88.5156 319.006 88.5156C318.713 88.5352 318.352 88.75 317.922 89.1602C316.828 90.2344 316.281 91.6602 316.281 93.4375V99.2676H318.391ZM335.061 99.2676C335.158 99.2676 335.256 99.2773 335.354 99.2969C335.646 99.3359 335.793 99.5703 335.793 100H329.055V99.2676C329.719 99.2676 330.197 99.2285 330.49 99.1504C331.096 98.9551 331.398 98.4082 331.398 97.5098V88.2812H329.055V87.5488H333.596V99.2676H335.061ZM333.947 83.2715C333.947 83.5059 333.898 83.7305 333.801 83.9453C333.527 84.5703 333.049 84.8828 332.365 84.8828C332.15 84.8828 331.936 84.8438 331.721 84.7656C331.076 84.4922 330.754 83.9941 330.754 83.2715C330.754 83.0371 330.803 82.8125 330.9 82.5977C331.193 81.9727 331.682 81.6602 332.365 81.6602C332.58 81.6602 332.805 81.709 333.039 81.8066C333.645 82.0996 333.947 82.5879 333.947 83.2715ZM343.264 99.2676C343.361 99.2676 343.459 99.2773 343.557 99.2969C343.85 99.3555 343.996 99.5898 343.996 100H337.551V99.2676C338.215 99.2676 338.693 99.2188 338.986 99.1211C339.494 98.9453 339.748 98.4082 339.748 97.5098V88.2812H337.551V87.5488H341.799L341.916 90.4785C342.111 89.9512 342.375 89.4727 342.707 89.043C343.625 87.8516 344.787 87.2559 346.193 87.2559C346.564 87.2559 346.926 87.3242 347.277 87.4609C348.469 87.9102 349.24 88.9062 349.592 90.4492C349.748 90.0586 349.943 89.6875 350.178 89.3359C351.076 87.9492 352.268 87.2559 353.752 87.2559C354.436 87.2559 355.07 87.4316 355.656 87.7832C356.965 88.584 357.619 89.9902 357.619 92.002V99.2676H359.113C359.23 99.2676 359.328 99.2773 359.406 99.2969C359.699 99.3359 359.846 99.5703 359.846 100H353.371V99.2676C354.035 99.2676 354.504 99.2188 354.777 99.1211C355.207 98.9453 355.422 98.4082 355.422 97.5098V91.709C355.422 91.084 355.324 90.5273 355.129 90.0391C354.719 89.0039 354.016 88.4863 353.02 88.4863C352.648 88.4863 352.258 88.584 351.848 88.7793C350.773 89.3457 350.08 90.3418 349.768 91.7676V92.002V99.2676H351.086C351.203 99.2676 351.301 99.2773 351.379 99.2969C351.672 99.3359 351.818 99.5703 351.818 100H345.52V99.2676C346.184 99.2676 346.652 99.2188 346.926 99.1211C347.355 98.9453 347.57 98.4082 347.57 97.5098V91.709C347.57 91.123 347.492 90.5957 347.336 90.127C346.965 89.0527 346.291 88.5156 345.314 88.5156C344.787 88.5156 344.26 88.7109 343.732 89.1016C342.6 89.9414 342.004 91.2207 341.945 92.9395V99.2676H343.264ZM365.734 104.834H367.785C367.902 104.834 368 104.844 368.078 104.863C368.371 104.902 368.518 105.137 368.518 105.566H361.34V104.834C362.004 104.834 362.482 104.785 362.775 104.688C363.283 104.512 363.537 103.975 363.537 103.076V88.2812H361.34V87.5488H365.559L365.705 90.7422C365.861 90.3125 366.057 89.9023 366.291 89.5117C367.229 88.0078 368.645 87.2559 370.539 87.2559C371.77 87.2559 372.814 87.6465 373.674 88.4277C374.904 89.5801 375.52 91.2695 375.52 93.4961C375.52 95.4492 374.953 97.0605 373.82 98.3301C372.648 99.6387 371.193 100.293 369.455 100.293C368.049 100.215 366.809 99.707 365.734 98.7695V104.834ZM369.602 88.4277C368.898 88.4277 368.254 88.6426 367.668 89.0723C366.359 90.0488 365.705 91.8066 365.705 94.3457C365.705 95.4395 365.852 96.3867 366.145 97.1875C366.711 98.7695 367.746 99.5605 369.25 99.5605C369.777 99.5605 370.266 99.4531 370.715 99.2383C372.258 98.4766 373.029 96.6602 373.029 93.7891C373.029 92.9883 372.961 92.2656 372.824 91.6211C372.375 89.4922 371.301 88.4277 369.602 88.4277ZM380.354 93.7598C380.354 94.5996 380.422 95.3613 380.559 96.0449C381.066 98.3887 382.307 99.5605 384.279 99.5605C384.65 99.5605 385.012 99.5117 385.363 99.4141C387.16 98.8477 388.059 96.9238 388.059 93.6426C388.059 93.0762 388.029 92.5586 387.971 92.0898C387.619 89.3555 386.359 87.9883 384.191 87.9883C383.723 87.9883 383.273 88.0664 382.844 88.2227C381.184 88.8867 380.354 90.7324 380.354 93.7598ZM384.279 87.2559C385.568 87.2559 386.75 87.5977 387.824 88.2812C389.641 89.4727 390.549 91.2988 390.549 93.7598C390.549 95.5762 389.982 97.0898 388.85 98.3008C387.619 99.6289 386.066 100.293 384.191 100.293C382.863 100.293 381.652 99.9219 380.559 99.1797C378.762 97.9492 377.863 96.1035 377.863 93.6426C377.863 91.8652 378.439 90.3809 379.592 89.1895C380.842 87.9004 382.404 87.2559 384.279 87.2559ZM398.312 99.2676C398.43 99.2676 398.527 99.2773 398.605 99.2969C398.898 99.3359 399.045 99.5703 399.045 100H392.6V99.2676C393.264 99.2676 393.742 99.2188 394.035 99.1211C394.543 98.9453 394.797 98.4082 394.797 97.5098V88.2812H392.6V87.5488H396.848L396.965 90.4785C397.18 89.9316 397.463 89.4336 397.814 88.9844C398.752 87.832 399.943 87.2559 401.389 87.2559C402.111 87.2559 402.785 87.4414 403.41 87.8125C404.758 88.6523 405.432 90.0488 405.432 92.002V99.2676H406.896C407.014 99.2676 407.111 99.2773 407.189 99.2969C407.482 99.3359 407.629 99.5703 407.629 100H401.037V99.2676C401.701 99.2676 402.18 99.2188 402.473 99.1211C402.98 98.9453 403.234 98.4082 403.234 97.5098V91.709C403.234 91.1426 403.146 90.6348 402.971 90.1855C402.541 89.0723 401.73 88.5156 400.539 88.5156C399.992 88.5156 399.455 88.6816 398.928 89.0137C397.697 89.8145 397.053 91.123 396.994 92.9395V99.2676H398.312ZM415.656 87.9883C415.148 87.9883 414.67 88.1055 414.221 88.3398C412.854 89.0234 412.121 90.4883 412.023 92.7344L415.129 92.8223C416.027 92.8418 416.721 92.8027 417.209 92.7051C418.146 92.4902 418.615 91.8945 418.615 90.918C418.615 90.4883 418.537 90.0879 418.381 89.7168C417.932 88.5645 417.023 87.9883 415.656 87.9883ZM420.754 97.1875C420.637 97.4609 420.5 97.7344 420.344 98.0078C419.348 99.5312 417.795 100.293 415.686 100.293C414.357 100.293 413.176 99.9512 412.141 99.2676C410.402 98.0957 409.533 96.2988 409.533 93.877C409.533 92.5488 409.807 91.3574 410.354 90.3027C411.408 88.2715 413.156 87.2559 415.598 87.2559C416.848 87.2559 417.951 87.5391 418.908 88.1055C420.256 88.8867 420.93 89.9414 420.93 91.2695C420.93 91.9922 420.666 92.5488 420.139 92.9395C419.455 93.4277 417.922 93.6523 415.539 93.6133L412.023 93.5547C412.043 94.375 412.131 95.127 412.287 95.8105C412.814 98.252 414.104 99.4727 416.154 99.4727C416.33 99.4727 416.516 99.4629 416.711 99.4434C418.234 99.248 419.338 98.4082 420.021 96.9238L420.754 97.1875ZM429.396 99.2676C429.514 99.2676 429.611 99.2773 429.689 99.2969C429.982 99.3359 430.129 99.5703 430.129 100H422.893V99.2676C423.557 99.2676 424.035 99.2188 424.328 99.1211C424.836 98.9453 425.09 98.4082 425.09 97.5098V88.2812H422.893V87.5488H427.141L427.258 90.4492C427.512 89.8633 427.854 89.3359 428.283 88.8672C429.201 87.8711 430.246 87.373 431.418 87.373C431.594 87.373 431.779 87.3926 431.975 87.4316C432.873 87.627 433.322 88.1641 433.322 89.043C433.322 89.1602 433.303 89.2773 433.264 89.3945C433.107 89.9609 432.736 90.2441 432.15 90.2441C432.033 90.2441 431.916 90.2246 431.799 90.1855C431.525 90.1074 431.232 89.7949 430.92 89.248C430.646 88.7598 430.344 88.5156 430.012 88.5156C429.719 88.5352 429.357 88.75 428.928 89.1602C427.834 90.2344 427.287 91.6602 427.287 93.4375V99.2676H429.396ZM439.035 99.502C440.383 99.502 441.291 99.0918 441.76 98.2715C441.936 97.9785 442.023 97.6562 442.023 97.3047C442.023 96.4844 441.428 95.7812 440.236 95.1953C439.982 95.0586 439.562 94.8633 438.977 94.6094C437.375 93.9453 436.311 93.3203 435.783 92.7344C435.217 92.0898 434.934 91.3379 434.934 90.4785C434.934 89.1309 435.676 88.1836 437.16 87.6367C437.844 87.3828 438.586 87.2559 439.387 87.2559C440.676 87.2559 441.789 87.5293 442.727 88.0762C442.727 87.5098 442.863 87.1875 443.137 87.1094C443.254 87.0898 443.381 87.0801 443.518 87.0801V90.7422H442.756C442.717 88.9453 441.721 88.0371 439.768 88.0176C438.303 88.0176 437.395 88.4473 437.043 89.3066C436.945 89.541 436.896 89.7852 436.896 90.0391C436.896 90.8789 437.502 91.5918 438.713 92.1777C438.986 92.3145 439.416 92.5 440.002 92.7344C441.584 93.3789 442.639 93.9941 443.166 94.5801C443.732 95.2051 444.016 95.9473 444.016 96.8066C444.016 98.3887 443.176 99.4434 441.496 99.9707C440.852 100.186 440.148 100.293 439.387 100.293C437.98 100.273 436.76 99.9219 435.725 99.2383C435.725 99.7461 435.598 100.039 435.344 100.117C435.227 100.137 435.09 100.146 434.934 100.146V95.6934H435.754C435.793 98.2129 436.887 99.4824 439.035 99.502ZM452.482 87.9883C451.975 87.9883 451.496 88.1055 451.047 88.3398C449.68 89.0234 448.947 90.4883 448.85 92.7344L451.955 92.8223C452.854 92.8418 453.547 92.8027 454.035 92.7051C454.973 92.4902 455.441 91.8945 455.441 90.918C455.441 90.4883 455.363 90.0879 455.207 89.7168C454.758 88.5645 453.85 87.9883 452.482 87.9883ZM457.58 97.1875C457.463 97.4609 457.326 97.7344 457.17 98.0078C456.174 99.5312 454.621 100.293 452.512 100.293C451.184 100.293 450.002 99.9512 448.967 99.2676C447.229 98.0957 446.359 96.2988 446.359 93.877C446.359 92.5488 446.633 91.3574 447.18 90.3027C448.234 88.2715 449.982 87.2559 452.424 87.2559C453.674 87.2559 454.777 87.5391 455.734 88.1055C457.082 88.8867 457.756 89.9414 457.756 91.2695C457.756 91.9922 457.492 92.5488 456.965 92.9395C456.281 93.4277 454.748 93.6523 452.365 93.6133L448.85 93.5547C448.869 94.375 448.957 95.127 449.113 95.8105C449.641 98.252 450.93 99.4727 452.98 99.4727C453.156 99.4727 453.342 99.4629 453.537 99.4434C455.061 99.248 456.164 98.4082 456.848 96.9238L457.58 97.1875ZM463.234 98.6523C463.234 98.8672 463.186 99.082 463.088 99.2969C462.814 99.8633 462.365 100.146 461.74 100.146C461.525 100.146 461.311 100.098 461.096 100C460.529 99.7266 460.246 99.2773 460.246 98.6523C460.246 98.4375 460.295 98.2227 460.393 98.0078C460.646 97.4219 461.096 97.1289 461.74 97.1289C461.955 97.1289 462.16 97.1777 462.355 97.2754C462.941 97.5488 463.234 98.0078 463.234 98.6523Z" fill="black"/>
</svg>
