<svg width="140" height="84" viewBox="0 0 140 84" fill="none" xmlns="http://www.w3.org/2000/svg">
<path d="M70.0586 43.1963L69.8704 43.1288C68.8185 42.7427 68.2491 41.9996 67.9499 41.4302C66.8353 42.0382 65.5518 41.8066 65.489 41.7921L64.9775 41.6956L65.0451 41.1793C65.0547 41.1118 65.8895 34.3949 65.8895 19.9864C65.8895 5.64541 65.0596 1.54868 65.0499 1.51008L64.91 0.84418L65.5904 0.839354C65.6869 0.839354 67.0476 0.858656 68.1237 1.87198C68.4759 1.26399 69.0743 0.530531 69.9621 0.366469L70.0635 0.347168L70.1648 0.366469C71.0527 0.530531 71.651 1.26399 72.0033 1.87198C73.0793 0.858656 74.4401 0.839354 74.5366 0.839354L75.2169 0.84418L75.077 1.51008C75.0673 1.54868 74.2374 5.64541 74.2374 19.9864C74.2374 34.4094 75.077 41.1118 75.0818 41.1793L75.1494 41.6956L74.6379 41.7921C74.5752 41.8066 73.2868 42.0382 72.177 41.4302C71.8778 41.9996 71.3036 42.7476 70.2565 43.1288L70.0586 43.1963ZM68.5097 39.4567L68.7317 40.441C68.7413 40.4845 69.0019 41.5219 70.0586 42.0141C71.1154 41.5268 71.376 40.4845 71.3856 40.4362L71.6172 39.4712L72.3169 40.1708C72.785 40.6389 73.4557 40.7354 73.9189 40.7402C73.7211 38.8246 73.1276 32.1028 73.1276 19.9864C73.1276 8.75294 73.6246 3.80212 73.8658 2.06017C73.393 2.2001 72.7705 2.50893 72.341 3.19895L71.7137 4.2171L71.3422 3.08314C71.2167 2.69712 70.7438 1.69827 70.0586 1.48595C69.3734 1.69827 68.9005 2.69712 68.7751 3.08314L68.4035 4.21228L67.7811 3.20378C67.3564 2.51375 66.7291 2.20493 66.2563 2.06499C66.4975 3.80695 66.9945 8.75776 66.9945 19.9912C66.9945 32.1077 66.401 38.8294 66.2032 40.745C66.6616 40.7402 67.3371 40.6437 67.8052 40.1757L68.5097 39.4567Z" fill="black"/>
<path d="M70.0587 2.60107C70.1745 5.80511 70.2276 9.00432 70.271 12.2084C70.3144 15.4124 70.3144 18.6116 70.3337 21.8156C70.3096 25.0197 70.3144 28.2189 70.271 31.4229L70.1938 36.229C70.1455 37.831 70.1214 39.433 70.0587 41.035C69.9959 39.433 69.967 37.831 69.9236 36.229L69.8464 31.4229C69.8029 28.2189 69.8029 25.0197 69.7836 21.8156C69.8078 18.6116 69.8029 15.4124 69.8464 12.2084C69.8898 9.00915 69.9429 5.80511 70.0587 2.60107Z" fill="black"/>
<path d="M71.9163 4.78662C72.0321 7.65771 72.0852 10.5288 72.1287 13.4047C72.1721 16.2758 72.1721 19.1469 72.1914 22.0228C72.1721 24.8939 72.1721 27.765 72.1287 30.6409L72.0514 34.9499C72.0032 36.3879 71.9791 37.821 71.9163 39.259C71.8536 37.821 71.8247 36.3879 71.7812 34.9499L71.704 30.6409C71.6606 27.7698 71.6606 24.8987 71.6413 22.0228C71.6654 19.1517 71.6606 16.2806 71.704 13.4047C71.7523 10.5288 71.8054 7.65771 71.9163 4.78662Z" fill="black"/>
<path d="M68.1864 4.78662C68.3022 7.65771 68.3553 10.5288 68.3987 13.4047C68.4421 16.2758 68.4421 19.1469 68.4614 22.0228C68.4421 24.8939 68.4421 27.765 68.3987 30.6409L68.3215 34.9499C68.2732 36.3879 68.2491 37.821 68.1864 39.259C68.1236 37.821 68.0947 36.3879 68.0513 34.9499L67.974 30.6409C67.9306 27.7698 67.9306 24.8987 67.9113 22.0228C67.9354 19.1517 67.9306 16.2806 67.974 13.4047C68.0223 10.5288 68.0754 7.65771 68.1864 4.78662Z" fill="black"/>
<path d="M60.2342 26.5105C60.9291 24.8409 61.3923 23.2823 61.7783 21.5163C62.1837 19.7068 62.4297 17.8635 62.4442 16.0202C62.4394 14.1528 62.4008 12.2805 62.1885 10.4228C61.981 8.56983 61.6722 6.72172 61.1221 4.94116C60.8712 4.04365 60.5141 3.17508 60.1184 2.33065C59.9157 1.91084 59.6889 1.50069 59.4332 1.10501C59.1823 0.709327 58.9024 0.328124 58.5646 0C59.3077 0.593519 59.882 1.37523 60.3741 2.19071C60.8567 3.01102 61.2813 3.87476 61.6094 4.77228C62.2898 6.56248 62.7193 8.43472 63.004 10.3214L63.197 11.7401L63.3128 13.1636C63.3321 13.4 63.3562 13.6365 63.3659 13.8777L63.39 14.5919L63.4382 16.0202C63.4575 17.9551 63.2066 19.8708 62.8061 21.7479C62.3767 23.6201 61.7976 25.4538 61.0207 27.215C60.8229 27.6638 60.6781 27.9774 60.4514 28.4165" fill="black"/>
<path d="M58.1496 32.0548C58.1207 32.0886 58.0966 32.1224 58.0676 32.1562C56.8516 33.6472 55.3268 34.9838 53.4642 35.6304C52.5378 35.9489 51.5534 36.0744 50.5835 35.973C49.6184 35.8476 48.6871 35.3699 48.1226 34.6026C48.774 35.2927 49.7053 35.6401 50.6076 35.6787C51.5244 35.6883 52.4413 35.505 53.276 35.1431C54.9601 34.4289 56.3112 33.1019 57.4162 31.6399C57.6816 31.278 57.9373 30.9064 58.1786 30.53" fill="black"/>
<path d="M57.4693 25.4006C56.7792 26.5828 55.901 27.6733 54.796 28.5178C54.1494 29.0148 53.4401 29.4346 52.6777 29.7144C52.4943 29.7965 52.2917 29.8447 52.1035 29.9075C51.9105 29.975 51.7174 30.0233 51.5196 30.0619C51.1336 30.1487 50.7186 30.2308 50.3084 30.2211C49.4881 30.2259 48.6919 30.0377 47.9537 29.7434C47.2154 29.449 46.5302 29.0534 45.9125 28.5708C46.5881 28.9569 47.3119 29.256 48.0453 29.4635C48.7836 29.6662 49.5412 29.7772 50.2795 29.7C50.651 29.6758 50.9985 29.5842 51.3604 29.4732C51.5437 29.4249 51.7174 29.367 51.8912 29.2898C52.0649 29.2174 52.2434 29.1644 52.4075 29.0727C53.0878 28.7638 53.7151 28.3585 54.2749 27.8712C55.3944 26.8964 56.2822 25.666 56.924 24.3052C56.9867 24.1798 57.0495 24.0495 57.1074 23.9192" fill="black"/>
<path d="M58.5597 19.2483C58.8106 18.0082 58.9699 16.7439 59.0664 15.4797C59.1291 14.7173 59.1629 13.95 59.1629 13.1876C59.1677 12.8064 59.1388 12.4252 59.1291 12.0392L59.1098 11.465L59.0664 10.8908C58.9457 9.36595 58.7141 7.84114 58.2895 6.3694C58.082 5.63112 57.8263 4.9025 57.4981 4.20764C57.1748 3.51279 56.8033 2.82277 56.2966 2.22925C56.8853 2.74556 57.3486 3.39698 57.7539 4.06771C58.164 4.74326 58.4873 5.46706 58.7769 6.20052C59.3318 7.6819 59.6889 9.23567 59.8819 10.8039L59.9591 11.3926L60.0073 11.9813C60.0363 12.377 60.0701 12.7678 60.0845 13.1683C60.1087 13.9597 60.099 14.751 60.0604 15.5424C59.9735 17.1203 59.7661 18.6934 59.4186 20.2471C59.3559 20.5222 59.2835 20.802 59.2111 21.0771" fill="black"/>
<path d="M55.9252 14.2636C56.0699 13.5639 56.1616 12.8498 56.2388 12.1211C56.3305 11.1368 56.3691 10.1427 56.3064 9.15354C56.2871 8.65653 56.2292 8.16434 56.1471 7.67216C56.0603 7.17997 55.9589 6.68779 55.7708 6.21973C56.0603 6.63953 56.2629 7.11724 56.4318 7.59978C56.6055 8.08231 56.7262 8.58415 56.8227 9.09081C57.0109 10.1041 57.0832 11.1368 57.0639 12.1694C57.0591 13.1924 56.9385 14.2395 56.7213 15.2624" fill="black"/>
<path d="M55.4908 18.5293C55.0373 19.3448 54.5161 20.1217 53.8792 20.8165C53.7055 21.0144 53.498 21.1881 53.3098 21.3714L53.0203 21.6416L52.7018 21.8829C52.4846 22.0373 52.2868 22.211 52.06 22.351L51.3652 22.7418C49.4736 23.7262 47.2588 23.8661 45.2997 23.3788C47.3263 23.427 49.324 23.0362 50.9598 22.0229C51.7801 21.521 52.4943 20.8696 53.1312 20.1554C53.7585 19.4268 54.2748 18.6065 54.714 17.7476C54.7912 17.5932 54.8201 17.5401 54.8877 17.3809" fill="black"/>
<path d="M57.976 36.0599C57.7202 36.5376 57.479 37.0153 57.257 37.5027C56.9964 38.0817 56.7455 38.6656 56.5525 39.2543C56.3595 39.8381 56.2051 40.451 56.2292 40.9866C56.2388 41.252 56.3064 41.4739 56.4125 41.5801C56.427 41.5946 56.4367 41.6091 56.4512 41.6235C56.4608 41.638 56.456 41.6284 56.4463 41.6187C56.4415 41.6091 56.4318 41.6042 56.4222 41.6042C56.4029 41.5994 56.4319 41.5994 56.4319 41.5994C56.4367 41.6042 56.4463 41.6042 56.4656 41.5994C56.4801 41.5994 56.4994 41.5994 56.5139 41.5994L56.5718 41.5801L56.6345 41.5656L56.7021 41.527C56.7938 41.4981 56.8806 41.4064 56.9771 41.3437C57.0591 41.2471 57.1557 41.1651 57.2329 41.0541C57.3052 40.9383 57.3921 40.8322 57.4645 40.7067L57.6623 40.3207C58.14 39.235 58.362 37.9756 58.5261 36.7354C58.5743 36.1033 58.6612 35.4808 58.6853 34.8391L58.7384 33.8885L58.7528 32.9331C58.7866 31.6543 58.7335 30.3804 58.6563 29.1066C58.5068 26.5636 58.1062 24.0351 57.4162 21.5983C56.7262 19.1663 55.708 16.8115 54.217 14.7946C53.4643 13.8005 52.586 12.8885 51.5534 12.2323C51.0419 11.9042 50.4774 11.6581 49.908 11.5519C49.3434 11.4361 48.7547 11.5471 48.2239 11.8028C47.9585 11.9331 47.7173 12.0972 47.5001 12.2998C47.2878 12.5025 47.1141 12.7438 46.979 13.0092C46.7136 13.54 46.6219 14.1769 46.6943 14.7849C46.7667 15.3977 47.0128 15.9912 47.3891 16.5027C47.7559 17.0239 48.2336 17.4678 48.774 17.82C48.1998 17.5209 47.6738 17.1155 47.2444 16.6185C46.8101 16.1215 46.5013 15.5039 46.371 14.838C46.2407 14.1721 46.289 13.4724 46.5543 12.821C46.6943 12.5025 46.8776 12.1937 47.1141 11.9331C47.3554 11.6725 47.6304 11.4506 47.9392 11.2769C48.2432 11.0983 48.581 10.9729 48.9284 10.9005C49.2807 10.8185 49.6522 10.8185 50.0045 10.8619C50.7138 10.9536 51.3701 11.2093 51.9636 11.5471C53.1603 12.2178 54.1253 13.1829 54.9746 14.2107C55.8094 15.253 56.5187 16.3917 57.0881 17.5836C57.6671 18.7755 58.1449 20.0108 58.5309 21.275C59.2933 23.8035 59.7083 26.4188 59.8868 29.0342C59.964 30.3418 60.0026 31.6543 59.9592 32.962L59.9399 33.9416L59.882 34.9259C59.853 35.5822 59.7662 36.2384 59.6938 36.8947C59.4911 38.2023 59.245 39.5245 58.6515 40.7984L58.3958 41.2664C58.3041 41.4209 58.1835 41.5704 58.0773 41.72C57.9615 41.8696 57.8167 42.0047 57.6768 42.1447C57.5079 42.2653 57.3535 42.4004 57.1412 42.4824L56.9868 42.55L56.8131 42.5934C56.7551 42.6079 56.6972 42.6175 56.6345 42.6272C56.5718 42.6272 56.5042 42.632 56.4415 42.6272C56.3788 42.6272 56.3112 42.6224 56.2388 42.6031C56.1616 42.5789 56.1037 42.5789 56.0169 42.5307C55.9734 42.5066 55.93 42.4824 55.8866 42.4535C55.8432 42.4245 55.8046 42.3956 55.7901 42.3763L55.6646 42.2363C55.3461 41.8455 55.2882 41.3919 55.2834 41.0204C55.2931 40.258 55.5054 39.6065 55.7322 38.9744C55.9686 38.3423 56.2437 37.7439 56.5525 37.1601C57.0447 36.2288 57.5851 35.3361 58.1593 34.4675" fill="black"/>
<path d="M63.6071 28.2959C63.6022 28.2959 63.6022 28.2959 63.6071 28.2959C63.0908 28.7447 62.5986 29.2175 62.116 29.7049C61.8748 29.951 61.6432 30.1971 61.4115 30.448L61.0689 30.8292C60.958 30.9547 60.8421 31.0801 60.7167 31.2394L60.7022 32.1562L60.8132 31.9921C61.6769 30.7086 62.6034 29.4733 63.6071 28.2959Z" fill="black"/>
<path d="M54.0674 4.38599C53.7344 4.9216 53.5269 5.50064 53.4015 6.08451C53.2857 6.66838 53.2615 7.26672 53.3243 7.86024C53.3773 8.45376 53.5366 9.02798 53.773 9.57807C54.0288 10.1137 54.3617 10.63 54.8346 11.0498C54.2411 10.8085 53.7634 10.3212 53.4159 9.77108C53.0782 9.21134 52.8755 8.56474 52.8079 7.91815C52.7452 7.27155 52.7983 6.60082 53.0106 5.98318C53.2181 5.36071 53.5655 4.78167 54.0674 4.38599Z" fill="black"/>
<path d="M61.8025 33.7483C62.3333 34.6072 62.5456 35.6398 62.6035 36.6435C62.6614 37.6568 62.5456 38.6846 62.2609 39.669C61.9665 40.6485 61.4936 41.5943 60.794 42.3616C60.1039 43.1288 59.1871 43.6837 58.2076 43.9057C59.0906 43.4328 59.8385 42.8055 60.4079 42.0431C60.9725 41.2807 61.3778 40.4073 61.6432 39.4905C61.9183 38.5736 62.0582 37.6134 62.1016 36.6483C62.1354 35.6833 62.0823 34.7085 61.8025 33.7483Z" fill="black"/>
<path d="M79.7817 26.5105C79.0869 24.8409 78.6237 23.2823 78.2376 21.5163C77.8323 19.7068 77.5862 17.8635 77.5717 16.0202C77.5765 14.1528 77.6151 12.2805 77.8275 10.4228C78.035 8.56983 78.3438 6.72172 78.8939 4.94116C79.1448 4.04365 79.5019 3.17508 79.8975 2.33065C80.1002 1.91084 80.327 1.50069 80.5827 1.10501C80.8337 0.709327 81.1135 0.328124 81.4513 0C80.7082 0.593519 80.134 1.37523 79.6418 2.19071C79.1593 3.01102 78.7346 3.87476 78.4065 4.77228C77.7261 6.56248 77.2967 8.43472 77.012 10.3214L76.819 11.7401L76.7032 13.1636C76.6839 13.4 76.6597 13.6365 76.6501 13.8777L76.626 14.5919L76.5777 16.0202C76.5584 17.9551 76.8093 19.8708 77.2098 21.7479C77.6393 23.6201 78.2183 25.4538 78.9952 27.215C79.193 27.6638 79.3378 27.9774 79.5646 28.4165" fill="black"/>
<path d="M81.8663 32.0548C81.8953 32.0886 81.9194 32.1224 81.9483 32.1562C83.1643 33.6472 84.6891 34.9838 86.5517 35.6304C87.4782 35.9489 88.4626 36.0744 89.4325 35.973C90.3975 35.8476 91.3288 35.3699 91.8934 34.6026C91.242 35.2927 90.3107 35.6401 89.4083 35.6787C88.4915 35.6883 87.5747 35.505 86.7399 35.1431C85.0559 34.4289 83.7048 33.1019 82.5997 31.6399C82.3344 31.278 82.0786 30.9064 81.8373 30.53" fill="black"/>
<path d="M82.5466 25.4006C83.2367 26.5828 84.1149 27.6733 85.2199 28.5178C85.8665 29.0148 86.5758 29.4346 87.3382 29.7144C87.5216 29.7965 87.7242 29.8447 87.9124 29.9075C88.1054 29.975 88.2985 30.0233 88.4963 30.0619C88.8823 30.1487 89.2973 30.2308 89.7075 30.2211C90.5278 30.2259 91.324 30.0377 92.0622 29.7434C92.8005 29.449 93.4857 29.0534 94.1034 28.5708C93.4278 28.9569 92.704 29.256 91.9705 29.4635C91.2323 29.6662 90.4747 29.7772 89.7364 29.7C89.3649 29.6758 89.0174 29.5842 88.6555 29.4732C88.4722 29.4249 88.2985 29.367 88.1247 29.2898C87.951 29.2174 87.7725 29.1644 87.6084 29.0727C86.9281 28.7638 86.3008 28.3585 85.741 27.8712C84.6215 26.8964 83.7337 25.666 83.0919 24.3052C83.0292 24.1798 82.9664 24.0495 82.9085 23.9192" fill="black"/>
<path d="M81.4561 19.2483C81.2051 18.0082 81.0459 16.7439 80.9494 15.4797C80.8867 14.7173 80.8529 13.95 80.8529 13.1876C80.8481 12.8064 80.877 12.4252 80.8867 12.0392L80.906 11.465L80.9494 10.8908C81.07 9.36595 81.3016 7.84114 81.7263 6.3694C81.9338 5.63112 82.1895 4.9025 82.5176 4.20764C82.8409 3.51279 83.2125 2.82277 83.7192 2.22925C83.1305 2.74556 82.6672 3.39698 82.2619 4.06771C81.8517 4.74326 81.5284 5.46706 81.2389 6.20052C80.684 7.6819 80.3269 9.23567 80.1339 10.8039L80.0567 11.3926L80.0085 11.9813C79.9795 12.377 79.9457 12.7678 79.9312 13.1683C79.9071 13.9597 79.9168 14.751 79.9554 15.5424C80.0422 17.1203 80.2497 18.6934 80.5971 20.2471C80.6599 20.5222 80.7323 20.802 80.8046 21.0771" fill="black"/>
<path d="M84.0906 14.2636C83.9459 13.5639 83.8542 12.8498 83.777 12.1211C83.6853 11.1368 83.6467 10.1427 83.7094 9.15354C83.7288 8.65653 83.7867 8.16434 83.8687 7.67216C83.9555 7.17997 84.0569 6.68779 84.2451 6.21973C83.9555 6.63953 83.7529 7.11724 83.584 7.59978C83.4103 8.08231 83.2896 8.58415 83.1931 9.09081C83.005 10.1041 82.9326 11.1368 82.9519 12.1694C82.9567 13.1924 83.0773 14.2395 83.2945 15.2624" fill="black"/>
<path d="M84.525 18.5293C84.9786 19.3448 85.4997 20.1217 86.1367 20.8165C86.3104 21.0144 86.5179 21.1881 86.7061 21.3714L86.9956 21.6416L87.3141 21.8829C87.5312 22.0373 87.7291 22.211 87.9559 22.351L88.6507 22.7418C90.5422 23.7262 92.7571 23.8661 94.7162 23.3788C92.6895 23.427 90.6918 23.0362 89.056 22.0229C88.2357 21.521 87.5216 20.8696 86.8846 20.1554C86.2573 19.4268 85.741 18.6065 85.3019 17.7476C85.2247 17.5932 85.1957 17.5401 85.1282 17.3809" fill="black"/>
<path d="M82.0352 36.0599C82.2909 36.5376 82.5322 37.0153 82.7542 37.5027C83.0147 38.0817 83.2656 38.6656 83.4587 39.2543C83.6517 39.8381 83.8061 40.451 83.782 40.9866C83.7723 41.252 83.7048 41.4739 83.5986 41.5801C83.5841 41.5946 83.5745 41.6091 83.56 41.6235C83.5503 41.638 83.5552 41.6284 83.5648 41.6187C83.5696 41.6091 83.5793 41.6042 83.5889 41.6042C83.6082 41.5994 83.5793 41.5994 83.5793 41.5994C83.5745 41.6042 83.5648 41.6042 83.5455 41.5994C83.531 41.5994 83.5117 41.5994 83.4973 41.5994L83.4394 41.5801L83.3766 41.5656L83.3091 41.527C83.2174 41.4981 83.1305 41.4064 83.034 41.3437C82.952 41.2471 82.8555 41.1651 82.7783 41.0541C82.7059 40.9383 82.619 40.8322 82.5467 40.7067L82.3488 40.3207C81.8711 39.235 81.6492 37.9756 81.4851 36.7354C81.4368 36.1033 81.35 35.4808 81.3259 34.8391L81.2728 33.8885L81.2583 32.9331C81.2245 31.6543 81.2776 30.3804 81.3548 29.1066C81.5044 26.5636 81.9049 24.0351 82.5949 21.5983C83.285 19.1663 84.3031 16.8115 85.7941 14.7946C86.5469 13.8005 87.4251 12.8885 88.4577 12.2323C88.9692 11.9042 89.5338 11.6581 90.1032 11.5519C90.6677 11.4361 91.2564 11.5471 91.7872 11.8028C92.0526 11.9331 92.2939 12.0972 92.511 12.2998C92.7233 12.5025 92.8971 12.7438 93.0322 13.0092C93.2976 13.54 93.3892 14.1769 93.3169 14.7849C93.2445 15.3977 92.9984 15.9912 92.622 16.5027C92.2553 17.0239 91.7776 17.4678 91.2371 17.82C91.8114 17.5209 92.3373 17.1155 92.7668 16.6185C93.2011 16.1215 93.5099 15.5039 93.6402 14.838C93.7704 14.1721 93.7222 13.4724 93.4568 12.821C93.3169 12.5025 93.1335 12.1937 92.8971 11.9331C92.6558 11.6725 92.3807 11.4506 92.0719 11.2769C91.7679 11.0983 91.4301 10.9729 91.0827 10.9005C90.7305 10.8185 90.3589 10.8185 90.0067 10.8619C89.2973 10.9536 88.6411 11.2093 88.0476 11.5471C86.8509 12.2178 85.8858 13.1829 85.0366 14.2107C84.2018 15.253 83.4924 16.3917 82.923 17.5836C82.344 18.7755 81.8663 20.0108 81.4803 21.275C80.7179 23.8035 80.3029 26.4188 80.1243 29.0342C80.0471 30.3418 80.0085 31.6543 80.052 32.962L80.0713 33.9416L80.1292 34.9259C80.1581 35.5822 80.245 36.2384 80.3174 36.8947C80.52 38.2023 80.7661 39.5245 81.3596 40.7984L81.6154 41.2664C81.7071 41.4209 81.8277 41.5704 81.9339 41.72C82.0497 41.8696 82.1944 42.0047 82.3344 42.1447C82.5032 42.2653 82.6577 42.4004 82.87 42.4824L83.0244 42.55L83.1981 42.5934C83.256 42.6079 83.3139 42.6175 83.3766 42.6272C83.4394 42.6272 83.5069 42.632 83.5696 42.6272C83.6324 42.6272 83.6999 42.6224 83.7723 42.6031C83.8495 42.5789 83.9074 42.5789 83.9943 42.5307C84.0377 42.5066 84.0811 42.4824 84.1246 42.4535C84.168 42.4245 84.2066 42.3956 84.2211 42.3763L84.3465 42.2363C84.665 41.8455 84.7229 41.3919 84.7277 41.0204C84.7181 40.258 84.5058 39.6065 84.279 38.9744C84.0425 38.3423 83.7675 37.7439 83.4587 37.1601C82.9665 36.2288 82.426 35.3361 81.8518 34.4675" fill="black"/>
<path d="M76.4088 28.2959C76.9251 28.7447 77.4173 29.2175 77.8998 29.7049C78.1411 29.951 78.3727 30.1971 78.6043 30.448L78.9469 30.8292C79.0579 30.9547 79.1737 31.0801 79.2991 31.2394L79.3136 32.1562L79.2026 31.9921C78.3389 30.7086 77.4076 29.4733 76.4088 28.2959Z" fill="black"/>
<path d="M85.9485 4.38599C86.2815 4.9216 86.4889 5.50064 86.6144 6.08451C86.7302 6.66838 86.7543 7.26672 86.6916 7.86024C86.6385 8.45376 86.4793 9.02798 86.2429 9.57807C85.9871 10.1137 85.6542 10.63 85.1813 11.0498C85.7748 10.8085 86.2525 10.3212 86.5999 9.77108C86.9377 9.21134 87.1404 8.56474 87.2079 7.91815C87.2707 7.27155 87.2176 6.60082 87.0053 5.98318C86.7929 5.36071 86.4503 4.78167 85.9485 4.38599Z" fill="black"/>
<path d="M78.2135 33.7483C77.6827 34.6072 77.4704 35.6398 77.4124 36.6435C77.3545 37.6568 77.4704 38.6846 77.7551 39.669C78.0494 40.6485 78.5223 41.5943 79.222 42.3616C79.912 43.1288 80.8288 43.6837 81.8083 43.9057C80.9253 43.4328 80.1774 42.8055 79.608 42.0431C79.0434 41.2807 78.6381 40.4073 78.3727 39.4905C78.0977 38.5736 77.9577 37.6134 77.9143 36.6483C77.8805 35.6833 77.9288 34.7085 78.2135 33.7483Z" fill="black"/>
<path d="M57.8214 82.8998L56.784 79.2132C56.6634 78.779 56.5283 78.446 56.2918 78.1565H57.4016C57.3003 78.2868 57.2424 78.4122 57.2569 78.5956C57.281 78.7693 57.3244 78.9623 57.3872 79.165L58.4198 82.895H58.4632L59.684 79.1264C59.7902 78.8079 59.8819 78.4991 59.9398 78.171H60.403C60.485 78.4991 60.5767 78.8465 60.6829 79.165L61.9568 82.9288H61.9954L63.0425 79.0974C63.0811 78.9479 63.11 78.8079 63.1342 78.6728C63.1583 78.4846 63.0907 78.3157 62.9605 78.1565H64.0076C63.7711 78.446 63.6312 78.7162 63.5057 79.1505L62.4345 82.8998C62.3525 83.1893 62.2608 83.5368 62.1787 83.8504H61.6238C61.5563 83.5464 61.4646 83.2279 61.3584 82.9239L60.1231 79.2519H60.0845L58.9072 82.8853C58.8155 83.1749 58.719 83.5512 58.6321 83.8504H58.0627C58.0048 83.5512 57.8987 83.1797 57.8214 82.8998Z" fill="black"/>
<path d="M65.7979 83.17C65.8268 82.702 65.8268 82.0457 65.8268 81.1772C65.8268 80.3327 65.8268 79.6137 65.8027 78.8996C65.793 78.5956 65.7206 78.3929 65.5469 78.1565H66.7147C66.5168 78.3833 66.4396 78.5908 66.4348 78.8755C66.4251 79.6041 66.4203 80.3086 66.4203 81.1723C66.4203 82.0313 66.43 82.6682 66.4589 83.1507C66.4734 83.4306 66.541 83.6526 66.7147 83.8408H65.5469C65.7158 83.6815 65.7834 83.4354 65.7979 83.17Z" fill="black"/>
<path d="M69.523 79.1647H69.4941C69.4941 80.4242 69.4844 81.7222 69.4844 82.9816C69.4844 83.3001 69.5761 83.6571 69.7643 83.8453H68.7703C68.9295 83.6185 69.0115 83.3145 69.0212 82.943C69.0357 82.0165 69.0501 80.0478 69.0598 79.2998V78.0935H69.3927L73.3737 82.832H73.4026V79.2757C73.4026 78.7594 73.2964 78.3734 73.0986 78.1514H74.1457C73.9817 78.3493 73.9093 78.605 73.9044 78.9959C73.89 79.7776 73.8658 81.7174 73.8658 82.6149V83.9032H73.5377L69.523 79.1647Z" fill="black"/>
<path d="M78.4933 83.8455H76.1964C76.3943 83.6476 76.4329 83.4064 76.4473 83.141C76.4763 82.6729 76.4763 81.9105 76.4763 81.0419C76.4763 80.1975 76.4763 79.6474 76.4522 78.9333C76.4425 78.6293 76.3701 78.4121 76.1916 78.1612H78.4209C78.6187 78.1612 78.8166 78.1516 79.0048 78.1467V78.914C78.7828 78.692 78.5898 78.581 78.3051 78.581H77.0457V80.6511H78.2134C78.4113 80.6511 78.638 80.6366 78.8214 80.6077L78.7925 81.2301C78.6236 81.095 78.4499 81.0323 78.2375 81.0323H77.0457V81.3266C77.0457 82.1904 77.0457 82.8659 77.0602 83.2761C77.0698 83.3967 77.1132 83.4739 77.2821 83.4739H78.4257C78.7153 83.4739 78.9276 83.3436 79.1544 83.1265L79.1061 83.8648C78.9131 83.8455 78.7153 83.8455 78.4933 83.8455Z" fill="black"/>
<path d="M80.9302 83.6861C80.8289 83.6426 80.8096 83.5944 80.8096 83.5027C80.8096 83.3724 80.8482 82.9864 80.8626 82.7307C81.157 83.247 81.5527 83.4979 82.1317 83.4979C82.7735 83.4979 83.1885 83.1553 83.1788 82.5425C83.1692 81.9586 82.6625 81.6112 82.1317 81.23C81.5478 80.8053 80.9495 80.3373 80.9495 79.4928C80.9495 78.6484 81.543 78.1128 82.484 78.1128C83.0148 78.1128 83.3574 78.2431 83.5214 78.2431V79.1068C83.2464 78.7208 82.9086 78.5229 82.3585 78.5229C81.8422 78.5229 81.4513 78.7787 81.4562 79.3626C81.4658 79.9754 82.0352 80.3325 82.5853 80.7523C83.1643 81.1624 83.7241 81.6256 83.7241 82.4218C83.7241 83.3242 83.0582 83.908 81.958 83.908C81.5913 83.908 81.2246 83.8308 80.9302 83.6861Z" fill="black"/>
<path d="M5.26848 69.0218C5.43254 69.21 5.64486 69.374 5.8813 69.5429H0.766422L1.37924 69.0459C1.68806 68.7419 2.04032 68.3366 2.10787 67.7961C2.20438 67.1592 2.18025 67.0675 2.18025 55.395C2.18025 54.1452 1.828 53.3442 1.47092 52.8713C1.25861 52.5866 1.02217 52.3743 0.761597 52.2344H5.87647C5.6159 52.3984 5.37946 52.6108 5.16715 52.8955C4.8149 53.3925 4.45782 54.1693 4.45782 55.395C4.45782 67.1109 4.40957 67.0868 4.50607 67.608C4.60741 68.1967 4.91623 68.6647 5.26848 69.0218Z" fill="black"/>
<path d="M12.0143 52.2588C11.7055 52.5628 11.4015 52.8475 11.1409 53.1563C10.6922 53.6967 10.2675 54.3578 10.2675 54.9948C10.2675 55.4194 10.2917 57.7742 10.2917 60.0373V64.4476L18.543 52.2588H22.3406C21.9883 52.5194 21.6795 52.7992 21.3996 53.108C20.9267 53.6485 20.4587 54.4061 20.4587 55.4194C20.4587 67.0871 20.4587 66.8507 20.5504 67.4876C20.6469 68.028 21.0715 68.5492 21.5154 68.9256C21.776 69.162 22.0318 69.3743 22.3406 69.5625H17.9109C18.239 69.3985 18.5478 69.162 18.8084 68.8773C19.2572 68.4044 19.7059 67.6999 19.7735 66.73C19.7735 66.2137 19.8217 62.8649 19.8217 59.6126V54.4012L9.64024 69.6542V55.4146C9.66437 54.3771 9.16736 53.6002 8.67517 53.0598C8.39048 52.751 8.06235 52.4952 7.68597 52.2588H12.0143Z" fill="black"/>
<path d="M32.6861 65.4416C32.6427 63.5308 31.61 62.7057 28.8934 61.4752C26.8908 60.5777 24.787 59.3762 24.7339 56.9249C24.6567 53.6485 27.3878 52.3118 30.2155 52.2491C31.8416 52.2105 33.3616 52.6689 34.4087 53.0935L34.4763 56.0177C34.2302 55.622 33.9648 55.2264 33.6705 54.8548C33.159 54.2323 32.4159 53.5616 31.4653 53.2335C30.7511 52.9922 29.289 52.8378 28.3288 53.2335C27.2769 53.7305 26.9246 54.7535 26.8764 55.6703C26.7992 57.4653 28.0248 58.4014 29.2167 58.9901C31.5811 60.1868 34.9057 61.287 34.983 64.6792C35.065 68.3079 32.5703 69.4997 29.4627 69.5721C28.1406 69.6011 26.6013 69.2151 24.7725 68.6891V65.625C24.9703 65.9724 25.2116 66.3005 25.5011 66.648C26.0078 67.227 26.7798 67.9363 27.8993 68.4768C29.3566 69.1958 32.7729 69.0703 32.6861 65.4416Z" fill="black"/>
<path d="M49.7583 63.0338C49.7583 66.8507 48.2045 69.5384 44.2188 69.5384C40.6577 69.5384 38.7275 67.5359 38.7275 63.2895C38.7275 54.6377 38.7999 54.5653 38.7034 54.0972C38.631 53.6967 38.3029 53.2238 37.9941 52.8716C37.83 52.6593 37.6177 52.4711 37.4054 52.2829H42.4045C42.1439 52.5435 41.9075 52.8475 41.7193 53.1563C41.367 53.6967 41.0341 54.4784 41.0341 55.4194V63.8348C41.0341 67.0195 41.9316 68.7374 44.3587 68.9256C46.3854 68.8532 47.3505 67.2029 47.6593 64.9157C47.8475 63.1496 47.7992 63.7817 47.7992 55.4146C47.7992 54.4012 47.447 53.6485 47.0899 53.1032C46.8776 52.7944 46.6653 52.5145 46.4047 52.2781H51.1432C50.8826 52.5145 50.6462 52.7751 50.4339 53.0791C50.0816 53.6195 49.7487 54.4012 49.7487 55.4146V63.0338H49.7583Z" fill="black"/>
<path d="M95.1648 52.2344C94.9525 52.4467 94.7402 52.6349 94.552 52.8472C94.2431 53.1994 93.8909 53.6723 93.8233 54.1211C93.7268 54.6615 93.751 54.6615 93.751 66.3775C93.751 67.3426 94.1032 68.1243 94.4603 68.6647C94.6726 68.9687 94.909 69.2775 95.1696 69.5381H83.97L83.7335 65.2966C83.9941 65.9818 84.2981 66.5946 84.6986 67.1351C85.3597 68.0567 86.3247 68.9735 87.7386 68.9735H90.4263C91.015 68.9735 91.4879 68.4331 91.4879 67.6996V60.7946H88.8725C87.9509 60.7946 87.3622 61.3591 87.0099 61.9044C86.7976 62.2084 86.6336 62.5896 86.5129 62.9901V58.1117C86.677 58.5122 86.8652 58.8644 87.1016 59.1732C87.5021 59.7137 88.0667 60.2107 88.8918 60.2107H91.483V52.8327C87.4056 52.8327 87.285 52.8327 86.8603 52.9051C86.0111 53.0692 85.2583 53.846 84.7131 54.6036C84.4042 55.0524 84.1002 55.5204 83.8397 56.0657V52.2489H95.1648V52.2344Z" fill="black"/>
<path d="M107.691 66.4741C107.928 65.953 108.116 65.3884 108.28 64.7515L108.184 68.6166C107.619 68.993 104.458 69.8664 102.244 69.3018C101.018 68.993 99.8841 68.2643 98.9672 67.2269C98.4027 66.5899 96.3953 64.2352 96.7042 60.2253C97.0082 56.3119 99.3919 53.1079 102.384 52.3503C104.574 51.7857 107.571 52.6543 108.135 53.0355L108.251 56.9006C108.087 56.2637 107.899 55.6991 107.663 55.178C107.214 54.2563 106.601 53.3395 105.66 53.0307C105.071 52.8425 102.432 52.2538 100.685 55.1297C99.0348 57.8416 98.5185 63.0964 100.545 66.5176C102.287 69.3935 105.144 68.8048 105.708 68.6166C106.654 68.3367 107.291 67.3958 107.691 66.4741Z" fill="black"/>
<path d="M110.842 52.2344H123.948V56.6447C123.76 55.9354 123.475 55.3033 123.099 54.758C122.462 53.8171 121.424 52.8954 119.75 52.8231C119.398 52.7989 118.973 52.8231 118.524 52.8231C118.524 66.8504 118.5 66.8745 118.597 67.5308C118.688 68.0712 119.07 68.5441 119.446 68.9205C119.658 69.1328 119.895 69.3451 120.155 69.5333H114.616C114.92 69.2968 115.18 69.0121 115.441 68.684C115.841 68.1436 116.266 67.3426 116.266 66.3244V52.8182H114.732C113.294 52.8906 112.353 53.8316 111.716 54.7725C111.364 55.313 111.055 55.9499 110.842 56.6351V52.2344Z" fill="black"/>
<path d="M125.502 60.8623C125.574 56.0755 128.778 52.1863 132.503 52.1863C136.277 52.1863 139.317 56.0755 139.244 60.8623C139.172 65.649 136.04 69.5383 132.267 69.5383C128.474 69.5383 125.434 65.649 125.502 60.8623ZM128.026 60.6982C127.837 65.2244 129.772 68.7614 132.267 68.7614C134.839 68.7614 136.817 65.0603 136.89 60.8623C136.962 56.6883 134.911 52.7991 132.503 52.7991C129.98 52.8039 128.141 56.3602 128.026 60.6982Z" fill="black"/>
<path d="M82.2184 70.6382C81.4994 70.1508 80.8094 69.4946 80.1387 68.6743C79.4728 67.8492 78.8117 66.8937 78.1506 65.7984C77.4896 64.7078 76.8188 63.5594 76.1288 62.3627C75.849 61.8609 75.545 61.5038 75.2217 61.2818C75.9406 61.0695 76.5824 60.7848 77.1711 60.4422C78.3244 59.7329 79.4825 58.5555 79.55 56.6254C79.6224 55.0909 79.0771 53.9859 78.1603 53.2525C77.1952 52.5238 75.7814 52.1667 73.9188 52.1667H67.9306C68.1429 52.3791 68.3552 52.5673 68.5434 52.7796C68.8522 53.1559 69.2044 53.6288 69.272 54.0776C69.3685 54.6663 69.4361 54.618 69.3444 66.3147C69.3202 67.5162 68.9921 68.2931 68.635 68.7901C68.4227 69.0748 68.1863 69.3064 67.9257 69.4994H73.0165C72.7559 69.3354 72.5195 69.1472 72.3313 68.8866C71.979 68.4378 71.6461 67.825 71.6219 66.9516V59.5447V52.8278C72.0707 52.8037 72.6594 52.7313 73.388 52.7554C74.4979 52.8519 75.4147 52.9919 76.1481 53.7205C77.9142 55.419 77.3979 58.9078 75.6318 60.1093C74.9032 60.6063 74.0394 60.8862 73.3591 61.0068C72.9586 61.0792 72.5484 61.1274 72.1479 61.1467C72.5677 61.1853 72.8235 61.2095 73.0696 61.277C73.3156 61.3446 73.5231 61.4025 73.6727 61.5086C73.8223 61.6148 73.9381 61.7258 74.0201 61.8464C74.1022 61.967 74.1649 62.0732 74.2132 62.1601C74.7198 63.1637 75.1879 64.1674 75.6173 65.1711C76.0468 66.1748 76.4763 67.1157 76.9105 67.9891C77.3448 68.8673 77.7984 69.6394 78.2713 70.3149C78.7442 70.9905 79.275 71.4971 79.8637 71.8445C80.4572 72.1871 81.1279 72.3367 81.8855 72.2933C82.6431 72.2499 83.5116 71.9411 84.5008 71.3717C83.6998 71.3668 82.9374 71.1256 82.2184 70.6382Z" fill="black"/>
<path d="M51.3554 70.6382C52.0744 70.1508 52.7644 69.4946 53.4351 68.6743C54.101 67.8492 54.7621 66.8937 55.4232 65.7984C56.0842 64.7078 56.755 63.5594 57.445 62.3627C57.7249 61.8609 58.0289 61.5038 58.3522 61.2818C57.6332 61.0695 56.9914 60.7848 56.4027 60.4422C55.2495 59.7329 54.0914 58.5555 54.0238 56.6254C53.9514 55.0909 54.4967 53.9859 55.4135 53.2525C56.3786 52.5238 57.7924 52.1667 59.655 52.1667H65.6433C65.431 52.3791 65.2186 52.5673 65.0304 52.7796C64.7216 53.1559 64.3694 53.6288 64.3018 54.0776C64.2053 54.6663 64.1378 54.618 64.2294 66.3147C64.2536 67.5162 64.5817 68.2931 64.9388 68.7901C65.1511 69.0748 65.3875 69.3064 65.6481 69.4994H60.5525C60.8131 69.3354 61.0495 69.1472 61.2377 68.8866C61.59 68.4378 61.9229 67.825 61.9471 66.9516V59.5447V52.8278C61.4983 52.8037 60.9096 52.7313 60.181 52.7554C59.0711 52.8519 58.1543 52.9919 57.4209 53.7205C55.6548 55.419 56.1711 58.9078 57.9372 60.1093C58.6658 60.6063 59.5295 60.8862 60.2099 61.0068C60.6104 61.0792 61.0206 61.1274 61.4211 61.1467C61.0013 61.1853 60.7455 61.2095 60.4994 61.277C60.2534 61.3446 60.0459 61.4025 59.8963 61.5086C59.7467 61.6148 59.6309 61.7258 59.5488 61.8464C59.4668 61.967 59.4041 62.0732 59.3558 62.1601C58.8492 63.1637 58.3811 64.1674 57.9517 65.1711C57.5222 66.1748 57.0927 67.1157 56.6585 67.9891C56.2242 68.8673 55.7706 69.6394 55.2977 70.3149C54.8248 70.9905 54.294 71.4971 53.7053 71.8445C53.1118 72.1871 52.4411 72.3367 51.6835 72.2933C50.9259 72.2499 50.0574 71.9411 49.0682 71.3717C49.874 71.3668 50.6364 71.1256 51.3554 70.6382Z" fill="black"/>
</svg>
