<svg width="90" height="90" viewBox="0 0 90 90" fill="none" xmlns="http://www.w3.org/2000/svg">
<path d="M45.0762 76.6529L44.7941 76.5499C43.2316 75.9768 42.3765 74.8664 41.9288 74.0157C40.2722 74.9246 38.356 74.5754 38.262 74.5575L37.5008 74.4097L37.5993 73.6441C37.6128 73.5456 38.8619 63.5386 38.8619 42.074C38.8619 20.7124 37.6262 14.6097 37.6128 14.547L37.4023 13.5575L38.4142 13.5531H38.4187C38.5619 13.5531 40.5901 13.5799 42.1884 15.0933C42.7123 14.1888 43.6032 13.0964 44.9285 12.8501L45.0807 12.8232L45.2329 12.8501C46.5581 13.0964 47.4446 14.1888 47.9729 15.0933C49.5758 13.5799 51.6039 13.5531 51.7427 13.5531H51.7472L52.759 13.5575L52.5486 14.547C52.5352 14.6052 51.2995 20.7124 51.2995 42.074C51.2995 63.561 52.5486 73.5456 52.562 73.6441L52.6605 74.4097L51.8994 74.5575C51.8054 74.5754 49.8892 74.9246 48.2281 74.0157C47.7849 74.8619 46.9298 75.9768 45.3627 76.5499L45.0762 76.6529ZM42.7705 71.0785L43.0973 72.5471C43.1107 72.6098 43.4958 74.159 45.0717 74.8888C46.6477 74.159 47.0327 72.6098 47.0462 72.5427L47.3864 71.1054L48.4296 72.1486C49.1236 72.8471 50.1309 72.9904 50.8159 72.9993C50.5204 70.1428 49.6384 60.1313 49.6384 42.083C49.6384 25.3465 50.3772 17.9678 50.7353 15.3754C50.0324 15.5813 49.1012 16.0425 48.4654 17.0723L47.5297 18.5856L46.979 16.8932C46.791 16.3201 46.088 14.8336 45.0673 14.5157C44.042 14.8336 43.3435 16.3201 43.1555 16.8932L42.6003 18.5722L41.6691 17.0678C41.0333 16.038 40.1066 15.5813 39.3992 15.3754C39.7573 17.9678 40.4961 25.3465 40.4961 42.083C40.4961 60.1313 39.6141 70.1428 39.3186 72.9993C40.0036 72.9949 41.0065 72.8471 41.7049 72.1486L42.7705 71.0785Z" fill="#888888"/>
<path d="M45.0763 16.1726C45.2464 20.9455 45.327 25.7139 45.3897 30.4868C45.4568 35.2597 45.4524 40.0281 45.4837 44.801C45.4524 49.5739 45.4568 54.3424 45.3897 59.1152L45.2733 66.2701C45.2061 68.6566 45.1658 71.043 45.0718 73.425C44.9778 71.0385 44.9375 68.6521 44.8703 66.2701L44.7539 59.1152C44.6868 54.3424 44.6913 49.5739 44.6599 44.801C44.6957 40.0281 44.6868 35.2597 44.7539 30.4868C44.8256 25.7184 44.9062 20.9455 45.0763 16.1726Z" fill="#888888"/>
<path d="M47.8431 19.4272C48.0133 23.7076 48.0939 27.9835 48.1565 32.2639C48.2237 36.5443 48.2192 40.8202 48.2506 45.1006C48.2192 49.381 48.2237 53.6569 48.1565 57.9373L48.0401 64.3534C47.973 66.4936 47.9327 68.6337 47.8387 70.7695C47.7446 68.6293 47.7043 66.4891 47.6372 64.3534L47.5208 57.9373C47.4536 53.6569 47.4581 49.381 47.4268 45.1006C47.4626 40.8202 47.4536 36.5443 47.5208 32.2639C47.5969 27.9835 47.6775 23.7032 47.8431 19.4272Z" fill="#888888"/>
<path d="M42.2911 19.4272C42.4613 23.7076 42.5419 27.9835 42.6045 32.2639C42.6717 36.5443 42.6672 40.8202 42.6986 45.1006C42.6672 49.381 42.6717 53.6569 42.6045 57.9373L42.4881 64.3534C42.421 66.4936 42.3807 68.6337 42.2867 70.7695C42.1926 68.6293 42.1523 66.4891 42.0852 64.3534L41.9688 57.9373C41.9016 53.6569 41.9061 49.381 41.8748 45.1006C41.9106 40.8202 41.9016 36.5443 41.9688 32.2639C42.0404 27.9835 42.121 23.7032 42.2911 19.4272Z" fill="#888888"/>
<path d="M30.4356 51.7899C31.4698 49.3005 32.1593 46.9812 32.7369 44.3485C33.3413 41.6531 33.7084 38.904 33.7263 36.1593C33.7174 33.3744 33.6636 30.585 33.3458 27.8224C33.0368 25.0644 32.5757 22.3108 31.7564 19.6557C31.3803 18.3169 30.852 17.0274 30.261 15.7693C29.9565 15.1425 29.6207 14.5335 29.2402 13.947C28.8641 13.3605 28.4477 12.7918 27.9463 12.2993C29.0521 13.1814 29.9073 14.35 30.6415 15.5589C31.3624 16.7812 31.9892 18.0707 32.4861 19.4049C33.498 22.069 34.1427 24.8584 34.5635 27.6702L34.8546 29.7835L35.0292 31.9058C35.056 32.2595 35.0918 32.6132 35.1098 32.9669L35.1456 34.0281L35.2172 36.1548C35.2485 39.0338 34.8725 41.8949 34.277 44.6887C33.6368 47.4737 32.7772 50.2138 31.622 52.8331C31.3265 53.5003 31.1072 53.9704 30.7759 54.6196" fill="#888888"/>
<path d="M27.3378 60.0506C27.2976 60.0999 27.2573 60.1491 27.217 60.1983C25.4082 62.419 23.1338 64.4069 20.3624 65.3784C18.9835 65.8485 17.5149 66.0366 16.0733 65.8888C14.6316 65.7008 13.2527 64.9889 12.4065 63.8472C13.378 64.877 14.7615 65.3919 16.1091 65.4501C17.4702 65.4635 18.8402 65.1949 20.0804 64.6531C22.592 63.5876 24.6068 61.6131 26.2454 59.4372C26.6439 58.9 27.02 58.3493 27.3826 57.7852" fill="#888888"/>
<path d="M26.3213 50.1377C25.2916 51.8973 23.9842 53.527 22.3411 54.7806C21.3785 55.5193 20.3219 56.1461 19.1847 56.5625C18.9071 56.6878 18.6116 56.755 18.3251 56.849C18.0386 56.9475 17.7475 57.0192 17.452 57.0774C16.8745 57.2117 16.2566 57.3281 15.6433 57.3146C14.4165 57.3236 13.2346 57.0415 12.1377 56.6028C11.0407 56.164 10.0155 55.573 9.09766 54.8567C10.105 55.4342 11.1795 55.8775 12.2764 56.1864C13.3734 56.4864 14.5061 56.6565 15.603 56.5356C16.1537 56.4998 16.673 56.361 17.2148 56.1954C17.4834 56.1192 17.752 56.0342 18.0072 55.9222C18.2624 55.8148 18.531 55.7342 18.7773 55.5999C19.7891 55.1432 20.7249 54.5343 21.5621 53.8135C23.2321 52.3629 24.5528 50.5273 25.5109 48.4991C25.605 48.3111 25.6945 48.1185 25.7841 47.926" fill="#888888"/>
<path d="M27.9421 40.9771C28.3182 39.1324 28.551 37.2475 28.6943 35.3625C28.7838 34.2252 28.8375 33.0835 28.8375 31.9462C28.842 31.3776 28.8017 30.809 28.7883 30.2359L28.7614 29.3807L28.6943 28.5255C28.5152 26.251 28.1704 23.9854 27.5392 21.787C27.2302 20.6856 26.8452 19.6065 26.3617 18.5633C25.8781 17.5246 25.3274 16.5037 24.5708 15.6172C25.4483 16.3873 26.1423 17.3544 26.7467 18.3573C27.3601 19.3603 27.8391 20.4393 28.2689 21.5363C29.0972 23.7436 29.6255 26.0585 29.9165 28.3957L30.0285 29.2732L30.1001 30.1508C30.1449 30.7373 30.1941 31.3239 30.212 31.9149C30.2478 33.0969 30.2344 34.2745 30.1762 35.452C30.0464 37.8027 29.7374 40.1488 29.2226 42.4591C29.1241 42.8711 29.0211 43.283 28.9137 43.6949" fill="#888888"/>
<path d="M24.0198 33.5446C24.2347 32.5013 24.3735 31.4402 24.4854 30.3567C24.6197 28.8881 24.6779 27.4105 24.5884 25.933C24.557 25.1942 24.472 24.4555 24.3466 23.7257C24.2168 22.9958 24.0645 22.2615 23.7825 21.5586C24.2123 22.1854 24.5167 22.8973 24.7674 23.6182C25.0226 24.3391 25.2017 25.0868 25.3495 25.839C25.6271 27.3479 25.739 28.8881 25.7077 30.4238C25.6987 31.9506 25.5196 33.5087 25.1973 35.0311" fill="#888888"/>
<path d="M23.3749 39.8981C22.6989 41.1114 21.9243 42.271 20.9752 43.3052C20.7155 43.6007 20.4066 43.8559 20.1245 44.129L19.6947 44.532L19.2201 44.8901C18.8978 45.123 18.5978 45.3782 18.262 45.5841L17.2278 46.1617C14.4117 47.6257 11.112 47.8361 8.19287 47.1108C11.2105 47.1825 14.1833 46.6004 16.6279 45.0871C17.8501 44.3395 18.9157 43.3724 19.8604 42.3023C20.7961 41.2189 21.5662 39.9966 22.2198 38.7117C22.3362 38.4788 22.3765 38.4027 22.4795 38.1699" fill="#888888"/>
<path d="M27.078 66.019C26.6975 66.7264 26.3393 67.4428 26.0035 68.1682C25.614 69.0278 25.2424 69.8964 24.9559 70.7785C24.6693 71.6471 24.441 72.565 24.4723 73.3619C24.4858 73.7559 24.5887 74.0873 24.741 74.244C24.7633 74.2619 24.7813 74.2843 24.7992 74.3067C24.8126 74.3291 24.8081 74.3111 24.7947 74.2977C24.7857 74.2888 24.7723 74.2798 24.7589 74.2753C24.7275 74.2708 24.7723 74.2664 24.7723 74.2708C24.7768 74.2798 24.7947 74.2753 24.826 74.2708C24.8484 74.2664 24.8753 74.2664 24.8977 74.2708L24.9872 74.244L25.0812 74.2216L25.1797 74.1679C25.314 74.1231 25.4484 73.9843 25.5871 73.8947C25.7125 73.7515 25.8513 73.6261 25.9722 73.4649C26.0841 73.2903 26.2095 73.1336 26.3124 72.95L26.6079 72.3724C27.3243 70.7516 27.6556 68.8801 27.8929 67.0309C27.969 66.0907 28.0988 65.1594 28.1257 64.2102L28.2018 62.7908L28.2242 61.3625C28.2734 59.4596 28.1973 57.5567 28.0764 55.6628C27.8526 51.8749 27.2571 48.1095 26.2274 44.4783C25.2021 40.8561 23.6799 37.3458 21.4637 34.3415C20.3444 32.8595 19.0371 31.4983 17.4969 30.5267C16.7313 30.0387 15.8986 29.6671 15.0434 29.5149C14.2017 29.3447 13.3287 29.5059 12.5362 29.891C12.1422 30.0835 11.7796 30.3297 11.4572 30.6297C11.1393 30.9342 10.8841 31.2924 10.6782 31.6864C10.2842 32.4789 10.1454 33.4236 10.2573 34.3325C10.3693 35.2459 10.7319 36.1324 11.296 36.8891C11.8378 37.6637 12.5541 38.3308 13.36 38.8547C12.5049 38.4114 11.7214 37.807 11.0811 37.0593C10.4364 36.316 9.97527 35.3981 9.78275 34.4042C9.59023 33.4147 9.66186 32.367 10.0559 31.3954C10.2618 30.9163 10.5394 30.4641 10.8931 30.0745C11.2513 29.6895 11.6676 29.3581 12.1198 29.094C12.5765 28.8298 13.0735 28.6418 13.5973 28.5298C14.1166 28.4089 14.6763 28.4045 15.2001 28.4716C16.2523 28.6059 17.2328 28.991 18.1148 29.4925C19.8967 30.4954 21.3383 31.9282 22.6009 33.4639C23.8455 35.0176 24.8977 36.71 25.7528 38.4875C26.6169 40.2606 27.3243 42.1053 27.9018 43.9858C29.0346 47.7513 29.6524 51.6466 29.921 55.5419C30.0374 57.4941 30.0912 59.4462 30.0285 61.3939L29.9972 62.858L29.9076 64.3221C29.8673 65.2982 29.7375 66.2787 29.63 67.2548C29.3301 69.2069 28.9584 71.1725 28.0764 73.0709L27.6959 73.7739C27.5571 74.0067 27.3825 74.2261 27.2258 74.4499C27.0557 74.6693 26.8363 74.8753 26.6303 75.0813C26.3751 75.2648 26.1513 75.4618 25.8289 75.5872L25.5827 75.6678L25.323 75.7305C25.2334 75.7484 25.1484 75.7708 25.0588 75.7797C24.9603 75.7842 24.8663 75.7842 24.7678 75.7797C24.6738 75.7797 24.5753 75.7752 24.4634 75.7439C24.347 75.7126 24.2664 75.7036 24.1321 75.6364C24.0649 75.6006 24.0022 75.5648 23.9395 75.5245C23.8769 75.4842 23.8142 75.4394 23.7918 75.4081L23.6082 75.2021C23.1337 74.6156 23.0486 73.944 23.0396 73.3888C23.0486 72.2515 23.3665 71.2799 23.7067 70.3397C24.056 69.3994 24.4723 68.504 24.9245 67.6354C25.6588 66.2474 26.4602 64.9131 27.3198 63.6191" fill="#888888"/>
<path d="M35.4635 54.4495C35.4591 54.4495 35.4591 54.4495 35.4635 54.4495C34.6979 55.1166 33.9592 55.8195 33.2473 56.5448C32.8892 56.9074 32.5399 57.279 32.1952 57.6551L31.6848 58.2237C31.5191 58.4162 31.349 58.5953 31.161 58.8326L31.1431 60.1937L31.3087 59.9519C32.5847 58.0446 33.9726 56.2045 35.4635 54.4495Z" fill="#888888"/>
<path d="M21.2528 18.8315C20.7559 19.6285 20.4469 20.4881 20.2589 21.3611C20.0843 22.2342 20.0485 23.1251 20.1425 24.0071C20.2186 24.8936 20.4559 25.7488 20.8096 26.5636C21.1857 27.365 21.6871 28.1261 22.3855 28.7574C21.5035 28.3992 20.7872 27.6739 20.2723 26.8501C19.7664 26.0129 19.4664 25.0548 19.3679 24.0877C19.2784 23.1207 19.3545 22.1223 19.6724 21.2044C19.9903 20.2866 20.5051 19.4225 21.2528 18.8315Z" fill="#888888"/>
<path d="M32.7728 62.5762C33.5608 63.8522 33.8787 65.3924 33.9682 66.8924C34.0578 68.4057 33.8787 69.9325 33.4578 71.4011C33.0191 72.8607 32.3161 74.2711 31.273 75.4084C30.2477 76.5501 28.8777 77.3784 27.4226 77.7053C28.7389 77.0023 29.8537 76.0665 30.6999 74.9338C31.5416 73.7965 32.146 72.4981 32.5445 71.1325C32.9564 69.7713 33.1623 68.3386 33.2295 66.9013C33.2743 65.4551 33.1937 64.0045 32.7728 62.5762Z" fill="#888888"/>
<path d="M59.5598 51.7899C58.5256 49.3005 57.8361 46.9812 57.2585 44.3485C56.6541 41.6531 56.287 38.904 56.2691 36.1593C56.278 33.3744 56.3318 30.585 56.6496 27.8224C56.9586 25.0644 57.4197 22.3108 58.239 19.6557C58.6151 18.3169 59.1434 17.0274 59.7344 15.7693C60.0389 15.1425 60.3746 14.5335 60.7552 13.947C61.1313 13.3605 61.5477 12.7918 62.0491 12.2993C60.9432 13.1814 60.0881 14.35 59.3539 15.5589C58.633 16.7812 58.0062 18.0707 57.5093 19.4049C56.4974 22.069 55.8527 24.8584 55.4319 27.6702L55.1408 29.7835L54.9662 31.9058C54.9394 32.2595 54.9035 32.6132 54.8856 32.9669L54.8498 34.0281L54.7782 36.1548C54.7468 39.0338 55.1229 41.8949 55.7184 44.6887C56.3586 47.4737 57.2182 50.2138 58.3734 52.8331C58.6688 53.5003 58.8882 53.9704 59.2195 54.6196" fill="#888888"/>
<path d="M62.6625 60.0506C62.7027 60.0999 62.743 60.1491 62.7833 60.1983C64.5921 62.419 66.8665 64.4069 69.6379 65.3784C71.0168 65.8485 72.4853 66.0366 73.927 65.8888C75.3686 65.7008 76.7476 64.9889 77.5938 63.8472C76.6223 64.877 75.2388 65.3919 73.8912 65.4501C72.5301 65.4635 71.1601 65.1949 69.9199 64.6531C67.4082 63.5876 65.3935 61.6131 63.7549 59.4372C63.3564 58.9 62.9803 58.3493 62.6177 57.7852" fill="#888888"/>
<path d="M63.6785 50.1377C64.7082 51.8973 66.0155 53.527 67.6587 54.7806C68.6213 55.5193 69.6779 56.1461 70.8151 56.5625C71.0927 56.6878 71.3881 56.755 71.6747 56.849C71.9612 56.9475 72.2522 57.0192 72.5477 57.0774C73.1253 57.2117 73.7431 57.3281 74.3565 57.3146C75.5833 57.3236 76.7652 57.0415 77.8621 56.6028C78.959 56.164 79.9843 55.573 80.9021 54.8567C79.8948 55.4342 78.8202 55.8775 77.7233 56.1864C76.6264 56.4864 75.4937 56.6565 74.3968 56.5356C73.8461 56.4998 73.3268 56.361 72.785 56.1954C72.5164 56.1192 72.2478 56.0342 71.9926 55.9222C71.7374 55.8148 71.4687 55.7342 71.2225 55.5999C70.2107 55.1432 69.2749 54.5343 68.4377 53.8135C66.7677 52.3629 65.4469 50.5273 64.4888 48.4991C64.3948 48.3111 64.3053 48.1185 64.2157 47.926" fill="#888888"/>
<path d="M62.0534 40.9771C61.6773 39.1324 61.4445 37.2475 61.3012 35.3625C61.2116 34.2252 61.1579 33.0835 61.1579 31.9462C61.1534 31.3776 61.1937 30.809 61.2072 30.2359L61.234 29.3807L61.3012 28.5255C61.4803 26.251 61.825 23.9854 62.4563 21.787C62.7652 20.6856 63.1503 19.6065 63.6338 18.5633C64.1173 17.5246 64.668 16.5037 65.4247 15.6172C64.5471 16.3873 63.8532 17.3544 63.2488 18.3573C62.6354 19.3603 62.1563 20.4393 61.7265 21.5363C60.8982 23.7436 60.3699 26.0585 60.0789 28.3957L59.967 29.2732L59.8954 30.1508C59.8506 30.7373 59.8013 31.3239 59.7834 31.9149C59.7476 33.0969 59.761 34.2745 59.8192 35.452C59.9491 37.8027 60.258 40.1488 60.7729 42.4591C60.8714 42.8711 60.9744 43.283 61.0818 43.6949" fill="#888888"/>
<path d="M65.9752 33.5446C65.7603 32.5013 65.6215 31.4402 65.5096 30.3567C65.3753 28.8881 65.3171 27.4105 65.4066 25.933C65.438 25.1942 65.523 24.4555 65.6484 23.7257C65.7782 22.9958 65.9305 22.2615 66.2125 21.5586C65.7827 22.1854 65.4783 22.8973 65.2275 23.6182C64.9723 24.3391 64.7933 25.0868 64.6455 25.839C64.3679 27.3479 64.256 28.8881 64.2873 30.4238C64.2963 31.9506 64.4754 33.5087 64.7977 35.0311" fill="#888888"/>
<path d="M66.6245 39.8981C67.3006 41.1114 68.0751 42.271 69.0243 43.3052C69.2839 43.6007 69.5929 43.8559 69.8749 44.129L70.3047 44.532L70.7793 44.8901C71.1017 45.123 71.4016 45.3782 71.7374 45.5841L72.7717 46.1617C75.5878 47.6257 78.8875 47.8361 81.8066 47.1108C78.789 47.1825 75.8161 46.6004 73.3716 45.0871C72.1493 44.3395 71.0838 43.3724 70.1391 42.3023C69.2034 41.2189 68.4333 39.9966 67.7796 38.7117C67.6632 38.4788 67.6229 38.4027 67.5199 38.1699" fill="#888888"/>
<path d="M62.9174 66.019C63.2979 66.7264 63.6561 67.4428 63.9919 68.1682C64.3814 69.0278 64.753 69.8964 65.0395 70.7785C65.3261 71.6471 65.5544 72.565 65.5231 73.3619C65.5096 73.7559 65.4067 74.0873 65.2544 74.244C65.2321 74.2619 65.2141 74.2843 65.1962 74.3067C65.1828 74.329 65.1873 74.3111 65.2007 74.2977C65.2097 74.2887 65.2231 74.2798 65.2365 74.2753C65.2679 74.2708 65.2231 74.2664 65.2231 74.2708C65.2186 74.2798 65.2007 74.2753 65.1694 74.2708C65.147 74.2664 65.1201 74.2664 65.0977 74.2708L65.0082 74.244L64.9142 74.2216L64.8157 74.1679C64.6814 74.1231 64.547 73.9843 64.4083 73.8947C64.2829 73.7515 64.1441 73.6261 64.0232 73.4649C63.9113 73.2903 63.7859 73.1336 63.683 72.95L63.3875 72.3724C62.6711 70.7516 62.3398 68.8801 62.1025 67.0309C62.0264 66.0906 61.8966 65.1594 61.8697 64.2101L61.7936 62.7908L61.7712 61.3625C61.722 59.4596 61.7981 57.5567 61.9189 55.6628C62.1428 51.8749 62.7383 48.1094 63.768 44.4783C64.7933 40.8561 66.3155 37.3458 68.5317 34.3415C69.651 32.8595 70.9583 31.4983 72.4985 30.5267C73.2641 30.0387 74.0968 29.6671 74.952 29.5149C75.7937 29.3447 76.6667 29.5059 77.4592 29.891C77.8532 30.0835 78.2158 30.3297 78.5382 30.6297C78.8561 30.9342 79.1113 31.2924 79.3172 31.6864C79.7112 32.4789 79.85 33.4236 79.7381 34.3325C79.6261 35.2459 79.2635 36.1324 78.6994 36.8891C78.1576 37.6637 77.4413 38.3308 76.6354 38.8547C77.4905 38.4114 78.274 37.807 78.9143 37.0593C79.559 36.316 80.0201 35.3981 80.2127 34.4042C80.4052 33.4147 80.3335 32.367 79.9395 31.3954C79.7336 30.9163 79.456 30.4641 79.1023 30.0745C78.7441 29.6895 78.3278 29.3581 77.8756 29.094C77.4189 28.8298 76.9219 28.6418 76.3981 28.5298C75.8788 28.4089 75.3191 28.4045 74.7953 28.4716C73.7431 28.6059 72.7626 28.991 71.8806 29.4925C70.0987 30.4954 68.6571 31.9282 67.3945 33.4639C66.1499 35.0176 65.0977 36.71 64.2426 38.4875C63.3785 40.2606 62.6711 42.1053 62.0936 43.9858C60.9608 47.7513 60.343 51.6466 60.0744 55.5419C59.9579 57.4941 59.9042 59.4462 59.9669 61.3939L59.9982 62.858L60.0878 64.3221C60.1281 65.2981 60.2579 66.2787 60.3654 67.2548C60.6653 69.2069 61.0369 71.1725 61.9189 73.0709L62.2995 73.7738C62.4383 74.0067 62.6129 74.2261 62.7696 74.4499C62.9397 74.6693 63.1591 74.8753 63.3651 75.0812C63.6203 75.2648 63.8441 75.4618 64.1665 75.5872L64.3948 75.6857L64.6545 75.7484C64.744 75.7663 64.8291 75.7887 64.9186 75.7976C65.0171 75.8021 65.1112 75.8021 65.2097 75.7976C65.3037 75.7976 65.4022 75.7932 65.5141 75.7618C65.6305 75.7305 65.7111 75.7215 65.8454 75.6544C65.9126 75.6185 65.9753 75.5827 66.0379 75.5424C66.1006 75.5021 66.1633 75.4573 66.1857 75.426L66.3693 75.22C66.8438 74.6335 66.9289 73.9619 66.9378 73.4067C66.9289 72.2694 66.611 71.2978 66.2708 70.3576C65.9215 69.4173 65.5052 68.5219 65.053 67.6533C64.3187 66.2653 63.5173 64.931 62.6577 63.637" fill="#888888"/>
<path d="M54.5364 54.4495C55.302 55.1166 56.0407 55.8195 56.7526 56.5448C57.1107 56.9074 57.46 57.279 57.8047 57.6551L58.3151 58.2237C58.4808 58.4162 58.6509 58.5953 58.8389 58.8326L58.8568 60.1937L58.6912 59.9519C57.4107 58.0446 56.0273 56.2045 54.5364 54.4495Z" fill="#888888"/>
<path d="M68.7467 18.8315C69.2437 19.6285 69.5526 20.4881 69.7407 21.3611C69.9153 22.2342 69.9511 23.1251 69.8571 24.0071C69.781 24.8936 69.5437 25.7488 69.19 26.5636C68.8139 27.365 68.3125 28.1261 67.614 28.7574C68.496 28.3992 69.2124 27.6739 69.7272 26.8501C70.2332 26.0129 70.5331 25.0548 70.6316 24.0877C70.7212 23.1207 70.6451 22.1223 70.3272 21.2044C70.0093 20.2866 69.4899 19.4225 68.7467 18.8315Z" fill="#888888"/>
<path d="M57.2228 62.5762C56.4348 63.8522 56.1169 65.3924 56.0274 66.8924C55.9379 68.4057 56.1169 69.9325 56.5378 71.4011C56.9766 72.8607 57.6795 74.2711 58.7227 75.4084C59.7479 76.5501 61.1179 77.3784 62.573 77.7053C61.2567 77.0023 60.1419 76.0665 59.2957 74.9338C58.454 73.7965 57.8496 72.4981 57.4511 71.1325C57.0392 69.7713 56.8333 68.3386 56.7661 66.9013C56.7258 65.4551 56.8019 64.0045 57.2228 62.5762Z" fill="#888888"/>
<path d="M45 90C20.1875 90 0 69.8159 0 45.0022C0 20.1886 20.1875 0 45 0C69.8125 0 90 20.1886 90 45.0022C90 69.8159 69.8125 90 45 90ZM45 2.00139C21.2889 2.00139 2.00129 21.29 2.00129 45.0022C2.00129 68.7145 21.2889 88.0031 45 88.0031C68.7111 88.0031 87.9987 68.7145 87.9987 45.0022C87.9987 21.29 68.7066 2.00139 45 2.00139Z" fill="#888888"/>
<path d="M45.0002 86.1899C22.292 86.1899 3.8147 67.7118 3.8147 45.0024C3.8147 22.2931 22.292 3.81494 45.0002 3.81494C67.7083 3.81494 86.1856 22.2931 86.1856 45.0024C86.1856 67.7118 67.7083 86.1899 45.0002 86.1899ZM45.0002 4.48207C22.6591 4.48207 4.48179 22.6603 4.48179 45.0024C4.48179 67.3446 22.6591 85.5228 45.0002 85.5228C67.3412 85.5228 85.5185 67.3446 85.5185 45.0024C85.5185 22.6603 67.3412 4.48207 45.0002 4.48207Z" fill="#888888"/>
</svg>
