<svg width="148" height="148" viewBox="0 0 148 148" fill="none" xmlns="http://www.w3.org/2000/svg">
<path d="M74.1251 126.051L73.6613 125.882C71.0918 124.94 69.6855 123.114 68.9493 121.715C66.2252 123.209 63.0741 122.635 62.9194 122.606L61.6678 122.363L61.8298 121.104C61.8519 120.942 63.906 104.486 63.906 69.1883C63.906 34.0603 61.874 24.0248 61.8519 23.9217L61.5059 22.2945L63.1698 22.2872H63.1771C63.4127 22.2872 66.7479 22.3314 69.3763 24.82C70.2377 23.3327 71.7029 21.5362 73.8821 21.1312L74.1325 21.087L74.3828 21.1312C76.5621 21.5362 78.0198 23.3327 78.8886 24.82C81.5244 22.3314 84.8596 22.2872 85.0878 22.2872H85.0952L86.7591 22.2945L86.413 23.9217C86.3909 24.0174 84.3589 34.0603 84.3589 69.1883C84.3589 104.522 86.413 120.942 86.4351 121.104L86.5971 122.363L85.3455 122.606C85.1909 122.635 82.0397 123.209 79.3083 121.715C78.5794 123.106 77.1732 124.94 74.5963 125.882L74.1251 126.051ZM70.3334 116.885L70.8709 119.3C70.893 119.403 71.5262 121.95 74.1177 123.15C76.7093 121.95 77.3425 119.403 77.3646 119.292L77.9241 116.929L79.6396 118.644C80.7808 119.793 82.4373 120.029 83.5638 120.043C83.0778 115.346 81.6274 98.8826 81.6274 69.203C81.6274 41.6808 82.8422 29.5469 83.4312 25.2838C82.2753 25.6225 80.7439 26.3809 79.6985 28.0744L78.1597 30.563L77.2541 27.7798C76.9449 26.8374 75.789 24.3929 74.1104 23.8702C72.4244 24.3929 71.2758 26.8374 70.9666 27.7798L70.0537 30.5409L68.5223 28.067C67.4768 26.3735 65.9528 25.6225 64.7895 25.2838C65.3785 29.5469 66.5933 41.6808 66.5933 69.203C66.5933 98.8826 65.1429 115.346 64.657 120.043C65.7834 120.036 67.4326 119.793 68.5812 118.644L70.3334 116.885Z" fill="white"/>
<path d="M74.1254 26.5947C74.4052 34.4434 74.5377 42.2848 74.6408 50.1336C74.7512 57.9824 74.7438 65.8238 74.7954 73.6725C74.7438 81.5213 74.7512 89.3627 74.6408 97.2115L74.4493 108.977C74.3389 112.902 74.2726 116.826 74.118 120.743C73.9634 116.819 73.8971 112.894 73.7867 108.977L73.5953 97.2115C73.4848 89.3627 73.4922 81.5213 73.4407 73.6725C73.4996 65.8238 73.4848 57.9824 73.5953 50.1336C73.7131 42.2922 73.8456 34.4434 74.1254 26.5947Z" fill="white"/>
<path d="M78.6752 31.9472C78.955 38.9861 79.0875 46.0175 79.1906 53.0564C79.301 60.0953 79.2936 67.1268 79.3452 74.1656C79.2936 81.2045 79.301 88.2359 79.1906 95.2748L78.9991 105.826C78.8887 109.345 78.8224 112.865 78.6678 116.377C78.5132 112.857 78.447 109.338 78.3365 105.826L78.1451 95.2748C78.0347 88.2359 78.042 81.2045 77.9905 74.1656C78.0494 67.1268 78.0347 60.0953 78.1451 53.0564C78.2703 46.0175 78.4028 38.9787 78.6752 31.9472Z" fill="white"/>
<path d="M69.5457 31.9472C69.8255 38.9861 69.958 46.0175 70.0611 53.0564C70.1715 60.0953 70.1642 67.1268 70.2157 74.1656C70.1642 81.2045 70.1715 88.2359 70.0611 95.2748L69.8697 105.826C69.7592 109.345 69.693 112.865 69.5384 116.377C69.3838 112.857 69.3175 109.338 69.2071 105.826L69.0156 95.2748C68.9052 88.2359 68.9126 81.2045 68.861 74.1656C68.9199 67.1268 68.9052 60.0953 69.0156 53.0564C69.1334 46.0175 69.266 38.9787 69.5457 31.9472Z" fill="white"/>
<path d="M50.0498 85.1658C51.7506 81.072 52.8844 77.2581 53.8341 72.9288C54.8281 68.4963 55.4318 63.9756 55.4612 59.4622C55.4465 54.8825 55.3582 50.2955 54.8354 45.7526C54.3274 41.2171 53.5691 36.689 52.2217 32.3228C51.6033 30.1213 50.7345 28.0008 49.7627 25.9319C49.262 24.9011 48.7099 23.8998 48.084 22.9352C47.4656 21.9707 46.7809 21.0356 45.9563 20.2257C47.7748 21.6762 49.1811 23.5979 50.3885 25.5858C51.5739 27.5959 52.6046 29.7164 53.4218 31.9105C55.0857 36.2914 56.1459 40.8784 56.838 45.5023L57.3166 48.9775L57.6037 52.4675C57.6479 53.0492 57.7068 53.6308 57.7362 54.2125L57.7951 55.9575L57.9129 59.4548C57.9645 64.1891 57.346 68.8939 56.3668 73.4883C55.314 78.068 53.9004 82.5741 52.0009 86.8813C51.5149 87.9784 51.1542 88.7515 50.6094 89.8191" fill="white"/>
<path d="M44.9552 98.7501C44.8889 98.831 44.8227 98.912 44.7564 98.993C41.782 102.645 38.0418 105.914 33.4845 107.511C31.2168 108.284 28.802 108.594 26.4312 108.351C24.0605 108.041 21.7929 106.871 20.4014 104.993C21.999 106.687 24.274 107.533 26.4901 107.629C28.7283 107.651 30.9812 107.21 33.0206 106.319C37.151 104.566 40.4641 101.32 43.1587 97.7414C43.814 96.8579 44.4324 95.9523 45.0288 95.0247" fill="white"/>
<path d="M43.2838 82.4488C41.5905 85.3423 39.4406 88.0222 36.7386 90.0837C35.1557 91.2985 33.4181 92.3292 31.5481 93.0139C31.0916 93.2201 30.6057 93.3305 30.1345 93.4851C29.6633 93.6471 29.1847 93.7649 28.6988 93.8606C27.7491 94.0815 26.733 94.2729 25.7244 94.2508C23.7071 94.2655 21.7634 93.8017 19.9596 93.0802C18.1558 92.3587 16.4698 91.3868 14.9605 90.2088C16.617 91.1586 18.384 91.8875 20.1878 92.3955C21.9916 92.8888 23.8543 93.1685 25.6581 92.9698C26.5637 92.9109 27.4177 92.6826 28.3086 92.4102C28.7504 92.2851 29.1921 92.1452 29.6118 91.9611C30.0314 91.7844 30.4732 91.6519 30.8781 91.431C32.542 90.68 34.0808 89.6787 35.4575 88.4934C38.2037 86.108 40.3757 83.0894 41.9512 79.7542C42.1058 79.4449 42.2531 79.1284 42.4003 78.8118" fill="white"/>
<path d="M45.9488 67.3845C46.5673 64.351 46.9501 61.2512 47.1857 58.1515C47.333 56.2813 47.4213 54.4038 47.4213 52.5337C47.4287 51.5986 47.3624 50.6635 47.3403 49.7211L47.2962 48.3148L47.1857 46.9085C46.8912 43.1681 46.3243 39.4426 45.2862 35.8274C44.7782 34.0162 44.145 32.2417 43.3499 30.5262C42.5547 28.818 41.6492 27.1393 40.4049 25.6815C41.8479 26.9479 42.9891 28.5382 43.9831 30.1875C44.9917 31.8368 45.7795 33.6112 46.4863 35.4151C47.8483 39.045 48.7171 42.8515 49.1957 46.6949L49.3797 48.138L49.4975 49.5812C49.5712 50.5457 49.6521 51.5102 49.6816 52.4821C49.7405 54.4259 49.7184 56.3623 49.6227 58.2987C49.4092 62.1642 48.9012 66.0223 48.0545 69.8215C47.8925 70.4989 47.7232 71.1763 47.5465 71.8537" fill="white"/>
<path d="M39.4993 55.1623C39.8527 53.4468 40.081 51.7018 40.265 49.92C40.4859 47.505 40.5816 45.0752 40.4344 42.6455C40.3828 41.4306 40.2429 40.2158 40.0368 39.0156C39.8233 37.8155 39.573 36.608 39.1091 35.452C39.8159 36.4828 40.3166 37.6535 40.7289 38.8389C41.1485 40.0243 41.443 41.2539 41.686 42.4909C42.1425 44.9721 42.3265 47.505 42.275 50.0304C42.2603 52.5411 41.9658 55.1034 41.4357 57.6067" fill="white"/>
<path d="M38.4392 65.6101C37.3275 67.6053 36.0538 69.5122 34.4929 71.2129C34.0659 71.6988 33.5579 72.1185 33.094 72.5676L32.3873 73.2302L31.6068 73.8192C31.0767 74.2021 30.5835 74.6217 30.0313 74.9604L28.3305 75.9102C23.6996 78.3177 18.2734 78.6637 13.4731 77.471C18.4354 77.5888 23.3241 76.6317 27.344 74.1432C29.3539 72.9136 31.1062 71.3234 32.6597 69.5637C34.1984 67.782 35.4648 65.7721 36.5397 63.659C36.7311 63.2762 36.7974 63.151 36.9667 62.7682" fill="white"/>
<path d="M44.528 108.565C43.9022 109.728 43.3132 110.906 42.7611 112.099C42.1205 113.512 41.5094 114.941 41.0382 116.391C40.567 117.82 40.1916 119.329 40.2431 120.64C40.2652 121.288 40.4345 121.832 40.6848 122.09C40.7216 122.12 40.7511 122.156 40.7806 122.193C40.8026 122.23 40.7953 122.201 40.7732 122.179C40.7585 122.164 40.7364 122.149 40.7143 122.142C40.6628 122.134 40.7364 122.127 40.7364 122.134C40.7437 122.149 40.7732 122.142 40.8247 122.134C40.8615 122.127 40.9057 122.127 40.9425 122.134L41.0898 122.09L41.2444 122.053L41.4064 121.965C41.6272 121.891 41.8481 121.663 42.0763 121.516C42.2825 121.28 42.5107 121.074 42.7095 120.809C42.8936 120.522 43.0997 120.264 43.2691 119.962L43.755 119.013C44.933 116.347 45.4778 113.27 45.868 110.229C45.9932 108.682 46.2067 107.151 46.2509 105.59L46.376 103.256L46.4128 100.907C46.4938 97.7782 46.3687 94.649 46.1699 91.5345C45.8017 85.3055 44.8225 79.1134 43.1292 73.1422C41.4432 67.1856 38.9399 61.4132 35.2955 56.4727C33.4549 54.0356 31.3051 51.7974 28.7724 50.1996C27.5134 49.3971 26.144 48.786 24.7378 48.5356C23.3536 48.2558 21.918 48.5209 20.6148 49.1541C19.9669 49.4707 19.3705 49.8757 18.8404 50.369C18.3177 50.8696 17.8981 51.4587 17.5594 52.1066C16.9115 53.4098 16.6832 54.9634 16.8673 56.458C17.0514 57.96 17.6477 59.4179 18.5754 60.6622C19.4663 61.936 20.6442 63.033 21.9695 63.8945C20.5633 63.1655 19.2748 62.1716 18.222 60.942C17.1618 59.7197 16.4035 58.2104 16.0869 56.5758C15.7703 54.9486 15.8881 53.2257 16.536 51.628C16.8747 50.8402 17.3311 50.0965 17.9128 49.456C18.5018 48.8228 19.1865 48.2779 19.9301 47.8435C20.6811 47.4091 21.4983 47.0999 22.3597 46.9158C23.2137 46.717 24.134 46.7096 24.9955 46.8201C26.7256 47.041 28.338 47.6742 29.7884 48.4988C32.7187 50.1481 35.0894 52.5042 37.1656 55.0296C39.2123 57.5845 40.9425 60.3677 42.3488 63.2907C43.7697 66.2064 44.933 69.2399 45.8827 72.3323C47.7454 78.5244 48.7614 84.93 49.2032 91.3357C49.3946 94.5459 49.483 97.7561 49.3799 100.959L49.3284 103.367L49.1811 105.774C49.1148 107.379 48.9013 108.992 48.7246 110.597C48.2313 113.807 47.6203 117.039 46.1699 120.161L45.5441 121.317C45.3158 121.7 45.0287 122.061 44.771 122.429C44.4912 122.79 44.1305 123.128 43.7918 123.467C43.3721 123.769 43.004 124.093 42.4739 124.299L42.069 124.432L41.642 124.535C41.4947 124.564 41.3548 124.601 41.2076 124.616C41.0456 124.623 40.891 124.623 40.729 124.616C40.5744 124.616 40.4124 124.608 40.2284 124.557C40.0369 124.505 39.9044 124.49 39.6835 124.38C39.5731 124.321 39.47 124.262 39.367 124.196C39.2639 124.13 39.1608 124.056 39.124 124.005L38.8221 123.666C38.0417 122.701 37.9018 121.597 37.8871 120.684C37.9018 118.814 38.4246 117.216 38.9841 115.67C39.5584 114.124 40.2431 112.651 40.9867 111.223C42.1941 108.94 43.512 106.746 44.9256 104.618" fill="white"/>
<path d="M58.318 89.5393C58.3107 89.5393 58.3107 89.5393 58.318 89.5393C57.059 90.6363 55.8442 91.7922 54.6736 92.9849C54.0846 93.5813 53.5103 94.1924 52.9434 94.8108L52.1041 95.7458C51.8317 96.0624 51.5519 96.3569 51.2427 96.7471L51.2133 98.9853L51.4857 98.5878C53.584 95.4514 55.8663 92.4254 58.318 89.5393Z" fill="white"/>
<path d="M34.9493 30.968C34.1321 32.2785 33.624 33.6921 33.3148 35.1277C33.0277 36.5634 32.9688 38.0285 33.1234 39.4789C33.2486 40.9367 33.6388 42.3429 34.2204 43.6829C34.8389 45.0008 35.6634 46.2524 36.812 47.2905C35.3616 46.7015 34.1836 45.5088 33.3369 44.1541C32.505 42.7773 32.0117 41.2018 31.8497 39.6115C31.7024 38.0212 31.8276 36.3794 32.3503 34.8701C32.8731 33.3608 33.7198 31.9398 34.9493 30.968Z" fill="white"/>
<path d="M53.8929 102.903C55.1886 105.001 55.7114 107.534 55.8586 110.001C56.0059 112.489 55.7114 115 55.0193 117.415C54.2978 119.815 53.1419 122.135 51.4264 124.005C49.7404 125.882 47.4875 127.244 45.0947 127.782C47.2593 126.626 49.0925 125.087 50.484 123.224C51.8682 121.354 52.8621 119.219 53.5174 116.973C54.1947 114.735 54.5334 112.379 54.6438 110.015C54.7175 107.637 54.5849 105.252 53.8929 102.903Z" fill="white"/>
<path d="M97.9427 85.1658C96.242 81.072 95.1081 77.2581 94.1584 72.9288C93.1645 68.4963 92.5607 63.9756 92.5313 59.4622C92.546 54.8825 92.6344 50.2955 93.1571 45.7526C93.6651 41.2171 94.4234 36.689 95.7708 32.3228C96.3892 30.1213 97.258 28.0008 98.2298 25.9319C98.7305 24.9011 99.2827 23.8998 99.9085 22.9352C100.527 21.9707 101.212 21.0356 102.036 20.2257C100.218 21.6762 98.8115 23.5979 97.604 25.5858C96.4187 27.5959 95.3879 29.7164 94.5707 31.9105C92.9068 36.2914 91.8466 40.8784 91.1545 45.5023L90.676 48.9775L90.3888 52.4675C90.3446 53.0492 90.2857 53.6308 90.2563 54.2125L90.1974 55.9575L90.0796 59.4548C90.0281 64.1891 90.6465 68.8939 91.6257 73.4883C92.6785 78.068 94.0921 82.5741 95.9916 86.8813C96.4776 87.9784 96.8383 88.7515 97.3831 89.8191" fill="white"/>
<path d="M103.045 98.7501C103.111 98.831 103.177 98.912 103.244 98.993C106.218 102.645 109.958 105.914 114.516 107.511C116.783 108.284 119.198 108.594 121.569 108.351C123.94 108.041 126.207 106.871 127.599 104.993C126.001 106.687 123.726 107.533 121.51 107.629C119.272 107.651 117.019 107.21 114.979 106.319C110.849 104.566 107.536 101.32 104.841 97.7414C104.186 96.8579 103.568 95.9523 102.971 95.0247" fill="white"/>
<path d="M104.716 82.4488C106.409 85.3423 108.559 88.0222 111.261 90.0837C112.844 91.2985 114.582 92.3292 116.452 93.0139C116.908 93.2201 117.394 93.3305 117.865 93.4851C118.337 93.6471 118.815 93.7649 119.301 93.8606C120.251 94.0815 121.267 94.2729 122.276 94.2508C124.293 94.2655 126.237 93.8017 128.04 93.0802C129.844 92.3587 131.53 91.3868 133.039 90.2088C131.383 91.1586 129.616 91.8875 127.812 92.3955C126.008 92.8888 124.146 93.1685 122.342 92.9698C121.436 92.9109 120.582 92.6826 119.691 92.4102C119.25 92.2851 118.808 92.1452 118.388 91.9611C117.969 91.7844 117.527 91.6519 117.122 91.431C115.458 90.68 113.919 89.6787 112.542 88.4934C109.796 86.108 107.624 83.0894 106.049 79.7542C105.894 79.4449 105.747 79.1284 105.6 78.8118" fill="white"/>
<path d="M102.044 67.3845C101.425 64.351 101.042 61.2512 100.807 58.1515C100.659 56.2813 100.571 54.4038 100.571 52.5337C100.564 51.5986 100.63 50.6635 100.652 49.7211L100.696 48.3148L100.807 46.9085C101.101 43.1681 101.668 39.4426 102.706 35.8274C103.214 34.0162 103.847 32.2417 104.643 30.5262C105.438 28.818 106.343 27.1393 107.588 25.6815C106.144 26.9479 105.003 28.5382 104.009 30.1875C103.001 31.8368 102.213 33.6112 101.506 35.4151C100.144 39.045 99.2753 42.8515 98.7967 46.6949L98.6127 48.138L98.4949 49.5812C98.4212 50.5457 98.3403 51.5102 98.3108 52.4821C98.2519 54.4259 98.274 56.3623 98.3697 58.2987C98.5832 62.1642 99.0912 66.0223 99.9379 69.8215C100.1 70.4989 100.269 71.1763 100.446 71.8537" fill="white"/>
<path d="M108.493 55.1623C108.14 53.4468 107.912 51.7018 107.728 49.92C107.507 47.505 107.411 45.0752 107.558 42.6455C107.61 41.4306 107.75 40.2158 107.956 39.0156C108.169 37.8155 108.42 36.608 108.883 35.452C108.177 36.4828 107.676 37.6535 107.264 38.8389C106.844 40.0243 106.55 41.2539 106.307 42.4909C105.85 44.9721 105.666 47.505 105.718 50.0304C105.732 52.5411 106.027 55.1034 106.557 57.6067" fill="white"/>
<path d="M109.561 65.6101C110.673 67.6053 111.946 69.5122 113.507 71.2129C113.934 71.6988 114.442 72.1185 114.906 72.5676L115.613 73.2302L116.393 73.8192C116.923 74.2021 117.417 74.6217 117.969 74.9604L119.669 75.9102C124.3 78.3177 129.727 78.6637 134.527 77.471C129.565 77.5888 124.676 76.6317 120.656 74.1432C118.646 72.9136 116.894 71.3234 115.34 69.5637C113.802 67.782 112.535 65.7721 111.46 63.659C111.269 63.2762 111.203 63.151 111.033 62.7682" fill="white"/>
<path d="M103.465 108.565C104.09 109.728 104.679 110.906 105.232 112.099C105.872 113.512 106.483 114.941 106.954 116.391C107.426 117.82 107.801 119.329 107.75 120.64C107.727 121.288 107.558 121.832 107.308 122.09C107.271 122.12 107.242 122.156 107.212 122.193C107.19 122.23 107.197 122.201 107.219 122.179C107.234 122.164 107.256 122.149 107.278 122.142C107.33 122.134 107.256 122.127 107.256 122.134C107.249 122.149 107.219 122.142 107.168 122.134C107.131 122.127 107.087 122.127 107.05 122.134L106.903 122.09L106.748 122.053L106.586 121.965C106.365 121.891 106.145 121.663 105.916 121.516C105.71 121.28 105.482 121.074 105.283 120.809C105.099 120.522 104.893 120.264 104.724 119.962L104.238 119.013C103.06 116.347 102.515 113.27 102.125 110.229C101.999 108.682 101.786 107.151 101.742 105.59L101.617 103.256L101.58 100.907C101.499 97.7782 101.624 94.649 101.823 91.5345C102.191 85.3055 103.17 79.1134 104.863 73.1422C106.549 67.1856 109.053 61.4132 112.697 56.4727C114.538 54.0356 116.688 51.7974 119.22 50.1996C120.479 49.3971 121.849 48.786 123.255 48.5356C124.639 48.2558 126.075 48.5209 127.378 49.1541C128.026 49.4707 128.622 49.8757 129.152 50.369C129.675 50.8696 130.095 51.4587 130.433 52.1066C131.081 53.4098 131.309 54.9634 131.125 56.458C130.941 57.96 130.345 59.4179 129.417 60.6622C128.526 61.936 127.348 63.033 126.023 63.8945C127.429 63.1655 128.718 62.1716 129.771 60.942C130.831 59.7197 131.589 58.2104 131.906 56.5758C132.222 54.9486 132.105 53.2257 131.457 51.628C131.118 50.8402 130.661 50.0965 130.08 49.456C129.491 48.8228 128.806 48.2779 128.063 47.8435C127.312 47.4091 126.494 47.0999 125.633 46.9158C124.779 46.717 123.859 46.7096 122.997 46.8201C121.267 47.041 119.655 47.6742 118.204 48.4988C115.274 50.1481 112.903 52.5042 110.827 55.0296C108.78 57.5845 107.05 60.3677 105.644 63.2907C104.223 66.2064 103.06 69.2399 102.11 72.3323C100.247 78.5244 99.2312 84.93 98.7894 91.3357C98.598 94.5459 98.5097 97.7561 98.6127 100.959L98.6643 103.367L98.8115 105.774C98.8778 107.379 99.0913 108.992 99.268 110.597C99.7613 113.807 100.372 117.039 101.823 120.161L102.449 121.317C102.677 121.7 102.964 122.061 103.222 122.429C103.501 122.79 103.862 123.128 104.201 123.467C104.621 123.769 104.989 124.093 105.519 124.299L105.894 124.461L106.321 124.564C106.468 124.594 106.608 124.63 106.756 124.645C106.918 124.652 107.072 124.652 107.234 124.645C107.389 124.645 107.551 124.638 107.735 124.586C107.926 124.535 108.059 124.52 108.28 124.409C108.39 124.351 108.493 124.292 108.596 124.225C108.699 124.159 108.802 124.086 108.839 124.034L109.141 123.695C109.921 122.731 110.061 121.626 110.076 120.713C110.061 118.843 109.539 117.245 108.979 115.699C108.405 114.153 107.72 112.68 106.976 111.252C105.769 108.97 104.451 106.776 103.038 104.648" fill="white"/>
<path d="M89.6821 89.5393C90.941 90.6363 92.1559 91.7922 93.3265 92.9849C93.9155 93.5813 94.4898 94.1924 95.0567 94.8108L95.896 95.7458C96.1684 96.0624 96.4482 96.3569 96.7574 96.7471L96.7868 98.9853L96.5144 98.5878C94.4088 95.4514 92.1338 92.4254 89.6821 89.5393Z" fill="white"/>
<path d="M113.05 30.968C113.868 32.2785 114.376 33.6921 114.685 35.1277C114.972 36.5634 115.031 38.0285 114.876 39.4789C114.751 40.9367 114.361 42.3429 113.779 43.6829C113.161 45.0008 112.336 46.2524 111.188 47.2905C112.638 46.7015 113.816 45.5088 114.663 44.1541C115.495 42.7773 115.988 41.2018 116.15 39.6115C116.297 38.0212 116.172 36.3794 115.649 34.8701C115.127 33.3608 114.273 31.9398 113.05 30.968Z" fill="white"/>
<path d="M94.0995 102.903C92.8037 105.001 92.281 107.534 92.1338 110.001C91.9865 112.489 92.281 115 92.9731 117.415C93.6946 119.815 94.8505 122.135 96.566 124.005C98.252 125.882 100.505 127.244 102.898 127.782C100.733 126.626 98.8999 125.087 97.5084 123.224C96.1242 121.354 95.1303 119.219 94.475 116.973C93.7977 114.735 93.459 112.379 93.3486 110.015C93.2823 107.637 93.4075 105.252 94.0995 102.903Z" fill="white"/>
<path d="M74 148C33.1973 148 0 114.808 0 74.0037C0 33.199 33.1973 0 74 0C114.803 0 148 33.199 148 74.0037C148 114.808 114.803 148 74 148ZM74 3.29118C35.0085 3.29118 3.29102 35.0102 3.29102 74.0037C3.29102 112.997 35.0085 144.716 74 144.716C112.992 144.716 144.709 112.997 144.709 74.0037C144.709 35.0102 112.984 3.29118 74 3.29118Z" fill="white"/>
<path d="M74.0001 141.734C36.6577 141.734 6.27286 111.348 6.27286 74.0037C6.27286 36.6595 36.6577 6.27313 74.0001 6.27313C111.342 6.27313 141.727 36.6595 141.727 74.0037C141.727 111.348 111.342 141.734 74.0001 141.734ZM74.0001 7.37019C37.2614 7.37019 7.36986 37.2632 7.36986 74.0037C7.36986 110.744 37.2614 140.637 74.0001 140.637C110.739 140.637 140.63 110.744 140.63 74.0037C140.63 37.2632 110.739 7.37019 74.0001 7.37019Z" fill="white"/>
</svg>
