<svg width="320" height="111" viewBox="0 0 320 111" fill="none" xmlns="http://www.w3.org/2000/svg">
<path d="M18.1797 1.9375V2.54688H16.3047V15.3906H17.5703C17.6484 15.3906 17.7266 15.3984 17.8047 15.4141C18.0547 15.4609 18.1797 15.6562 18.1797 16H12.5547V15.3906H14.4297V4.04688L9.01562 16.1172H8.52344L3.39062 5.3125V15.3906H4.65625C4.73438 15.3906 4.8125 15.3984 4.89062 15.4141C5.14062 15.4609 5.26562 15.6562 5.26562 16H0.578125V15.3906H2.45312V2.54688H0.578125V1.9375H3.92969L9.36719 13.3984L14.4297 1.9375H18.1797ZM30.9531 15.4141C31.0469 15.4141 31.125 15.4219 31.1875 15.4375C31.4219 15.4688 31.5391 15.6562 31.5391 16H28.2344L28.0703 13.6094C27.8984 14.0469 27.6719 14.4453 27.3906 14.8047C26.6406 15.7578 25.6797 16.2344 24.5078 16.2344C22.2891 16.2188 21.1719 14.875 21.1562 12.2031V6.625H19.3516V6.03906H22.9141V12.5547C22.9141 12.8047 22.9297 13.0391 22.9609 13.2578C23.1641 14.5703 23.9062 15.2266 25.1875 15.2266C25.6562 15.2266 26.1094 15.0781 26.5469 14.7812C27.5312 14.125 28.0234 13.0938 28.0234 11.6875V6.625H26.1016V6.03906H29.7812V15.4141H30.9531ZM33.1094 11.125C33.1094 10.0938 33.3047 9.17188 33.6953 8.35938C34.5234 6.65625 35.9844 5.80469 38.0781 5.80469C38.9219 5.80469 39.7031 5.98438 40.4219 6.34375C41.4375 6.85938 41.9453 7.51562 41.9453 8.3125C41.9453 8.40625 41.9297 8.50781 41.8984 8.61719C41.7578 9.08594 41.4219 9.30469 40.8906 9.27344C40.7031 9.25781 40.5312 9.21094 40.375 9.13281C40.125 8.97656 39.9531 8.58594 39.8594 7.96094C39.8125 7.69531 39.7734 7.5 39.7422 7.375C39.5703 6.71875 39.0625 6.39062 38.2188 6.39062C37.6719 6.39062 37.1719 6.53125 36.7188 6.8125C35.6406 7.5 35.1016 8.86719 35.1016 10.9141C35.1016 12.0703 35.3359 13.0703 35.8047 13.9141C36.4297 15.0234 37.2969 15.5781 38.4062 15.5781C38.5312 15.5781 38.6562 15.5703 38.7812 15.5547C40.1094 15.4297 41.0625 14.75 41.6406 13.5156L42.25 13.7266C42.1406 13.9922 41.9922 14.2578 41.8047 14.5234C40.9766 15.6641 39.75 16.2344 38.125 16.2344C37.0312 16.2344 36.0547 15.9453 35.1953 15.3672C33.8047 14.4297 33.1094 13.0156 33.1094 11.125ZM47.8047 15.4141C47.8984 15.4141 47.9766 15.4219 48.0391 15.4375C48.2734 15.4688 48.3906 15.6562 48.3906 16H43.1172V15.4141C43.6484 15.4141 44.0312 15.375 44.2656 15.2969C44.6719 15.1562 44.875 14.7266 44.875 14.0078V1.35156H43.1172V0.765625H46.6328V8.28906C46.8047 7.83594 47.0547 7.42969 47.3828 7.07031C48.1641 6.22656 49.1328 5.80469 50.2891 5.80469C50.7891 5.80469 51.2578 5.91406 51.6953 6.13281C52.8203 6.74219 53.3828 7.89844 53.3828 9.60156V15.4141H54.5547C54.6484 15.4141 54.7266 15.4219 54.7891 15.4375C55.0234 15.4688 55.1406 15.6562 55.1406 16H49.9844V15.4141C50.5156 15.4141 50.8906 15.375 51.1094 15.2969C51.4531 15.1562 51.625 14.7266 51.625 14.0078V9.60156C51.625 9.08594 51.5391 8.61719 51.3672 8.19531C50.9922 7.30469 50.3281 6.85938 49.375 6.85938C48.9375 6.85938 48.5156 6.99219 48.1094 7.25781C47.125 7.89844 46.6328 8.92969 46.6328 10.3516V15.4141H47.8047ZM64.9141 16.2344C63.8203 16.2188 63.1797 15.5156 62.9922 14.125C62.8516 14.4531 62.6406 14.7656 62.3594 15.0625C61.5781 15.8438 60.6172 16.2344 59.4766 16.2344C59.0078 16.2344 58.5625 16.1484 58.1406 15.9766C57.0938 15.5391 56.5703 14.7266 56.5703 13.5391C56.5703 13.1953 56.6172 12.875 56.7109 12.5781C57.2422 11.0469 59.3438 10.2812 63.0156 10.2812V8.80469C62.9688 7.28906 62.2109 6.48438 60.7422 6.39062C60.1172 6.39062 59.6562 6.58594 59.3594 6.97656C59.2812 7.08594 59.1328 7.42969 58.9141 8.00781C58.7422 8.46094 58.4766 8.6875 58.1172 8.6875C58.0391 8.6875 57.9609 8.67969 57.8828 8.66406C57.4297 8.58594 57.2031 8.30469 57.2031 7.82031C57.2031 7.55469 57.2969 7.28906 57.4844 7.02344C58.0781 6.21094 59.25 5.80469 61 5.80469C61.1406 5.80469 61.2812 5.80469 61.4219 5.80469C63.6562 5.92969 64.7734 7.10938 64.7734 9.34375V14.2891C64.7891 15.0703 65 15.4766 65.4062 15.5078C65.9062 15.4922 66.2109 14.9141 66.3203 13.7734L66.9297 13.7969C66.9297 13.875 66.9219 13.9609 66.9062 14.0547C66.7812 15.5078 66.1172 16.2344 64.9141 16.2344ZM60.25 15.2969C60.5938 15.2969 60.9453 15.2188 61.3047 15.0625C62.2109 14.625 62.7812 13.8672 63.0156 12.7891V10.9141C61.7969 10.9297 60.8672 11.0078 60.2266 11.1484C59.0234 11.4297 58.4219 12.0938 58.4219 13.1406C58.4219 13.4062 58.4453 13.6484 58.4922 13.8672C58.7109 14.8203 59.2969 15.2969 60.25 15.2969ZM71.5 15.6016C72.5781 15.6016 73.3047 15.2734 73.6797 14.6172C73.8203 14.3828 73.8906 14.125 73.8906 13.8438C73.8906 13.1875 73.4141 12.625 72.4609 12.1562C72.2578 12.0469 71.9219 11.8906 71.4531 11.6875C70.1719 11.1562 69.3203 10.6562 68.8984 10.1875C68.4453 9.67188 68.2188 9.07031 68.2188 8.38281C68.2188 7.30469 68.8125 6.54688 70 6.10938C70.5469 5.90625 71.1406 5.80469 71.7812 5.80469C72.8125 5.80469 73.7031 6.02344 74.4531 6.46094C74.4531 6.00781 74.5625 5.75 74.7812 5.6875C74.875 5.67188 74.9766 5.66406 75.0859 5.66406V8.59375H74.4766C74.4453 7.15625 73.6484 6.42969 72.0859 6.41406C70.9141 6.41406 70.1875 6.75781 69.9062 7.44531C69.8281 7.63281 69.7891 7.82812 69.7891 8.03125C69.7891 8.70312 70.2734 9.27344 71.2422 9.74219C71.4609 9.85156 71.8047 10 72.2734 10.1875C73.5391 10.7031 74.3828 11.1953 74.8047 11.6641C75.2578 12.1641 75.4844 12.7578 75.4844 13.4453C75.4844 14.7109 74.8125 15.5547 73.4688 15.9766C72.9531 16.1484 72.3906 16.2344 71.7812 16.2344C70.6562 16.2188 69.6797 15.9375 68.8516 15.3906C68.8516 15.7969 68.75 16.0312 68.5469 16.0938C68.4531 16.1094 68.3438 16.1172 68.2188 16.1172V12.5547H68.875C68.9062 14.5703 69.7812 15.5859 71.5 15.6016ZM85.6094 6.625H83.9688L86.9688 14.6172L89.9453 6.625H88.1875V6.03906H91.7969C91.7969 6.11719 91.7891 6.19531 91.7734 6.27344C91.7422 6.50781 91.5547 6.625 91.2109 6.625C91.1484 6.625 91.0781 6.63281 91 6.64844C90.7344 6.69531 90.5078 6.96094 90.3203 7.44531L87.0156 16.1172H86.7109C86.4297 16.1172 86.1953 16.0781 86.0078 16C85.6328 15.8594 85.2891 15.3516 84.9766 14.4766L82.1172 6.625H81.0625V6.03906H85.6094V6.625ZM97.7031 6.39062C97.2969 6.39062 96.9141 6.48438 96.5547 6.67188C95.4609 7.21875 94.875 8.39062 94.7969 10.1875L97.2812 10.2578C98 10.2734 98.5547 10.2422 98.9453 10.1641C99.6953 9.99219 100.07 9.51562 100.07 8.73438C100.07 8.39062 100.008 8.07031 99.8828 7.77344C99.5234 6.85156 98.7969 6.39062 97.7031 6.39062ZM101.781 13.75C101.688 13.9688 101.578 14.1875 101.453 14.4062C100.656 15.625 99.4141 16.2344 97.7266 16.2344C96.6641 16.2344 95.7188 15.9609 94.8906 15.4141C93.5 14.4766 92.8047 13.0391 92.8047 11.1016C92.8047 10.0391 93.0234 9.08594 93.4609 8.24219C94.3047 6.61719 95.7031 5.80469 97.6562 5.80469C98.6562 5.80469 99.5391 6.03125 100.305 6.48438C101.383 7.10938 101.922 7.95312 101.922 9.01562C101.922 9.59375 101.711 10.0391 101.289 10.3516C100.742 10.7422 99.5156 10.9219 97.6094 10.8906L94.7969 10.8438C94.8125 11.5 94.8828 12.1016 95.0078 12.6484C95.4297 14.6016 96.4609 15.5781 98.1016 15.5781C98.2422 15.5781 98.3906 15.5703 98.5469 15.5547C99.7656 15.3984 100.648 14.7266 101.195 13.5391L101.781 13.75ZM103.68 11.125C103.68 10.0938 103.875 9.17188 104.266 8.35938C105.094 6.65625 106.555 5.80469 108.648 5.80469C109.492 5.80469 110.273 5.98438 110.992 6.34375C112.008 6.85938 112.516 7.51562 112.516 8.3125C112.516 8.40625 112.5 8.50781 112.469 8.61719C112.328 9.08594 111.992 9.30469 111.461 9.27344C111.273 9.25781 111.102 9.21094 110.945 9.13281C110.695 8.97656 110.523 8.58594 110.43 7.96094C110.383 7.69531 110.344 7.5 110.312 7.375C110.141 6.71875 109.633 6.39062 108.789 6.39062C108.242 6.39062 107.742 6.53125 107.289 6.8125C106.211 7.5 105.672 8.86719 105.672 10.9141C105.672 12.0703 105.906 13.0703 106.375 13.9141C107 15.0234 107.867 15.5781 108.977 15.5781C109.102 15.5781 109.227 15.5703 109.352 15.5547C110.68 15.4297 111.633 14.75 112.211 13.5156L112.82 13.7266C112.711 13.9922 112.562 14.2578 112.375 14.5234C111.547 15.6641 110.32 16.2344 108.695 16.2344C107.602 16.2344 106.625 15.9453 105.766 15.3672C104.375 14.4297 103.68 13.0156 103.68 11.125ZM118.773 6.39062C118.367 6.39062 117.984 6.48438 117.625 6.67188C116.531 7.21875 115.945 8.39062 115.867 10.1875L118.352 10.2578C119.07 10.2734 119.625 10.2422 120.016 10.1641C120.766 9.99219 121.141 9.51562 121.141 8.73438C121.141 8.39062 121.078 8.07031 120.953 7.77344C120.594 6.85156 119.867 6.39062 118.773 6.39062ZM122.852 13.75C122.758 13.9688 122.648 14.1875 122.523 14.4062C121.727 15.625 120.484 16.2344 118.797 16.2344C117.734 16.2344 116.789 15.9609 115.961 15.4141C114.57 14.4766 113.875 13.0391 113.875 11.1016C113.875 10.0391 114.094 9.08594 114.531 8.24219C115.375 6.61719 116.773 5.80469 118.727 5.80469C119.727 5.80469 120.609 6.03125 121.375 6.48438C122.453 7.10938 122.992 7.95312 122.992 9.01562C122.992 9.59375 122.781 10.0391 122.359 10.3516C121.812 10.7422 120.586 10.9219 118.68 10.8906L115.867 10.8438C115.883 11.5 115.953 12.1016 116.078 12.6484C116.5 14.6016 117.531 15.5781 119.172 15.5781C119.312 15.5781 119.461 15.5703 119.617 15.5547C120.836 15.3984 121.719 14.7266 122.266 13.5391L122.852 13.75ZM128.266 15.6016C129.344 15.6016 130.07 15.2734 130.445 14.6172C130.586 14.3828 130.656 14.125 130.656 13.8438C130.656 13.1875 130.18 12.625 129.227 12.1562C129.023 12.0469 128.688 11.8906 128.219 11.6875C126.938 11.1562 126.086 10.6562 125.664 10.1875C125.211 9.67188 124.984 9.07031 124.984 8.38281C124.984 7.30469 125.578 6.54688 126.766 6.10938C127.312 5.90625 127.906 5.80469 128.547 5.80469C129.578 5.80469 130.469 6.02344 131.219 6.46094C131.219 6.00781 131.328 5.75 131.547 5.6875C131.641 5.67188 131.742 5.66406 131.852 5.66406V8.59375H131.242C131.211 7.15625 130.414 6.42969 128.852 6.41406C127.68 6.41406 126.953 6.75781 126.672 7.44531C126.594 7.63281 126.555 7.82812 126.555 8.03125C126.555 8.70312 127.039 9.27344 128.008 9.74219C128.227 9.85156 128.57 10 129.039 10.1875C130.305 10.7031 131.148 11.1953 131.57 11.6641C132.023 12.1641 132.25 12.7578 132.25 13.4453C132.25 14.7109 131.578 15.5547 130.234 15.9766C129.719 16.1484 129.156 16.2344 128.547 16.2344C127.422 16.2188 126.445 15.9375 125.617 15.3906C125.617 15.7969 125.516 16.0312 125.312 16.0938C125.219 16.1094 125.109 16.1172 124.984 16.1172V12.5547H125.641C125.672 14.5703 126.547 15.5859 128.266 15.6016ZM142.211 15.6016C143.289 15.6016 144.016 15.2734 144.391 14.6172C144.531 14.3828 144.602 14.125 144.602 13.8438C144.602 13.1875 144.125 12.625 143.172 12.1562C142.969 12.0469 142.633 11.8906 142.164 11.6875C140.883 11.1562 140.031 10.6562 139.609 10.1875C139.156 9.67188 138.93 9.07031 138.93 8.38281C138.93 7.30469 139.523 6.54688 140.711 6.10938C141.258 5.90625 141.852 5.80469 142.492 5.80469C143.523 5.80469 144.414 6.02344 145.164 6.46094C145.164 6.00781 145.273 5.75 145.492 5.6875C145.586 5.67188 145.688 5.66406 145.797 5.66406V8.59375H145.188C145.156 7.15625 144.359 6.42969 142.797 6.41406C141.625 6.41406 140.898 6.75781 140.617 7.44531C140.539 7.63281 140.5 7.82812 140.5 8.03125C140.5 8.70312 140.984 9.27344 141.953 9.74219C142.172 9.85156 142.516 10 142.984 10.1875C144.25 10.7031 145.094 11.1953 145.516 11.6641C145.969 12.1641 146.195 12.7578 146.195 13.4453C146.195 14.7109 145.523 15.5547 144.18 15.9766C143.664 16.1484 143.102 16.2344 142.492 16.2344C141.367 16.2188 140.391 15.9375 139.562 15.3906C139.562 15.7969 139.461 16.0312 139.258 16.0938C139.164 16.1094 139.055 16.1172 138.93 16.1172V12.5547H139.586C139.617 14.5703 140.492 15.5859 142.211 15.6016ZM152.969 6.39062C152.562 6.39062 152.18 6.48438 151.82 6.67188C150.727 7.21875 150.141 8.39062 150.062 10.1875L152.547 10.2578C153.266 10.2734 153.82 10.2422 154.211 10.1641C154.961 9.99219 155.336 9.51562 155.336 8.73438C155.336 8.39062 155.273 8.07031 155.148 7.77344C154.789 6.85156 154.062 6.39062 152.969 6.39062ZM157.047 13.75C156.953 13.9688 156.844 14.1875 156.719 14.4062C155.922 15.625 154.68 16.2344 152.992 16.2344C151.93 16.2344 150.984 15.9609 150.156 15.4141C148.766 14.4766 148.07 13.0391 148.07 11.1016C148.07 10.0391 148.289 9.08594 148.727 8.24219C149.57 6.61719 150.969 5.80469 152.922 5.80469C153.922 5.80469 154.805 6.03125 155.57 6.48438C156.648 7.10938 157.188 7.95312 157.188 9.01562C157.188 9.59375 156.977 10.0391 156.555 10.3516C156.008 10.7422 154.781 10.9219 152.875 10.8906L150.062 10.8438C150.078 11.5 150.148 12.1016 150.273 12.6484C150.695 14.6016 151.727 15.5781 153.367 15.5781C153.508 15.5781 153.656 15.5703 153.812 15.5547C155.031 15.3984 155.914 14.7266 156.461 13.5391L157.047 13.75ZM168.086 15.4141C168.164 15.4141 168.242 15.4219 168.32 15.4375C168.555 15.4688 168.672 15.6562 168.672 16H163.281V15.4141C163.812 15.4141 164.195 15.3828 164.43 15.3203C164.914 15.1641 165.156 14.7266 165.156 14.0078V6.625H163.281V6.03906H166.914V15.4141H168.086ZM167.195 2.61719C167.195 2.80469 167.156 2.98437 167.078 3.15625C166.859 3.65625 166.477 3.90625 165.93 3.90625C165.758 3.90625 165.586 3.875 165.414 3.8125C164.898 3.59375 164.641 3.19531 164.641 2.61719C164.641 2.42969 164.68 2.25 164.758 2.07812C164.992 1.57812 165.383 1.32812 165.93 1.32812C166.102 1.32812 166.281 1.36719 166.469 1.44531C166.953 1.67969 167.195 2.07031 167.195 2.61719ZM174.648 15.4141C174.742 15.4141 174.82 15.4219 174.883 15.4375C175.117 15.4688 175.234 15.6562 175.234 16H170.078V15.4141C170.609 15.4141 170.992 15.375 171.227 15.2969C171.633 15.1562 171.836 14.7266 171.836 14.0078V6.625H170.078V6.03906H173.477L173.57 8.38281C173.742 7.94531 173.969 7.54688 174.25 7.1875C175 6.26562 175.953 5.80469 177.109 5.80469C177.688 5.80469 178.227 5.95312 178.727 6.25C179.805 6.92188 180.344 8.03906 180.344 9.60156V15.4141H181.516C181.609 15.4141 181.688 15.4219 181.75 15.4375C181.984 15.4688 182.102 15.6562 182.102 16H176.828V15.4141C177.359 15.4141 177.742 15.375 177.977 15.2969C178.383 15.1562 178.586 14.7266 178.586 14.0078V9.36719C178.586 8.91406 178.516 8.50781 178.375 8.14844C178.031 7.25781 177.383 6.8125 176.43 6.8125C175.992 6.8125 175.562 6.94531 175.141 7.21094C174.156 7.85156 173.641 8.89844 173.594 10.3516V15.4141H174.648ZM183.156 6.625V6.03906H184.797V3.8125L186.555 3.32031V6.03906H190.188V6.625H186.555V13.75C186.57 14.9219 187 15.5234 187.844 15.5547C188.594 15.4453 189.164 14.7422 189.555 13.4453L190.188 13.5625C190.188 13.5781 190.188 13.5938 190.188 13.6094C189.828 15.375 188.93 16.2578 187.492 16.2578C185.805 16.1953 184.906 15.1875 184.797 13.2344V6.625H183.156ZM196.141 6.39062C195.734 6.39062 195.352 6.48438 194.992 6.67188C193.898 7.21875 193.312 8.39062 193.234 10.1875L195.719 10.2578C196.438 10.2734 196.992 10.2422 197.383 10.1641C198.133 9.99219 198.508 9.51562 198.508 8.73438C198.508 8.39062 198.445 8.07031 198.32 7.77344C197.961 6.85156 197.234 6.39062 196.141 6.39062ZM200.219 13.75C200.125 13.9688 200.016 14.1875 199.891 14.4062C199.094 15.625 197.852 16.2344 196.164 16.2344C195.102 16.2344 194.156 15.9609 193.328 15.4141C191.938 14.4766 191.242 13.0391 191.242 11.1016C191.242 10.0391 191.461 9.08594 191.898 8.24219C192.742 6.61719 194.141 5.80469 196.094 5.80469C197.094 5.80469 197.977 6.03125 198.742 6.48438C199.82 7.10938 200.359 7.95312 200.359 9.01562C200.359 9.59375 200.148 10.0391 199.727 10.3516C199.18 10.7422 197.953 10.9219 196.047 10.8906L193.234 10.8438C193.25 11.5 193.32 12.1016 193.445 12.6484C193.867 14.6016 194.898 15.5781 196.539 15.5781C196.68 15.5781 196.828 15.5703 196.984 15.5547C198.203 15.3984 199.086 14.7266 199.633 13.5391L200.219 13.75ZM206.453 15.4141C206.547 15.4141 206.625 15.4219 206.688 15.4375C206.922 15.4688 207.039 15.6562 207.039 16H201.883V15.4141C202.414 15.4141 202.797 15.375 203.031 15.2969C203.438 15.1562 203.641 14.7266 203.641 14.0078V6.625H201.883V6.03906H205.281L205.375 8.38281C205.547 7.94531 205.773 7.54688 206.055 7.1875C206.805 6.26562 207.758 5.80469 208.914 5.80469C209.492 5.80469 210.031 5.95312 210.531 6.25C211.609 6.92188 212.148 8.03906 212.148 9.60156V15.4141H213.32C213.414 15.4141 213.492 15.4219 213.555 15.4375C213.789 15.4688 213.906 15.6562 213.906 16H208.633V15.4141C209.164 15.4141 209.547 15.375 209.781 15.2969C210.188 15.1562 210.391 14.7266 210.391 14.0078V9.36719C210.391 8.91406 210.32 8.50781 210.18 8.14844C209.836 7.25781 209.188 6.8125 208.234 6.8125C207.797 6.8125 207.367 6.94531 206.945 7.21094C205.961 7.85156 205.445 8.89844 205.398 10.3516V15.4141H206.453ZM214.961 6.625V6.03906H216.602V3.8125L218.359 3.32031V6.03906H221.992V6.625H218.359V13.75C218.375 14.9219 218.805 15.5234 219.648 15.5547C220.398 15.4453 220.969 14.7422 221.359 13.4453L221.992 13.5625C221.992 13.5781 221.992 13.5938 221.992 13.6094C221.633 15.375 220.734 16.2578 219.297 16.2578C217.609 16.1953 216.711 15.1875 216.602 13.2344V6.625H214.961ZM231.273 16.2344C230.18 16.2188 229.539 15.5156 229.352 14.125C229.211 14.4531 229 14.7656 228.719 15.0625C227.938 15.8438 226.977 16.2344 225.836 16.2344C225.367 16.2344 224.922 16.1484 224.5 15.9766C223.453 15.5391 222.93 14.7266 222.93 13.5391C222.93 13.1953 222.977 12.875 223.07 12.5781C223.602 11.0469 225.703 10.2812 229.375 10.2812V8.80469C229.328 7.28906 228.57 6.48438 227.102 6.39062C226.477 6.39062 226.016 6.58594 225.719 6.97656C225.641 7.08594 225.492 7.42969 225.273 8.00781C225.102 8.46094 224.836 8.6875 224.477 8.6875C224.398 8.6875 224.32 8.67969 224.242 8.66406C223.789 8.58594 223.562 8.30469 223.562 7.82031C223.562 7.55469 223.656 7.28906 223.844 7.02344C224.438 6.21094 225.609 5.80469 227.359 5.80469C227.5 5.80469 227.641 5.80469 227.781 5.80469C230.016 5.92969 231.133 7.10938 231.133 9.34375V14.2891C231.148 15.0703 231.359 15.4766 231.766 15.5078C232.266 15.4922 232.57 14.9141 232.68 13.7734L233.289 13.7969C233.289 13.875 233.281 13.9609 233.266 14.0547C233.141 15.5078 232.477 16.2344 231.273 16.2344ZM226.609 15.2969C226.953 15.2969 227.305 15.2188 227.664 15.0625C228.57 14.625 229.141 13.8672 229.375 12.7891V10.9141C228.156 10.9297 227.227 11.0078 226.586 11.1484C225.383 11.4297 224.781 12.0938 224.781 13.1406C224.781 13.4062 224.805 13.6484 224.852 13.8672C225.07 14.8203 225.656 15.2969 226.609 15.2969ZM243.25 15.4141C243.328 15.4141 243.406 15.4219 243.484 15.4375C243.719 15.4844 243.836 15.6719 243.836 16H238.68V15.4141C239.211 15.4141 239.594 15.375 239.828 15.2969C240.234 15.1562 240.438 14.7266 240.438 14.0078V6.625H238.68V6.03906H242.078L242.172 8.38281C242.328 7.96094 242.539 7.57812 242.805 7.23438C243.539 6.28125 244.469 5.80469 245.594 5.80469C245.891 5.80469 246.18 5.85938 246.461 5.96875C247.414 6.32812 248.031 7.125 248.312 8.35938C248.438 8.04688 248.594 7.75 248.781 7.46875C249.5 6.35938 250.453 5.80469 251.641 5.80469C252.188 5.80469 252.695 5.94531 253.164 6.22656C254.211 6.86719 254.734 7.99219 254.734 9.60156V15.4141H255.93C256.023 15.4141 256.102 15.4219 256.164 15.4375C256.398 15.4688 256.516 15.6562 256.516 16H251.336V15.4141C251.867 15.4141 252.242 15.375 252.461 15.2969C252.805 15.1562 252.977 14.7266 252.977 14.0078V9.36719C252.977 8.86719 252.898 8.42188 252.742 8.03125C252.414 7.20312 251.852 6.78906 251.055 6.78906C250.758 6.78906 250.445 6.86719 250.117 7.02344C249.258 7.47656 248.703 8.27344 248.453 9.41406V9.60156V15.4141H249.508C249.602 15.4141 249.68 15.4219 249.742 15.4375C249.977 15.4688 250.094 15.6562 250.094 16H245.055V15.4141C245.586 15.4141 245.961 15.375 246.18 15.2969C246.523 15.1562 246.695 14.7266 246.695 14.0078V9.36719C246.695 8.89844 246.633 8.47656 246.508 8.10156C246.211 7.24219 245.672 6.8125 244.891 6.8125C244.469 6.8125 244.047 6.96875 243.625 7.28125C242.719 7.95312 242.242 8.97656 242.195 10.3516V15.4141H243.25ZM260.031 11.0078C260.031 11.6797 260.086 12.2891 260.195 12.8359C260.602 14.7109 261.594 15.6484 263.172 15.6484C263.469 15.6484 263.758 15.6094 264.039 15.5312C265.477 15.0781 266.195 13.5391 266.195 10.9141C266.195 10.4609 266.172 10.0469 266.125 9.67188C265.844 7.48438 264.836 6.39062 263.102 6.39062C262.727 6.39062 262.367 6.45312 262.023 6.57812C260.695 7.10938 260.031 8.58594 260.031 11.0078ZM263.172 5.80469C264.203 5.80469 265.148 6.07812 266.008 6.625C267.461 7.57812 268.188 9.03906 268.188 11.0078C268.188 12.4609 267.734 13.6719 266.828 14.6406C265.844 15.7031 264.602 16.2344 263.102 16.2344C262.039 16.2344 261.07 15.9375 260.195 15.3438C258.758 14.3594 258.039 12.8828 258.039 10.9141C258.039 9.49219 258.5 8.30469 259.422 7.35156C260.422 6.32031 261.672 5.80469 263.172 5.80469ZM274.68 15.4141C274.773 15.4141 274.852 15.4219 274.914 15.4375C275.148 15.4688 275.266 15.6562 275.266 16H269.898V15.4141C270.43 15.4141 270.812 15.375 271.047 15.2969C271.453 15.1562 271.656 14.7266 271.656 14.0078V1.35156H269.898V0.765625H273.414V15.4141H274.68ZM284.828 16L284.641 13.5156C283.875 15.2969 282.641 16.2031 280.938 16.2344C280.109 16.2344 279.352 15.9922 278.664 15.5078C277.445 14.6172 276.836 13.2031 276.836 11.2656C276.836 10.0938 277.102 9.03906 277.633 8.10156C278.508 6.57031 279.805 5.80469 281.523 5.80469C282.82 5.80469 283.852 6.22656 284.617 7.07031V1.35156H282.391V0.765625H286.375L286.422 15.4141H287.594C287.688 15.4141 287.766 15.4219 287.828 15.4375C288.062 15.4688 288.18 15.6562 288.18 16H284.828ZM278.828 10.9844C278.828 11.7188 278.906 12.375 279.062 12.9531C279.453 14.5156 280.289 15.2969 281.57 15.2969C282.211 15.2969 282.781 15.0703 283.281 14.6172C284.219 13.7734 284.688 12.4141 284.688 10.5391C284.688 9.64844 284.555 8.875 284.289 8.21875C283.805 7 282.992 6.39062 281.852 6.39062C281.398 6.39062 280.984 6.49219 280.609 6.69531C279.422 7.35156 278.828 8.78125 278.828 10.9844ZM294.578 6.39062C294.172 6.39062 293.789 6.48438 293.43 6.67188C292.336 7.21875 291.75 8.39062 291.672 10.1875L294.156 10.2578C294.875 10.2734 295.43 10.2422 295.82 10.1641C296.57 9.99219 296.945 9.51562 296.945 8.73438C296.945 8.39062 296.883 8.07031 296.758 7.77344C296.398 6.85156 295.672 6.39062 294.578 6.39062ZM298.656 13.75C298.562 13.9688 298.453 14.1875 298.328 14.4062C297.531 15.625 296.289 16.2344 294.602 16.2344C293.539 16.2344 292.594 15.9609 291.766 15.4141C290.375 14.4766 289.68 13.0391 289.68 11.1016C289.68 10.0391 289.898 9.08594 290.336 8.24219C291.18 6.61719 292.578 5.80469 294.531 5.80469C295.531 5.80469 296.414 6.03125 297.18 6.48438C298.258 7.10938 298.797 7.95312 298.797 9.01562C298.797 9.59375 298.586 10.0391 298.164 10.3516C297.617 10.7422 296.391 10.9219 294.484 10.8906L291.672 10.8438C291.688 11.5 291.758 12.1016 291.883 12.6484C292.305 14.6016 293.336 15.5781 294.977 15.5781C295.117 15.5781 295.266 15.5703 295.422 15.5547C296.641 15.3984 297.523 14.7266 298.07 13.5391L298.656 13.75ZM308.781 16.2344C307.688 16.2188 307.047 15.5156 306.859 14.125C306.719 14.4531 306.508 14.7656 306.227 15.0625C305.445 15.8438 304.484 16.2344 303.344 16.2344C302.875 16.2344 302.43 16.1484 302.008 15.9766C300.961 15.5391 300.438 14.7266 300.438 13.5391C300.438 13.1953 300.484 12.875 300.578 12.5781C301.109 11.0469 303.211 10.2812 306.883 10.2812V8.80469C306.836 7.28906 306.078 6.48438 304.609 6.39062C303.984 6.39062 303.523 6.58594 303.227 6.97656C303.148 7.08594 303 7.42969 302.781 8.00781C302.609 8.46094 302.344 8.6875 301.984 8.6875C301.906 8.6875 301.828 8.67969 301.75 8.66406C301.297 8.58594 301.07 8.30469 301.07 7.82031C301.07 7.55469 301.164 7.28906 301.352 7.02344C301.945 6.21094 303.117 5.80469 304.867 5.80469C305.008 5.80469 305.148 5.80469 305.289 5.80469C307.523 5.92969 308.641 7.10938 308.641 9.34375V14.2891C308.656 15.0703 308.867 15.4766 309.273 15.5078C309.773 15.4922 310.078 14.9141 310.188 13.7734L310.797 13.7969C310.797 13.875 310.789 13.9609 310.773 14.0547C310.648 15.5078 309.984 16.2344 308.781 16.2344ZM304.117 15.2969C304.461 15.2969 304.812 15.2188 305.172 15.0625C306.078 14.625 306.648 13.8672 306.883 12.7891V10.9141C305.664 10.9297 304.734 11.0078 304.094 11.1484C302.891 11.4297 302.289 12.0938 302.289 13.1406C302.289 13.4062 302.312 13.6484 302.359 13.8672C302.578 14.8203 303.164 15.2969 304.117 15.2969ZM316.867 15.4141C316.961 15.4141 317.039 15.4219 317.102 15.4375C317.336 15.4688 317.453 15.6562 317.453 16H311.664V15.4141C312.195 15.4141 312.578 15.375 312.812 15.2969C313.219 15.1562 313.422 14.7266 313.422 14.0078V6.625H311.664V6.03906H315.062L315.156 8.35938C315.359 7.89062 315.633 7.46875 315.977 7.09375C316.711 6.29688 317.547 5.89844 318.484 5.89844C318.625 5.89844 318.773 5.91406 318.93 5.94531C319.648 6.10156 320.008 6.53125 320.008 7.23438C320.008 7.32812 319.992 7.42188 319.961 7.51562C319.836 7.96875 319.539 8.19531 319.07 8.19531C318.977 8.19531 318.883 8.17969 318.789 8.14844C318.57 8.08594 318.336 7.83594 318.086 7.39844C317.867 7.00781 317.625 6.8125 317.359 6.8125C317.125 6.82812 316.836 7 316.492 7.32812C315.617 8.1875 315.18 9.32812 315.18 10.75V15.4141H316.867ZM13 36.3906C12.5938 36.3906 12.2109 36.4844 11.8516 36.6719C10.7578 37.2188 10.1719 38.3906 10.0938 40.1875L12.5781 40.2578C13.2969 40.2734 13.8516 40.2422 14.2422 40.1641C14.9922 39.9922 15.3672 39.5156 15.3672 38.7344C15.3672 38.3906 15.3047 38.0703 15.1797 37.7734C14.8203 36.8516 14.0938 36.3906 13 36.3906ZM17.0781 43.75C16.9844 43.9688 16.875 44.1875 16.75 44.4062C15.9531 45.625 14.7109 46.2344 13.0234 46.2344C11.9609 46.2344 11.0156 45.9609 10.1875 45.4141C8.79688 44.4766 8.10156 43.0391 8.10156 41.1016C8.10156 40.0391 8.32031 39.0859 8.75781 38.2422C9.60156 36.6172 11 35.8047 12.9531 35.8047C13.9531 35.8047 14.8359 36.0312 15.6016 36.4844C16.6797 37.1094 17.2188 37.9531 17.2188 39.0156C17.2188 39.5938 17.0078 40.0391 16.5859 40.3516C16.0391 40.7422 14.8125 40.9219 12.9062 40.8906L10.0938 40.8438C10.1094 41.5 10.1797 42.1016 10.3047 42.6484C10.7266 44.6016 11.7578 45.5781 13.3984 45.5781C13.5391 45.5781 13.6875 45.5703 13.8438 45.5547C15.0625 45.3984 15.9453 44.7266 16.4922 43.5391L17.0781 43.75ZM23.5938 45.4141C23.6875 45.4141 23.7656 45.4219 23.8281 45.4375C24.0625 45.4688 24.1797 45.6562 24.1797 46H18.8125V45.4141C19.3438 45.4141 19.7266 45.375 19.9609 45.2969C20.3672 45.1562 20.5703 44.7266 20.5703 44.0078V31.3516H18.8125V30.7656H22.3281V45.4141H23.5938ZM35.2188 36.3906C34.8125 36.3906 34.4297 36.4844 34.0703 36.6719C32.9766 37.2188 32.3906 38.3906 32.3125 40.1875L34.7969 40.2578C35.5156 40.2734 36.0703 40.2422 36.4609 40.1641C37.2109 39.9922 37.5859 39.5156 37.5859 38.7344C37.5859 38.3906 37.5234 38.0703 37.3984 37.7734C37.0391 36.8516 36.3125 36.3906 35.2188 36.3906ZM39.2969 43.75C39.2031 43.9688 39.0938 44.1875 38.9688 44.4062C38.1719 45.625 36.9297 46.2344 35.2422 46.2344C34.1797 46.2344 33.2344 45.9609 32.4062 45.4141C31.0156 44.4766 30.3203 43.0391 30.3203 41.1016C30.3203 40.0391 30.5391 39.0859 30.9766 38.2422C31.8203 36.6172 33.2188 35.8047 35.1719 35.8047C36.1719 35.8047 37.0547 36.0312 37.8203 36.4844C38.8984 37.1094 39.4375 37.9531 39.4375 39.0156C39.4375 39.5938 39.2266 40.0391 38.8047 40.3516C38.2578 40.7422 37.0312 40.9219 35.125 40.8906L32.3125 40.8438C32.3281 41.5 32.3984 42.1016 32.5234 42.6484C32.9453 44.6016 33.9766 45.5781 35.6172 45.5781C35.7578 45.5781 35.9062 45.5703 36.0625 45.5547C37.2812 45.3984 38.1641 44.7266 38.7109 43.5391L39.2969 43.75ZM44.7109 45.6016C45.7891 45.6016 46.5156 45.2734 46.8906 44.6172C47.0312 44.3828 47.1016 44.125 47.1016 43.8438C47.1016 43.1875 46.625 42.625 45.6719 42.1562C45.4688 42.0469 45.1328 41.8906 44.6641 41.6875C43.3828 41.1562 42.5312 40.6562 42.1094 40.1875C41.6562 39.6719 41.4297 39.0703 41.4297 38.3828C41.4297 37.3047 42.0234 36.5469 43.2109 36.1094C43.7578 35.9062 44.3516 35.8047 44.9922 35.8047C46.0234 35.8047 46.9141 36.0234 47.6641 36.4609C47.6641 36.0078 47.7734 35.75 47.9922 35.6875C48.0859 35.6719 48.1875 35.6641 48.2969 35.6641V38.5938H47.6875C47.6562 37.1562 46.8594 36.4297 45.2969 36.4141C44.125 36.4141 43.3984 36.7578 43.1172 37.4453C43.0391 37.6328 43 37.8281 43 38.0312C43 38.7031 43.4844 39.2734 44.4531 39.7422C44.6719 39.8516 45.0156 40 45.4844 40.1875C46.75 40.7031 47.5938 41.1953 48.0156 41.6641C48.4688 42.1641 48.6953 42.7578 48.6953 43.4453C48.6953 44.7109 48.0234 45.5547 46.6797 45.9766C46.1641 46.1484 45.6016 46.2344 44.9922 46.2344C43.8672 46.2188 42.8906 45.9375 42.0625 45.3906C42.0625 45.7969 41.9609 46.0312 41.7578 46.0938C41.6641 46.1094 41.5547 46.1172 41.4297 46.1172V42.5547H42.0859C42.1172 44.5703 42.9922 45.5859 44.7109 45.6016ZM53.7578 49.8672H55.3984C55.4922 49.8672 55.5703 49.875 55.6328 49.8906C55.8672 49.9219 55.9844 50.1094 55.9844 50.4531H50.2422V49.8672C50.7734 49.8672 51.1562 49.8281 51.3906 49.75C51.7969 49.6094 52 49.1797 52 48.4609V36.625H50.2422V36.0391H53.6172L53.7344 38.5938C53.8594 38.25 54.0156 37.9219 54.2031 37.6094C54.9531 36.4062 56.0859 35.8047 57.6016 35.8047C58.5859 35.8047 59.4219 36.1172 60.1094 36.7422C61.0938 37.6641 61.5859 39.0156 61.5859 40.7969C61.5859 42.3594 61.1328 43.6484 60.2266 44.6641C59.2891 45.7109 58.125 46.2344 56.7344 46.2344C55.6094 46.1719 54.6172 45.7656 53.7578 45.0156V49.8672ZM56.8516 36.7422C56.2891 36.7422 55.7734 36.9141 55.3047 37.2578C54.2578 38.0391 53.7344 39.4453 53.7344 41.4766C53.7344 42.3516 53.8516 43.1094 54.0859 43.75C54.5391 45.0156 55.3672 45.6484 56.5703 45.6484C56.9922 45.6484 57.3828 45.5625 57.7422 45.3906C58.9766 44.7812 59.5938 43.3281 59.5938 41.0312C59.5938 40.3906 59.5391 39.8125 59.4297 39.2969C59.0703 37.5938 58.2109 36.7422 56.8516 36.7422ZM68.1016 45.3906C68.1953 45.3906 68.2812 45.3984 68.3594 45.4141C68.5625 45.4453 68.6641 45.6406 68.6641 46H63.2266V45.3906C64.3828 45.3906 64.9766 44.9844 65.0078 44.1719V36.6484H63.2266V36.0391H66.8828V45.3906H68.1016ZM68.0078 32.3359C67.8359 32.4922 67.5312 32.7109 67.0938 32.9922C65.7656 33.8203 64.9141 34.3828 64.5391 34.6797L64.1641 34.2812C64.5547 33.8594 64.9766 33.2969 65.4297 32.5938C66.0547 31.6094 66.4297 31.0547 66.5547 30.9297C66.7578 30.7422 66.9844 30.6406 67.2344 30.625C67.375 30.625 67.5234 30.6641 67.6797 30.7422C68.1016 30.9609 68.3125 31.2734 68.3125 31.6797C68.2969 31.8984 68.1953 32.1172 68.0078 32.3359ZM75.2031 45.4141C75.2969 45.4141 75.375 45.4219 75.4375 45.4375C75.6719 45.4688 75.7891 45.6562 75.7891 46H70V45.4141C70.5312 45.4141 70.9141 45.375 71.1484 45.2969C71.5547 45.1562 71.7578 44.7266 71.7578 44.0078V36.625H70V36.0391H73.3984L73.4922 38.3594C73.6953 37.8906 73.9688 37.4688 74.3125 37.0938C75.0469 36.2969 75.8828 35.8984 76.8203 35.8984C76.9609 35.8984 77.1094 35.9141 77.2656 35.9453C77.9844 36.1016 78.3438 36.5312 78.3438 37.2344C78.3438 37.3281 78.3281 37.4219 78.2969 37.5156C78.1719 37.9688 77.875 38.1953 77.4062 38.1953C77.3125 38.1953 77.2188 38.1797 77.125 38.1484C76.9062 38.0859 76.6719 37.8359 76.4219 37.3984C76.2031 37.0078 75.9609 36.8125 75.6953 36.8125C75.4609 36.8281 75.1719 37 74.8281 37.3281C73.9531 38.1875 73.5156 39.3281 73.5156 40.75V45.4141H75.2031ZM83.9688 45.4141C84.0469 45.4141 84.125 45.4219 84.2031 45.4375C84.4375 45.4688 84.5547 45.6562 84.5547 46H79.1641V45.4141C79.6953 45.4141 80.0781 45.3828 80.3125 45.3203C80.7969 45.1641 81.0391 44.7266 81.0391 44.0078V36.625H79.1641V36.0391H82.7969V45.4141H83.9688ZM83.0781 32.6172C83.0781 32.8047 83.0391 32.9844 82.9609 33.1562C82.7422 33.6562 82.3594 33.9062 81.8125 33.9062C81.6406 33.9062 81.4688 33.875 81.2969 33.8125C80.7812 33.5938 80.5234 33.1953 80.5234 32.6172C80.5234 32.4297 80.5625 32.25 80.6406 32.0781C80.875 31.5781 81.2656 31.3281 81.8125 31.3281C81.9844 31.3281 82.1641 31.3672 82.3516 31.4453C82.8359 31.6797 83.0781 32.0703 83.0781 32.6172ZM85.7266 36.625V36.0391H87.3672V33.8125L89.125 33.3203V36.0391H92.7578V36.625H89.125V43.75C89.1406 44.9219 89.5703 45.5234 90.4141 45.5547C91.1641 45.4453 91.7344 44.7422 92.125 43.4453L92.7578 43.5625C92.7578 43.5781 92.7578 43.5938 92.7578 43.6094C92.3984 45.375 91.5 46.2578 90.0625 46.2578C88.375 46.1953 87.4766 45.1875 87.3672 43.2344V36.625H85.7266ZM104.945 45.4141C105.039 45.4141 105.117 45.4219 105.18 45.4375C105.414 45.4688 105.531 45.6562 105.531 46H102.227L102.062 43.6094C101.891 44.0469 101.664 44.4453 101.383 44.8047C100.633 45.7578 99.6719 46.2344 98.5 46.2344C96.2812 46.2188 95.1641 44.875 95.1484 42.2031V36.625H93.3438V36.0391H96.9062V42.5547C96.9062 42.8047 96.9219 43.0391 96.9531 43.2578C97.1562 44.5703 97.8984 45.2266 99.1797 45.2266C99.6484 45.2266 100.102 45.0781 100.539 44.7812C101.523 44.125 102.016 43.0938 102.016 41.6875V36.625H100.094V36.0391H103.773V45.4141H104.945ZM116.289 45.4141C116.383 45.4141 116.461 45.4219 116.523 45.4375C116.758 45.4688 116.875 45.6562 116.875 46H111.508V45.4141C112.039 45.4141 112.422 45.375 112.656 45.2969C113.062 45.1562 113.266 44.7266 113.266 44.0078V31.3516H111.508V30.7656H115.023V45.4141H116.289ZM123.016 45.4141C123.094 45.4141 123.172 45.4219 123.25 45.4375C123.484 45.4688 123.602 45.6562 123.602 46H118.211V45.4141C118.742 45.4141 119.125 45.3828 119.359 45.3203C119.844 45.1641 120.086 44.7266 120.086 44.0078V36.625H118.211V36.0391H121.844V45.4141H123.016ZM122.125 32.6172C122.125 32.8047 122.086 32.9844 122.008 33.1562C121.789 33.6562 121.406 33.9062 120.859 33.9062C120.688 33.9062 120.516 33.875 120.344 33.8125C119.828 33.5938 119.57 33.1953 119.57 32.6172C119.57 32.4297 119.609 32.25 119.688 32.0781C119.922 31.5781 120.312 31.3281 120.859 31.3281C121.031 31.3281 121.211 31.3672 121.398 31.4453C121.883 31.6797 122.125 32.0703 122.125 32.6172ZM131.477 46.2344C131.367 46.2344 131.25 46.2266 131.125 46.2109C129.766 46.1172 128.75 45.5312 128.078 44.4531L127.867 46H124.914V45.4141C125.445 45.4141 125.828 45.375 126.062 45.2969C126.469 45.1562 126.672 44.7266 126.672 44.0078V31.3516H124.914V30.7656H128.43V38.5234C128.477 38.3828 128.539 38.2422 128.617 38.1016C129.336 36.5703 130.547 35.8047 132.25 35.8047C133.281 35.8047 134.148 36.1562 134.852 36.8594C135.789 37.8281 136.258 39.1719 136.258 40.8906C136.258 42.4219 135.82 43.6875 134.945 44.6875C134.008 45.7188 132.852 46.2344 131.477 46.2344ZM131.523 36.7422C130.883 36.7422 130.312 36.9609 129.812 37.3984C128.875 38.2422 128.406 39.6094 128.406 41.5C128.406 42.3594 128.523 43.1172 128.758 43.7734C129.242 45.0234 130.07 45.6484 131.242 45.6484C131.695 45.6484 132.109 45.5469 132.484 45.3438C133.672 44.6875 134.266 43.2578 134.266 41.0547C134.266 40.3203 134.188 39.6641 134.031 39.0859C133.641 37.5234 132.805 36.7422 131.523 36.7422ZM143.148 45.4141C143.242 45.4141 143.32 45.4219 143.383 45.4375C143.617 45.4688 143.734 45.6562 143.734 46H137.945V45.4141C138.477 45.4141 138.859 45.375 139.094 45.2969C139.5 45.1562 139.703 44.7266 139.703 44.0078V36.625H137.945V36.0391H141.344L141.438 38.3594C141.641 37.8906 141.914 37.4688 142.258 37.0938C142.992 36.2969 143.828 35.8984 144.766 35.8984C144.906 35.8984 145.055 35.9141 145.211 35.9453C145.93 36.1016 146.289 36.5312 146.289 37.2344C146.289 37.3281 146.273 37.4219 146.242 37.5156C146.117 37.9688 145.82 38.1953 145.352 38.1953C145.258 38.1953 145.164 38.1797 145.07 38.1484C144.852 38.0859 144.617 37.8359 144.367 37.3984C144.148 37.0078 143.906 36.8125 143.641 36.8125C143.406 36.8281 143.117 37 142.773 37.3281C141.898 38.1875 141.461 39.3281 141.461 40.75V45.4141H143.148ZM152.242 36.3906C151.836 36.3906 151.453 36.4844 151.094 36.6719C150 37.2188 149.414 38.3906 149.336 40.1875L151.82 40.2578C152.539 40.2734 153.094 40.2422 153.484 40.1641C154.234 39.9922 154.609 39.5156 154.609 38.7344C154.609 38.3906 154.547 38.0703 154.422 37.7734C154.062 36.8516 153.336 36.3906 152.242 36.3906ZM156.32 43.75C156.227 43.9688 156.117 44.1875 155.992 44.4062C155.195 45.625 153.953 46.2344 152.266 46.2344C151.203 46.2344 150.258 45.9609 149.43 45.4141C148.039 44.4766 147.344 43.0391 147.344 41.1016C147.344 40.0391 147.562 39.0859 148 38.2422C148.844 36.6172 150.242 35.8047 152.195 35.8047C153.195 35.8047 154.078 36.0312 154.844 36.4844C155.922 37.1094 156.461 37.9531 156.461 39.0156C156.461 39.5938 156.25 40.0391 155.828 40.3516C155.281 40.7422 154.055 40.9219 152.148 40.8906L149.336 40.8438C149.352 41.5 149.422 42.1016 149.547 42.6484C149.969 44.6016 151 45.5781 152.641 45.5781C152.781 45.5781 152.93 45.5703 153.086 45.5547C154.305 45.3984 155.188 44.7266 155.734 43.5391L156.32 43.75ZM170.781 46L170.594 43.5156C169.828 45.2969 168.594 46.2031 166.891 46.2344C166.062 46.2344 165.305 45.9922 164.617 45.5078C163.398 44.6172 162.789 43.2031 162.789 41.2656C162.789 40.0938 163.055 39.0391 163.586 38.1016C164.461 36.5703 165.758 35.8047 167.477 35.8047C168.773 35.8047 169.805 36.2266 170.57 37.0703V31.3516H168.344V30.7656H172.328L172.375 45.4141H173.547C173.641 45.4141 173.719 45.4219 173.781 45.4375C174.016 45.4688 174.133 45.6562 174.133 46H170.781ZM164.781 40.9844C164.781 41.7188 164.859 42.375 165.016 42.9531C165.406 44.5156 166.242 45.2969 167.523 45.2969C168.164 45.2969 168.734 45.0703 169.234 44.6172C170.172 43.7734 170.641 42.4141 170.641 40.5391C170.641 39.6484 170.508 38.875 170.242 38.2188C169.758 37 168.945 36.3906 167.805 36.3906C167.352 36.3906 166.938 36.4922 166.562 36.6953C165.375 37.3516 164.781 38.7812 164.781 40.9844ZM180.531 36.3906C180.125 36.3906 179.742 36.4844 179.383 36.6719C178.289 37.2188 177.703 38.3906 177.625 40.1875L180.109 40.2578C180.828 40.2734 181.383 40.2422 181.773 40.1641C182.523 39.9922 182.898 39.5156 182.898 38.7344C182.898 38.3906 182.836 38.0703 182.711 37.7734C182.352 36.8516 181.625 36.3906 180.531 36.3906ZM184.609 43.75C184.516 43.9688 184.406 44.1875 184.281 44.4062C183.484 45.625 182.242 46.2344 180.555 46.2344C179.492 46.2344 178.547 45.9609 177.719 45.4141C176.328 44.4766 175.633 43.0391 175.633 41.1016C175.633 40.0391 175.852 39.0859 176.289 38.2422C177.133 36.6172 178.531 35.8047 180.484 35.8047C181.484 35.8047 182.367 36.0312 183.133 36.4844C184.211 37.1094 184.75 37.9531 184.75 39.0156C184.75 39.5938 184.539 40.0391 184.117 40.3516C183.57 40.7422 182.344 40.9219 180.438 40.8906L177.625 40.8438C177.641 41.5 177.711 42.1016 177.836 42.6484C178.258 44.6016 179.289 45.5781 180.93 45.5781C181.07 45.5781 181.219 45.5703 181.375 45.5547C182.594 45.3984 183.477 44.7266 184.023 43.5391L184.609 43.75ZM191.125 45.4141C191.219 45.4141 191.297 45.4219 191.359 45.4375C191.594 45.4688 191.711 45.6562 191.711 46H186.344V45.4141C186.875 45.4141 187.258 45.375 187.492 45.2969C187.898 45.1562 188.102 44.7266 188.102 44.0078V31.3516H186.344V30.7656H189.859V45.4141H191.125ZM201.531 36.625H199.891L202.891 44.6172L205.867 36.625H204.109V36.0391H207.719C207.719 36.1172 207.711 36.1953 207.695 36.2734C207.664 36.5078 207.477 36.625 207.133 36.625C207.07 36.625 207 36.6328 206.922 36.6484C206.656 36.6953 206.43 36.9609 206.242 37.4453L202.938 46.1172H202.633C202.352 46.1172 202.117 46.0781 201.93 46C201.555 45.8594 201.211 45.3516 200.898 44.4766L198.039 36.625H196.984V36.0391H201.531V36.625ZM213.297 45.4141C213.375 45.4141 213.453 45.4219 213.531 45.4375C213.766 45.4688 213.883 45.6562 213.883 46H208.492V45.4141C209.023 45.4141 209.406 45.3828 209.641 45.3203C210.125 45.1641 210.367 44.7266 210.367 44.0078V36.625H208.492V36.0391H212.125V45.4141H213.297ZM212.406 32.6172C212.406 32.8047 212.367 32.9844 212.289 33.1562C212.07 33.6562 211.688 33.9062 211.141 33.9062C210.969 33.9062 210.797 33.875 210.625 33.8125C210.109 33.5938 209.852 33.1953 209.852 32.6172C209.852 32.4297 209.891 32.25 209.969 32.0781C210.203 31.5781 210.594 31.3281 211.141 31.3281C211.312 31.3281 211.492 31.3672 211.68 31.4453C212.164 31.6797 212.406 32.0703 212.406 32.6172ZM219.859 45.4141C219.953 45.4141 220.031 45.4219 220.094 45.4375C220.328 45.4688 220.445 45.6562 220.445 46H215.289V45.4141C215.82 45.4141 216.203 45.375 216.438 45.2969C216.844 45.1562 217.047 44.7266 217.047 44.0078V36.625H215.289V36.0391H218.688L218.781 38.3828C218.953 37.9453 219.18 37.5469 219.461 37.1875C220.211 36.2656 221.164 35.8047 222.32 35.8047C222.898 35.8047 223.438 35.9531 223.938 36.25C225.016 36.9219 225.555 38.0391 225.555 39.6016V45.4141H226.727C226.82 45.4141 226.898 45.4219 226.961 45.4375C227.195 45.4688 227.312 45.6562 227.312 46H222.039V45.4141C222.57 45.4141 222.953 45.375 223.188 45.2969C223.594 45.1562 223.797 44.7266 223.797 44.0078V39.3672C223.797 38.9141 223.727 38.5078 223.586 38.1484C223.242 37.2578 222.594 36.8125 221.641 36.8125C221.203 36.8125 220.773 36.9453 220.352 37.2109C219.367 37.8516 218.852 38.8984 218.805 40.3516V45.4141H219.859ZM220.094 31.1641C219.062 31.1797 218.367 32.0156 218.008 33.6719L218.477 33.7891C218.492 33.7109 218.516 33.6328 218.547 33.5547C218.781 32.8203 219.172 32.4531 219.719 32.4531C220.047 32.4531 220.484 32.6641 221.031 33.0859C221.656 33.5859 222.203 33.8359 222.672 33.8359C223.719 33.8203 224.422 32.9844 224.781 31.3281L224.289 31.2109C224.273 31.2578 224.258 31.3047 224.242 31.3516C224.008 32.1484 223.602 32.5469 223.023 32.5469C222.727 32.5469 222.305 32.3359 221.758 31.9141C221.117 31.4141 220.562 31.1641 220.094 31.1641ZM233.734 36.3906C233.328 36.3906 232.945 36.4844 232.586 36.6719C231.492 37.2188 230.906 38.3906 230.828 40.1875L233.312 40.2578C234.031 40.2734 234.586 40.2422 234.977 40.1641C235.727 39.9922 236.102 39.5156 236.102 38.7344C236.102 38.3906 236.039 38.0703 235.914 37.7734C235.555 36.8516 234.828 36.3906 233.734 36.3906ZM237.812 43.75C237.719 43.9688 237.609 44.1875 237.484 44.4062C236.688 45.625 235.445 46.2344 233.758 46.2344C232.695 46.2344 231.75 45.9609 230.922 45.4141C229.531 44.4766 228.836 43.0391 228.836 41.1016C228.836 40.0391 229.055 39.0859 229.492 38.2422C230.336 36.6172 231.734 35.8047 233.688 35.8047C234.688 35.8047 235.57 36.0312 236.336 36.4844C237.414 37.1094 237.953 37.9531 237.953 39.0156C237.953 39.5938 237.742 40.0391 237.32 40.3516C236.773 40.7422 235.547 40.9219 233.641 40.8906L230.828 40.8438C230.844 41.5 230.914 42.1016 231.039 42.6484C231.461 44.6016 232.492 45.5781 234.133 45.5781C234.273 45.5781 234.422 45.5703 234.578 45.5547C235.797 45.3984 236.68 44.7266 237.227 43.5391L237.812 43.75ZM247.703 46L247.516 43.5156C246.75 45.2969 245.516 46.2031 243.812 46.2344C242.984 46.2344 242.227 45.9922 241.539 45.5078C240.32 44.6172 239.711 43.2031 239.711 41.2656C239.711 40.0938 239.977 39.0391 240.508 38.1016C241.383 36.5703 242.68 35.8047 244.398 35.8047C245.695 35.8047 246.727 36.2266 247.492 37.0703V31.3516H245.266V30.7656H249.25L249.297 45.4141H250.469C250.562 45.4141 250.641 45.4219 250.703 45.4375C250.938 45.4688 251.055 45.6562 251.055 46H247.703ZM241.703 40.9844C241.703 41.7188 241.781 42.375 241.938 42.9531C242.328 44.5156 243.164 45.2969 244.445 45.2969C245.086 45.2969 245.656 45.0703 246.156 44.6172C247.094 43.7734 247.562 42.4141 247.562 40.5391C247.562 39.6484 247.43 38.875 247.164 38.2188C246.68 37 245.867 36.3906 244.727 36.3906C244.273 36.3906 243.859 36.4922 243.484 36.6953C242.297 37.3516 241.703 38.7812 241.703 40.9844ZM254.547 41.0078C254.547 41.6797 254.602 42.2891 254.711 42.8359C255.117 44.7109 256.109 45.6484 257.688 45.6484C257.984 45.6484 258.273 45.6094 258.555 45.5312C259.992 45.0781 260.711 43.5391 260.711 40.9141C260.711 40.4609 260.688 40.0469 260.641 39.6719C260.359 37.4844 259.352 36.3906 257.617 36.3906C257.242 36.3906 256.883 36.4531 256.539 36.5781C255.211 37.1094 254.547 38.5859 254.547 41.0078ZM257.688 35.8047C258.719 35.8047 259.664 36.0781 260.523 36.625C261.977 37.5781 262.703 39.0391 262.703 41.0078C262.703 42.4609 262.25 43.6719 261.344 44.6406C260.359 45.7031 259.117 46.2344 257.617 46.2344C256.555 46.2344 255.586 45.9375 254.711 45.3438C253.273 44.3594 252.555 42.8828 252.555 40.9141C252.555 39.4922 253.016 38.3047 253.938 37.3516C254.938 36.3203 256.188 35.8047 257.688 35.8047ZM270.625 49.7266C270.844 49.7266 271.062 49.6797 271.281 49.5859C272.047 49.2578 272.867 48.0625 273.742 46L269.523 36.6484H268.375V36.0391H272.945V36.6484H271.375L274.586 44.1484L277.586 36.6484H275.875V36.0391H279.438C279.438 36.1797 279.422 36.2969 279.391 36.3906C279.344 36.5625 279.164 36.6484 278.852 36.6484C278.711 36.6484 278.586 36.6641 278.477 36.6953C278.289 36.7578 278.117 37.0078 277.961 37.4453L274.492 46C274.148 46.8438 273.789 47.5703 273.414 48.1797C272.508 49.6953 271.438 50.4531 270.203 50.4531C269.859 50.4531 269.531 50.3906 269.219 50.2656C268.531 50 268.188 49.5703 268.188 48.9766C268.188 48.9297 268.195 48.875 268.211 48.8125C268.289 48.375 268.578 48.1562 269.078 48.1562C269.266 48.1562 269.43 48.2031 269.57 48.2969C269.727 48.4062 269.891 48.6953 270.062 49.1641C270.188 49.5391 270.375 49.7266 270.625 49.7266ZM283.141 45.1328C283.109 46.1953 282.617 47.2422 281.664 48.2734L281.172 47.9219C281.844 47.2188 282.188 46.6562 282.203 46.2344C282.188 46.0625 282.008 45.9297 281.664 45.8359C281.617 45.8203 281.555 45.8047 281.477 45.7891C280.977 45.6016 280.727 45.2578 280.727 44.7578C280.727 44.6016 280.758 44.4453 280.82 44.2891C281.008 43.8203 281.352 43.5859 281.852 43.5859C281.961 43.5859 282.078 43.6016 282.203 43.6328C282.828 43.7891 283.141 44.2891 283.141 45.1328ZM294.484 36.3906C294.078 36.3906 293.695 36.4844 293.336 36.6719C292.242 37.2188 291.656 38.3906 291.578 40.1875L294.062 40.2578C294.781 40.2734 295.336 40.2422 295.727 40.1641C296.477 39.9922 296.852 39.5156 296.852 38.7344C296.852 38.3906 296.789 38.0703 296.664 37.7734C296.305 36.8516 295.578 36.3906 294.484 36.3906ZM298.562 43.75C298.469 43.9688 298.359 44.1875 298.234 44.4062C297.438 45.625 296.195 46.2344 294.508 46.2344C293.445 46.2344 292.5 45.9609 291.672 45.4141C290.281 44.4766 289.586 43.0391 289.586 41.1016C289.586 40.0391 289.805 39.0859 290.242 38.2422C291.086 36.6172 292.484 35.8047 294.438 35.8047C295.438 35.8047 296.32 36.0312 297.086 36.4844C298.164 37.1094 298.703 37.9531 298.703 39.0156C298.703 39.5938 298.492 40.0391 298.07 40.3516C297.523 40.7422 296.297 40.9219 294.391 40.8906L291.578 40.8438C291.594 41.5 291.664 42.1016 291.789 42.6484C292.211 44.6016 293.242 45.5781 294.883 45.5781C295.023 45.5781 295.172 45.5703 295.328 45.5547C296.547 45.3984 297.43 44.7266 297.977 43.5391L298.562 43.75ZM304.797 45.4141C304.891 45.4141 304.969 45.4219 305.031 45.4375C305.266 45.4688 305.383 45.6562 305.383 46H300.227V45.4141C300.758 45.4141 301.141 45.375 301.375 45.2969C301.781 45.1562 301.984 44.7266 301.984 44.0078V36.625H300.227V36.0391H303.625L303.719 38.3828C303.891 37.9453 304.117 37.5469 304.398 37.1875C305.148 36.2656 306.102 35.8047 307.258 35.8047C307.836 35.8047 308.375 35.9531 308.875 36.25C309.953 36.9219 310.492 38.0391 310.492 39.6016V45.4141H311.664C311.758 45.4141 311.836 45.4219 311.898 45.4375C312.133 45.4688 312.25 45.6562 312.25 46H306.977V45.4141C307.508 45.4141 307.891 45.375 308.125 45.2969C308.531 45.1562 308.734 44.7266 308.734 44.0078V39.3672C308.734 38.9141 308.664 38.5078 308.523 38.1484C308.18 37.2578 307.531 36.8125 306.578 36.8125C306.141 36.8125 305.711 36.9453 305.289 37.2109C304.305 37.8516 303.789 38.8984 303.742 40.3516V45.4141H304.797ZM9.78906 71.0078C9.78906 71.6797 9.84375 72.2891 9.95312 72.8359C10.3594 74.7109 11.3516 75.6484 12.9297 75.6484C13.2266 75.6484 13.5156 75.6094 13.7969 75.5312C15.2344 75.0781 15.9531 73.5391 15.9531 70.9141C15.9531 70.4609 15.9297 70.0469 15.8828 69.6719C15.6016 67.4844 14.5938 66.3906 12.8594 66.3906C12.4844 66.3906 12.125 66.4531 11.7812 66.5781C10.4531 67.1094 9.78906 68.5859 9.78906 71.0078ZM12.9297 65.8047C13.9609 65.8047 14.9062 66.0781 15.7656 66.625C17.2188 67.5781 17.9453 69.0391 17.9453 71.0078C17.9453 72.4609 17.4922 73.6719 16.5859 74.6406C15.6016 75.7031 14.3594 76.2344 12.8594 76.2344C11.7969 76.2344 10.8281 75.9375 9.95312 75.3438C8.51562 74.3594 7.79688 72.8828 7.79688 70.9141C7.79688 69.4922 8.25781 68.3047 9.17969 67.3516C10.1797 66.3203 11.4297 65.8047 12.9297 65.8047ZM19.8203 71.125C19.8203 70.0938 20.0156 69.1719 20.4062 68.3594C21.2344 66.6562 22.6953 65.8047 24.7891 65.8047C25.6328 65.8047 26.4141 65.9844 27.1328 66.3438C28.1484 66.8594 28.6562 67.5156 28.6562 68.3125C28.6562 68.4062 28.6406 68.5078 28.6094 68.6172C28.4688 69.0859 28.1328 69.3047 27.6016 69.2734C27.4141 69.2578 27.2422 69.2109 27.0859 69.1328C26.8359 68.9766 26.6641 68.5859 26.5703 67.9609C26.5234 67.6953 26.4844 67.5 26.4531 67.375C26.2812 66.7188 25.7734 66.3906 24.9297 66.3906C24.3828 66.3906 23.8828 66.5312 23.4297 66.8125C22.3516 67.5 21.8125 68.8672 21.8125 70.9141C21.8125 72.0703 22.0469 73.0703 22.5156 73.9141C23.1406 75.0234 24.0078 75.5781 25.1172 75.5781C25.2422 75.5781 25.3672 75.5703 25.4922 75.5547C26.8203 75.4297 27.7734 74.75 28.3516 73.5156L28.9609 73.7266C28.8516 73.9922 28.7031 74.2578 28.5156 74.5234C27.6875 75.6641 26.4609 76.2344 24.8359 76.2344C23.7422 76.2344 22.7656 75.9453 21.9062 75.3672C20.5156 74.4297 19.8203 73.0156 19.8203 71.125ZM38.2422 76.2344C37.1484 76.2188 36.5078 75.5156 36.3203 74.125C36.1797 74.4531 35.9688 74.7656 35.6875 75.0625C34.9062 75.8438 33.9453 76.2344 32.8047 76.2344C32.3359 76.2344 31.8906 76.1484 31.4688 75.9766C30.4219 75.5391 29.8984 74.7266 29.8984 73.5391C29.8984 73.1953 29.9453 72.875 30.0391 72.5781C30.5703 71.0469 32.6719 70.2812 36.3438 70.2812V68.8047C36.2969 67.2891 35.5391 66.4844 34.0703 66.3906C33.4453 66.3906 32.9844 66.5859 32.6875 66.9766C32.6094 67.0859 32.4609 67.4297 32.2422 68.0078C32.0703 68.4609 31.8047 68.6875 31.4453 68.6875C31.3672 68.6875 31.2891 68.6797 31.2109 68.6641C30.7578 68.5859 30.5312 68.3047 30.5312 67.8203C30.5312 67.5547 30.625 67.2891 30.8125 67.0234C31.4062 66.2109 32.5781 65.8047 34.3281 65.8047C34.4688 65.8047 34.6094 65.8047 34.75 65.8047C36.9844 65.9297 38.1016 67.1094 38.1016 69.3438V74.2891C38.1172 75.0703 38.3281 75.4766 38.7344 75.5078C39.2344 75.4922 39.5391 74.9141 39.6484 73.7734L40.2578 73.7969C40.2578 73.875 40.25 73.9609 40.2344 74.0547C40.1094 75.5078 39.4453 76.2344 38.2422 76.2344ZM33.5781 75.2969C33.9219 75.2969 34.2734 75.2188 34.6328 75.0625C35.5391 74.625 36.1094 73.8672 36.3438 72.7891V70.9141C35.125 70.9297 34.1953 71.0078 33.5547 71.1484C32.3516 71.4297 31.75 72.0938 31.75 73.1406C31.75 73.4062 31.7734 73.6484 31.8203 73.8672C32.0391 74.8203 32.625 75.2969 33.5781 75.2969ZM44.8281 75.6016C45.9062 75.6016 46.6328 75.2734 47.0078 74.6172C47.1484 74.3828 47.2188 74.125 47.2188 73.8438C47.2188 73.1875 46.7422 72.625 45.7891 72.1562C45.5859 72.0469 45.25 71.8906 44.7812 71.6875C43.5 71.1562 42.6484 70.6562 42.2266 70.1875C41.7734 69.6719 41.5469 69.0703 41.5469 68.3828C41.5469 67.3047 42.1406 66.5469 43.3281 66.1094C43.875 65.9062 44.4688 65.8047 45.1094 65.8047C46.1406 65.8047 47.0312 66.0234 47.7812 66.4609C47.7812 66.0078 47.8906 65.75 48.1094 65.6875C48.2031 65.6719 48.3047 65.6641 48.4141 65.6641V68.5938H47.8047C47.7734 67.1562 46.9766 66.4297 45.4141 66.4141C44.2422 66.4141 43.5156 66.7578 43.2344 67.4453C43.1562 67.6328 43.1172 67.8281 43.1172 68.0312C43.1172 68.7031 43.6016 69.2734 44.5703 69.7422C44.7891 69.8516 45.1328 70 45.6016 70.1875C46.8672 70.7031 47.7109 71.1953 48.1328 71.6641C48.5859 72.1641 48.8125 72.7578 48.8125 73.4453C48.8125 74.7109 48.1406 75.5547 46.7969 75.9766C46.2812 76.1484 45.7188 76.2344 45.1094 76.2344C43.9844 76.2188 43.0078 75.9375 42.1797 75.3906C42.1797 75.7969 42.0781 76.0312 41.875 76.0938C41.7812 76.1094 41.6719 76.1172 41.5469 76.1172V72.5547H42.2031C42.2344 74.5703 43.1094 75.5859 44.8281 75.6016ZM55.2578 75.4141C55.3359 75.4141 55.4141 75.4219 55.4922 75.4375C55.7266 75.4688 55.8438 75.6562 55.8438 76H50.4531V75.4141C50.9844 75.4141 51.3672 75.3828 51.6016 75.3203C52.0859 75.1641 52.3281 74.7266 52.3281 74.0078V66.625H50.4531V66.0391H54.0859V75.4141H55.2578ZM54.3672 62.6172C54.3672 62.8047 54.3281 62.9844 54.25 63.1562C54.0312 63.6562 53.6484 63.9062 53.1016 63.9062C52.9297 63.9062 52.7578 63.875 52.5859 63.8125C52.0703 63.5938 51.8125 63.1953 51.8125 62.6172C51.8125 62.4297 51.8516 62.25 51.9297 62.0781C52.1641 61.5781 52.5547 61.3281 53.1016 61.3281C53.2734 61.3281 53.4531 61.3672 53.6406 61.4453C54.125 61.6797 54.3672 62.0703 54.3672 62.6172ZM59.4766 71.0078C59.4766 71.6797 59.5312 72.2891 59.6406 72.8359C60.0469 74.7109 61.0391 75.6484 62.6172 75.6484C62.9141 75.6484 63.2031 75.6094 63.4844 75.5312C64.9219 75.0781 65.6406 73.5391 65.6406 70.9141C65.6406 70.4609 65.6172 70.0469 65.5703 69.6719C65.2891 67.4844 64.2812 66.3906 62.5469 66.3906C62.1719 66.3906 61.8125 66.4531 61.4688 66.5781C60.1406 67.1094 59.4766 68.5859 59.4766 71.0078ZM62.6172 65.8047C63.6484 65.8047 64.5938 66.0781 65.4531 66.625C66.9062 67.5781 67.6328 69.0391 67.6328 71.0078C67.6328 72.4609 67.1797 73.6719 66.2734 74.6406C65.2891 75.7031 64.0469 76.2344 62.5469 76.2344C61.4844 76.2344 60.5156 75.9375 59.6406 75.3438C58.2031 74.3594 57.4844 72.8828 57.4844 70.9141C57.4844 69.4922 57.9453 68.3047 58.8672 67.3516C59.8672 66.3203 61.1172 65.8047 62.6172 65.8047ZM73.8438 75.4141C73.9375 75.4141 74.0156 75.4219 74.0781 75.4375C74.3125 75.4688 74.4297 75.6562 74.4297 76H69.2734V75.4141C69.8047 75.4141 70.1875 75.375 70.4219 75.2969C70.8281 75.1562 71.0312 74.7266 71.0312 74.0078V66.625H69.2734V66.0391H72.6719L72.7656 68.3828C72.9375 67.9453 73.1641 67.5469 73.4453 67.1875C74.1953 66.2656 75.1484 65.8047 76.3047 65.8047C76.8828 65.8047 77.4219 65.9531 77.9219 66.25C79 66.9219 79.5391 68.0391 79.5391 69.6016V75.4141H80.7109C80.8047 75.4141 80.8828 75.4219 80.9453 75.4375C81.1797 75.4688 81.2969 75.6562 81.2969 76H76.0234V75.4141C76.5547 75.4141 76.9375 75.375 77.1719 75.2969C77.5781 75.1562 77.7812 74.7266 77.7812 74.0078V69.3672C77.7812 68.9141 77.7109 68.5078 77.5703 68.1484C77.2266 67.2578 76.5781 66.8125 75.625 66.8125C75.1875 66.8125 74.7578 66.9453 74.3359 67.2109C73.3516 67.8516 72.8359 68.8984 72.7891 70.3516V75.4141H73.8438ZM87.7188 66.3906C87.3125 66.3906 86.9297 66.4844 86.5703 66.6719C85.4766 67.2188 84.8906 68.3906 84.8125 70.1875L87.2969 70.2578C88.0156 70.2734 88.5703 70.2422 88.9609 70.1641C89.7109 69.9922 90.0859 69.5156 90.0859 68.7344C90.0859 68.3906 90.0234 68.0703 89.8984 67.7734C89.5391 66.8516 88.8125 66.3906 87.7188 66.3906ZM91.7969 73.75C91.7031 73.9688 91.5938 74.1875 91.4688 74.4062C90.6719 75.625 89.4297 76.2344 87.7422 76.2344C86.6797 76.2344 85.7344 75.9609 84.9062 75.4141C83.5156 74.4766 82.8203 73.0391 82.8203 71.1016C82.8203 70.0391 83.0391 69.0859 83.4766 68.2422C84.3203 66.6172 85.7188 65.8047 87.6719 65.8047C88.6719 65.8047 89.5547 66.0312 90.3203 66.4844C91.3984 67.1094 91.9375 67.9531 91.9375 69.0156C91.9375 69.5938 91.7266 70.0391 91.3047 70.3516C90.7578 70.7422 89.5312 70.9219 87.625 70.8906L84.8125 70.8438C84.8281 71.5 84.8984 72.1016 85.0234 72.6484C85.4453 74.6016 86.4766 75.5781 88.1172 75.5781C88.2578 75.5781 88.4062 75.5703 88.5625 75.5547C89.7812 75.3984 90.6641 74.7266 91.2109 73.5391L91.7969 73.75ZM97.2109 75.6016C98.2891 75.6016 99.0156 75.2734 99.3906 74.6172C99.5312 74.3828 99.6016 74.125 99.6016 73.8438C99.6016 73.1875 99.125 72.625 98.1719 72.1562C97.9688 72.0469 97.6328 71.8906 97.1641 71.6875C95.8828 71.1562 95.0312 70.6562 94.6094 70.1875C94.1562 69.6719 93.9297 69.0703 93.9297 68.3828C93.9297 67.3047 94.5234 66.5469 95.7109 66.1094C96.2578 65.9062 96.8516 65.8047 97.4922 65.8047C98.5234 65.8047 99.4141 66.0234 100.164 66.4609C100.164 66.0078 100.273 65.75 100.492 65.6875C100.586 65.6719 100.688 65.6641 100.797 65.6641V68.5938H100.188C100.156 67.1562 99.3594 66.4297 97.7969 66.4141C96.625 66.4141 95.8984 66.7578 95.6172 67.4453C95.5391 67.6328 95.5 67.8281 95.5 68.0312C95.5 68.7031 95.9844 69.2734 96.9531 69.7422C97.1719 69.8516 97.5156 70 97.9844 70.1875C99.25 70.7031 100.094 71.1953 100.516 71.6641C100.969 72.1641 101.195 72.7578 101.195 73.4453C101.195 74.7109 100.523 75.5547 99.1797 75.9766C98.6641 76.1484 98.1016 76.2344 97.4922 76.2344C96.3672 76.2188 95.3906 75.9375 94.5625 75.3906C94.5625 75.7969 94.4609 76.0312 94.2578 76.0938C94.1641 76.1094 94.0547 76.1172 93.9297 76.1172V72.5547H94.5859C94.6172 74.5703 95.4922 75.5859 97.2109 75.6016ZM105.719 75.1328C105.688 76.1953 105.195 77.2422 104.242 78.2734L103.75 77.9219C104.422 77.2188 104.766 76.6562 104.781 76.2344C104.766 76.0625 104.586 75.9297 104.242 75.8359C104.195 75.8203 104.133 75.8047 104.055 75.7891C103.555 75.6016 103.305 75.2578 103.305 74.7578C103.305 74.6016 103.336 74.4453 103.398 74.2891C103.586 73.8203 103.93 73.5859 104.43 73.5859C104.539 73.5859 104.656 73.6016 104.781 73.6328C105.406 73.7891 105.719 74.2891 105.719 75.1328ZM116.781 75.4141C116.875 75.4141 116.953 75.4219 117.016 75.4375C117.25 75.4688 117.367 75.6562 117.367 76H112V75.4141C112.531 75.4141 112.914 75.375 113.148 75.2969C113.555 75.1562 113.758 74.7266 113.758 74.0078V61.3516H112V60.7656H115.516V75.4141H116.781ZM127.164 76.2344C126.07 76.2188 125.43 75.5156 125.242 74.125C125.102 74.4531 124.891 74.7656 124.609 75.0625C123.828 75.8438 122.867 76.2344 121.727 76.2344C121.258 76.2344 120.812 76.1484 120.391 75.9766C119.344 75.5391 118.82 74.7266 118.82 73.5391C118.82 73.1953 118.867 72.875 118.961 72.5781C119.492 71.0469 121.594 70.2812 125.266 70.2812V68.8047C125.219 67.2891 124.461 66.4844 122.992 66.3906C122.367 66.3906 121.906 66.5859 121.609 66.9766C121.531 67.0859 121.383 67.4297 121.164 68.0078C120.992 68.4609 120.727 68.6875 120.367 68.6875C120.289 68.6875 120.211 68.6797 120.133 68.6641C119.68 68.5859 119.453 68.3047 119.453 67.8203C119.453 67.5547 119.547 67.2891 119.734 67.0234C120.328 66.2109 121.5 65.8047 123.25 65.8047C123.391 65.8047 123.531 65.8047 123.672 65.8047C125.906 65.9297 127.023 67.1094 127.023 69.3438V74.2891C127.039 75.0703 127.25 75.4766 127.656 75.5078C128.156 75.4922 128.461 74.9141 128.57 73.7734L129.18 73.7969C129.18 73.875 129.172 73.9609 129.156 74.0547C129.031 75.5078 128.367 76.2344 127.164 76.2344ZM122.5 75.2969C122.844 75.2969 123.195 75.2188 123.555 75.0625C124.461 74.625 125.031 73.8672 125.266 72.7891V70.9141C124.047 70.9297 123.117 71.0078 122.477 71.1484C121.273 71.4297 120.672 72.0938 120.672 73.1406C120.672 73.4062 120.695 73.6484 120.742 73.8672C120.961 74.8203 121.547 75.2969 122.5 75.2969ZM139.82 75.4141C139.914 75.4141 139.992 75.4219 140.055 75.4375C140.289 75.4688 140.406 75.6562 140.406 76H134.617V75.4141C135.148 75.4141 135.531 75.375 135.766 75.2969C136.172 75.1562 136.375 74.7266 136.375 74.0078V66.625H134.617V66.0391H138.016L138.109 68.3594C138.312 67.8906 138.586 67.4688 138.93 67.0938C139.664 66.2969 140.5 65.8984 141.438 65.8984C141.578 65.8984 141.727 65.9141 141.883 65.9453C142.602 66.1016 142.961 66.5312 142.961 67.2344C142.961 67.3281 142.945 67.4219 142.914 67.5156C142.789 67.9688 142.492 68.1953 142.023 68.1953C141.93 68.1953 141.836 68.1797 141.742 68.1484C141.523 68.0859 141.289 67.8359 141.039 67.3984C140.82 67.0078 140.578 66.8125 140.312 66.8125C140.078 66.8281 139.789 67 139.445 67.3281C138.57 68.1875 138.133 69.3281 138.133 70.75V75.4141H139.82ZM148.914 66.3906C148.508 66.3906 148.125 66.4844 147.766 66.6719C146.672 67.2188 146.086 68.3906 146.008 70.1875L148.492 70.2578C149.211 70.2734 149.766 70.2422 150.156 70.1641C150.906 69.9922 151.281 69.5156 151.281 68.7344C151.281 68.3906 151.219 68.0703 151.094 67.7734C150.734 66.8516 150.008 66.3906 148.914 66.3906ZM152.992 73.75C152.898 73.9688 152.789 74.1875 152.664 74.4062C151.867 75.625 150.625 76.2344 148.938 76.2344C147.875 76.2344 146.93 75.9609 146.102 75.4141C144.711 74.4766 144.016 73.0391 144.016 71.1016C144.016 70.0391 144.234 69.0859 144.672 68.2422C145.516 66.6172 146.914 65.8047 148.867 65.8047C149.867 65.8047 150.75 66.0312 151.516 66.4844C152.594 67.1094 153.133 67.9531 153.133 69.0156C153.133 69.5938 152.922 70.0391 152.5 70.3516C151.953 70.7422 150.727 70.9219 148.82 70.8906L146.008 70.8438C146.023 71.5 146.094 72.1016 146.219 72.6484C146.641 74.6016 147.672 75.5781 149.312 75.5781C149.453 75.5781 149.602 75.5703 149.758 75.5547C150.977 75.3984 151.859 74.7266 152.406 73.5391L152.992 73.75ZM161.125 76.2344C161.016 76.2344 160.898 76.2266 160.773 76.2109C159.414 76.1172 158.398 75.5312 157.727 74.4531L157.516 76H154.562V75.4141C155.094 75.4141 155.477 75.375 155.711 75.2969C156.117 75.1562 156.32 74.7266 156.32 74.0078V61.3516H154.562V60.7656H158.078V68.5234C158.125 68.3828 158.188 68.2422 158.266 68.1016C158.984 66.5703 160.195 65.8047 161.898 65.8047C162.93 65.8047 163.797 66.1562 164.5 66.8594C165.438 67.8281 165.906 69.1719 165.906 70.8906C165.906 72.4219 165.469 73.6875 164.594 74.6875C163.656 75.7188 162.5 76.2344 161.125 76.2344ZM161.172 66.7422C160.531 66.7422 159.961 66.9609 159.461 67.3984C158.523 68.2422 158.055 69.6094 158.055 71.5C158.055 72.3594 158.172 73.1172 158.406 73.7734C158.891 75.0234 159.719 75.6484 160.891 75.6484C161.344 75.6484 161.758 75.5469 162.133 75.3438C163.32 74.6875 163.914 73.2578 163.914 71.0547C163.914 70.3203 163.836 69.6641 163.68 69.0859C163.289 67.5234 162.453 66.7422 161.172 66.7422ZM172.68 66.3906C172.273 66.3906 171.891 66.4844 171.531 66.6719C170.438 67.2188 169.852 68.3906 169.773 70.1875L172.258 70.2578C172.977 70.2734 173.531 70.2422 173.922 70.1641C174.672 69.9922 175.047 69.5156 175.047 68.7344C175.047 68.3906 174.984 68.0703 174.859 67.7734C174.5 66.8516 173.773 66.3906 172.68 66.3906ZM176.758 73.75C176.664 73.9688 176.555 74.1875 176.43 74.4062C175.633 75.625 174.391 76.2344 172.703 76.2344C171.641 76.2344 170.695 75.9609 169.867 75.4141C168.477 74.4766 167.781 73.0391 167.781 71.1016C167.781 70.0391 168 69.0859 168.438 68.2422C169.281 66.6172 170.68 65.8047 172.633 65.8047C173.633 65.8047 174.516 66.0312 175.281 66.4844C176.359 67.1094 176.898 67.9531 176.898 69.0156C176.898 69.5938 176.688 70.0391 176.266 70.3516C175.719 70.7422 174.492 70.9219 172.586 70.8906L169.773 70.8438C169.789 71.5 169.859 72.1016 169.984 72.6484C170.406 74.6016 171.438 75.5781 173.078 75.5781C173.219 75.5781 173.367 75.5703 173.523 75.5547C174.742 75.3984 175.625 74.7266 176.172 73.5391L176.758 73.75ZM183.273 75.4141C183.367 75.4141 183.445 75.4219 183.508 75.4375C183.742 75.4688 183.859 75.6562 183.859 76H178.492V75.4141C179.023 75.4141 179.406 75.375 179.641 75.2969C180.047 75.1562 180.25 74.7266 180.25 74.0078V61.3516H178.492V60.7656H182.008V75.4141H183.273ZM193.422 76L193.234 73.5156C192.469 75.2969 191.234 76.2031 189.531 76.2344C188.703 76.2344 187.945 75.9922 187.258 75.5078C186.039 74.6172 185.43 73.2031 185.43 71.2656C185.43 70.0938 185.695 69.0391 186.227 68.1016C187.102 66.5703 188.398 65.8047 190.117 65.8047C191.414 65.8047 192.445 66.2266 193.211 67.0703V61.3516H190.984V60.7656H194.969L195.016 75.4141H196.188C196.281 75.4141 196.359 75.4219 196.422 75.4375C196.656 75.4688 196.773 75.6562 196.773 76H193.422ZM187.422 70.9844C187.422 71.7188 187.5 72.375 187.656 72.9531C188.047 74.5156 188.883 75.2969 190.164 75.2969C190.805 75.2969 191.375 75.0703 191.875 74.6172C192.812 73.7734 193.281 72.4141 193.281 70.5391C193.281 69.6484 193.148 68.875 192.883 68.2188C192.398 67 191.586 66.3906 190.445 66.3906C189.992 66.3906 189.578 66.4922 189.203 66.6953C188.016 67.3516 187.422 68.7812 187.422 70.9844ZM202.914 75.3906C203.008 75.3906 203.094 75.3984 203.172 75.4141C203.375 75.4453 203.477 75.6406 203.477 76H198.039V75.3906C199.195 75.3906 199.789 74.9844 199.82 74.1719V66.6484H198.039V66.0391H201.695V75.3906H202.914ZM202.82 62.3359C202.648 62.4922 202.344 62.7109 201.906 62.9922C200.578 63.8203 199.727 64.3828 199.352 64.6797L198.977 64.2812C199.367 63.8594 199.789 63.2969 200.242 62.5938C200.867 61.6094 201.242 61.0547 201.367 60.9297C201.57 60.7422 201.797 60.6406 202.047 60.625C202.188 60.625 202.336 60.6641 202.492 60.7422C202.914 60.9609 203.125 61.2734 203.125 61.6797C203.109 61.8984 203.008 62.1172 202.82 62.3359ZM213.227 76.2344C212.133 76.2188 211.492 75.5156 211.305 74.125C211.164 74.4531 210.953 74.7656 210.672 75.0625C209.891 75.8438 208.93 76.2344 207.789 76.2344C207.32 76.2344 206.875 76.1484 206.453 75.9766C205.406 75.5391 204.883 74.7266 204.883 73.5391C204.883 73.1953 204.93 72.875 205.023 72.5781C205.555 71.0469 207.656 70.2812 211.328 70.2812V68.8047C211.281 67.2891 210.523 66.4844 209.055 66.3906C208.43 66.3906 207.969 66.5859 207.672 66.9766C207.594 67.0859 207.445 67.4297 207.227 68.0078C207.055 68.4609 206.789 68.6875 206.43 68.6875C206.352 68.6875 206.273 68.6797 206.195 68.6641C205.742 68.5859 205.516 68.3047 205.516 67.8203C205.516 67.5547 205.609 67.2891 205.797 67.0234C206.391 66.2109 207.562 65.8047 209.312 65.8047C209.453 65.8047 209.594 65.8047 209.734 65.8047C211.969 65.9297 213.086 67.1094 213.086 69.3438V74.2891C213.102 75.0703 213.312 75.4766 213.719 75.5078C214.219 75.4922 214.523 74.9141 214.633 73.7734L215.242 73.7969C215.242 73.875 215.234 73.9609 215.219 74.0547C215.094 75.5078 214.43 76.2344 213.227 76.2344ZM208.562 75.2969C208.906 75.2969 209.258 75.2188 209.617 75.0625C210.523 74.625 211.094 73.8672 211.328 72.7891V70.9141C210.109 70.9297 209.18 71.0078 208.539 71.1484C207.336 71.4297 206.734 72.0938 206.734 73.1406C206.734 73.4062 206.758 73.6484 206.805 73.8672C207.023 74.8203 207.609 75.2969 208.562 75.2969ZM228.859 76L228.672 73.5156C227.906 75.2969 226.672 76.2031 224.969 76.2344C224.141 76.2344 223.383 75.9922 222.695 75.5078C221.477 74.6172 220.867 73.2031 220.867 71.2656C220.867 70.0938 221.133 69.0391 221.664 68.1016C222.539 66.5703 223.836 65.8047 225.555 65.8047C226.852 65.8047 227.883 66.2266 228.648 67.0703V61.3516H226.422V60.7656H230.406L230.453 75.4141H231.625C231.719 75.4141 231.797 75.4219 231.859 75.4375C232.094 75.4688 232.211 75.6562 232.211 76H228.859ZM222.859 70.9844C222.859 71.7188 222.938 72.375 223.094 72.9531C223.484 74.5156 224.32 75.2969 225.602 75.2969C226.242 75.2969 226.812 75.0703 227.312 74.6172C228.25 73.7734 228.719 72.4141 228.719 70.5391C228.719 69.6484 228.586 68.875 228.32 68.2188C227.836 67 227.023 66.3906 225.883 66.3906C225.43 66.3906 225.016 66.4922 224.641 66.6953C223.453 67.3516 222.859 68.7812 222.859 70.9844ZM238.609 66.3906C238.203 66.3906 237.82 66.4844 237.461 66.6719C236.367 67.2188 235.781 68.3906 235.703 70.1875L238.188 70.2578C238.906 70.2734 239.461 70.2422 239.852 70.1641C240.602 69.9922 240.977 69.5156 240.977 68.7344C240.977 68.3906 240.914 68.0703 240.789 67.7734C240.43 66.8516 239.703 66.3906 238.609 66.3906ZM242.688 73.75C242.594 73.9688 242.484 74.1875 242.359 74.4062C241.562 75.625 240.32 76.2344 238.633 76.2344C237.57 76.2344 236.625 75.9609 235.797 75.4141C234.406 74.4766 233.711 73.0391 233.711 71.1016C233.711 70.0391 233.93 69.0859 234.367 68.2422C235.211 66.6172 236.609 65.8047 238.562 65.8047C239.562 65.8047 240.445 66.0312 241.211 66.4844C242.289 67.1094 242.828 67.9531 242.828 69.0156C242.828 69.5938 242.617 70.0391 242.195 70.3516C241.648 70.7422 240.422 70.9219 238.516 70.8906L235.703 70.8438C235.719 71.5 235.789 72.1016 235.914 72.6484C236.336 74.6016 237.367 75.5781 239.008 75.5781C239.148 75.5781 239.297 75.5703 239.453 75.5547C240.672 75.3984 241.555 74.7266 242.102 73.5391L242.688 73.75ZM253.773 75.4141C253.867 75.4141 253.945 75.4219 254.008 75.4375C254.242 75.4688 254.359 75.6562 254.359 76H248.992V75.4141C249.523 75.4141 249.906 75.375 250.141 75.2969C250.547 75.1562 250.75 74.7266 250.75 74.0078V61.3516H248.992V60.7656H252.508V75.4141H253.773ZM264.156 76.2344C263.062 76.2188 262.422 75.5156 262.234 74.125C262.094 74.4531 261.883 74.7656 261.602 75.0625C260.82 75.8438 259.859 76.2344 258.719 76.2344C258.25 76.2344 257.805 76.1484 257.383 75.9766C256.336 75.5391 255.812 74.7266 255.812 73.5391C255.812 73.1953 255.859 72.875 255.953 72.5781C256.484 71.0469 258.586 70.2812 262.258 70.2812V68.8047C262.211 67.2891 261.453 66.4844 259.984 66.3906C259.359 66.3906 258.898 66.5859 258.602 66.9766C258.523 67.0859 258.375 67.4297 258.156 68.0078C257.984 68.4609 257.719 68.6875 257.359 68.6875C257.281 68.6875 257.203 68.6797 257.125 68.6641C256.672 68.5859 256.445 68.3047 256.445 67.8203C256.445 67.5547 256.539 67.2891 256.727 67.0234C257.32 66.2109 258.492 65.8047 260.242 65.8047C260.383 65.8047 260.523 65.8047 260.664 65.8047C262.898 65.9297 264.016 67.1094 264.016 69.3438V74.2891C264.031 75.0703 264.242 75.4766 264.648 75.5078C265.148 75.4922 265.453 74.9141 265.562 73.7734L266.172 73.7969C266.172 73.875 266.164 73.9609 266.148 74.0547C266.023 75.5078 265.359 76.2344 264.156 76.2344ZM259.492 75.2969C259.836 75.2969 260.188 75.2188 260.547 75.0625C261.453 74.625 262.023 73.8672 262.258 72.7891V70.9141C261.039 70.9297 260.109 71.0078 259.469 71.1484C258.266 71.4297 257.664 72.0938 257.664 73.1406C257.664 73.4062 257.688 73.6484 257.734 73.8672C257.953 74.8203 258.539 75.2969 259.492 75.2969ZM275.477 66.625H273.836L276.836 74.6172L279.812 66.625H278.055V66.0391H281.664C281.664 66.1172 281.656 66.1953 281.641 66.2734C281.609 66.5078 281.422 66.625 281.078 66.625C281.016 66.625 280.945 66.6328 280.867 66.6484C280.602 66.6953 280.375 66.9609 280.188 67.4453L276.883 76.1172H276.578C276.297 76.1172 276.062 76.0781 275.875 76C275.5 75.8594 275.156 75.3516 274.844 74.4766L271.984 66.625H270.93V66.0391H275.477V66.625ZM287.242 75.4141C287.32 75.4141 287.398 75.4219 287.477 75.4375C287.711 75.4688 287.828 75.6562 287.828 76H282.438V75.4141C282.969 75.4141 283.352 75.3828 283.586 75.3203C284.07 75.1641 284.312 74.7266 284.312 74.0078V66.625H282.438V66.0391H286.07V75.4141H287.242ZM286.352 62.6172C286.352 62.8047 286.312 62.9844 286.234 63.1562C286.016 63.6562 285.633 63.9062 285.086 63.9062C284.914 63.9062 284.742 63.875 284.57 63.8125C284.055 63.5938 283.797 63.1953 283.797 62.6172C283.797 62.4297 283.836 62.25 283.914 62.0781C284.148 61.5781 284.539 61.3281 285.086 61.3281C285.258 61.3281 285.438 61.3672 285.625 61.4453C286.109 61.6797 286.352 62.0703 286.352 62.6172ZM293.805 75.4141C293.898 75.4141 293.977 75.4219 294.039 75.4375C294.273 75.4688 294.391 75.6562 294.391 76H289.234V75.4141C289.766 75.4141 290.148 75.375 290.383 75.2969C290.789 75.1562 290.992 74.7266 290.992 74.0078V66.625H289.234V66.0391H292.633L292.727 68.3828C292.898 67.9453 293.125 67.5469 293.406 67.1875C294.156 66.2656 295.109 65.8047 296.266 65.8047C296.844 65.8047 297.383 65.9531 297.883 66.25C298.961 66.9219 299.5 68.0391 299.5 69.6016V75.4141H300.672C300.766 75.4141 300.844 75.4219 300.906 75.4375C301.141 75.4688 301.258 75.6562 301.258 76H295.984V75.4141C296.516 75.4141 296.898 75.375 297.133 75.2969C297.539 75.1562 297.742 74.7266 297.742 74.0078V69.3672C297.742 68.9141 297.672 68.5078 297.531 68.1484C297.188 67.2578 296.539 66.8125 295.586 66.8125C295.148 66.8125 294.719 66.9453 294.297 67.2109C293.312 67.8516 292.797 68.8984 292.75 70.3516V75.4141H293.805ZM294.039 61.1641C293.008 61.1797 292.312 62.0156 291.953 63.6719L292.422 63.7891C292.438 63.7109 292.461 63.6328 292.492 63.5547C292.727 62.8203 293.117 62.4531 293.664 62.4531C293.992 62.4531 294.43 62.6641 294.977 63.0859C295.602 63.5859 296.148 63.8359 296.617 63.8359C297.664 63.8203 298.367 62.9844 298.727 61.3281L298.234 61.2109C298.219 61.2578 298.203 61.3047 298.188 61.3516C297.953 62.1484 297.547 62.5469 296.969 62.5469C296.672 62.5469 296.25 62.3359 295.703 61.9141C295.062 61.4141 294.508 61.1641 294.039 61.1641ZM311.008 76.2344C309.914 76.2188 309.273 75.5156 309.086 74.125C308.945 74.4531 308.734 74.7656 308.453 75.0625C307.672 75.8438 306.711 76.2344 305.57 76.2344C305.102 76.2344 304.656 76.1484 304.234 75.9766C303.188 75.5391 302.664 74.7266 302.664 73.5391C302.664 73.1953 302.711 72.875 302.805 72.5781C303.336 71.0469 305.438 70.2812 309.109 70.2812V68.8047C309.062 67.2891 308.305 66.4844 306.836 66.3906C306.211 66.3906 305.75 66.5859 305.453 66.9766C305.375 67.0859 305.227 67.4297 305.008 68.0078C304.836 68.4609 304.57 68.6875 304.211 68.6875C304.133 68.6875 304.055 68.6797 303.977 68.6641C303.523 68.5859 303.297 68.3047 303.297 67.8203C303.297 67.5547 303.391 67.2891 303.578 67.0234C304.172 66.2109 305.344 65.8047 307.094 65.8047C307.234 65.8047 307.375 65.8047 307.516 65.8047C309.75 65.9297 310.867 67.1094 310.867 69.3438V74.2891C310.883 75.0703 311.094 75.4766 311.5 75.5078C312 75.4922 312.305 74.9141 312.414 73.7734L313.023 73.7969C313.023 73.875 313.016 73.9609 313 74.0547C312.875 75.5078 312.211 76.2344 311.008 76.2344ZM306.344 75.2969C306.688 75.2969 307.039 75.2188 307.398 75.0625C308.305 74.625 308.875 73.8672 309.109 72.7891V70.9141C307.891 70.9297 306.961 71.0078 306.32 71.1484C305.117 71.4297 304.516 72.0938 304.516 73.1406C304.516 73.4062 304.539 73.6484 304.586 73.8672C304.805 74.8203 305.391 75.2969 306.344 75.2969ZM45.1094 96.625V96.0391H46.75V93.8125L48.5078 93.3203V96.0391H52.1406V96.625H48.5078V103.75C48.5234 104.922 48.9531 105.523 49.7969 105.555C50.5469 105.445 51.1172 104.742 51.5078 103.445L52.1406 103.562C52.1406 103.578 52.1406 103.594 52.1406 103.609C51.7812 105.375 50.8828 106.258 49.4453 106.258C47.7578 106.195 46.8594 105.188 46.75 103.234V96.625H45.1094ZM58.0938 96.3906C57.6875 96.3906 57.3047 96.4844 56.9453 96.6719C55.8516 97.2188 55.2656 98.3906 55.1875 100.188L57.6719 100.258C58.3906 100.273 58.9453 100.242 59.3359 100.164C60.0859 99.9922 60.4609 99.5156 60.4609 98.7344C60.4609 98.3906 60.3984 98.0703 60.2734 97.7734C59.9141 96.8516 59.1875 96.3906 58.0938 96.3906ZM62.1719 103.75C62.0781 103.969 61.9688 104.188 61.8438 104.406C61.0469 105.625 59.8047 106.234 58.1172 106.234C57.0547 106.234 56.1094 105.961 55.2812 105.414C53.8906 104.477 53.1953 103.039 53.1953 101.102C53.1953 100.039 53.4141 99.0859 53.8516 98.2422C54.6953 96.6172 56.0938 95.8047 58.0469 95.8047C59.0469 95.8047 59.9297 96.0312 60.6953 96.4844C61.7734 97.1094 62.3125 97.9531 62.3125 99.0156C62.3125 99.5938 62.1016 100.039 61.6797 100.352C61.1328 100.742 59.9062 100.922 58 100.891L55.1875 100.844C55.2031 101.5 55.2734 102.102 55.3984 102.648C55.8203 104.602 56.8516 105.578 58.4922 105.578C58.6328 105.578 58.7812 105.57 58.9375 105.555C60.1562 105.398 61.0391 104.727 61.5859 103.539L62.1719 103.75ZM69.0859 105.414C69.1797 105.414 69.2578 105.422 69.3203 105.438C69.5547 105.469 69.6719 105.656 69.6719 106H63.8828V105.414C64.4141 105.414 64.7969 105.375 65.0312 105.297C65.4375 105.156 65.6406 104.727 65.6406 104.008V96.625H63.8828V96.0391H67.2812L67.375 98.3594C67.5781 97.8906 67.8516 97.4688 68.1953 97.0938C68.9297 96.2969 69.7656 95.8984 70.7031 95.8984C70.8438 95.8984 70.9922 95.9141 71.1484 95.9453C71.8672 96.1016 72.2266 96.5312 72.2266 97.2344C72.2266 97.3281 72.2109 97.4219 72.1797 97.5156C72.0547 97.9688 71.7578 98.1953 71.2891 98.1953C71.1953 98.1953 71.1016 98.1797 71.0078 98.1484C70.7891 98.0859 70.5547 97.8359 70.3047 97.3984C70.0859 97.0078 69.8438 96.8125 69.5781 96.8125C69.3438 96.8281 69.0547 97 68.7109 97.3281C67.8359 98.1875 67.3984 99.3281 67.3984 100.75V105.414H69.0859ZM77.6172 105.414C77.6953 105.414 77.7734 105.422 77.8516 105.438C78.0859 105.484 78.2031 105.672 78.2031 106H73.0469V105.414C73.5781 105.414 73.9609 105.375 74.1953 105.297C74.6016 105.156 74.8047 104.727 74.8047 104.008V96.625H73.0469V96.0391H76.4453L76.5391 98.3828C76.6953 97.9609 76.9062 97.5781 77.1719 97.2344C77.9062 96.2812 78.8359 95.8047 79.9609 95.8047C80.2578 95.8047 80.5469 95.8594 80.8281 95.9688C81.7812 96.3281 82.3984 97.125 82.6797 98.3594C82.8047 98.0469 82.9609 97.75 83.1484 97.4688C83.8672 96.3594 84.8203 95.8047 86.0078 95.8047C86.5547 95.8047 87.0625 95.9453 87.5312 96.2266C88.5781 96.8672 89.1016 97.9922 89.1016 99.6016V105.414H90.2969C90.3906 105.414 90.4688 105.422 90.5312 105.438C90.7656 105.469 90.8828 105.656 90.8828 106H85.7031V105.414C86.2344 105.414 86.6094 105.375 86.8281 105.297C87.1719 105.156 87.3438 104.727 87.3438 104.008V99.3672C87.3438 98.8672 87.2656 98.4219 87.1094 98.0312C86.7812 97.2031 86.2188 96.7891 85.4219 96.7891C85.125 96.7891 84.8125 96.8672 84.4844 97.0234C83.625 97.4766 83.0703 98.2734 82.8203 99.4141V99.6016V105.414H83.875C83.9688 105.414 84.0469 105.422 84.1094 105.438C84.3438 105.469 84.4609 105.656 84.4609 106H79.4219V105.414C79.9531 105.414 80.3281 105.375 80.5469 105.297C80.8906 105.156 81.0625 104.727 81.0625 104.008V99.3672C81.0625 98.8984 81 98.4766 80.875 98.1016C80.5781 97.2422 80.0391 96.8125 79.2578 96.8125C78.8359 96.8125 78.4141 96.9688 77.9922 97.2812C77.0859 97.9531 76.6094 98.9766 76.5625 100.352V105.414H77.6172ZM96.9766 105.414C97.0547 105.414 97.1328 105.422 97.2109 105.438C97.4453 105.469 97.5625 105.656 97.5625 106H92.1719V105.414C92.7031 105.414 93.0859 105.383 93.3203 105.32C93.8047 105.164 94.0469 104.727 94.0469 104.008V96.625H92.1719V96.0391H95.8047V105.414H96.9766ZM96.0859 92.6172C96.0859 92.8047 96.0469 92.9844 95.9688 93.1562C95.75 93.6562 95.3672 93.9062 94.8203 93.9062C94.6484 93.9062 94.4766 93.875 94.3047 93.8125C93.7891 93.5938 93.5312 93.1953 93.5312 92.6172C93.5312 92.4297 93.5703 92.25 93.6484 92.0781C93.8828 91.5781 94.2734 91.3281 94.8203 91.3281C94.9922 91.3281 95.1719 91.3672 95.3594 91.4453C95.8438 91.6797 96.0859 92.0703 96.0859 92.6172ZM103.539 105.414C103.633 105.414 103.711 105.422 103.773 105.438C104.008 105.469 104.125 105.656 104.125 106H98.9688V105.414C99.5 105.414 99.8828 105.375 100.117 105.297C100.523 105.156 100.727 104.727 100.727 104.008V96.625H98.9688V96.0391H102.367L102.461 98.3828C102.633 97.9453 102.859 97.5469 103.141 97.1875C103.891 96.2656 104.844 95.8047 106 95.8047C106.578 95.8047 107.117 95.9531 107.617 96.25C108.695 96.9219 109.234 98.0391 109.234 99.6016V105.414H110.406C110.5 105.414 110.578 105.422 110.641 105.438C110.875 105.469 110.992 105.656 110.992 106H105.719V105.414C106.25 105.414 106.633 105.375 106.867 105.297C107.273 105.156 107.477 104.727 107.477 104.008V99.3672C107.477 98.9141 107.406 98.5078 107.266 98.1484C106.922 97.2578 106.273 96.8125 105.32 96.8125C104.883 96.8125 104.453 96.9453 104.031 97.2109C103.047 97.8516 102.531 98.8984 102.484 100.352V105.414H103.539ZM120.742 106.234C119.648 106.219 119.008 105.516 118.82 104.125C118.68 104.453 118.469 104.766 118.188 105.062C117.406 105.844 116.445 106.234 115.305 106.234C114.836 106.234 114.391 106.148 113.969 105.977C112.922 105.539 112.398 104.727 112.398 103.539C112.398 103.195 112.445 102.875 112.539 102.578C113.07 101.047 115.172 100.281 118.844 100.281V98.8047C118.797 97.2891 118.039 96.4844 116.57 96.3906C115.945 96.3906 115.484 96.5859 115.188 96.9766C115.109 97.0859 114.961 97.4297 114.742 98.0078C114.57 98.4609 114.305 98.6875 113.945 98.6875C113.867 98.6875 113.789 98.6797 113.711 98.6641C113.258 98.5859 113.031 98.3047 113.031 97.8203C113.031 97.5547 113.125 97.2891 113.312 97.0234C113.906 96.2109 115.078 95.8047 116.828 95.8047C116.969 95.8047 117.109 95.8047 117.25 95.8047C119.484 95.9297 120.602 97.1094 120.602 99.3438V104.289C120.617 105.07 120.828 105.477 121.234 105.508C121.734 105.492 122.039 104.914 122.148 103.773L122.758 103.797C122.758 103.875 122.75 103.961 122.734 104.055C122.609 105.508 121.945 106.234 120.742 106.234ZM116.078 105.297C116.422 105.297 116.773 105.219 117.133 105.062C118.039 104.625 118.609 103.867 118.844 102.789V100.914C117.625 100.93 116.695 101.008 116.055 101.148C114.852 101.43 114.25 102.094 114.25 103.141C114.25 103.406 114.273 103.648 114.32 103.867C114.539 104.82 115.125 105.297 116.078 105.297ZM131.57 109.867H133.211C133.305 109.867 133.383 109.875 133.445 109.891C133.68 109.922 133.797 110.109 133.797 110.453H128.055V109.867C128.586 109.867 128.969 109.828 129.203 109.75C129.609 109.609 129.812 109.18 129.812 108.461V96.625H128.055V96.0391H131.43L131.547 98.5938C131.672 98.25 131.828 97.9219 132.016 97.6094C132.766 96.4062 133.898 95.8047 135.414 95.8047C136.398 95.8047 137.234 96.1172 137.922 96.7422C138.906 97.6641 139.398 99.0156 139.398 100.797C139.398 102.359 138.945 103.648 138.039 104.664C137.102 105.711 135.938 106.234 134.547 106.234C133.422 106.172 132.43 105.766 131.57 105.016V109.867ZM134.664 96.7422C134.102 96.7422 133.586 96.9141 133.117 97.2578C132.07 98.0391 131.547 99.4453 131.547 101.477C131.547 102.352 131.664 103.109 131.898 103.75C132.352 105.016 133.18 105.648 134.383 105.648C134.805 105.648 135.195 105.562 135.555 105.391C136.789 104.781 137.406 103.328 137.406 101.031C137.406 100.391 137.352 99.8125 137.242 99.2969C136.883 97.5938 136.023 96.7422 134.664 96.7422ZM143.266 101.008C143.266 101.68 143.32 102.289 143.43 102.836C143.836 104.711 144.828 105.648 146.406 105.648C146.703 105.648 146.992 105.609 147.273 105.531C148.711 105.078 149.43 103.539 149.43 100.914C149.43 100.461 149.406 100.047 149.359 99.6719C149.078 97.4844 148.07 96.3906 146.336 96.3906C145.961 96.3906 145.602 96.4531 145.258 96.5781C143.93 97.1094 143.266 98.5859 143.266 101.008ZM146.406 95.8047C147.438 95.8047 148.383 96.0781 149.242 96.625C150.695 97.5781 151.422 99.0391 151.422 101.008C151.422 102.461 150.969 103.672 150.062 104.641C149.078 105.703 147.836 106.234 146.336 106.234C145.273 106.234 144.305 105.938 143.43 105.344C141.992 104.359 141.273 102.883 141.273 100.914C141.273 99.4922 141.734 98.3047 142.656 97.3516C143.656 96.3203 144.906 95.8047 146.406 95.8047ZM158.312 105.414C158.406 105.414 158.484 105.422 158.547 105.438C158.781 105.469 158.898 105.656 158.898 106H153.109V105.414C153.641 105.414 154.023 105.375 154.258 105.297C154.664 105.156 154.867 104.727 154.867 104.008V96.625H153.109V96.0391H156.508L156.602 98.3594C156.805 97.8906 157.078 97.4688 157.422 97.0938C158.156 96.2969 158.992 95.8984 159.93 95.8984C160.07 95.8984 160.219 95.9141 160.375 95.9453C161.094 96.1016 161.453 96.5312 161.453 97.2344C161.453 97.3281 161.438 97.4219 161.406 97.5156C161.281 97.9688 160.984 98.1953 160.516 98.1953C160.422 98.1953 160.328 98.1797 160.234 98.1484C160.016 98.0859 159.781 97.8359 159.531 97.3984C159.312 97.0078 159.07 96.8125 158.805 96.8125C158.57 96.8281 158.281 97 157.938 97.3281C157.062 98.1875 156.625 99.3281 156.625 100.75V105.414H158.312ZM171.648 105.414C171.727 105.414 171.805 105.422 171.883 105.438C172.117 105.469 172.234 105.656 172.234 106H166.844V105.414C167.375 105.414 167.758 105.383 167.992 105.32C168.477 105.164 168.719 104.727 168.719 104.008V96.625H166.844V96.0391H170.477V105.414H171.648ZM170.758 92.6172C170.758 92.8047 170.719 92.9844 170.641 93.1562C170.422 93.6562 170.039 93.9062 169.492 93.9062C169.32 93.9062 169.148 93.875 168.977 93.8125C168.461 93.5938 168.203 93.1953 168.203 92.6172C168.203 92.4297 168.242 92.25 168.32 92.0781C168.555 91.5781 168.945 91.3281 169.492 91.3281C169.664 91.3281 169.844 91.3672 170.031 91.4453C170.516 91.6797 170.758 92.0703 170.758 92.6172ZM178.211 105.414C178.289 105.414 178.367 105.422 178.445 105.438C178.68 105.484 178.797 105.672 178.797 106H173.641V105.414C174.172 105.414 174.555 105.375 174.789 105.297C175.195 105.156 175.398 104.727 175.398 104.008V96.625H173.641V96.0391H177.039L177.133 98.3828C177.289 97.9609 177.5 97.5781 177.766 97.2344C178.5 96.2812 179.43 95.8047 180.555 95.8047C180.852 95.8047 181.141 95.8594 181.422 95.9688C182.375 96.3281 182.992 97.125 183.273 98.3594C183.398 98.0469 183.555 97.75 183.742 97.4688C184.461 96.3594 185.414 95.8047 186.602 95.8047C187.148 95.8047 187.656 95.9453 188.125 96.2266C189.172 96.8672 189.695 97.9922 189.695 99.6016V105.414H190.891C190.984 105.414 191.062 105.422 191.125 105.438C191.359 105.469 191.477 105.656 191.477 106H186.297V105.414C186.828 105.414 187.203 105.375 187.422 105.297C187.766 105.156 187.938 104.727 187.938 104.008V99.3672C187.938 98.8672 187.859 98.4219 187.703 98.0312C187.375 97.2031 186.812 96.7891 186.016 96.7891C185.719 96.7891 185.406 96.8672 185.078 97.0234C184.219 97.4766 183.664 98.2734 183.414 99.4141V99.6016V105.414H184.469C184.562 105.414 184.641 105.422 184.703 105.438C184.938 105.469 185.055 105.656 185.055 106H180.016V105.414C180.547 105.414 180.922 105.375 181.141 105.297C181.484 105.156 181.656 104.727 181.656 104.008V99.3672C181.656 98.8984 181.594 98.4766 181.469 98.1016C181.172 97.2422 180.633 96.8125 179.852 96.8125C179.43 96.8125 179.008 96.9688 178.586 97.2812C177.68 97.9531 177.203 98.9766 177.156 100.352V105.414H178.211ZM196.188 109.867H197.828C197.922 109.867 198 109.875 198.062 109.891C198.297 109.922 198.414 110.109 198.414 110.453H192.672V109.867C193.203 109.867 193.586 109.828 193.82 109.75C194.227 109.609 194.43 109.18 194.43 108.461V96.625H192.672V96.0391H196.047L196.164 98.5938C196.289 98.25 196.445 97.9219 196.633 97.6094C197.383 96.4062 198.516 95.8047 200.031 95.8047C201.016 95.8047 201.852 96.1172 202.539 96.7422C203.523 97.6641 204.016 99.0156 204.016 100.797C204.016 102.359 203.562 103.648 202.656 104.664C201.719 105.711 200.555 106.234 199.164 106.234C198.039 106.172 197.047 105.766 196.188 105.016V109.867ZM199.281 96.7422C198.719 96.7422 198.203 96.9141 197.734 97.2578C196.688 98.0391 196.164 99.4453 196.164 101.477C196.164 102.352 196.281 103.109 196.516 103.75C196.969 105.016 197.797 105.648 199 105.648C199.422 105.648 199.812 105.562 200.172 105.391C201.406 104.781 202.023 103.328 202.023 101.031C202.023 100.391 201.969 99.8125 201.859 99.2969C201.5 97.5938 200.641 96.7422 199.281 96.7422ZM207.883 101.008C207.883 101.68 207.938 102.289 208.047 102.836C208.453 104.711 209.445 105.648 211.023 105.648C211.32 105.648 211.609 105.609 211.891 105.531C213.328 105.078 214.047 103.539 214.047 100.914C214.047 100.461 214.023 100.047 213.977 99.6719C213.695 97.4844 212.688 96.3906 210.953 96.3906C210.578 96.3906 210.219 96.4531 209.875 96.5781C208.547 97.1094 207.883 98.5859 207.883 101.008ZM211.023 95.8047C212.055 95.8047 213 96.0781 213.859 96.625C215.312 97.5781 216.039 99.0391 216.039 101.008C216.039 102.461 215.586 103.672 214.68 104.641C213.695 105.703 212.453 106.234 210.953 106.234C209.891 106.234 208.922 105.938 208.047 105.344C206.609 104.359 205.891 102.883 205.891 100.914C205.891 99.4922 206.352 98.3047 207.273 97.3516C208.273 96.3203 209.523 95.8047 211.023 95.8047ZM222.25 105.414C222.344 105.414 222.422 105.422 222.484 105.438C222.719 105.469 222.836 105.656 222.836 106H217.68V105.414C218.211 105.414 218.594 105.375 218.828 105.297C219.234 105.156 219.438 104.727 219.438 104.008V96.625H217.68V96.0391H221.078L221.172 98.3828C221.344 97.9453 221.57 97.5469 221.852 97.1875C222.602 96.2656 223.555 95.8047 224.711 95.8047C225.289 95.8047 225.828 95.9531 226.328 96.25C227.406 96.9219 227.945 98.0391 227.945 99.6016V105.414H229.117C229.211 105.414 229.289 105.422 229.352 105.438C229.586 105.469 229.703 105.656 229.703 106H224.43V105.414C224.961 105.414 225.344 105.375 225.578 105.297C225.984 105.156 226.188 104.727 226.188 104.008V99.3672C226.188 98.9141 226.117 98.5078 225.977 98.1484C225.633 97.2578 224.984 96.8125 224.031 96.8125C223.594 96.8125 223.164 96.9453 222.742 97.2109C221.758 97.8516 221.242 98.8984 221.195 100.352V105.414H222.25ZM236.125 96.3906C235.719 96.3906 235.336 96.4844 234.977 96.6719C233.883 97.2188 233.297 98.3906 233.219 100.188L235.703 100.258C236.422 100.273 236.977 100.242 237.367 100.164C238.117 99.9922 238.492 99.5156 238.492 98.7344C238.492 98.3906 238.43 98.0703 238.305 97.7734C237.945 96.8516 237.219 96.3906 236.125 96.3906ZM240.203 103.75C240.109 103.969 240 104.188 239.875 104.406C239.078 105.625 237.836 106.234 236.148 106.234C235.086 106.234 234.141 105.961 233.312 105.414C231.922 104.477 231.227 103.039 231.227 101.102C231.227 100.039 231.445 99.0859 231.883 98.2422C232.727 96.6172 234.125 95.8047 236.078 95.8047C237.078 95.8047 237.961 96.0312 238.727 96.4844C239.805 97.1094 240.344 97.9531 240.344 99.0156C240.344 99.5938 240.133 100.039 239.711 100.352C239.164 100.742 237.938 100.922 236.031 100.891L233.219 100.844C233.234 101.5 233.305 102.102 233.43 102.648C233.852 104.602 234.883 105.578 236.523 105.578C236.664 105.578 236.812 105.57 236.969 105.555C238.188 105.398 239.07 104.727 239.617 103.539L240.203 103.75ZM247.117 105.414C247.211 105.414 247.289 105.422 247.352 105.438C247.586 105.469 247.703 105.656 247.703 106H241.914V105.414C242.445 105.414 242.828 105.375 243.062 105.297C243.469 105.156 243.672 104.727 243.672 104.008V96.625H241.914V96.0391H245.312L245.406 98.3594C245.609 97.8906 245.883 97.4688 246.227 97.0938C246.961 96.2969 247.797 95.8984 248.734 95.8984C248.875 95.8984 249.023 95.9141 249.18 95.9453C249.898 96.1016 250.258 96.5312 250.258 97.2344C250.258 97.3281 250.242 97.4219 250.211 97.5156C250.086 97.9688 249.789 98.1953 249.32 98.1953C249.227 98.1953 249.133 98.1797 249.039 98.1484C248.82 98.0859 248.586 97.8359 248.336 97.3984C248.117 97.0078 247.875 96.8125 247.609 96.8125C247.375 96.8281 247.086 97 246.742 97.3281C245.867 98.1875 245.43 99.3281 245.43 100.75V105.414H247.117ZM254.828 105.602C255.906 105.602 256.633 105.273 257.008 104.617C257.148 104.383 257.219 104.125 257.219 103.844C257.219 103.188 256.742 102.625 255.789 102.156C255.586 102.047 255.25 101.891 254.781 101.688C253.5 101.156 252.648 100.656 252.227 100.188C251.773 99.6719 251.547 99.0703 251.547 98.3828C251.547 97.3047 252.141 96.5469 253.328 96.1094C253.875 95.9062 254.469 95.8047 255.109 95.8047C256.141 95.8047 257.031 96.0234 257.781 96.4609C257.781 96.0078 257.891 95.75 258.109 95.6875C258.203 95.6719 258.305 95.6641 258.414 95.6641V98.5938H257.805C257.773 97.1562 256.977 96.4297 255.414 96.4141C254.242 96.4141 253.516 96.7578 253.234 97.4453C253.156 97.6328 253.117 97.8281 253.117 98.0312C253.117 98.7031 253.602 99.2734 254.57 99.7422C254.789 99.8516 255.133 100 255.602 100.188C256.867 100.703 257.711 101.195 258.133 101.664C258.586 102.164 258.812 102.758 258.812 103.445C258.812 104.711 258.141 105.555 256.797 105.977C256.281 106.148 255.719 106.234 255.109 106.234C253.984 106.219 253.008 105.938 252.18 105.391C252.18 105.797 252.078 106.031 251.875 106.094C251.781 106.109 251.672 106.117 251.547 106.117V102.555H252.203C252.234 104.57 253.109 105.586 254.828 105.602ZM265.586 96.3906C265.18 96.3906 264.797 96.4844 264.438 96.6719C263.344 97.2188 262.758 98.3906 262.68 100.188L265.164 100.258C265.883 100.273 266.438 100.242 266.828 100.164C267.578 99.9922 267.953 99.5156 267.953 98.7344C267.953 98.3906 267.891 98.0703 267.766 97.7734C267.406 96.8516 266.68 96.3906 265.586 96.3906ZM269.664 103.75C269.57 103.969 269.461 104.188 269.336 104.406C268.539 105.625 267.297 106.234 265.609 106.234C264.547 106.234 263.602 105.961 262.773 105.414C261.383 104.477 260.688 103.039 260.688 101.102C260.688 100.039 260.906 99.0859 261.344 98.2422C262.188 96.6172 263.586 95.8047 265.539 95.8047C266.539 95.8047 267.422 96.0312 268.188 96.4844C269.266 97.1094 269.805 97.9531 269.805 99.0156C269.805 99.5938 269.594 100.039 269.172 100.352C268.625 100.742 267.398 100.922 265.492 100.891L262.68 100.844C262.695 101.5 262.766 102.102 262.891 102.648C263.312 104.602 264.344 105.578 265.984 105.578C266.125 105.578 266.273 105.57 266.43 105.555C267.648 105.398 268.531 104.727 269.078 103.539L269.664 103.75ZM274.188 104.922C274.188 105.094 274.148 105.266 274.07 105.438C273.852 105.891 273.492 106.117 272.992 106.117C272.82 106.117 272.648 106.078 272.477 106C272.023 105.781 271.797 105.422 271.797 104.922C271.797 104.75 271.836 104.578 271.914 104.406C272.117 103.938 272.477 103.703 272.992 103.703C273.164 103.703 273.328 103.742 273.484 103.82C273.953 104.039 274.188 104.406 274.188 104.922Z" fill="black"/>
</svg>
