<svg width="51" height="51" viewBox="0 0 51 51" fill="none" xmlns="http://www.w3.org/2000/svg">
<path d="M48.195 35.0767C44.71 35.0767 41.3383 34.51 38.1933 33.49C37.2017 33.15 36.0967 33.405 35.3317 34.17L30.8833 39.7517C22.865 35.9267 15.3567 28.7017 11.3617 20.4L16.8867 15.6967C17.6517 14.9033 17.8783 13.7983 17.5667 12.8067C16.5183 9.66167 15.98 6.29 15.98 2.805C15.98 1.275 14.705 0 13.175 0H3.37167C1.84167 0 0 0.68 0 2.805C0 29.1267 21.9017 51 48.195 51C50.2067 51 51 49.215 51 47.6567V37.8817C51 36.3517 49.725 35.0767 48.195 35.0767Z" fill="#D7CFB9"/>
</svg>
