<svg width="35" height="39" viewBox="0 0 35 39" fill="none" xmlns="http://www.w3.org/2000/svg">
<g clip-path="url(#clip0_269_702)">
<path d="M-6.77418 8.06896C-4.80178 10.5602 -2.07882 12.1034 0.940873 12.1034C3.96057 12.1034 6.68353 10.5602 8.65593 8.06896C10.6283 10.5602 13.3513 12.1034 16.371 12.1034C19.3907 12.1034 22.1136 10.5602 24.086 8.06897C26.0584 10.5602 28.7814 12.1034 31.8011 12.1034C34.8208 12.1034 37.5437 10.5602 39.5161 8.06897" stroke="black" stroke-width="3" stroke-miterlimit="10" stroke-linecap="round" stroke-linejoin="round"/>
<path d="M-6.77418 24.2069C-4.80178 26.6981 -2.07882 28.2414 0.940873 28.2414C3.96057 28.2414 6.68353 26.6981 8.65593 24.2069C10.6283 26.6981 13.3513 28.2414 16.371 28.2414C19.3907 28.2414 22.1136 26.6981 24.086 24.2069C26.0584 26.6981 28.7814 28.2414 31.8011 28.2414C34.8208 28.2414 37.5437 26.6981 39.5161 24.2069" stroke="black" stroke-width="3" stroke-miterlimit="10" stroke-linecap="round" stroke-linejoin="round"/>
</g>
<defs>
<clipPath id="clip0_269_702">
<rect width="35" height="39" fill="white" transform="translate(35 39) rotate(-180)"/>
</clipPath>
</defs>
</svg>
