<svg width="20" height="18" viewBox="0 0 20 18" fill="none" xmlns="http://www.w3.org/2000/svg">
<path d="M10 18C8.56171 18 7.23032 17.7813 6.00583 17.3439C4.78134 16.8875 3.72206 16.2599 2.82799 15.4612C1.93392 14.6434 1.23421 13.6926 0.728863 12.6086C0.242954 11.5055 0 10.2979 0 8.98574C0 7.69255 0.242954 6.50396 0.728863 5.41997C1.23421 4.31696 1.93392 3.36609 2.82799 2.56735C3.72206 1.7496 4.78134 1.12203 6.00583 0.684627C7.23032 0.228209 8.56171 0 10 0C11.4383 0 12.7697 0.228209 13.9942 0.684627C15.2187 1.12203 16.2779 1.7496 17.172 2.56735C18.0661 3.36609 18.7561 4.31696 19.242 5.41997C19.7473 6.50396 20 7.69255 20 8.98574C20 10.2979 19.7473 11.5055 19.242 12.6086C18.7561 13.6926 18.0661 14.6434 17.172 15.4612C16.2779 16.2599 15.2187 16.8875 13.9942 17.3439C12.7697 17.7813 11.4383 18 10 18ZM10 16.0317C11.5743 16.0317 12.9446 15.7274 14.1108 15.1189C15.277 14.5103 16.1808 13.683 16.8222 12.6371C17.483 11.5721 17.8134 10.355 17.8134 8.98574C17.8134 7.6355 17.483 6.42789 16.8222 5.36292C16.1808 4.29794 15.277 3.47068 14.1108 2.88114C12.9446 2.2916 11.5743 1.99683 10 1.99683C8.44509 1.99683 7.07483 2.2916 5.88921 2.88114C4.72303 3.47068 3.80952 4.29794 3.14869 5.36292C2.50729 6.42789 2.18659 7.6355 2.18659 8.98574C2.18659 10.355 2.50729 11.5721 3.14869 12.6371C3.80952 13.683 4.72303 14.5103 5.88921 15.1189C7.07483 15.7274 8.44509 16.0317 10 16.0317ZM5.42274 3.90808H8.30904V13.9778H5.42274V3.90808ZM10.8746 10.4691H7.58018V8.32963H10.6414C11.0301 8.32963 11.3314 8.23455 11.5452 8.04437C11.7784 7.83518 11.895 7.54992 11.895 7.18859C11.895 6.84628 11.7784 6.58003 11.5452 6.38986C11.3314 6.18066 11.0301 6.07607 10.6414 6.07607H7.58018V3.90808H10.8746C12.0603 3.90808 13.0126 4.21236 13.7318 4.82092C14.4704 5.42948 14.8397 6.2187 14.8397 7.18859C14.8397 8.1775 14.4704 8.97623 13.7318 9.58478C13.0126 10.1743 12.0603 10.4691 10.8746 10.4691ZM9.06706 9.271H12.0408L15.1604 13.9778H11.8076L9.06706 9.271Z" fill="black"/>
</svg>
